<?xml version="1.0" encoding="UTF-8"?>
<svg id="icon" xmlns="http://www.w3.org/2000/svg" version="1.1" viewBox="0 0 512 514.4">
  <!-- Generator: Adobe Illustrator 29.0.1, SVG Export Plug-In . SVG Version: 2.1.0 Build 192)  -->
  <path d="M71.8,172.3s-25.3-11.2-30.6,7.4c-3.4,11.9,8.8,21.2,25.8,27,8.6,2.9,20.8,7.8,39.2,11.9,10.3,2.3,31.1-2.1,9.9-21.7-5.3-4.9-34.6-19.7-44.4-24.6Z" fill="#e8a48d"/>
  <path d="M112.4,119.1c-7.4-7.5-16.8-2.1-20.5,0-7.9,4.5-19.2,15.7-28.1,26.1-8.8,10.3-16.2,20.3-13.6,32.7,5.3,25.9,40.4,2.2,59.3-30.4,8.2-14.2,8.5-22.7,2.9-28.3Z" fill="#e8a48d"/>
  <path d="M69.1,135.6s8.9,19.3,32.9,27.6c0,0,21.3-18.8,25.9-25.5,12.6-18.3-9.6-36.6-16.9-33.6,0,0-21.2,9.2-41.8,31.5Z" fill="#5f75bc"/>
  <g>
    <path d="M158.8,479.5s.4-8.3,1.2-29.5c2.2-57,2.1-65.7-12.9-73.7-7.6-4-26.8-18.5-30.2,13.7-3.5,32.2,12.6,89.5,12.6,89.5h29.4Z" fill="#e8a48d"/>
    <path d="M167.5,333.8l-7,112.5c-6.7,3.1-13.5,3.1-19.6,3.1-13.8,0-35.7-3.1-35.7-3.1,0,0,0-71.1,1.3-129.6.2-7.5,28-12,38.3-9.3,16.2,4.2,23.3,9.7,22.6,26.4Z" fill="#5f75bc"/>
    <path d="M204.7,485.3s-.2-19.1,4.1-38.5c4.3-19.4-42.6-27.7-39.6,2.9,2.3,23.9,3.3,35.6,3.3,35.6h32.2Z" fill="#e8a48d"/>
    <path d="M205.3,221c6.4,10.1,40,90.8,17.5,226,0,0-14.5,2.2-33.7,2.4-10,.1-20-2-20-2,0,0-4.6-42.7,2.3-111.2.5-4.8-37.4-112.1-30.4-123,5.8-9.1,64.4,7.8,64.4,7.8Z" fill="#5f75bc"/>
    <path d="M122.6,215.6s-17.3,3-19.5,40.8c-1.3,22.3,2.2,39,3.4,60.4,1,16.4,28.2,48.7,40.1,46.9,11.9-1.8,21.1-17.9,20.9-29.8-.2-11.9-.5-110.4-.5-110.4,0,0-25.6-6.6-44.4-7.8Z" fill="#5f75bc"/>
    <path d="M172,480.2l-1-11.9s15.7-4,34.6-.3v14.9c0,0-22.9,7.3-33.6-2.7Z" fill="#5f75bc"/>
    <path d="M176.1,475.1c-2.9-1-5.8,1.4-5.6,4.4.2,3.6.5,9.2.5,16s0,17.2,0,17.2c0,0,12.8,1.5,22,.9v-4.1s4.7,3.9,15.7,4.6c11,.8,38.2,0,42,.2,0,0,3.1-14.2-7.2-18.1-10.3-3.9-23.3-3.8-26.5-4.6-4.6-1.1-8.7-3.3-10-11.8,0,0,.7-9-16.4,2.2-5,3.2-9.8-5.4-14.5-7Z" fill="#f4ebe4"/>
    <path d="M159.3,481.1v-12.6s-13.9-2.2-32.6.3l2,12.2s23.7,7,30.6,0Z" fill="#5f75bc"/>
    <path d="M126.2,479.8s-.5,4.2-4.3,10c-6.1,9.3-6.5,23.2-.4,24.1,6.7.9,26.8.7,34.3,0s11-1.3,7.8-16.2c-1.3-6-1.7-15.2-4.7-19.4-4.6-6.4-10.4,4.2-16.9,2.9-7.3-1.5-13.1-9.9-15.7-1.4Z" fill="#f4ebe4"/>
    <path d="M211.7,129.8c-3.9,1.3-6.6,3.3-8.5,6.9-2.9,5.7,1.5,38.9,4.7,51.6,3.3,13,4.8,21.7,15.8,27.5,23.1,12.1,27-29.5,13.9-64.3-5.7-15.2-16.4-24.9-26-21.7Z" fill="#e8a48d"/>
    <path d="M200.6,168.8s23.3,7.3,42.8-4.9c0,0-5.8-31.4-14.7-44.8-12.2-18.4-23.6-2.8-26.6,4.7,0,0-1.9,14.1-1.5,45Z" fill="#5f75bc"/>
    <path d="M165.1,95s-67.9-3.7-73.8,33.5c-.8,5.3,18.1,40.3,19.6,61.5.9,12.3-8.2,49.5-11.9,72.1,0,0,24.8,9.8,60.3,8.4,37.9-1.4,60.4-6.4,60.4-6.4l-12.6-56.5c-3-13.2-2.8-27,.7-40.1,7.2-27.4,21.1-48,21.1-48-8.2-16.9-35.8-21.2-35.8-21.2-25.8-3.7-28-3.3-28-3.3Z" fill="#5f75bc"/>
    <ellipse cx="159.4" cy="104.8" rx="25.7" ry="8.1" fill="#e8a48d"/>
    <path d="M100.8,153c-.5,0-.9-.3-1-.8-1.6-6.8-2.6-13.4-3-19.5,0-.6.4-1.1,1-1.1.6,0,1.1.4,1.1,1,.4,6.1,1.4,12.5,2.9,19.2.1.6-.2,1.1-.8,1.2,0,0-.2,0-.2,0Z" fill="#483432"/>
    <path d="M209.2,161.2c0,0-.1,0-.2,0-.6-.1-.9-.7-.8-1.2,0,0,2.2-9.7,8.9-26,.2-.5.8-.8,1.4-.6.5.2.8.8.6,1.4-6.6,16.2-8.8,25.6-8.8,25.7-.1.5-.5.8-1,.8Z" fill="#483432"/>
    <path d="M211,499.6c0,0-.2,0-.3,0-.6-.1-.9-.7-.7-1.3,0-.3,1.6-6.2,6.7-7.6.5-.2,1.1.2,1.3.7.2.6-.2,1.1-.7,1.3-3.9,1.1-5.2,6.1-5.2,6.1-.1.5-.5.8-1,.8Z" fill="#483432"/>
    <path d="M218.7,500.8c0,0-.2,0-.2,0-.6-.1-.9-.7-.8-1.2,0-.2,1.3-5.4,6.6-8,.5-.2,1.1,0,1.4.5.3.5,0,1.1-.5,1.4-4.3,2.1-5.5,6.5-5.5,6.6-.1.5-.5.8-1,.8Z" fill="#483432"/>
    <path d="M132.5,497.9c-.4,0-.8-.2-1-.6-.2-.5,0-1.1.6-1.4,10.8-4.5,18.2-.1,18.5,0,.5.3.6.9.3,1.4-.3.5-.9.6-1.4.3,0,0-6.9-4-16.7,0-.1,0-.3,0-.4,0Z" fill="#483432"/>
    <path d="M132.5,490.8c-.4,0-.8-.2-1-.6-.2-.5,0-1.1.6-1.4,10.8-4.5,18.2-.1,18.5,0,.5.3.6.9.3,1.4-.3.5-.9.6-1.4.3,0,0-6.9-4-16.7,0-.1,0-.3,0-.4,0Z" fill="#483432"/>
    <path d="M159.9,270.5s0,0,0,0c-.6,0-1-.5-1-1.1,2.5-44.3-1.1-152.7-1.2-153.7,0-.6.4-1.1,1-1.1.6,0,1.1.4,1.1,1,0,1.1,3.7,109.5,1.2,153.9,0,.6-.5,1-1,1Z" fill="#483432"/>
    <rect x="179" y="145.8" width="21.5" height="4.9" transform="translate(379.5 296.5) rotate(180)" fill="#f4ebe4"/>
    <path d="M159.3,270.5c-34.3,0-55.1-5.6-55.5-5.6-.6-.2-.9-.7-.7-1.3.2-.6.7-.9,1.3-.7.4.1,45.3,12.1,112.3.6.6,0,1.1.3,1.2.8,0,.6-.3,1.1-.8,1.2-21.8,3.7-41.3,5-57.7,5Z" fill="#483432"/>
    <path d="M137.8,87.5s1.9,13.6,1.7,18.8c0,0,10.3.9,25.9-2.6,15.6-3.4,12.5-10.1,12.5-10.1,0,0-3-11.6-2.9-21.9l-37.1,15.7Z" fill="#e8a48d"/>
    <g>
      <path d="M170,49s2.3,20,10.4,27.8l5.9-.7s24.9-3.7,5.1-27.8c0,0-15.3-18.6-21.4.6Z" fill="#483432"/>
      <path d="M142.8,8.8h0c17.7-2.6,34.1,9.7,36.7,27.3l2.8,19c-1.1,28.1-14.6,34.9-27.3,36.7h0c-18.1,2.6-32.5-9.9-35.1-27.6l-2.8-19c-2.6-17.7,8-33.9,25.7-36.5Z" fill="#e8a48d"/>
      <ellipse cx="136.1" cy="55.5" rx="2.2" ry="2.4" transform="translate(-6.6 20.3) rotate(-8.3)" fill="#483432"/>
      <ellipse cx="159.1" cy="51.9" rx="2.2" ry="2.4" transform="translate(-5.8 23.6) rotate(-8.3)" fill="#483432"/>
      <path d="M146.2,61.8c-.5,0-1-.4-1-.9,0-1,.3-3.1,2.5-3.5,1.8-.3,3.2,1.1,3.7,2,.3.5.1,1.1-.4,1.4-.5.3-1.1.1-1.4-.4,0,0-.7-1.1-1.5-1-.8.2-.9,1.1-.8,1.3,0,.6-.4,1.1-1,1.1,0,0,0,0,0,0Z" fill="#483432"/>
      <path d="M149.6,72.1c-3.2,0-5.6-1.4-5.6-1.4-.5-.3-.7-.9-.4-1.4.3-.5.9-.7,1.4-.4h0c.3.2,6.4,3.6,11.2-2.3.4-.4,1-.5,1.5-.2.4.4.5,1,.2,1.5-2.7,3.3-5.7,4.2-8.3,4.2Z" fill="#483432"/>
      <path d="M160.7,18.2s-4.5,16.5-23.1,20.9c0,0-11.4,1.5-12.6,11.9,0,0,2,7.7,2.2,10,.7,9.2-6.1,17.9-10.1,20.5l-5.7-1.2s-11.2-7-3-29.8c0,0-6.4-1.6-1.9-13.9,0,0,22.5-55.1,53.6-29.9l.5,11.6Z" fill="#483432"/>
      <path d="M158.7,7.9s.9-3.5,4.7-2.6c6.8,1.5,35.5,20.5,24.3,40.3l-5.2,2.8s-22.2-17.8-23.5-30.5l-.4-10Z" fill="#483432"/>
      <path d="M183.2,43c2.8-.4,9.6,2.1,8.3,11.2-1.3,9.1-12.9,7.7-12.9,7.7l-2.5-15.6c2.4-1.7,4.2-2.8,7.1-3.2Z" fill="#e8a48d"/>
      <path d="M179.8,53.5c0,0-.1,0-.2,0-.6,0-1-.6-.9-1.2.2-1.5,1.6-4.4,5.3-4.5.6,0,1,.4,1.1,1,0,.6-.4,1-1,1.1-2.8,0-3.3,2.5-3.3,2.7,0,.5-.5.9-1,.9Z" fill="#483432"/>
      <path d="M124.9,19.4c-.2,0-.5,0-.7-.2-.4-.4-.5-1-.1-1.5,6.1-7.4,12.3-11.4,18.4-11.9,5.8-.5,9.3,2.4,9.4,2.6.4.4.5,1,.1,1.5-.4.4-1,.5-1.5.1,0,0-3-2.5-7.9-2.1-5.5.5-11.2,4.2-16.9,11.2-.2.2-.5.4-.8.4Z" fill="#f4ebe4"/>
      <path d="M101.6,46.6c0,0-.1,0-.2,0-.6,0-1-.6-.9-1.2,2.9-18.1,15-22.4,15.5-22.6.5-.2,1.1.1,1.3.6.2.5-.1,1.1-.6,1.3,0,0-2.9,1-6,4.1-2.9,2.8-6.7,8.1-8.1,16.9,0,.5-.5.9-1,.9Z" fill="#483432"/>
      <path d="M180.8,37.9c-.2,0-.5,0-.7-.3-8-6.9-12.8-17.2-13-17.6-.2-.5,0-1.1.5-1.4.5-.2,1.1,0,1.4.5,0,.1,4.8,10.3,12.5,16.9.4.4.5,1,.1,1.5-.2.2-.5.4-.8.4Z" fill="#f4ebe4"/>
      <path d="M173.3,44.8c-.2,0-.4,0-.6-.2-14.3-10.5-12-23.5-11.9-24,.1-.6.6-.9,1.2-.8.6.1.9.6.8,1.2h0c0,.5-2.1,12.3,11.1,22,.5.3.6,1,.2,1.4-.2.3-.5.4-.8.4Z" fill="#483432"/>
      <path d="M178.6,17.4c-.5,0-.9-.3-1-.8,0,0-2.1-7.2-9.1-10.5-3.4-1.6-5.3-1.5-6.4-1.1-1.1.4-1.4,1.2-1.5,1.3-.2.5-.8.8-1.3.6-.5-.2-.8-.8-.6-1.3,0-.2.7-1.6,2.6-2.4,2.1-.8,4.8-.5,8.1,1.1,7.9,3.8,10.1,11.5,10.2,11.8.2.6-.2,1.1-.7,1.3,0,0-.2,0-.3,0Z" fill="#483432"/>
    </g>
    <path d="M151.4,93.3c-7.1,0-12.3-2.2-12.4-2.2-.5-.2-.8-.8-.5-1.4.2-.5.8-.8,1.4-.5.2,0,18,7.5,32.2-6.3.4-.4,1.1-.4,1.5,0,.4.4.4,1.1,0,1.5-7.3,7.1-15.5,8.9-22,8.9Z" fill="#483432"/>
    <path d="M118.8,80.1s13.5,22.8,4.4,33c-9.1,10.2-23.4,4.3-23.4,4.3,0,0,4.6-1.7,2.8-12-2.1-11.5-2.8-16.1,9-27.1l7.3,1.9Z" fill="#483432"/>
    <path d="M113.7,81.6c-.4,0-.7-.2-.9-.6,0-.2-8.3-16.2,1.9-28.8.4-.4,1-.5,1.5-.2.4.4.5,1,.2,1.5-9.3,11.5-1.7,26.4-1.6,26.6.3.5,0,1.1-.4,1.4-.2,0-.3.1-.5.1Z" fill="#f4ebe4"/>
    <path d="M109.5,78.5c5.4,2.9,9.8,1.1,9.8,1.1,0,0,3,3.5-1.6,4.7-3.6,1-8.1-.4-9.3-1.9-1.8-2.2,1.1-3.9,1.1-3.9Z" fill="#f4ebe4"/>
    <path d="M181.3,74.7s-14.8,21.8-6.7,32.8c8.1,11,22.9,6.4,22.9,6.4,0,0-4.5-2.2-1.6-12.2,3.2-11.3,6-15.6-4.6-27.7l-10,.7Z" fill="#483432"/>
    <path d="M192.8,73.9c-8.7,4.2-13.5,1.9-13.5,1.9,0,0-.7,3.3,2.9,4.7,3.6,1.3,7.9-.4,9.5-1.6,2.9-2.3,1.1-4.9,1.1-4.9Z" fill="#f4ebe4"/>
  </g>
  <g>
    <path d="M55.8,473.6c-.5,0-.9-.3-1-.8-.1-.6.2-1.1.7-1.3l400.4-107.3c.6-.1,1.1.2,1.3.7s-.2,1.1-.7,1.3L56,473.6c0,0-.2,0-.3,0Z" fill="#483432"/>
    <path d="M456.2,473.6c0,0-.2,0-.3,0L55.5,366.3c-.6-.1-.9-.7-.7-1.3.1-.6.7-.9,1.3-.7l400.4,107.3c.6.1.9.7.7,1.3-.1.5-.5.8-1,.8Z" fill="#483432"/>
    <rect x="50.3" y="334.3" width="10.9" height="180.1" rx="5.5" ry="5.5" fill="#483432"/>
    <rect x="450.8" y="334.3" width="10.9" height="180.1" rx="5.5" ry="5.5" fill="#483432"/>
  </g>
  <rect x="0" y="320.3" width="512" height="30.4" rx="15.2" ry="15.2" fill="#f0d595"/>
  <rect x="13.4" y="293.9" width="102.6" height="41.2" rx="20.6" ry="20.6" fill="#5f75bc"/>
  <g>
    <path d="M448.6,295.1s-34.4-3.2-52.7-3.3c-17.3-.1-26.6,36.8,0,34.2,20.8-2,52.7-2.9,52.7-2.9v-28Z" fill="#e8a48d"/>
    <path d="M450.5,263.6s-31.5-4-53.1-8.1c-17-3.2-33.8,36.3-7.1,36.1,20.9-.1,57.7-.1,57.7-.1l2.5-27.9Z" fill="#e8a48d"/>
    <path d="M232.1,333.1s15.8,10.2,38.8,6.9c23-3.3,49.2-8.6,70.9-10.2,0,0,8.9-10.1,5.5-23.6-3.4-13.5-11.9-20.1-30.5-20.3-18.5-.2-61.8-5.6-80.6.2-18.8,5.8-12.4,39.7-4.1,47Z" fill="#483432"/>
    <path d="M331,330.8s15.9,4.8,40.4,0c24.5-4.8,37.9-5.9,37.9-5.9,0,0,5.6-22-1.6-32.8,0,0-61.8-6.3-90.9-6.3-29,0-15.2,43.3,14.1,44.9Z" fill="#483432"/>
    <path d="M231.4,283.2s14.8,11.5,38,10.3c23.2-1.2,49.8-4.1,71.5-3.8,0,0,9.8-9.2,7.6-23-2.2-13.8-10.1-21.1-28.5-23-18.4-1.8-61.1-11.1-80.3-7-19.3,4.1-15.9,38.4-8.3,46.5Z" fill="#483432"/>
    <path d="M330.1,289.8s15.3,5.3,40.3,3.6c22.2-1.5,38.1-1.9,38.1-1.9,0,0,7.5-22.5,1.3-33.8,0,0-60.8-11.3-89.7-13.9-28.9-2.6-19,41.8,10.1,46Z" fill="#483432"/>
    <path d="M26.3,287.4c-.4-10.4,2.8-23.5,16-29.9,14.8-7.2,65.9.5,84.8,12.5,18.9,11.9,5.3,47.5-18.5,50.4-43.1,5.1-57,2.9-70.3-8.3-5.1-4.4-11.8-15.8-12.1-24.6Z" fill="#483432"/>
    <path d="M117.1,294.2s-1.6,42.8,24.1,44.5,17-3,51.5-5.7c10.7-.9,35.4,1.8,47.7,4,0,0,9.2-29.6,8.5-48.4-1.4-38.6-10.8-53.8-10.8-53.8l-59,7.9c-33.8-2.9-51.3-12.1-51.3-12.1-6.1,7.5-8.2,26.4-8.2,26.4-3.2,22.4-2.6,37.2-2.6,37.2Z" fill="#f4ebe4"/>
    <path d="M121.7,162.7s26.7.6,25.1,18c-1,11.1-18.1,12.2-34.3,11.5-8.2-.3-20.8-1.5-44.3-3.4-9.5-.8-21.8-15.6,6.1-20.5,14.3-2.5,28.9-6.8,47.3-5.5Z" fill="#e8a48d"/>
    <path d="M134.1,247.1c-3.7-.3-6.4-1.4-8.9-4.1-3.7-4.3-7-38.7-7.3-45.7-.5-12,1.4-23.3,7.6-27.3,19.6-12.6,32.6,14,29.9,60.1-.8,14.5-12.4,17.7-21.3,17.1Z" fill="#e8a48d"/>
    <path d="M118,213.3s13.1-3.7,38.7-2.3c0,0,4.4,18.4,2.1,32.7-2.8,17.8-34.3,22.3-39.4,15.5,0,0-3.1-19.2-1.4-45.8Z" fill="#f4ebe4"/>
    <path d="M142,261c-.4,0-.7-.2-.9-.6-.3-.5,0-1.1.4-1.4,11.6-6,16.3-15.8,16.3-15.9.2-.5.9-.7,1.4-.5.5.2.7.9.5,1.4-.2.4-5,10.5-17.2,16.8-.2,0-.3.1-.5.1Z" fill="#483432"/>
    <path d="M119.3,193.3c-.5,0-.9-.4-1-.9,0-.6.3-1.1.9-1.2,0,0,5.5-.8,10.3-3.9.5-.3,1.1-.2,1.4.3.3.5.2,1.1-.3,1.4-5.1,3.4-10.9,4.2-11.1,4.2,0,0,0,0-.1,0Z" fill="#483432"/>
    <g>
      <path d="M77.5,172.5c4.4,6.1,3.5,12.8-3.5,15.4-6.7,2.5-11.2,4.3-16.3,5-11.4,1.5-22.9-3.9-23.5-4.8-2.9-3.8,12.3-.3,12.3-.3,0,0-10.4-3.3-12.6-4.5-2.2-1.3-3-3.6-.9-4.3,2.1-.7,7.3,2.5,12.3,3.4,0,0-18.4-5-12.7-8.8,0,0-2.1-3.7,3-3,5.1.8,11.4,2,12.3,2.3,0,0,11-5.3,20-4.9,3,.1,8.2,2.2,9.8,4.4Z" fill="#e8a48d"/>
      <path d="M46.7,178.7s0,0-.1,0c-7.3-.7-14.3-3.9-14.6-4-.5-.2-.8-.8-.5-1.4.2-.5.8-.8,1.4-.5,0,0,7,3.1,14,3.8.6,0,1,.6.9,1.1,0,.5-.5.9-1,.9Z" fill="#483432"/>
      <path d="M50.1,173.8s-7.7-3.2-8.3-5.1c-1.2-3.3,4.5-2.7,8.2-2.3s9.2-.5,18.9,1.9c1.6.4-18.8,5.6-18.8,5.6Z" fill="#e8a48d"/>
    </g>
    <g>
      <g>
        <path d="M29.1,279.6h0c.2,17.6,14.7,31.8,32.3,31.6l19.1-2.8c34.1-5.4,31.4-32.6,31.4-32.6-.2-18-14.5-27.3-32.1-27.1l-19,.2c-17.6.2-31.8,13-31.6,30.7Z" fill="#e8a48d"/>
        <path d="M48.6,249.3c3.8-1.7,15.1,4.9,20,13.3,0,0,7.4,21.1,5.9,31s-27.8,18.8-38.2,12.3c0,0-15.7-9.3-9-32.5,0,0,4.6-16.8,21.3-24.1Z" fill="#483432"/>
        <path d="M106.5,311.2s21.3-52.6-4.6-53.4c-76.8-2.2-65.6,41.8-61,48.5,4.9,7.1,13.1,11,21.5,10.7,12-.4,42.2,1.1,44.1-5.9Z" fill="#483432"/>
        <g>
          <path d="M68.7,262.6c-.3,2.8,2.3,9.4,11.2,8,9-1.5,7.2-12.9,7.2-12.9l-12.5-5.8c-5.5,6.3-5.7,8-6,10.8Z" fill="#e8a48d"/>
          <path d="M74,263.8s0,0,0,0c-.6,0-1-.5-1-1.1.1-1.6,1.3-4.8,5.2-5.8.6-.1,1.1.2,1.3.7.1.6-.2,1.1-.7,1.3-3.3.9-3.6,3.8-3.6,4,0,.5-.5,1-1,1Z" fill="#483432"/>
        </g>
      </g>
      <path d="M105.3,340.9h0c-.6,0-1-.5-1-1,0-.2-.1-5.8-5.9-10.1-6.1-4.6-18.1-8.7-18.2-8.8-.5-.2-.8-.8-.6-1.3s.8-.8,1.3-.6c.5.2,12.4,4.3,18.8,9.1,6.7,5,6.7,11.5,6.7,11.8,0,.6-.5,1-1,1Z" fill="#483432"/>
      <path d="M43.1,277.5c1.7-2.4,13.7-8.5,24.2-8.3,5,0,21.6-2.4,28.8-7.4,9.9-6.9,35.2-12.4,46.4,3.3,9,12.7,8.3,55-1.1,63.3-5.1,4.5-12.6,10.2-30.6,3.6-22.9-8.4-81.9-34.2-67.7-54.4Z" fill="#483432"/>
      <path d="M63.2,258.6c-.4,0-.7-.2-.9-.5-.3-.5-.1-1.1.4-1.4,8.9-5.2,18.7-6.3,26.3-2.7.5.2.7.9.5,1.4-.2.5-.9.7-1.4.5-7-3.2-16.1-2.3-24.4,2.6-.2,0-.3.1-.5.1Z" fill="#483432"/>
      <path d="M131.4,266.9c-.2,0-.3,0-.5-.1-12.5-6.9-27.1-.3-27.3-.2-.5.2-1.1,0-1.4-.5-.2-.5,0-1.1.5-1.4.6-.3,15.7-7.1,29.1.3.5.3.7.9.4,1.4-.2.3-.5.5-.9.5Z" fill="#f4ebe4"/>
      <path d="M108.5,272.5c-.4,0-.8-.3-1-.7-.2-.5.1-1.1.7-1.3,10-3.2,16.4-.2,16.7-.1.5.2.7.9.5,1.4-.2.5-.9.7-1.4.5,0,0-6.1-2.7-15.2.2-.1,0-.2,0-.3,0Z" fill="#f4ebe4"/>
      <path d="M123.5,326.9c-5.4,0-9.9-1.6-10-1.6-.5-.2-.8-.8-.6-1.3.2-.5.8-.8,1.3-.6.2,0,17.2,5.9,22.6-5.8.2-.5.9-.7,1.4-.5.5.2.7.9.5,1.4-3.2,6.8-9.6,8.5-15.1,8.5Z" fill="#f4ebe4"/>
      <path d="M125,317.7c-.7,0-1.2,0-1.2-.1-.6-.1-.9-.7-.8-1.2.1-.6.7-.9,1.2-.8.2,0,5.2.9,8.7-5.5.3-.5.9-.7,1.4-.4.5.3.7.9.4,1.4-3.2,5.9-7.6,6.7-9.7,6.7Z" fill="#f4ebe4"/>
    </g>
    <path d="M280.4,295c-.3,0-.7-.2-.9-.5-.3-.5-.2-1.1.3-1.4,4.2-2.7,7.8-6.8,7.8-6.9.2-.2.5-.4.8-.4l114.7,4.8c.6,0,1,.5,1,1.1,0,.6-.5,1-1.1,1l-114.3-4.7c-1,1.1-4.2,4.4-7.9,6.9-.2.1-.4.2-.6.2Z" fill="#f4ebe4"/>
    <path d="M178.3,320c-.4,0-.8-.3-1-.7-.2-.5.1-1.1.6-1.3.3,0,27-9.6,36.8-34.8.2-.5.8-.8,1.3-.6.5.2.8.8.6,1.3-10.1,26.2-37.8,36-38,36.1-.1,0-.2,0-.3,0Z" fill="#483432"/>
    <path d="M193.1,305.4c-.3,0-.7-.2-.9-.5-.3-.5-.2-1.1.3-1.4.2-.1,15.1-10.4,22.2-32.3.2-.5.8-.8,1.3-.7.5.2.8.8.7,1.3-7.3,22.7-22.4,33-23,33.4-.2.1-.4.2-.6.2Z" fill="#483432"/>
    <path d="M433,320.1s9.9,4.5,29.5,3.2c19.6-1.3,21.1-4.2,22.7-9.2,1.6-5,.5-15.9-1.2-18.8-3.8-6.4-10.3-8.2-15.8-6.1-5.5,2.1-16.5,6.2-20,5.8s-17.7-.5-17.7-.5l2.4,25.7Z" fill="#e8a48d"/>
    <path d="M432.7,288.3s10,4.5,29.9,3.2c15.8-1.1,21-5.9,21.9-8.7,1.4-4.7,1.1-8.1-.8-11-2.6-3.8-7.9-7.5-19.8-8.3s-17.7-.7-21.2-1c-3.5-.3-12.5-.2-12.5-.2l2.5,26.1Z" fill="#e8a48d"/>
  </g>
  <g>
    <path d="M97.6,194c-7,5.6-6,16.5,1.7,21.1,5.2,3,13.5,7.8,19.1,10.3,8.7,4,19.2,1.9,20.1,1.2,4.5-3.5-15.5-5.7-15.5-5.7,0,0,13.3,1.4,16.3.6,2.9-.8,7.5-3.3,5.3-4.8-2.2-1.4-11.8.9-18-2.3,0,0,22.9.1,17.5-6.1,0,0,3.6-3.6-2.5-4.4-6.1-.8-13.8-1.4-14.9-1.3,0,0-9.2-8.5-19.7-11-3.5-.8-6.8.2-9.4,2.2Z" fill="#e8a48d"/>
    <path d="M135.7,209.9c-2.6,0-5.7-.1-9.1-.5-.6,0-1-.6-.9-1.1,0-.6.6-1,1.1-.9,8.9,1,16,.1,16.1.1.6,0,1.1.3,1.2.9,0,.6-.3,1.1-.9,1.2-.2,0-3.1.4-7.5.4Z" fill="#483432"/>
  </g>
  <g>
    <path d="M207,201.5s10.8-27.5,28.3-19.3c11.2,5.3,10.2,20.6,3.4,37.2-3.5,8.4-7,19-24.9,43.8-6.2,8.6-26.8,21.4-21.3-9.5,2.8-15.9,6.2-33.5,14.5-52.2Z" fill="#e8a48d"/>
    <g>
      <path d="M210.6,259.3c-1.5-8.8-11.5-13.3-19.3-8.7-5.2,3-13.4,8-18.3,11.7-7.7,5.7-11,15.8-10.8,17,.8,5.7,12.5-10.8,12.5-10.8,0,0-7.7,11-8.4,13.9-.7,2.9-.7,8.1,1.6,7,2.3-1.2,4.9-10.7,10.8-14.7,0,0-11.2,19.9-3.2,18.2,0,0,1.4,4.9,5,0,3.6-5,7.9-11.4,8.4-12.4,0,0,11.9-3.9,19.1-11.9,2.4-2.7,3.1-6,2.6-9.3Z" fill="#e8a48d"/>
      <path d="M175.8,293c-.1,0-.3,0-.4,0-.5-.2-.8-.8-.6-1.3.1-.3,2.8-6.9,8.2-14.4.3-.5,1-.6,1.4-.2.5.3.6,1,.2,1.4-5.2,7.3-7.9,13.9-7.9,14-.2.4-.6.6-1,.6Z" fill="#483432"/>
    </g>
    <path d="M211.5,195.8c-.3,0-.7-.2-.9-.5-.3-.5-.2-1.1.3-1.4.2-.1,5.3-3.2,12.5-3.5.5,0,1.1.4,1.1,1,0,.6-.4,1.1-1,1.1-6.7.2-11.4,3.1-11.5,3.2-.2.1-.4.2-.5.2Z" fill="#483432"/>
  </g>
  <path d="M71.2,169.9c0,0-.2,0-.3,0-.1,0-11-2.9-19.2-2.3-.6,0-1.1-.4-1.1-1,0-.6.4-1.1,1-1.1,7.9-.5,17.7,1.9,19.6,2.3,5.2-1.4,24.5-4.7,25.3-4.8.6,0,1.1.3,1.2.9,0,.6-.3,1.1-.9,1.2-.2,0-20.8,3.5-25.4,4.9,0,0-.2,0-.3,0Z" fill="#483432"/>
  <path d="M52.5,194.2c-5,0-7.9-1-8.1-1.1-.5-.2-.8-.8-.6-1.3.2-.5.8-.8,1.3-.6.1,0,10.3,3.5,25.7-3.2.2,0,.3,0,.5,0,.2,0,17.2,1.4,36.5,3,.6,0,1,.5.9,1.1,0,.6-.5,1-1.1.9-18.1-1.5-34.1-2.8-36.3-3-7.8,3.3-14.3,4.2-18.9,4.2Z" fill="#483432"/>
  <path d="M143.3,209.5c-.4,0-.9-.3-1-.7-.2-.5.1-1.1.7-1.3.5-.1.8-.5.8-.9,0-.4-.1-.8-.5-1-1-.5-9.3-1.3-16.8-1.8-.2,0-.4-.1-.6-.3-3.8-3.3-7.4-5.5-7.5-5.5-.5-.3-.6-.9-.4-1.4.3-.5.9-.7,1.4-.4.1,0,3.6,2.2,7.5,5.5,5,.3,15.9,1,17.4,2.1,1.1.7,1.6,1.9,1.4,3.1-.2,1.2-1.1,2.2-2.3,2.6,0,0-.2,0-.3,0Z" fill="#483432"/>
  <path d="M462.6,292.6c-.4,0-.7-.2-.9-.5-.3-.5,0-1.1.4-1.4.2-.1,5.3-2.8,14.3-2.3.6,0,1,.5,1,1.1,0,.6-.5,1-1.1,1-8.3-.5-13.2,2.1-13.2,2.1-.2,0-.3.1-.5.1Z" fill="#483432"/>
</svg>