<?xml version="1.0" encoding="UTF-8"?>
<svg id="icon" xmlns="http://www.w3.org/2000/svg" version="1.1" viewBox="0 0 512 515.5">
  <!-- Generator: Adobe Illustrator 29.0.1, SVG Export Plug-In . SVG Version: 2.1.0 Build 192)  -->
  <path d="M489.2,283.2s-4.2-7.5-35.2-8.2-35.4,4.6-35.4,4.6l1.8,19.5s72.1,11.6,68.9-15.9Z" fill="#e8a48d"/>
  <g>
    <path d="M374.9,128.1c9.9-3.6,16.1,5.4,18.5,8.8,5.2,7.5,10.6,22.4,14.1,35.6,3.5,13.1,5.8,25.3-1.8,35.3-16,21-37.4-15.5-40.3-53-1.3-16.4,2.1-24.1,9.6-26.8Z" fill="#e8a48d"/>
    <path d="M406.9,161.7s-16.3,13.5-41.6,10.7c0,0-11-26.2-12.3-34.2-3.4-22,24.5-28.8,29.8-23,0,0,15.1,17.4,24.1,46.5Z" fill="#5f75bc"/>
    <path d="M337,16.1s7.5-21.5,23.6-12.1c4.6,2.7,8.1,7,9.7,12.1,1,3.3,2,7.9,2.3,14.1.7,15,20.5,17.1,20.5,17.1,0,0,17.3,3.1,11.7,26.5,0,0-4.4,13.2,1.9,22.2,0,0-2,2.8-5.4,4.1,0,0-4.1-8.5-4.3-13.3,0,0-2.2,6.1,1.5,13.2,0,0-1.9,1.6-3.4,1.4,0,0-4.8-5.6-4.1-22.7,0,0-3.2,12.4,1.4,23.6,0,0-4.1,2.1-10.6,2,0,0-3.2-10-2.2-17.4,0,0-3.9,7.7-3.2,18,0,0-16,3.2-22.3,1.8,0,0-16.8-54.2-17-75.3v-15.4Z" fill="#483432"/>
    <path d="M408.5,80.6s0,0-.1,0c-.6,0-1-.6-.9-1.2,3-21.9-9.9-27.3-10-27.4-.5-.2-.8-.8-.6-1.3.2-.5.8-.8,1.3-.6.6.2,14.5,6.1,11.3,29.6,0,.5-.5.9-1,.9Z" fill="#483432"/>
    <path d="M384.4,78.1c-.1,0-.2,0-.3,0-.5-.2-.9-.7-.7-1.3,1.6-5.1,1.4-8.9-.3-11.4-1.9-2.7-5.1-2.8-5.2-2.8-.6,0-1-.5-1-1.1,0-.6.5-1,1.1-1,.2,0,4.3.2,6.8,3.7,2.1,3,2.4,7.5.6,13.2-.1.4-.5.7-1,.7Z" fill="#f4ebe4"/>
    <path d="M395.3,76.1c0,0-.2,0-.3,0-.6-.1-.9-.7-.7-1.3,2.2-8.4.7-11.9-.7-13.8-2.4-3.4-9.2-5.2-9.2-5.2-.6-.1-.9-.7-.7-1.3.1-.6.7-.9,1.3-.7.3,0,7.6,2,10.4,6.1,2.5,3.6,2.8,8.5,1,15.6-.1.5-.5.8-1,.8Z" fill="#f4ebe4"/>
    <path d="M354.6,19.7s-5.1-8.1-14.4-14.2c0,0,4.7-9.5,14.6.9,8.8,9.3-.2,13.2-.2,13.2Z" fill="#f4ebe4"/>
    <path d="M349.7,107.8c-.4,0-.8-.3-1-.7,0-.3-8.2-25.6-2.1-48.4.2-.6.7-.9,1.3-.7.6.1.9.7.7,1.3-6,22.2,2,46.9,2,47.2.2.5-.1,1.1-.7,1.3-.1,0-.2,0-.3,0Z" fill="#483432"/>
    <path d="M321.8,480.6s-.4-8.3-1.2-29.5c-2.2-57-2.1-65.7,12.9-73.7,7.6-4,26.8-18.5,30.2,13.7,3.5,32.2-12.6,89.5-12.6,89.5h-29.4Z" fill="#e8a48d"/>
    <path d="M313.2,334.9l7,112.5c6.7,3.1,13.5,3.1,19.6,3.1,13.8,0,35.7-3.1,35.7-3.1,0,0,0-71.1-1.3-129.6-.2-7.5-28-12-38.3-9.3-16.2,4.2-23.3,9.7-22.6,26.4Z" fill="#5f75bc"/>
    <path d="M275.9,486.3s.2-19.1-4.1-38.5c-4.3-19.4,42.6-27.7,39.6,2.9-2.3,23.9-3.3,35.6-3.3,35.6h-32.2Z" fill="#e8a48d"/>
    <path d="M275.3,222.1c-6.4,10.1-40,90.8-17.5,226,0,0,14.5,2.2,33.7,2.4,10,.1,20-2,20-2,0,0,4.6-42.7-2.3-111.2-.5-4.8,37.4-112.1,30.4-123-5.8-9.1-64.4,7.8-64.4,7.8Z" fill="#5f75bc"/>
    <path d="M358,216.6s17.3,3,19.5,40.8c1.3,22.3-2.2,39-3.4,60.4-1,16.4-28.2,48.7-40.1,46.9-11.9-1.8-21.1-17.9-20.9-29.8.2-11.9.5-110.4.5-110.4,0,0,25.6-6.6,44.4-7.8Z" fill="#5f75bc"/>
    <path d="M308.6,481.2l1-11.9s-15.7-4-34.6-.3v14.9c0,0,22.9,7.3,33.6-2.7Z" fill="#5f75bc"/>
    <path d="M304.6,476.2c2.9-1,5.8,1.4,5.6,4.4-.2,3.6-.5,9.2-.5,16,0,9.2,0,17.2,0,17.2,0,0-12.8,1.5-22,.9v-4.1s-4.7,3.9-15.7,4.6c-11,.8-38.2,0-42,.2,0,0-3.1-14.2,7.2-18.1,10.3-3.9,23.3-3.8,26.5-4.6,4.6-1.1,8.7-3.3,10-11.8,0,0-.7-9,16.4,2.2,5,3.2,9.8-5.4,14.5-7Z" fill="#f4ebe4"/>
    <path d="M321.3,482.1v-12.6s13.9-2.2,32.6.3l-2,12.2s-23.7,7-30.6,0Z" fill="#5f75bc"/>
    <path d="M354.4,480.8s.5,4.2,4.3,10c6.1,9.3,6.5,23.2.4,24.1-6.7.9-26.8.7-34.3,0-7.5-.7-11-1.3-7.8-16.2,1.3-6,1.7-15.2,4.7-19.4,4.6-6.4,10.4,4.2,16.9,2.9,7.3-1.5,13.1-9.9,15.7-1.4Z" fill="#f4ebe4"/>
    <path d="M271.9,127c3.6,2,5.9,4.4,7.1,8.3,1.8,6.1-8.5,38-13.9,50-5.6,12.2-8.6,20.5-20.5,24.2-24.9,7.8-21.2-33.9-2.1-65.8,8.3-13.9,20.6-21.6,29.4-16.7Z" fill="#e8a48d"/>
    <path d="M275.9,167.3s-24.3,3-41.2-12.5c0,0,11.3-29.8,22.5-41.4,15.3-15.9,23.7,1.5,25.3,9.4,0,0-.6,14.2-6.6,44.5Z" fill="#5f75bc"/>
    <g>
      <path d="M355.6,52.8s-.2,13.4-8.6,15.6c-8.5,2.1-.9-15.5,8.6-15.6Z" fill="#f4ebe4"/>
      <path d="M311.8,4.3h0c18.8-1.2,35.1,13,36.3,31.8l1.3,20.3c-3.5,29.5-18.3,35.4-31.8,36.3h0c-19.2,1.3-33.4-13.1-34.6-32l-1.3-20.3c-1.2-18.8,11.3-35,30.1-36.2Z" fill="#e8a48d"/>
      <ellipse cx="300.8" cy="52.8" rx="2.4" ry="2.6" transform="translate(-2.8 19.8) rotate(-3.8)" fill="#483432"/>
      <ellipse cx="325.4" cy="50.9" rx="2.4" ry="2.6" transform="translate(-2.6 21.4) rotate(-3.8)" fill="#483432"/>
      <path d="M311.1,60.4c-.5,0-1-.4-1-1,0-1.1.4-3.2,2.7-3.6,1.9-.3,3.3,1.2,3.8,2.1.3.5,0,1.1-.4,1.4-.5.3-1.1,0-1.4-.4,0,0-.7-1.2-1.6-1.1-1,.2-1,1.3-.9,1.5,0,.6-.4,1.1-1,1.1,0,0,0,0,0,0Z" fill="#483432"/>
      <path d="M314.5,71.9c-3.7,0-6.6-1.9-6.6-2-.5-.3-.6-1-.3-1.4.3-.5,1-.6,1.4-.3.3.2,6.5,4.4,12.1-1.5.4-.4,1-.4,1.5,0,.4.4.4,1,0,1.5-2.7,2.9-5.6,3.8-8.1,3.8Z" fill="#483432"/>
      <path d="M330.4,4.2c13.2-8.8,39.1,22.6,25.7,42.6l-5.7,2.5s-21.8-20.6-22.2-34c0,0-1.3-8.7,2.2-11Z" fill="#483432"/>
      <path d="M341,44.7c-.2,0-.5,0-.7-.3-14.1-12.2-10.6-25.7-10.5-26.2.2-.6.7-.9,1.3-.7.6.2.9.7.7,1.3-.1.5-3.2,12.8,9.8,24.1.4.4.5,1,.1,1.5-.2.2-.5.4-.8.4Z" fill="#483432"/>
      <path d="M337,18.5s-20.7,27.6-55.3,22c0,0-9-20.4,16.5-35.4,21-12.3,44.1,1.5,38.8,13.4Z" fill="#483432"/>
      <path d="M347.4,45.9s-4.7-24.1-30.3-25.3c-25.6-1.2-35.7,17.7-35.7,17.7,0,0-.8-5.6,2.5-11.8,3.6-6.9,15.1-21.4,40.8-16.8,23.5,4.2,31,27,30.1,37.8l-7.3-1.6Z" fill="#f4ebe4"/>
      <path d="M351.4,43.6c3-.1,9.9,3,7.8,12.5-2.1,9.5-14.2,7-14.2,7l-1.3-16.7c2.7-1.5,4.7-2.6,7.7-2.8Z" fill="#e8a48d"/>
      <path d="M347.1,54.4c0,0-.2,0-.2,0-.6-.1-.9-.7-.8-1.2.4-1.6,2.1-4.4,5.9-4.2.6,0,1,.5,1,1.1,0,.6-.5,1-1.1,1-3-.2-3.7,2.4-3.8,2.6-.1.5-.5.8-1,.8Z" fill="#483432"/>
      <path d="M312.3.4s19.3-2.7,31.9,5.3c9,5.7-24.4,0-24.4,0,0,0-11-1.4-7.5-5.3Z" fill="#483432"/>
    </g>
    <path d="M315.5,96s67.9-3.7,73.8,33.5c.8,5.3-18.1,40.3-19.6,61.5-.9,12.3,8.2,49.5,11.9,72.1,0,0-24.8,9.8-60.3,8.4-37.9-1.4-60.4-6.4-60.4-6.4l12.6-56.5c3-13.2,2.8-27-.7-40.1-7.2-27.4-21.1-48-21.1-48,8.2-16.9,35.8-21.2,35.8-21.2,25.8-3.7,28-3.3,28-3.3Z" fill="#5f75bc"/>
    <path d="M301.4,85.3s.6,13.5,0,18.6c0,0,7.1,3.9,23.6,3.3,11.6-.4,16-5.1,16-5.1,0,0-1.2-14.6-.4-24.8l-39.3,8Z" fill="#e8a48d"/>
    <ellipse cx="321.3" cy="105.9" rx="25.7" ry="8.1" fill="#e8a48d"/>
    <path d="M316,93.8c-7.7,0-13.2-2.4-13.3-2.5-.5-.2-.7-.9-.5-1.4.2-.5.9-.7,1.4-.5.2,0,16.9,7.5,32.7-4.7.5-.3,1.1-.3,1.5.2.3.5.3,1.1-.2,1.5-7.6,5.8-15.3,7.4-21.6,7.4Z" fill="#483432"/>
    <path d="M375.7,167.8c-.1,0-.2,0-.4,0-.5-.2-.8-.8-.6-1.3,0-.2,5.9-15.6,7-32.9,0-.6.5-1,1.1-1,.6,0,1,.5,1,1.1-1.1,17.6-7,33.3-7.1,33.5-.2.4-.6.7-1,.7Z" fill="#483432"/>
    <path d="M271.5,162.2c-.5,0-.9-.3-1-.8,0,0-2.1-9.5-8.8-25.7-.2-.5,0-1.1.6-1.4.5-.2,1.1,0,1.4.6,6.7,16.4,8.9,25.9,8.9,26,.1.6-.2,1.1-.8,1.2,0,0-.1,0-.2,0Z" fill="#483432"/>
    <path d="M269.6,500.6c-.5,0-.9-.3-1-.8h0s-1.4-5.1-5.2-6.1c-.6-.2-.9-.7-.7-1.3.2-.6.7-.9,1.3-.7,5,1.4,6.6,7.4,6.7,7.6.1.6-.2,1.1-.7,1.3,0,0-.2,0-.3,0Z" fill="#483432"/>
    <path d="M261.9,501.8c-.5,0-.9-.3-1-.8,0,0-1.1-4.5-5.5-6.6-.5-.3-.7-.9-.5-1.4.3-.5.9-.7,1.4-.5,5.3,2.6,6.5,7.8,6.6,8,.1.6-.2,1.1-.8,1.2,0,0-.2,0-.2,0Z" fill="#483432"/>
    <path d="M348.1,498.9c-.1,0-.3,0-.4,0-9.8-4.1-16.6-.1-16.7,0-.5.3-1.1.1-1.4-.3-.3-.5-.1-1.1.3-1.4.3-.2,7.7-4.6,18.5,0,.5.2.8.8.6,1.4-.2.4-.6.6-1,.6Z" fill="#483432"/>
    <path d="M348.1,491.8c-.1,0-.3,0-.4,0-9.8-4.1-16.6-.1-16.7,0-.5.3-1.1.1-1.4-.3-.3-.5-.1-1.1.3-1.4.3-.2,7.7-4.6,18.5,0,.5.2.8.8.6,1.4-.2.4-.6.6-1,.6Z" fill="#483432"/>
    <path d="M320.7,271.5c-.5,0-1-.4-1-1-2.5-44.4,1.1-152.8,1.2-153.9,0-.6.5-1,1.1-1,.6,0,1,.5,1,1.1,0,1.1-3.7,109.4-1.2,153.7,0,.6-.4,1.1-1,1.1,0,0,0,0,0,0Z" fill="#483432"/>
    <rect x="344.5" y="146.8" width="21.5" height="4.9" fill="#f4ebe4"/>
    <path d="M321.3,271.5c-16.4,0-35.9-1.3-57.7-5-.6,0-.9-.6-.8-1.2,0-.6.6-.9,1.2-.8,67,11.5,111.8-.5,112.3-.6.6-.2,1.1.2,1.3.7.2.6-.2,1.1-.7,1.3-.3,0-21.1,5.6-55.5,5.6Z" fill="#483432"/>
    <path d="M358.1,45.4c-.1,0-.2,0-.4,0-.5-.2-.8-.8-.6-1.3,5.1-13.6-1.4-25.5-1.5-25.6-.3-.5-.1-1.1.4-1.4.5-.3,1.1-.1,1.4.4.3.5,7,12.8,1.6,27.3-.2.4-.6.7-1,.7Z" fill="#f4ebe4"/>
  </g>
  <g>
    <path d="M456.2,474.7c0,0-.2,0-.3,0L55.5,367.4c-.6-.1-.9-.7-.7-1.3.1-.6.7-.9,1.3-.7l400.4,107.3c.6.1.9.7.7,1.3-.1.5-.5.8-1,.8Z" fill="#483432"/>
    <path d="M55.8,474.7c-.5,0-.9-.3-1-.8-.1-.6.2-1.1.7-1.3l400.4-107.3c.6-.1,1.1.2,1.3.7s-.2,1.1-.7,1.3L56,474.6c0,0-.2,0-.3,0Z" fill="#483432"/>
    <rect x="450.8" y="335.4" width="10.9" height="180.1" rx="5.5" ry="5.5" transform="translate(912.4 850.8) rotate(180)" fill="#483432"/>
    <rect x="50.3" y="335.4" width="10.9" height="180.1" rx="5.5" ry="5.5" transform="translate(111.6 850.8) rotate(-180)" fill="#483432"/>
  </g>
  <rect x="0" y="321.4" width="512" height="30.4" rx="15.2" ry="15.2" transform="translate(512 673.2) rotate(180)" fill="#f0d595"/>
  <rect x="396" y="292.2" width="102.6" height="41.2" rx="20.6" ry="20.6" transform="translate(894.7 625.6) rotate(180)" fill="#5f75bc"/>
  <g>
    <path d="M94.8,296.7s-11.1,1.2-18.5-7.6-15.8-3.5-20.6,5.3c-4.8,8.8-10.1,12.2-22.6,14.7-11.6,2.3-20.2,10.1-17.2,13.6,3.3,3.9,17.3.7,29.1.9,10.5.2,32.9-.9,35.8-1.2s18.7-2.3,18.7-2.3c0,0,5.8-15.3-4.6-23.4Z" fill="#e8a48d"/>
    <path d="M221.2,321.7s-22,2-44.7.2c-21.1-1.7-26.7-35.7-13.7-40.2,26.4-8.9,64.6-12.9,64.6-12.9l-6.2,52.9Z" fill="#e8a48d"/>
    <path d="M71.8,322s77.6-.4,106.3,0c33.7.5,25.4-3.1,27.9-15.2,1.7-8.1-10.1-22.9-18.7-25.4-34.5-10-111.5,17-111.5,17l-4,23.4Z" fill="#e8a48d"/>
    <path d="M295.1,256.9c-33.7-12-60.7,9.6-60.7,9.6l-42.8,6.8s-4.4,3.9-4.3,25.4c0,17.8,5.8,25.7,5.8,25.7,55.3,4.9,103.4.1,103.4.1,0,0-1.4-4.6-4-29.3-1.1-10.9,2.7-38.3,2.7-38.3Z" fill="#483432"/>
    <path d="M295.1,256.9s33.4-.3,74.8-7c45.9-7.4,62.3,38.4,59.8,44.7-2.5,6.3-8.3,19.3-33.7,26.8-33,9.7-101.8,3.3-101.8,3.3,0,0-7-32.8.9-67.8Z" fill="#f4ebe4"/>
    <path d="M427.3,298.9s-16.9,9.6-23.4-11.3c-6.5-20.9,13-34.4,13-34.4,0,0,1.9-1.6,8.5,18.5,4.7,14.2,1.8,27.2,1.8,27.2Z" fill="#e8a48d"/>
    <path d="M457.8,244s-4.5,26.4,16.7,29.4c23,3.2,23.9-17.8,18.2-27.3-.2-.4.3-.9.5-1.3,8.2-22.5-16.5-47.5-43.8-40.4,0,0-22.6-18-34.9,9.4,0,0-32,6.2-23.5,30,12.6,35.5,31.5,25.7,42.4,26.6,10.9.9,24.4-26.3,24.4-26.3Z" fill="#483432"/>
    <g>
      <path d="M482.1,227.7h0c-11.8-11-30.3-10.4-41.3,1.4l-10.2,14.4c-18,26,1.7,41.3,1.7,41.3,12,11.3,27.2,7.7,38.3-4.1l11.9-12.7c11-11.8,11.5-29.3-.3-40.3Z" fill="#e8a48d"/>
      <path d="M427.6,237.5s19.5,5,28.6-9.2c9.1-14.2-19.3-9.2-19.3-9.2,0,0-14.2,9.1-9.3,18.4Z" fill="#483432"/>
      <path d="M451.4,219.6s-.9,8.6,2.8,14.7c6.1,10.2,17,5.8,17,5.8,0,0-.6,20.3,18.5,19.1,3.8-.2,10.1-29.5-14.2-36.7-25.1-7.4-24.1-2.9-24.1-2.9Z" fill="#483432"/>
      <path d="M453.1,282.5s0,0,0,0c-2-.1-5.9-1.7-6.3-6.3,0-.6.4-1.1.9-1.1.6,0,1.1.4,1.1.9.4,4,4.2,4.4,4.4,4.4.6,0,1,.5.9,1.1,0,.5-.5,1-1,1Z" fill="#483432"/>
      <path d="M455,207.8c-.3,0-.7-.2-.9-.5,0-.1-7.2-11.3-18.4-11.5-.6,0-1-.5-1-1.1,0-.6.5-1,1-1h0c12.4.2,19.9,12,20.2,12.5.3.5.2,1.1-.3,1.4-.2.1-.4.2-.5.2Z" fill="#483432"/>
      <path d="M423,215.9c-.2,0-.4,0-.5-.1-.5-.3-.7-.9-.4-1.4,2.9-4.9,6-7.5,9.3-8,3.5-.5,5.7,1.7,5.8,1.8.4.4.4,1.1,0,1.5-.4.4-1.1.4-1.5,0,0,0-1.7-1.6-4.2-1.3-2.6.4-5.3,2.8-7.8,7-.2.3-.5.5-.9.5Z" fill="#f4ebe4"/>
      <path d="M479.6,273s-5.4-11.2,2.1-20.8l12.2,4.5-14.3,16.4Z" fill="#483432"/>
      <path d="M436.6,234c-1.8-1.9-7.9-4-12.2,3.1-4.3,7.1,4.7,12.7,4.7,12.7l10.6-9.6c-.7-2.5-1.4-4.4-3.1-6.3Z" fill="#e8a48d"/>
      <path d="M409,257.6c-.3,0-.5,0-.7-.3-.4-.3-8.6-8.2-9.7-16.9-1.6-12.4,11.7-17,11.8-17,.5-.2,1.1.1,1.3.7.2.5-.1,1.1-.7,1.3,0,0-3,1-5.8,3.4-3.6,3.1-5.2,6.9-4.6,11.4,1,7.9,9,15.5,9.1,15.6.4.4.4,1.1,0,1.5-.2.2-.5.3-.8.3Z" fill="#f4ebe4"/>
      <ellipse cx="458.2" cy="262.4" rx="2.4" ry="2.2" transform="translate(-54.5 388.8) rotate(-43.6)" fill="#483432"/>
      <ellipse cx="470.5" cy="275.9" rx="2.4" ry="2.2" transform="translate(-46.6 449.3) rotate(-48.9)" fill="#483432"/>
      <path d="M459.9,277.6c-.2,0-.4,0-.6-.2-.5-.3-.6-1-.3-1.4,0,0,.6-1,.2-1.5-.4-.6-1.1-.2-1.3-.1-.5.3-1.1.1-1.4-.4s-.1-1.1.4-1.4c.8-.5,2.8-1,4.1.7,1.1,1.4.4,3.1-.1,3.9-.2.3-.5.5-.9.5Z" fill="#483432"/>
    </g>
    <path d="M438.6,286.1s-6.9,4.2-13.1,9.9c0,0-6.3-.5-13.9-11.7-7-10.3-1-15.4-1-15.4,0,0,10.5-7.7,15.5-14.8l12.4,31.9Z" fill="#e8a48d"/>
    <path d="M435,243.5c0,0-.1,0-.2,0-.6-.1-.9-.7-.8-1.2.5-2.6-2.1-3.8-2.2-3.8-.5-.2-.8-.8-.5-1.4.2-.5.8-.8,1.4-.5,1.5.6,4.1,2.8,3.4,6.1,0,.5-.5.8-1,.8Z" fill="#483432"/>
    <path d="M448.7,292.7c-6.8,0-13.3-4.5-13.9-4.9-.8-.5-10.8-6.8-12.4-19.8,0-.6.3-1.1.9-1.2.6,0,1.1.3,1.2.9,1.5,12.4,11.4,18.3,11.5,18.3,0,0,0,0,0,0,0,0,6.4,4.5,12.7,4.5s0,0,0,0c.6,0,1,.5,1,1,0,.6-.5,1-1.1,1Z" fill="#483432"/>
    <path d="M166,315.9c-.2,0-.3,0-.5-.1-.5-.3-.7-.9-.5-1.4,1.7-3.4,5.6-3.5,5.7-3.5h0c.6,0,1,.5,1,1,0,.6-.4,1-1,1.1-.1,0-2.8.1-3.9,2.4-.2.4-.5.6-.9.6Z" fill="#483432"/>
    <path d="M71.3,304.1c-.2,0-.3,0-.5-.1-.5-.3-.7-.9-.5-1.4,0,0,2.8-5.6,10.1-3.5.6.2.9.7.7,1.3-.2.6-.7.9-1.3.7-5.6-1.6-7.6,2.3-7.6,2.4-.2.4-.6.6-.9.6Z" fill="#483432"/>
    <g>
      <path d="M373,288.5c.4-3.8,3.7-7.2,7.3-8.4,5.6-1.7,14.7.3,26.7,4.5,20.8,7.3,73.7,22.1,72.4,36.8-2,21.8-59.4,10.1-86.2-5-18.8-10.6-21.2-19.2-20.2-27.9Z" fill="#e8a48d"/>
      <path d="M420.3,286.1s.6,20.9-10.4,37.8c0,0-27-6.2-38.5-22.2-11.6-16-5.4-39.1,48.9-15.6Z" fill="#f4ebe4"/>
    </g>
    <path d="M375.6,194.9s12.6-24.6,28.4-13.5c10.2,7.1,6.5,22-3,37.2-4.9,7.7-11.3,19.2-23,33.9-6.6,8.3-25.4,18-21.4-10.5,1-7.1,14.4-37.1,19-47.1Z" fill="#e8a48d"/>
    <g>
      <path d="M370.4,256.4c4.6-7.6-.1-17.6-8.9-19.2-5.9-1.1-15.3-2.7-21.5-3.1-9.6-.7-18.6,4.8-19.3,5.9-3.1,4.8,16.5,0,16.5,0,0,0-13,3.3-15.5,5-2.5,1.8-5.9,5.7-3.3,6.3,2.5.6,10.7-4.9,17.7-4.1,0,0-21.5,7.8-14.3,11.7,0,0-2.1,4.7,3.8,3.3s13.4-3.5,14.4-3.9c0,0,11.6,4.8,22.3,3.5,3.6-.4,6.3-2.5,8-5.3Z" fill="#e8a48d"/>
      <path d="M322.7,259.5c-.4,0-.7-.2-.9-.6-.3-.5,0-1.1.4-1.4.3-.1,6.7-3.4,15.6-5.6.6-.1,1.1.2,1.3.8.1.6-.2,1.1-.8,1.3-8.7,2.1-15.1,5.4-15.2,5.4-.2,0-.3.1-.5.1Z" fill="#483432"/>
    </g>
    <path d="M264.8,195.5s-15.4-25.3-31.2-14.2c-10.2,7.1-6.5,22,3,37.2,4.9,7.7,10.2,17.5,32,38.9,7.5,7.4,30.1,16.5,19.4-13.1-5.5-15.1-11.8-31.9-23.3-48.9Z" fill="#e8a48d"/>
    <g>
      <path d="M271.1,253c0-8.9,9.1-15,17.5-11.9,5.6,2.1,14.5,5.6,20.1,8.4,8.6,4.3,13.5,13.7,13.6,14.9.1,5.7-14.2-8.5-14.2-8.5,0,0,9.5,9.5,10.7,12.3,1.2,2.8,2.1,7.9-.4,7.1-2.5-.8-6.7-9.7-13.1-12.6,0,0,14.5,17.7,6.2,17.4,0,0-.6,5.1-5,.8-4.4-4.3-9.7-9.9-10.4-10.8,0,0-12.4-1.8-20.9-8.4-2.8-2.2-4.1-5.4-4.1-8.7Z" fill="#e8a48d"/>
      <path d="M310.9,280.3c-.3,0-.7-.2-.9-.5,0,0-3.9-6.1-10.2-12.4-.4-.4-.4-1.1,0-1.5.4-.4,1.1-.4,1.5,0,6.6,6.5,10.4,12.6,10.5,12.8.3.5.2,1.1-.3,1.4-.2.1-.4.2-.5.2Z" fill="#483432"/>
    </g>
  </g>
  <path d="M377.2,194.6c-.3,0-.6-.1-.8-.4-.4-.4-.3-1.1.1-1.5.2-.2,4.6-3.9,11.1-5.3.6-.1,1.1.2,1.2.8.1.6-.2,1.1-.8,1.2-5.9,1.3-10.2,4.8-10.2,4.9-.2.2-.4.2-.7.2Z" fill="#483432"/>
  <path d="M260.3,192.8c-.2,0-.3,0-.5-.1h0s-4.5-2.4-11.4-1.6c-.6,0-1.1-.3-1.1-.9,0-.6.3-1.1.9-1.1,7.6-.9,12.5,1.7,12.7,1.8.5.3.7.9.4,1.4-.2.3-.5.5-.9.5Z" fill="#483432"/>
  <path d="M477.7,326.4s8.9-9.6,14.2-25.7c5.3-16-4.3-19.8-10-19.3s-33.1,26.2-33.1,26.2c0,0,13,31.8,29,18.7Z" fill="#e8a48d"/>
  <g>
    <path d="M493,293.1c.6-8.9-8.2-15.5-16.8-12.9-5.7,1.8-14.8,4.7-20.5,7.2-8.8,3.8-14.3,12.9-14.4,14.1-.5,5.7,14.6-7.7,14.6-7.7,0,0-10,8.9-11.4,11.6-1.4,2.7-2.6,7.8,0,7.1,2.5-.6,7.2-9.3,13.8-11.8,0,0-15.5,16.8-7.3,17,0,0,.3,5.1,4.9,1.1,4.7-4,10.3-9.3,11-10.1,0,0,12.5-1.1,21.4-7.2,3-2,4.4-5.1,4.6-8.4Z" fill="#e8a48d"/>
    <path d="M451.7,318c-.2,0-.4,0-.6-.2-.5-.3-.6-1-.2-1.4.2-.2,4.3-6.1,11.3-12.2.4-.4,1.1-.3,1.5,0,.4.4.3,1.1,0,1.5-6.7,5.9-10.9,11.8-10.9,11.8-.2.3-.5.4-.8.4Z" fill="#483432"/>
    <path d="M453.1,321.5c-.4,0-.7,0-1-.2-1.1-.5-1.6-1.7-1.8-2.5-1.4-.2-2-1-2.3-1.7-1.1-2.5,1.8-7.1,4.7-11-1.2,1.2-2.3,2.4-3.2,3.5-1.9,2.2-3.3,3.7-4.6,4-.9.2-1.7,0-2.2-.6-1.4-1.7.1-6.1,1.1-8,.2-.5.7-1.1,1.3-1.8-1.5.7-2.8,1-3.6.6-.4-.2-1.2-.8-1.1-2.3.2-1.8,6.1-11.1,15-15,5.6-2.4,14.3-5.3,20.6-7.2,4.4-1.4,9.3-.5,12.9,2.4,3.6,2.8,5.5,7,5.2,11.5h0c-.3,3.9-2.1,7.1-5.1,9.2-8.2,5.6-19.1,7.1-21.4,7.3-1.5,1.6-6.7,6.4-10.8,9.9-1.4,1.2-2.6,1.8-3.6,1.8ZM458.4,299.7c.3,0,.7.2.9.5.3.4.2.9,0,1.3-5.1,5.6-10.1,12.8-9.3,14.8.1.3.6.5,1.3.5.5,0,1,.4,1,1,0,.5.3,1.4.7,1.6.3.1,1.2-.1,2.5-1.2,4.8-4.1,10.3-9.3,10.8-10,.2-.2.4-.4.7-.4.1,0,12.3-1.2,20.9-7,2.5-1.7,4-4.4,4.2-7.6.3-3.8-1.4-7.4-4.4-9.8-3.1-2.5-7.2-3.2-11-2.1-6.3,2-14.9,4.8-20.4,7.1-8.4,3.6-13.6,12.2-13.8,13.3,0,.1,0,.2,0,.3,1.4.1,7.2-3.8,12.9-8.9.4-.4,1.1-.3,1.5,0,.4.4.3,1.1,0,1.5,0,0,0,0,0,0h0c-4,3.5-10.2,9.4-11.2,11.3-1.2,2.3-1.6,5-1.3,5.7,0,0,0,0,.1,0,.7-.2,2.2-1.9,3.5-3.4,2.7-3,6-6.8,10.2-8.4.1,0,.2,0,.4,0ZM493,293.1h0,0Z" fill="#483432"/>
  </g>
  <path d="M429.8,293.3c-.1,0-.3,0-.4,0l-8.4-3.8c-.5-.2-.8-.9-.5-1.4.2-.5.9-.8,1.4-.5l7.8,3.6c3.1-2.5,5.8-4.1,5.9-4.1.5-.3,1.1-.1,1.4.4s.1,1.1-.4,1.4c0,0-3,1.8-6.1,4.4-.2.2-.4.2-.7.2Z" fill="#483432"/>
  <path d="M396,320.3c0,0-.2,0-.2,0-.8-.2-1.6-.4-2.4-.6-2.6-.7-5.6-1.4-12.3-2.4-7.9-1.1-10,2-10,2-.3.5-.9.6-1.4.3-.5-.3-.6-.9-.3-1.4.1-.2,2.7-4.3,12.1-3,6.9.9,9.9,1.7,12.6,2.4.8.2,1.6.4,2.4.6.6.1.9.7.8,1.2-.1.5-.5.8-1,.8Z" fill="#483432"/>
  <path d="M401.1,279.8c-.1,0-.2,0-.4,0,0,0-7.7-2.8-15.2-2.6-.6,0-1.1-.4-1.1-1,0-.6.4-1.1,1-1.1,7.9-.2,15.7,2.6,16,2.7.5.2.8.8.6,1.3-.2.4-.6.7-1,.7Z" fill="#483432"/>
</svg>