<?xml version="1.0" encoding="UTF-8"?>
<svg id="icon" xmlns="http://www.w3.org/2000/svg" version="1.1" viewBox="0 0 513.4 512">
  <!-- Generator: Adobe Illustrator 29.0.1, SVG Export Plug-In . SVG Version: 2.1.0 Build 192)  -->
  <path d="M328.7,141.8c-3.3,2.9-6.5,4.3-10.8,4-6.7-.4-43.1-30.1-49.3-35.6-10.5-9.5-18.6-21.6-14.6-30.5,12.2-27.7,40.5-1.6,76,29.8,12.8,11.3,6.6,25.3-1.3,32.3Z" fill="#e8a48d"/>
  <path d="M289.4,128.3s5.9-21.3,21.3-38.5c0,0,26.6,11.4,46.6,19.2,21.6,8.4-11.1,48.1-27.8,48.6,0,0-7.7,2.5-40.2-29.2Z" fill="#5f75bc"/>
  <path d="M263.1,104.7s-14.2-10.8-15.3-20.8c-1.1-9.9,8.8-47.2,11.9-49.8,17.5-14.5,17.8,41.9,3.4,70.5Z" fill="#e8a48d"/>
  <path d="M357.1,472.1c2.9-1,5.8,1.4,5.6,4.4-.2,3.6-.5,9.2-.5,16s0,17.1,0,17.1c0,0-12.7,1.5-22,.9v-4.1s-4.7,3.9-15.6,4.6c-10.9.7-38.2,0-41.9.2,0,0-3.1-14.1,7.1-18,10.3-3.9,23.3-3.8,26.4-4.5,4.6-1.1,8.7-3.3,9.9-11.7,0,0-.7-8.9,16.4,2.2,4.9,3.2,9.8-5.3,14.5-7Z" fill="#f4ebe4"/>
  <path d="M317.2,497.1c-.5,0-.9-.3-1-.8h0s-1.3-4.9-5.1-6c-.6-.2-.9-.7-.7-1.3.2-.6.7-.9,1.3-.7,4.9,1.4,6.5,7.2,6.5,7.5.1.6-.2,1.1-.7,1.3,0,0-.2,0-.3,0Z" fill="#483432"/>
  <path d="M309.6,498.3c-.5,0-.9-.4-1-.9h0c0,0-1-6.1-4.9-6.3-.6,0-1-.5-1-1.1s.5-1,1.1-1c5.6.3,6.8,7.7,6.9,8,0,.6-.3,1.1-.9,1.2,0,0-.1,0-.2,0Z" fill="#483432"/>
  <path d="M327.4,405.3s25,9,34.1-1.1c10.4-11.5,25.2-72.8,21.1-158.1l-55.3-5.5c-5.9,102.8-2.5,141.2,0,164.8Z" fill="#5f75bc"/>
  <path d="M319.3,480.4s3.2-54.6,5.7-104.5c.9-17.8,48-28.3,47.1-.7-1.5,47.6-3.2,105.2-3.2,105.2h-49.6Z" fill="#5f75bc"/>
  <g>
    <path d="M417.8,471.4s-.5,11.8,6.3,21.2c6.8,9.4,7.1,18.8-1.9,19-9.4.2-22.5.7-30.1,0-7.5-.7-9.6-2.4-8.2-8.7,1.4-6.3,4.4-19.8,5.3-30.2s27.8-14.9,28.5-1.3Z" fill="#f4ebe4"/>
    <path d="M381.9,398.2s19.7,8.8,33.5,13c15.3,4.6,14.6-87.8,14.6-87.8,2.7-27.6,11.3-53-3.8-87.9l-53.8,11.8s-6.3,96,9.5,150.9Z" fill="#5f75bc"/>
    <path d="M381.7,480.4s-.3-22.4-1.1-43.8c-2.1-56-7.7-72.3-1.9-82.4,4.5-7.7,48.6-25.1,49.3,3.4,1,36.7,1.2,122.8,1.2,122.8h-47.5Z" fill="#5f75bc"/>
    <path d="M374.8,364.6c-.5,0-1-.4-1-.9l-7.5-70c-1.3-.7-5-3-8.5-6.1-.4-.4-.5-1,0-1.5.4-.4,1-.5,1.5,0,4.1,3.6,8.5,6,8.6,6,.3.2.5.5.5.8l7.6,70.5c0,.6-.4,1.1-.9,1.1,0,0,0,0-.1,0Z" fill="#483432"/>
    <path d="M354.3,107s-57.5,9.1-44.1,27.3c13.2,17.9,13.2,33.7,15.3,60.1.9,11.1-1.7,31.6-1.8,70.1,0,0,17.1,8.2,55.7,8.2,29.6,0,56.4-12.8,56.4-12.8l-4.3-35c-1.1-12.8-.3-25.9,3.9-41.3,2.5-9.2,6.1-21.4,6.6-26.5,2.2-26.3-17-37.6-22.7-41.3-10.6-6.9-22.9-8.7-22.9-8.7-24.5-4.8-42.1,0-42.1,0Z" fill="#5f75bc"/>
    <path d="M322,160.3h0c-.6,0-1-.5-1-1s0-18,8.1-30.5c.3-.5,1-.6,1.4-.3.5.3.6,1,.3,1.4-7.7,12-7.8,29.2-7.8,29.4,0,.6-.5,1-1,1Z" fill="#483432"/>
    <path d="M412.4,494.3c-.1,0-.3,0-.4,0-9.6-4-16.2-.1-16.3,0-.5.3-1.1.1-1.4-.3-.3-.5-.1-1.1.3-1.4.3-.2,7.6-4.5,18.2,0,.5.2.8.8.6,1.4-.2.4-.6.6-1,.6Z" fill="#483432"/>
    <path d="M412.4,487.3c-.1,0-.3,0-.4,0-9.6-4-16.2-.1-16.3,0-.5.3-1.1.1-1.4-.3-.3-.5-.1-1.1.3-1.4.3-.2,7.6-4.5,18.2,0,.5.2.8.8.6,1.4-.2.4-.6.6-1,.6Z" fill="#483432"/>
    <g>
      <path d="M376,19.1c18.7,2.7,31.6,19.9,29,38.6l-5.4,16.2c-10.4,35.4-38.8,28.7-38.8,28.7-19.1-2.7-26.9-19.1-24.3-37.8l2.9-20.1c4.7-31.4,36.7-25.6,36.7-25.6Z" fill="#e8a48d"/>
      <ellipse cx="343.1" cy="61.1" rx="2.6" ry="2.4" transform="translate(196.2 377) rotate(-75.2)" fill="#483432"/>
      <path d="M336.7,71.7s-5.9-1.6-5.2-5.5c.7-3.9,6.6-3.2,6.6-3.2l-1.4,8.7Z" fill="#e8a48d"/>
      <path d="M344.1,35.9c-6.2,0-9.8-2.2-10-2.3-.5-.3-.6-.9-.3-1.4.3-.5.9-.6,1.4-.3,0,0,7.7,4.6,20-.3.5-.2,1.1,0,1.3.6.2.5,0,1.1-.6,1.3-4.6,1.8-8.6,2.4-11.8,2.4Z" fill="#483432"/>
      <path d="M360.9,33.5s-26.3,6.5-25.3-14.5c1-21,29.6-1.7,29.6-1.7,0,0,8.1-15,27.9,7,0,0,14.5-6.2,15.9,6.5,1.4,12.7-18.9,47.7-27.3,10.3,0,0-12.8,8.4-20.8-7.6Z" fill="#483432"/>
      <path d="M391.6,90.3l18.7-25.1c3.5-4.4,5.7-9.8,6.3-15.4.7-7.5-1.4-16.1-14.7-16.2-18.3-.2-10.9,45.9-10.9,45.9l.6,10.8Z" fill="#483432"/>
      <path d="M392.7,60.6c3,0,9.7,3.7,6.9,13-2.8,9.3-14.7,5.9-14.7,5.9l-4.4-14c7.5-4.9,9.2-5,12.2-4.9Z" fill="#e8a48d"/>
      <path d="M386.3,71.3c-.1,0-.3,0-.4,0-.5-.2-.8-.8-.6-1.4,1.6-3.9,5.2-4.7,6.8-4.6.6,0,1,.5,1,1.1,0,.6-.5,1-1.1,1-.2,0-3.4-.1-4.8,3.3-.2.4-.6.7-1,.7Z" fill="#483432"/>
      <path d="M387.2,26.6c-.3,0-.6-.1-.8-.3-4.7-5.3-9-7.9-12.4-7.5-2.8.3-4,2.5-4.1,2.6-.3.5-.9.7-1.4.4-.5-.3-.7-.9-.4-1.4,0-.1,1.8-3.2,5.6-3.6,4.1-.5,8.9,2.3,14.1,8.2.4.4.3,1.1,0,1.5-.2.2-.4.3-.7.3Z" fill="#f4ebe4"/>
      <path d="M413.8,53.2c-.4,0-.7-.2-.9-.5-.3-.5-.1-1.1.4-1.4.2-.1,4.8-3,3.6-9.3-1.3-6.5-9.7-9.4-9.7-9.5-.5-.2-.8-.8-.6-1.3.2-.5.8-.8,1.3-.6.4.1,9.6,3.4,11.1,11,.8,4.1-.5,6.9-1.7,8.7-1.3,1.9-2.8,2.8-2.9,2.8-.2,0-.3.1-.5.1Z" fill="#483432"/>
      <path d="M344.8,82.4c-2.1,0-4-.7-5-1.4-.5-.3-.6-1-.3-1.4.3-.5.9-.6,1.4-.3h0c.2.1,4.6,2.8,8.7-.8.4-.4,1.1-.3,1.5,0,.4.4.3,1.1,0,1.5-2,1.8-4.2,2.4-6.2,2.4Z" fill="#483432"/>
    </g>
    <path d="M351.7,94.4s.3,9.5,0,16.2c0,0,4.1,4.4,20,4.5,14,.1,18.7-5.7,18.7-5.7,0,0,.2-12,1.3-19.1l-39.9,4.1Z" fill="#e8a48d"/>
    <path d="M360.8,102.2c-4.7,0-7.9-1.1-8.1-1.1-.5-.2-.8-.8-.6-1.3.2-.5.8-.8,1.3-.6.2,0,11.6,3.8,23.5-3.7.5-.3,1.1-.2,1.4.3.3.5.2,1.1-.3,1.4-6.4,4-12.6,5.1-17.2,5.1Z" fill="#483432"/>
    <ellipse cx="371.6" cy="112.7" rx="24.2" ry="7.3" transform="translate(-5.6 20.5) rotate(-3.1)" fill="#e8a48d"/>
    <path d="M353,272c-.5,0-1-.4-1-.9,0-.9-9.5-95.2,5.5-149.5.2-.6.7-.9,1.3-.7.6.2.9.7.7,1.3-14.9,53.8-5.5,147.7-5.4,148.7,0,.6-.4,1.1-.9,1.1,0,0,0,0-.1,0Z" fill="#483432"/>
  </g>
  <path d="M376,273c-28.5,0-49.3-7-49.6-7.1-.5-.2-.8-.8-.6-1.3.2-.5.8-.8,1.3-.6.5.2,52.5,17.6,104.3-3.2.5-.2,1.1,0,1.4.6.2.5,0,1.1-.6,1.4-19.6,7.9-39.2,10.3-56.1,10.3Z" fill="#483432"/>
  <rect x="367.4" y="150.2" width="21.6" height="5.7" fill="#f4ebe4"/>
  <path d="M263.5,62.7s-9.7,74.4-13.9,101.9c-4.9,32.2-.3,24.7,10.9,28.7,7.5,2.7,23.2-6.7,26.7-14.7,14.1-31.8-.6-112.2-.6-112.2l-23.2-3.7Z" fill="#e8a48d"/>
  <path d="M235.2,258s2.2-24.5,4-39.5c0,0,7.9-53.3,10.5-63.9s5.8-32.9,5.8-32.9c0,0,21.5,0,37.9,3.9,0,0,1.1,17.7,1,40.2,0,0,4.3,82.5,1,96.6-3.4,14.1-58.1,17-60.1-4.4Z" fill="#483432"/>
  <path d="M285.7,75s-.6-10.1,7.8-16.6c8.4-6.4,3.9-14.3-3.9-19-7.8-4.8-14.4-12.8-19.5-23.4-5.1-10.6-13.8-18-20.4-15.5s6,10.4,7.2,19.9c1.2,9.5,5.8,37.9,6,40.6.2,2.7,1.2,17.2,1.2,17.2,0,0,13.7,6,21.5-3.1Z" fill="#e8a48d"/>
  <g>
    <path d="M55.9,471.1c-.5,0-.9-.3-1-.8-.1-.6.2-1.1.7-1.3l401.6-107.6c.6-.1,1.1.2,1.3.7.1.6-.2,1.1-.7,1.3L56.2,471.1c0,0-.2,0-.3,0Z" fill="#483432"/>
    <path d="M457.5,471.1c0,0-.2,0-.3,0L55.7,363.5c-.6-.1-.9-.7-.7-1.3.1-.6.7-.9,1.3-.7l401.6,107.6c.6.1.9.7.7,1.3-.1.5-.5.8-1,.8Z" fill="#483432"/>
    <rect x="50.5" y="331.4" width="10.9" height="180.6" rx="5.5" ry="5.5" fill="#483432"/>
    <rect x="452" y="331.4" width="10.9" height="180.6" rx="5.5" ry="5.5" fill="#483432"/>
  </g>
  <rect x="0" y="317.4" width="513.4" height="30.5" rx="15.3" ry="15.3" fill="#f0d595"/>
  <rect x="19" y="295.2" width="102.9" height="41.3" rx="20.6" ry="20.6" fill="#5f75bc"/>
  <g>
    <path d="M474.3,285.1s-80.3-10.5-109.9-15c-34.7-5.3-26.6-.3-31,11.8-2.9,8.1,7.3,25,15.8,28.8,34.3,15.2,127.1,1.8,127.1,1.8l-2.1-27.5Z" fill="#e8a48d"/>
    <path d="M463.5,283.7s10.8,0,17.3-10.7c5.7-9.2,10.6-35,20.4-26.5,7.9,6.9-1.7,28.4-3.6,46.6-1.8,18.1-.3,23.5-8.8,28-8.5,4.5-16.3-5.9-29.7-6.7l4.4-30.6Z" fill="#e8a48d"/>
    <path d="M230.7,322.8c21.8,6.3,54.7-2.9,54.7-2.9l55.2-4.7,50.6,3.1s4.9-8.8,5.9-22.3c.9-12.3-3.1-21.8-3.1-21.8-60.1-13.8-162.2-21.8-162.2-21.8,0,0,1.1,4.8.9,30.7-.1,11.4-2,39.8-2,39.8Z" fill="#483432"/>
    <path d="M231.8,322.9s-40.1-1-88.3,3.9c-48.3,4.8-39.6-31.4-36.2-37.7,3.4-6.3,16.1-33.7,42.9-40.5,40.5-10.3,81.6,3.8,81.6,3.8,0,0,9.3,34.2,0,70.5Z" fill="#f4ebe4"/>
    <g>
      <path d="M114.5,316.7c-.1-3.6,2.4-7.3,5.7-8.9,5-2.4,13.6-.5,25.7.4,40.9,3.1,63,10.5,63.8,24.4,1.3,20.7-44.9,17.6-72.2,7.3-19.2-7.2-22.6-14.9-22.9-23.2Z" fill="#e8a48d"/>
      <path d="M185.5,317.5s-10,22.9,6,26.4c12,2.6,17.8-1.6,23.4-17.7,5.5-16.1,13.9-45.6,12.8-51.1-1.4-6.6-7.2-15.8-17.9-4.2-9.6,10.4-19.8,32.9-24.2,46.6Z" fill="#e8a48d"/>
      <path d="M190.2,326c-.3,0-.6-.1-.8-.4-3.5-4.8-3.2-9.6-3.2-9.8,0-.6.5-1,1.1-1,.6,0,1,.5,1,1.1,0,0-.2,4.3,2.8,8.4.3.5.2,1.1-.2,1.5-.2.1-.4.2-.6.2Z" fill="#483432"/>
      <path d="M158.5,307.7s3.6,19.4-4.3,36.9c0,0-26.1-1.9-39.3-15.3-13.1-13.3-10.7-35.9,43.6-21.6Z" fill="#f4ebe4"/>
    </g>
    <path d="M135.1,261.3s18.8,7.6,5.9,26.4c-12.9,18.8-36.5,11.6-36.5,11.6,0,0-2.5-.5,9.6-19,8.6-13,21-19.1,21-19.1Z" fill="#e8a48d"/>
    <path d="M66.5,272.7s25.6-11.2,16.1-31.4-29.1-10.7-34.3-.3c-.2.4-1,.2-1.4.3-24.3,5.7-32,41.5-10.3,61.3,0,0-2.8,30,28.1,25.1,0,0,23.6,24.4,39.6,3.4,23.8-31.3,4.5-42.2-1-52.2-5.4-10-36.9-6.3-36.9-6.3Z" fill="#483432"/>
    <g>
      <path d="M38.4,260.7h0c-2.9,16.6,8.2,32.4,24.8,35.3l18.4.7c33,.9,35.1-25.1,35.1-25.1,3-17-8.8-28.2-25.4-31.1l-17.9-3.1c-16.6-2.9-32.1,6.7-35,23.3Z" fill="#e8a48d"/>
      <path d="M78.1,302.7s-6.8-19.9-24.4-19.6c-17.6.2,3,22.1,3,22.1,0,0,16,7.3,21.4-2.4Z" fill="#483432"/>
      <path d="M48.8,292.2s8-4.1,11.2-10.8c5.4-11.1-4.6-18.2-4.6-18.2,0,0,18.1-11,6.1-27.1-2.4-3.2-31.6,8-23.9,33.4,7.9,26.1,11.3,22.7,11.3,22.7Z" fill="#483432"/>
      <path d="M100.5,255c-.3,0-.6-.1-.8-.4-.4-.4-.3-1.1.2-1.5,3.8-3,1.7-5.9,1.4-6.3-.3-.5-.3-1.1.2-1.5.5-.4,1.1-.3,1.5.2,1.3,1.6,2.6,5.7-1.8,9.2-.2.2-.4.2-.7.2Z" fill="#483432"/>
      <path d="M36.1,321.1c-.3,0-.7-.2-.9-.5-6.9-10.9-.9-24.1-.6-24.7.2-.5.9-.7,1.4-.5.5.2.7.9.5,1.4,0,.1-5.8,12.8.5,22.7.3.5.2,1.1-.3,1.4-.2.1-.4.2-.6.2Z" fill="#483432"/>
      <path d="M59.5,320.7c-5.1,0-8.7-1.2-10.7-3.6-2.4-2.7-1.7-6-1.7-6.1.1-.6.7-.9,1.2-.8.6.1.9.7.8,1.2,0,.1-.4,2.4,1.3,4.4,1.8,2.1,5.5,3.1,10.6,2.8.6,0,1.1.4,1.1,1,0,.6-.4,1.1-1,1.1-.5,0-1,0-1.5,0Z" fill="#f4ebe4"/>
      <path d="M79.4,237.1s-6.7,11.1-19.4,10.1l-3-13.2,22.4,3.1Z" fill="#483432"/>
      <path d="M69.9,296.8c-.6,2.6,1,9.2,9.7,8.9,8.7-.3,8.4-11.4,8.4-11.4l-14.4-3.8c-1.8,2.1-3.1,3.7-3.7,6.3Z" fill="#e8a48d"/>
      <path d="M97.8,243.4s.5-5.4-3-6c-3.5-.6-4.7,4.5-4.7,4.5l7.7,1.5Z" fill="#e8a48d"/>
      <path d="M87.6,329.9c-6.5,0-11.9-4.2-12-4.2-.5-.4-.5-1-.2-1.5.4-.5,1-.5,1.5-.2,0,0,2.7,2.1,6.3,3.1,4.8,1.4,9,.6,12.6-2.5,6.3-5.4,8.5-16.7,8.5-16.9.1-.6.6-.9,1.2-.8.6.1.9.6.8,1.2,0,.5-2.3,12.2-9.2,18.1-3.2,2.7-6.5,3.6-9.6,3.6Z" fill="#f4ebe4"/>
      <ellipse cx="86" cy="246.7" rx="2.3" ry="2.5" transform="translate(-173.8 274.2) rotate(-76.8)" fill="#483432"/>
    </g>
    <path d="M114.2,265.4s7.6,3.6,16.1,5.7c0,0,3.2,5.7-2.3,18.8-5,12-12.9,9.6-12.9,9.6,0,0-12.7-4.8-21.8-5.1l20.8-29.1Z" fill="#e8a48d"/>
    <path d="M75.4,299.8c-.5,0-.9-.4-1-.9-.3-1.6,0-5.1,3.4-6.4.5-.2,1.1,0,1.4.6.2.5,0,1.1-.6,1.4-2.6,1-2.1,4.1-2.1,4.2,0,.6-.3,1.1-.9,1.2,0,0-.1,0-.2,0Z" fill="#483432"/>
    <path d="M106.9,290.1c-.3,0-.6-.1-.8-.4-.4-.4-.3-1.1.1-1.5,9.9-8.4,9.5-20.4,9.5-20.5,0-.6.4-1.1,1-1.1.6,0,1.1.4,1.1,1,0,.5.5,13.2-10.2,22.2-.2.2-.4.2-.7.2Z" fill="#483432"/>
    <path d="M157.3,310.8c0,0-.2,0-.3,0,0,0-6.6-2-12.8-2.7-.6,0-1-.6-.9-1.2,0-.6.6-1,1.2-.9,6.4.8,12.9,2.7,13.2,2.8.6.2.9.7.7,1.3-.1.5-.5.7-1,.7Z" fill="#483432"/>
  </g>
  <path d="M296.8,259.4c0,0-.1,0-.2,0-.3,0-26.8-4.2-51.3-5.4-.6,0-1-.5-1-1.1,0-.6.5-1,1.1-1,24.6,1.2,51.3,5.4,51.5,5.4.6,0,1,.6.9,1.2,0,.5-.5.9-1,.9Z" fill="#f4ebe4"/>
  <g>
    <path d="M214,285.8c-6.6-3.6-7.3-12.8-1.6-17.7,3.8-3.3,10-8.4,14.3-11.3,6.7-4.5,15.3-8.2,16.2-7.7,4.2,2.2-11.8,10.7-11.8,10.7,0,0,10.8-3.1,13.3-2.8,2.5.2,6.6,1.7,5.1,3.2-1.6,1.5-9.9.9-14.6,4.4,0,0,18.9-3.3,15.3,2.5,0,0,3.5,2.5-1.4,4-4.9,1.5-11.2,3.1-12.1,3.2,0,0-6.4,8.3-14.7,11.8-2.8,1.2-5.6.8-8-.5Z" fill="#e8a48d"/>
    <path d="M235.7,270.9c-.4,0-.8-.3-1-.7-.2-.5,0-1.1.6-1.3,7-2.5,14.7-2.6,15-2.7.6,0,1,.4,1.1,1,0,.6-.4,1-1,1.1,0,0-7.7.2-14.3,2.5-.1,0-.2,0-.3,0Z" fill="#483432"/>
  </g>
  <g>
    <path d="M426.4,145.9c2.9,3.3,4.2,6.5,3.9,10.8-.5,6.7-30.5,42.8-36.1,48.9-9.6,10.4-21.8,18.3-30.7,14.3-27.5-12.5-1.2-40.5,30.5-75.7,11.5-12.7,25.3-6.4,32.3,1.6Z" fill="#e8a48d"/>
    <path d="M404.7,198.8s-18.4-7.7-35.3-28.9c0,0,23-33.9,38.5-40.9,15.8-7.1,26.2-2.5,30.4,7.2,2.6,5.9,2.3,12.6-.4,18.5-3.8,8.3-12.8,23.5-33.3,44Z" fill="#5f75bc"/>
    <path d="M369.7,170c-.2,0-.4,0-.6-.2-.5-.4-.5-1-.2-1.5,0-.1,9.8-12.6,20.4-24.6.4-.4,1-.5,1.5,0,.4.4.5,1,0,1.5-10.6,12-20.3,24.4-20.4,24.6-.2.3-.5.4-.8.4Z" fill="#483432"/>
    <g>
      <path d="M373.2,187.8s15.2,13,6.3,27.8c-2.9,4.8-16.3,7.8-24.2,2.8-16.9-10.7-54.4-48.5-58.2-54.1-5.3-7.9-4.3-18.3,13.8-14.1,16.3,3.8,51.6,30.7,62.3,37.6Z" fill="#e8a48d"/>
      <g>
        <path d="M312.1,150.6s-13.3-10.5-19.2-10.6c-5.9,0,4.9,10.6,4.9,10.6,0,0,11.2,5,14.3,0Z" fill="#e8a48d"/>
        <g>
          <path d="M324.7,168.3c1.3-5.4-6.5-16.2-15.5-18.9-6-1.8-11.7-3.8-18.1-4.9-9.9-1.8-21.7-1.6-22.5-.6-3.7,4.7,18.9,6.4,18.9,6.4,0,0-13.9,1.9-16.7,3.5-2.8,1.6-6.8,5.3-4.2,6.2,2.6.9,11.8-3.9,19-2.3,0,0-23.3,5.7-16.2,10.6,0,0-2.8,4.6,3.6,3.8,6.4-.8,14.4-2.1,15.5-2.5,0,0,12.3,5.5,21.4,4.1s14-2.1,14.8-5.5Z" fill="#e8a48d"/>
          <path d="M270.6,168.8c-.4,0-.8-.2-1-.6-.2-.5,0-1.1.6-1.4.3-.1,8-3.3,17.2-4,.6,0,1.1.4,1.1,1,0,.6-.4,1.1-1,1.1-8.8.7-16.4,3.8-16.5,3.9-.1,0-.3,0-.4,0Z" fill="#483432"/>
        </g>
      </g>
    </g>
    <path d="M404.8,199c-.3,0-.5-.1-.7-.3-.4-.4-.4-1.1,0-1.5,0,0,7.9-7.9,13.9-14.4,1.2-1.3,2.4-2.3,3.8-3,1.8-1,3.8-1.4,6.1-1.3.6,0,1,.5,1,1.1,0,.6-.5,1-1.1,1-1.9,0-3.6.3-5.1,1-1.1.6-2.2,1.5-3.2,2.6-6,6.5-13.8,14.4-13.9,14.4-.2.2-.5.3-.7.3Z" fill="#483432"/>
    <path d="M370.1,195.1h0c-.6,0-1-.5-1-1,0-7.4-5.1-11.1-5.3-11.2-.5-.3-.6-1-.3-1.4.3-.5,1-.6,1.4-.3.3.2,6.2,4.4,6.2,12.9,0,.6-.5,1-1,1Z" fill="#483432"/>
  </g>
  <path d="M269,6.2s-7.6-2.6-8.5.5,5.7,6.3,5.7,6.3c0,0-6.1,0-5.2,4.5s6.4,4,6.4,4c0,0-4.5,2.3-.7,4.6,3.8,2.2,10.9,4,10.9,4,0,0-1.9,5.7.5,7.3,3,1.9,6.6.8,7.4-1.9s2.4-6.1,1.4-8.8c-1-2.7-2.6-4.6-4.4-6s-1.2-9.7-13.4-14.4Z" fill="#e8a48d"/>
  <path d="M267.4,22.5c-.5,0-.9-.3-1-.8-.1-.6.2-1.1.7-1.3.2,0,4.4-1.1,10.4-.3.6,0,1,.6.9,1.2,0,.6-.6,1-1.2.9-5.6-.8-9.6.2-9.6.2,0,0-.2,0-.3,0Z" fill="#483432"/>
  <path d="M273.9,15.4c-.1,0-.2,0-.3,0-3.5-1.1-7.4-1.3-7.5-1.3-.6,0-1-.5-1-1.1,0-.6.5-1,1.1-1,.2,0,4.3.2,8,1.4.5.2.8.8.7,1.3-.1.4-.6.7-1,.7Z" fill="#483432"/>
  <path d="M277.5,31c-.2,0-.4,0-.5-.1-.5-.3-.7-.9-.4-1.4,0-.1,1.8-3,3.5-4.7.4-.4,1.1-.4,1.5,0,.4.4.4,1.1,0,1.5-1.6,1.5-3.2,4.2-3.2,4.2-.2.3-.5.5-.9.5Z" fill="#483432"/>
  <path d="M280.9,39.4c-1.1,0-2.3-.3-3.5-1.3-.5-.4-2.6-2.1-1.2-7.3-3.6-.8-11-2.8-11.8-5.5-.4-1.3-.1-2.3.4-3.1-1.8-.5-4-1.5-4.7-3.8-.4-1.2-.2-2.3.4-3.3.7-1.1,1.8-1.8,3-2.3-1.6-1-3.6-2.6-4.1-4.2-.4-1.2-.1-2.1.2-2.6.7-1.2,2.1-1.5,2.2-1.6.6-.1,1.1.2,1.2.8.1.6-.2,1.1-.8,1.2-.2,0-.7.2-.9.6,0,0-.2.3,0,.9.4,1.3,3.3,3.2,5.2,4.2.4.2.6.6.6,1.1,0,.4-.4.8-.9.9-1.2.2-3.3.9-4,2.1-.3.5-.3,1-.2,1.6.8,2.6,5.2,2.7,5.3,2.7.5,0,.9.4,1,.9s-.2,1-.7,1.1c-.4.1-1.7.7-1.2,2.2.3,1.1,5.6,3.1,11.3,4.3.3,0,.5.2.7.5.1.3.2.6,0,.8-1.6,4.8,0,6.1.1,6.1,0,0,0,0,0,0,2.4,2,5-.2,5.1-.3.4-.4,1.1-.3,1.5.1s.3,1.1-.1,1.5c-.8.7-2.4,1.6-4.2,1.6Z" fill="#483432"/>
  <path d="M258.7,99.8c0,0-.1,0-.2,0-.6-.1-.9-.6-.8-1.2,0-.3,5-28.3,4.4-34.4-.6-6.2-3.7-26.3-3.7-26.5,0-.6.3-1.1.9-1.2.6,0,1.1.3,1.2.9,0,.2,3.1,20.3,3.7,26.6.7,6.4-4.2,33.9-4.4,35,0,.5-.5.9-1,.9Z" fill="#483432"/>
  <path d="M292.6,117.4c-.6,0-1-.4-1-1-.4-12.2-4.2-38.9-4.3-39.2,0-.6.3-1.1.9-1.2.6,0,1.1.3,1.2.9,0,.3,3.9,27.1,4.3,39.4,0,.6-.4,1.1-1,1.1,0,0,0,0,0,0Z" fill="#483432"/>
  <path d="M470.7,309.6c-1.2,0-2.6-.3-4.2-.9-.5-.2-.8-.8-.6-1.4.2-.5.8-.8,1.4-.6,5.6,2.3,8.1-1.5,8.3-1.6.3-.5,1-.6,1.4-.3.5.3.6.9.3,1.4,0,0-2.2,3.3-6.6,3.3Z" fill="#483432"/>
  <path d="M272.9,66.2c-.4,0-.8-.2-.9-.6-.3-.5,0-1.1.5-1.4,5.5-2.7,4.3-7.1,4.3-7.2-.1-.6.2-1.1.7-1.3.5-.2,1.1.2,1.3.7,0,0,1.7,6.2-5.4,9.7-.1,0-.3.1-.5.1Z" fill="#483432"/>
</svg>