<?xml version="1.0" encoding="UTF-8"?>
<svg id="icon" xmlns="http://www.w3.org/2000/svg" version="1.1" viewBox="0 0 512 715.1">
  <!-- Generator: Adobe Illustrator 29.0.1, SVG Export Plug-In . SVG Version: 2.1.0 Build 192)  -->
  <g>
    <path d="M170.5,486.8s-22.1,118.1-15.9,170.9c6.2,52.8,43.3,55.3,72.2,51.4,20.5-2.7,32.8-36.3,39.2-62.7,6.4-26.4,15.1-157.1,15.1-157.1l-110.5-2.5Z" fill="#5f75bc"/>
    <path d="M368,486.8s22.1,118.1,15.9,170.9c-6.2,52.8-43.3,55.3-72.2,51.4-20.5-2.7-32.8-36.3-39.2-62.7-6.4-26.4-15.1-157.1-15.1-157.1l110.5-2.5Z" fill="#5f75bc"/>
    <path d="M369.7,238.3c17.2-9.2,31,5.6,36.3,11.3,11.6,12.4,25.4,38.5,35.4,61.8,9.9,23.2,17.4,45,6.1,65.5-23.8,42.9-72.9-18.5-88.3-86.8-6.7-29.8-2.5-44.9,10.5-51.9Z" fill="#e8a48d"/>
    <path d="M437.4,291.7s-26.4,29.3-73.7,30.6c0,0-27.3-45.2-31.7-59.6-12.1-39.5,37.3-59.5,48.7-50.2,0,0,32.5,28,56.7,79.2Z" fill="#5f75bc"/>
    <path d="M297.6,29.9s13.9-40,43.9-22.5c8.6,5,15,13.1,18,22.6,1.9,6.2,3.7,14.8,4.2,26.2,1.3,27.9,38,31.9,38,31.9,0,0,32.2,5.7,21.8,49.3,0,0-8.1,24.6,3.6,41.3,0,0-3.7,5.2-10.1,7.6,0,0-7.7-15.8-7.9-24.7,0,0-4,11.3,2.9,24.6,0,0-3.4,2.9-6.4,2.6,0,0-8.9-10.4-7.6-42.1,0,0-5.9,23,2.6,43.8,0,0-7.7,4-19.7,3.7,0,0-6-18.5-4.1-32.4,0,0-7.2,14.3-5.9,33.5,0,0-29.7,6-41.5,3.4,0,0-31.2-100.7-31.7-140.1v-28.7Z" fill="#483432"/>
    <path d="M430.4,149.5c0,0-.1,0-.2,0-.9-.1-1.5-.9-1.4-1.8,5.6-40.8-17.8-50.9-18.8-51.3-.8-.3-1.2-1.3-.9-2.1.3-.8,1.3-1.2,2.1-.9.3.1,26.7,11.3,20.7,54.7-.1.8-.8,1.4-1.6,1.4Z" fill="#483432"/>
    <path d="M385.6,144.9c-.2,0-.3,0-.5,0-.8-.3-1.3-1.2-1.1-2,2.9-9.5,2.7-16.8-.6-21.4-3.6-5.1-9.8-5.4-9.9-5.4-.9,0-1.6-.8-1.5-1.7,0-.9.8-1.5,1.7-1.5.3,0,7.8.4,12.3,6.7,3.9,5.5,4.3,13.7,1.1,24.3-.2.7-.8,1.1-1.5,1.1Z" fill="#f4ebe4"/>
    <path d="M406,141.2c-.1,0-.3,0-.4,0-.9-.2-1.4-1.1-1.1-1.9,4.1-15.7,1.2-22.4-1.3-26-4.5-6.4-17.2-9.8-17.3-9.9-.9-.2-1.4-1.1-1.1-2s1.1-1.4,2-1.1c.6.2,14,3.8,19.1,11.1,4.6,6.6,5.2,15.7,1.8,28.7-.2.7-.8,1.2-1.5,1.2Z" fill="#f4ebe4"/>
    <path d="M330.2,36.6s-9.5-15-26.7-26.3c0,0,8.8-17.6,27.1,1.7s-.4,24.6-.4,24.6Z" fill="#f4ebe4"/>
    <path d="M321.1,200.1c-.7,0-1.3-.4-1.5-1.1-.2-.5-15.3-47.5-3.8-89.7.2-.9,1.1-1.4,2-1.1.9.2,1.4,1.1,1.1,2-11.2,41.2,3.6,87.4,3.8,87.9.3.8-.2,1.7-1,2-.2,0-.3,0-.5,0Z" fill="#483432"/>
    <path d="M167.7,248.2c5.9,4.9,9.3,10.1,10.1,17.7,1.2,11.7-28.6,66.6-42.7,86.4-14.4,20.4-22.8,34.4-45.8,37.1-48.2,5.6-27.1-69.2,18.9-120.8,20.1-22.5,45.1-32.2,59.6-20.4Z" fill="#e8a48d"/>
    <path d="M164.7,315.8s-45.4-2.9-70.9-37.1c0,0,31-50.6,55.4-67.9,33.5-23.8,42.8,11,43,25.9,0,0-6.1,25.7-27.5,79Z" fill="#5f75bc"/>
    <g>
      <path d="M332.1,98.2s-.3,25-16,28.9c-15.7,3.9-1.7-28.8,16-28.9Z" fill="#f4ebe4"/>
      <path d="M250.7,7.9h0c35-2.3,65.2,24.2,67.5,59.2l2.5,37.7c-6.5,54.8-34,65.9-59.2,67.5h0c-35.8,2.3-62-24.4-64.3-59.4l-2.5-37.7c-2.3-35,21-65,56-67.3Z" fill="#e8a48d"/>
      <ellipse cx="230.3" cy="98.2" rx="4.4" ry="4.8" transform="translate(-5.9 15.3) rotate(-3.8)" fill="#483432"/>
      <ellipse cx="275.9" cy="94.7" rx="4.4" ry="4.8" transform="translate(-5.6 18.3) rotate(-3.8)" fill="#483432"/>
      <path d="M249.4,111.9c-.8,0-1.5-.6-1.6-1.5-.1-1.9.7-5.7,4.7-6.4,4.2-.7,6.6,3.5,6.7,3.7.4.8.1,1.7-.6,2.2-.8.4-1.7.1-2.2-.6,0,0-1.4-2.5-3.4-2.1-2.2.4-2,2.9-2,3,0,.9-.6,1.6-1.5,1.7,0,0,0,0-.1,0Z" fill="#483432"/>
      <path d="M255.7,133.3c-6.8,0-12-3.6-12.1-3.6-.7-.5-.9-1.5-.4-2.2.5-.7,1.5-.9,2.2-.4h0c.5.3,12.3,8.3,22.9-2.9.6-.6,1.6-.7,2.3,0,.6.6.7,1.6,0,2.3-5,5.3-10.3,6.9-14.9,6.9Z" fill="#483432"/>
      <path d="M285.2,7.8c24.5-16.4,72.6,42,47.7,79.1l-10.6,4.6s-40.5-38.3-41.2-63.2c0,0-2.4-16.2,4.1-20.5Z" fill="#483432"/>
      <path d="M304.9,82.7c-.4,0-.7-.1-1-.4-26.1-22.6-19.7-47.4-19.4-48.4.2-.9,1.1-1.4,2-1.1.9.2,1.4,1.1,1.1,2,0,.1-1.6,6.1,0,14.6,1.4,7.8,5.7,19.5,18.5,30.6.7.6.7,1.6.2,2.3-.3.4-.8.6-1.2.6Z" fill="#483432"/>
      <path d="M297.5,34.3s-38.4,51.4-102.8,40.9c0,0-16.7-37.9,30.7-65.7,39-22.9,82.1,2.9,72.1,24.9Z" fill="#483432"/>
      <path d="M316.9,85.4s-8.8-44.8-56.3-47c-47.6-2.2-66.4,32.8-66.4,32.8,0,0-1.5-10.4,4.6-21.9,6.7-12.9,28.1-39.8,75.9-31.3,43.7,7.8,57.7,50.2,55.9,70.3l-13.6-2.9Z" fill="#f4ebe4"/>
      <path d="M324.3,81.1c5.6-.3,18.4,5.5,14.6,23.2-3.9,17.7-26.5,13-26.5,13l-2.4-31c4.9-2.9,8.7-4.9,14.3-5.1Z" fill="#e8a48d"/>
      <path d="M316.2,100.8c-.1,0-.2,0-.4,0-.9-.2-1.4-1.1-1.2-1.9.6-2.8,3.7-8,10.7-7.6.9,0,1.6.8,1.5,1.7,0,.9-.8,1.6-1.7,1.5-5.9-.3-7.2,4.6-7.4,5.2-.2.7-.8,1.2-1.6,1.2Z" fill="#483432"/>
      <path d="M251.6.8s35.9-5.1,59.4,9.8c16.7,10.6-45.4,0-45.4,0,0,0-20.5-2.5-14-9.8Z" fill="#483432"/>
    </g>
    <path d="M257.6,178.5s126.2-6.9,137.2,62.3c1.6,9.8-33.6,75-36.5,114.3-1.7,22.8,15.3,92.1,22.1,134.1,0,0-46.1,18.2-112.2,15.7-70.4-2.7-112.2-12-112.2-12l23.5-105c5.5-24.6,5.2-50.2-1.3-74.6-13.5-50.9-39.1-89.3-39.1-89.3,15.2-31.4,66.5-39.4,66.5-39.4,48-6.8,52-6.1,52-6.1Z" fill="#5f75bc"/>
    <path d="M231.4,158.7s1.2,25,0,34.5c0,0,13.1,7.2,43.9,6.1,21.5-.8,29.8-9.4,29.8-9.4,0,0-2.2-27.2-.7-46.1l-73,14.8Z" fill="#e8a48d"/>
    <ellipse cx="268.3" cy="196.8" rx="47.8" ry="15" fill="#e8a48d"/>
    <path d="M258.6,174c-14.2,0-24.3-4.5-24.5-4.6-.8-.4-1.2-1.3-.8-2.1.4-.8,1.3-1.2,2.1-.8.3.1,31.6,14,61.2-8.8.7-.5,1.7-.4,2.2.3.5.7.4,1.7-.3,2.2-14,10.8-28.3,13.7-39.9,13.7Z" fill="#483432"/>
    <path d="M366.3,321.3c-.2,0-.4,0-.6-.1-.8-.3-1.2-1.3-.9-2.1.1-.3,11.3-28.8,13-67.6,0-.9.8-1.6,1.7-1.5.9,0,1.6.8,1.5,1.7-1.7,39.4-13.2,68.3-13.3,68.6-.2.6-.9,1-1.5,1Z" fill="#483432"/>
    <path d="M172.7,293.4c-.8,0-1.4-.5-1.6-1.3,0-.1-2-10.5-13.4-39.9-.3-.8,0-1.7.9-2.1.8-.3,1.7,0,2.1.9,11.5,29.8,13.5,40.1,13.5,40.5.2.9-.4,1.7-1.3,1.9,0,0-.2,0-.3,0Z" fill="#483432"/>
    <path d="M267.3,504.5c-.8,0-1.5-.7-1.6-1.5-4.7-82.5,2.1-284.1,2.2-286.1,0-.9.8-1.6,1.7-1.5.9,0,1.6.8,1.5,1.7,0,2-6.8,203.5-2.2,285.9,0,.9-.6,1.6-1.5,1.7,0,0,0,0,0,0Z" fill="#483432"/>
    <rect x="311.4" y="273" width="40" height="9.2" fill="#f4ebe4"/>
    <path d="M336.7,84.2c-.2,0-.4,0-.6-.1-.8-.3-1.2-1.2-.9-2.1,9.5-25.4-2.7-47.7-2.8-47.9-.4-.8-.2-1.7.6-2.2.8-.4,1.7-.2,2.2.6.5,1,13,23.7,3,50.6-.2.6-.8,1-1.5,1Z" fill="#f4ebe4"/>
    <path d="M273.2,505.8c-55,0-101.2-8.3-101.9-8.5-.9-.2-1.4-1-1.3-1.9.2-.9,1-1.4,1.9-1.3,1.1.2,111.4,20.1,193.9-2,.9-.2,1.7.3,2,1.1.2.9-.3,1.7-1.1,2-29.7,7.9-62.9,10.5-93.4,10.5Z" fill="#483432"/>
  </g>
  <g>
    <path d="M96.3,213.9s-56.7-8.7-59.9,28.6c-2.1,24,29.5,34.9,64,39.7,17.5,2.4,43.8,8.3,102.9,2.7,20.4-1.9,58.6-19.4,1.4-40.5-29.3-10.8-68.9-26.3-108.4-30.6Z" fill="#e8a48d"/>
    <path d="M428.3,222.8s56.7-8.7,59.9,28.6c2.1,24-29.5,34.9-64,39.7-17.5,2.4-43.8,8.3-102.9,2.7-20.4-1.9-58.6-19.4-1.4-40.5,29.3-10.8,68.9-26.3,108.4-30.6Z" fill="#e8a48d"/>
    <path d="M172.3,382.8c-4.3,6.1-13.3,9.4-20.8,8.5-11.5-1.4-27.8-7.5-45.3-24.1-30.3-28.6-73.3-94.2-70.1-120.8,4.9-40.8,79.5,8.2,125.9,73.2,23.5,32.9,20.1,49.2,10.2,63.2Z" fill="#e8a48d"/>
    <path d="M152.3,306.6s3,41.8-46,60.6l73.7,73.4s39.8-65.9,56.9-83.2c0,0-33.9-1-84.6-50.9Z" fill="#f4ebe4"/>
    <path d="M361.6,383.7c4.6,5.8,13.8,8.6,21.2,7.2,11.4-2.1,27.3-9.2,43.8-26.7,28.5-30.4,66.4-86.5,61.6-112.8-7.3-40.5-77.7,1-120.2,68.6-21.5,34.3-17.2,50.3-6.5,63.7Z" fill="#e8a48d"/>
    <path d="M373,312.5s5.7,42.8,53.6,51.7l-69.2,77.6s-43.6-63.5-61.7-79.7c0,0,29.6,3.1,77.2-49.6Z" fill="#f4ebe4"/>
    <path d="M243.1,365.9s-29.5,8.5-39.8-13.8c0,0-32.3,3.9-27.3-22.3,0,0-24.8-21.6-3.6-43.3,0,0-19.2-13.8-4.7-32.8,0,0-6.1-22,14.3-27.4,0,0,5.9-27.1,34.9-22,0,0,17-23,38.3-4.2,0,0,28.3-19.5,47.1,5.1,0,0,30.9-2,32.4,27,0,0,20.7,6.6,14,28.3,0,0,20.4,17.6-.3,34.8,0,0,12.2,30.1-15.8,41.9,0,0,1.6,25.9-26.5,24.1,0,0-22.3,17.8-40.8,2.9,0,0-9,13.2-22.1,1.7Z" fill="#483432"/>
    <polygon points="378.5 583.2 356.9 566.6 199.6 565.5 120.5 606.3 254.5 658.5 388.5 657.8 378.5 583.2" fill="#f0d595"/>
    <path d="M246,367.9s-96.5-2.2-79,59.7c13.4,47.5,36.7,67.4,19.2,144.7,0,0,35.4,22.5,92.6,20.3,59.3-2.3,78.1-26,78.1-26,0,0-4.8-45.8-3-63.9,7.3-72.6,21.6-120.8,21.6-120.8-16-9.7-36.1-12-36.1-12-53.2-9-93.4-2-93.4-2Z" fill="#f4ebe4"/>
    <g>
      <path d="M242.1,211.7h0c30.9-2.7,58.2,20.2,60.9,51.1l-1.6,33.9c-3.6,60.7-51.6,60.5-51.6,60.5-31.6,2.8-50.3-20.7-53-51.6l-2.9-33.3c-2.7-30.9,17.4-57.9,48.3-60.6Z" fill="#e8a48d"/>
      <path d="M231.6,324.6c-6.5,0-10.4-1.8-10.6-2-.8-.4-1.1-1.4-.7-2.1.4-.8,1.4-1.1,2.1-.7.1,0,9.3,4.3,23.5-1.3.8-.3,1.7,0,2.1.9.3.8,0,1.7-.9,2.1-6.1,2.4-11.4,3.2-15.5,3.2Z" fill="#483432"/>
      <path d="M228.3,310.1s0,0,0,0c-.9,0-1.6-.8-1.5-1.6,0-1.8,1.1-5.1,4.9-5.4,3.1-.2,5.1,2.4,5.8,4,.3.8,0,1.8-.8,2.1-.8.3-1.7,0-2.1-.8,0,0-1-2.2-2.6-2.1-1.7.1-1.9,2-1.9,2.3,0,.9-.7,1.5-1.6,1.5Z" fill="#483432"/>
      <path d="M234.1,345.3s1.3,24,.5,32.5c0,0,12.2,15.6,37.9,11.1,25.7-4.5,26.3-14.2,26.3-14.2,0,0-2.9-45-1.3-62.6l-63.4,33.1Z" fill="#e8a48d"/>
      <path d="M241,359.7c-5.7,0-9.2-.8-9.4-.9-.9-.2-1.4-1.1-1.2-1.9.2-.9,1.1-1.4,1.9-1.2.3,0,28.9,6.6,54.5-19.8.6-.6,1.6-.6,2.3,0,.6.6.6,1.6,0,2.3-14.1,14.4-28.9,19.3-38.9,20.8-3.5.5-6.6.7-9.2.7Z" fill="#483432"/>
      <path d="M252.2,297.3c-4.9,0-7.7-2.3-7.8-2.5-.7-.6-.7-1.6-.1-2.3.6-.7,1.6-.7,2.2-.1.2.2,5.3,4.3,14.8-1,.8-.4,1.7-.2,2.2.6.4.8.2,1.7-.6,2.2-4.2,2.4-7.8,3.1-10.6,3.1Z" fill="#483432"/>
      <path d="M211.1,299.1c-4.9,0-7.7-2.3-7.8-2.5-.7-.6-.7-1.6-.1-2.3.6-.7,1.6-.7,2.2-.1.2.2,5.3,4.3,14.8-1,.8-.4,1.7-.2,2.2.6s.2,1.7-.6,2.2c-4.2,2.4-7.8,3.1-10.6,3.1Z" fill="#483432"/>
    </g>
    <path d="M276.6,706.4s24.5,7.5,69.1,7.9c44.6.4,62.8,3.9,61.6-7.9-1.1-11.8-12.7-13-15.1-24.5-2.7-13-8.7-20-14.8-19.2-6.1.8-28.9,14.7-34.9,14.4s-17.3-1.1-24.5-2.3-24.4-17-24.4-17c0,0-26.2,22.2-17.2,48.6Z" fill="#e8a48d"/>
    <path d="M93.9,557.1c-17.5,2.1-32.5,14.2-36.9,31.3-4.2,16.4.2,39,34.2,64,68.1,50.1,190.9,54,190.9,54,0,0,14.5-22.8,19.2-44.7,0,0-121.7-114.7-207.4-104.5Z" fill="#f0d595"/>
    <path d="M396.8,708.1c-.7,0-1.3-.4-1.5-1.1-1.5-4.9-5.1-6.8-8.9-9-1.2-.7-2.4-1.4-3.5-2.1-11.1-7.7-9.8-19.7-9.8-20.2.1-.9.9-1.5,1.8-1.4.9.1,1.5.9,1.4,1.8,0,.5-1.1,10.7,8.4,17.2,1,.7,2.1,1.3,3.3,2,4,2.2,8.5,4.7,10.4,10.8.3.8-.2,1.7-1,2-.2,0-.3,0-.5,0Z" fill="#483432"/>
    <path d="M280.2,706.4s-24.5,7.5-69.1,7.9c-44.6.4-62.8,3.9-61.6-7.9,1.1-11.8,12.7-13,15.1-24.5,2.7-13,8.7-20,14.8-19.2,6.1.8,28.9,14.7,34.9,14.4,6-.4,17.3-1.1,24.5-2.3,7.2-1.1,24.4-17,24.4-17,0,0,26.2,22.2,17.2,48.6Z" fill="#e8a48d"/>
    <path d="M448.9,550c17.6,1.1,33.3,12.4,38.5,29.3,5.1,16.1,1.9,38.9-30.7,65.8-65.3,53.7-187.7,64.2-187.7,64.2,0,0-15.7-22-21.6-43.6,0,0,115.4-121.1,201.5-115.6Z" fill="#f0d595"/>
    <path d="M160,708.1c-.2,0-.3,0-.5,0-.8-.3-1.3-1.2-1-2,1.9-6.1,6.4-8.6,10.4-10.8,1.2-.7,2.3-1.3,3.3-2,9.6-6.6,8.4-17.1,8.4-17.2-.1-.9.5-1.7,1.4-1.8.9-.1,1.7.5,1.8,1.4,0,.5,1.4,12.5-9.8,20.2-1.1.8-2.4,1.5-3.5,2.1-3.8,2.1-7.3,4.1-8.9,9-.2.7-.8,1.1-1.5,1.1Z" fill="#483432"/>
    <path d="M250.2,664.3c-.4,0-.9-.2-1.2-.5-.6-.6-.6-1.7,0-2.3.5-.5,55.1-51.2,105.6-79.7.8-.4,1.7-.2,2.2.6.4.8.2,1.7-.6,2.2-50.2,28.3-104.4,78.7-105,79.2-.3.3-.7.4-1.1.4Z" fill="#483432"/>
    <path d="M274.7,640.8c-.3,0-.7-.1-1-.3-.4-.3-42.9-32.1-76.8-48.8-.8-.4-1.1-1.3-.7-2.1.4-.8,1.3-1.1,2.1-.7,34.2,16.8,76.9,48.8,77.3,49.1.7.5.8,1.5.3,2.2-.3.4-.8.6-1.3.6Z" fill="#483432"/>
    <path d="M308.3,279.1s-6.1,5.7-16.1,4.5c-9.4-1.2-4.2-10-6.5-13.5-3.3-5.2-7.9-2.4-13.4-3.4-5-.9-5.1-10.2-7.8-13.7-4.5-5.9-11.6-.7-16.2-.7-7.3,0-8-6-15.6-4.1s-7.2,10.3-16.3,8.6c-10.6-2-11.7.4-14.2,6.4s-8.9,9.9-10.8,4.6-.2-50.9,40.7-57.8c63.4-10.7,82,25.5,86,48.8,1.3,7.3,2.3,13.3-9.9,20.5Z" fill="#483432"/>
    <path d="M300.4,282.7c-.6-.8-5.6-5.7-.4-17.5,1.8-4.1,2.4-13.1-7-16.2-5.5-1.8-5.7-8.6-6.1-10.6-.8-3.5-1.1-5.8-9.5-6.6s-9.6-2.7-13-6.4c-2.4-2.7-8.1-7-17.6-2.5,0,0-8.9,5.2-12.8,1.9-6.4-5.4-10.7,3.9-13.8,6-3.5,2.4-6,3.2-10.8,3.1-6.1-.1-8.8,8-7.2,12s-2.8,8.2-3.7,8.6-6.2,3.6-3.6,8.6c1.5,2.9,2.7,7.3,2.5,10.4-.3,5.3-1.1,11.7-3.4,9-3.7-4.4-12.2-42,15-59.6s62.4-8.3,72.6-3c6,3.1,26.5,13.7,26.3,43.2-.2,29.2-5.4,21.9-7.3,19.5Z" fill="#5f75bc"/>
    <path d="M303.4,277.8c4.9-.7,16.7,3.3,14.8,19.2-1.9,15.9-22.3,13.6-22.3,13.6l-8.5-22.5c4.1-2.9,11.1-9.6,16-10.3Z" fill="#e8a48d"/>
    <path d="M297.8,296c0,0-.1,0-.2,0-.9-.1-1.5-.9-1.4-1.8.3-2.6,2.6-7.5,8.9-7.8.9,0,1.6.7,1.7,1.5,0,.9-.7,1.6-1.5,1.7-5,.2-5.8,4.5-5.9,5-.1.8-.8,1.4-1.6,1.4Z" fill="#483432"/>
    <path d="M155.8,318.4c-.8,0-1.5-.6-1.6-1.5,0-.7-1.2-16.1,7.3-25.8,4.1-4.7,9.8-7.2,16.8-7.4.9,0,1.6.7,1.7,1.5,0,.9-.7,1.6-1.5,1.7-6.1.2-11,2.4-14.5,6.4-7.7,8.7-6.5,23.3-6.5,23.5,0,.9-.6,1.7-1.5,1.7,0,0,0,0-.1,0Z" fill="#483432"/>
    <path d="M356,257.9s0,0-.1,0c-.9,0-1.5-.8-1.5-1.7.6-7-1-12.7-4.8-16.8-6.5-7.2-17.5-7.5-17.6-7.5-.9,0-1.6-.7-1.6-1.6,0-.9.7-1.6,1.6-1.6h0c.5,0,12.5.3,19.9,8.6,4.4,4.8,6.2,11.3,5.6,19.2,0,.8-.8,1.5-1.6,1.5Z" fill="#483432"/>
    <path d="M344.5,326.3c-.5,0-.9-.2-1.2-.6-.6-.7-.5-1.7.2-2.2,17.1-14.1,8.2-34,7.8-34.8-.4-.8,0-1.7.8-2.1.8-.4,1.7,0,2.1.8.1.2,10.3,22.9-8.7,38.6-.3.2-.7.4-1,.4Z" fill="#483432"/>
    <path d="M246.8,260.7c-.4,0-.8,0-1.2,0-3-.4-5.4-2-7.1-4.8-4.7-7.8-10-6-10.1-6-.8.3-1.7-.1-2-1-.3-.8.1-1.7,1-2,.3-.1,7.9-2.8,13.9,7.3,1.2,2,2.8,3.1,4.7,3.3,3.2.4,6.8-1.6,8.7-3.6.6-.6,1.6-.6,2.3,0s.6,1.6,0,2.3c-2.3,2.4-6.3,4.6-10.2,4.6Z" fill="#483432"/>
    <path d="M294,211.6c-.5,0-1.1-.3-1.4-.7h0c-.4-.6-8.8-13.5-24.1-5.9-.8.4-1.7,0-2.1-.7-.4-.8,0-1.7.7-2.1,14.4-7.1,24.8,1.5,28.3,7.1.5.7.2,1.7-.5,2.2-.3.2-.6.2-.8.2Z" fill="#f4ebe4"/>
    <path d="M175.7,255.1c-.7,0-1.4-.5-1.5-1.2-1.4-5.5-1.6-16.7,8.1-19.5.8-.2,1.7.2,2,1.1.2.8-.2,1.7-1.1,2-9.1,2.6-5.9,15.5-5.9,15.6.2.9-.3,1.7-1.1,1.9-.1,0-.3,0-.4,0Z" fill="#f4ebe4"/>
    <path d="M326.6,330.6c-.6,0-1.2-.4-1.5-1-.3-.8,0-1.7.9-2.1h0c.7-.3,16.2-7,14.8-22.8,0-.9.6-1.7,1.4-1.7.9,0,1.7.6,1.7,1.4,1.7,18.2-16.6,25.9-16.7,26-.2,0-.4.1-.6.1Z" fill="#f4ebe4"/>
    <ellipse cx="266.4" cy="384.3" rx="44.5" ry="15.8" fill="#e8a48d"/>
    <path d="M130.2,288.1c-4,0-13.4-.2-24.6-1.4-19.9-2.2-35.4-6.7-46.2-13.3-.8-.5-1-1.4-.5-2.2s1.4-1,2.2-.5c24.8,15.1,70.6,14.2,71,14.2.9,0,1.6.7,1.6,1.6,0,.9-.7,1.6-1.6,1.6,0,0-.7,0-2,0Z" fill="#483432"/>
    <path d="M390.1,297.1c-.6,0-1,0-1,0-.9,0-1.6-.7-1.6-1.6,0-.9.7-1.6,1.6-1.6.4,0,36.1.6,67.8-11.6.8-.3,1.7,0,2.1.9.3.8,0,1.7-.9,2.1-29.3,11.3-61.9,11.8-68,11.8Z" fill="#483432"/>
    <path d="M178.9,426.9c-.2,0-.5,0-.7-.2-.8-.4-1.1-1.3-.8-2.1,10.7-22.5,23.4-37.5,23.5-37.7.6-.7,1.6-.8,2.3-.2.7.6.8,1.6.2,2.3-.1.1-12.5,14.9-23,37-.3.6-.8.9-1.4.9Z" fill="#483432"/>
    <path d="M355.5,424.8c-.6,0-1.3-.4-1.5-1,0-.1-5.6-14.6-17.9-33.3-.5-.7-.3-1.7.5-2.2.7-.5,1.7-.3,2.2.5,12.5,19.1,18.1,33.8,18.2,33.9.3.8-.1,1.7-.9,2.1-.2,0-.4.1-.6.1Z" fill="#483432"/>
  </g>
  <g>
    <path d="M45.2,362.7s15.6,34,46.8,25.6c10.1-2.7,33.3-4.1,24.2-37.4-9.9-36.1-66.2-127.6-74.3-137.2-11.4-13.6-30.8-17.2-32.3,17.5-1.4,31.3,28.7,108.6,35.6,131.4Z" fill="#e8a48d"/>
    <g>
      <path d="M9.7,233.6S-2.5,204.3.5,193.6c2.9-10.7,16.5,14.2,16.5,14.2,0,0,3.3,22.7-7.3,25.8Z" fill="#e8a48d"/>
      <g>
        <path d="M34.9,265.2c-10.3-.4-25.9-20-26.1-37.6-.1-11.8-.8-23,.4-35.1,1.8-18.8,8.2-39.8,10.4-40.8,10.4-4.3,1.7,37.3,1.7,37.3,0,0,10.6-24.1,14.9-28.3,4.2-4.2,13-9.5,13.3-4.4.3,5.1-13.1,19.1-13.8,33,0,0,22.2-39.1,27.4-23.8,0,0,9.8-2.6,5.1,8.5-4.7,11.1-11.1,24.9-12.4,26.6,0,0,3.6,24.9-3.6,40.6-1.7,3.7-11,24.1-17.4,23.8Z" fill="#e8a48d"/>
        <path d="M46,197.6c-.2,0-.4,0-.6,0-.8-.3-1.3-1.2-.9-2.1,5.9-16.1,15.6-28.2,16-28.7.6-.7,1.6-.8,2.2-.2s.8,1.6.2,2.2c0,.1-9.7,12.3-15.5,27.8-.2.6-.8,1-1.5,1Z" fill="#483432"/>
      </g>
    </g>
  </g>
  <g>
    <path d="M468.1,360.1c-1.3,4.1-3.2,8.1-5.6,11.7-6.6,9.9-20.8,25.3-42.2,18-13.9-4.7-22.7-25.3-17.8-42,10.6-35.9,59.4-122.8,67.5-132.4,11.4-13.6,30.8-17.2,32.3,17.5,1.3,29.5-25.5,100.2-34.3,127.1Z" fill="#e8a48d"/>
    <g>
      <path d="M502.3,235.3s12.1-29.3,9.2-40c-2.9-10.7-16.5,14.2-16.5,14.2,0,0-3.3,22.7,7.3,25.8Z" fill="#e8a48d"/>
      <g>
        <path d="M477.1,266.9c10.3-.4,25.9-20,26.1-37.6.1-11.8.8-23-.4-35.1-1.8-18.8-8.2-39.8-10.4-40.8-10.4-4.3-1.7,37.3-1.7,37.3,0,0-10.6-24.1-14.9-28.3-4.2-4.2-13-9.5-13.3-4.4-.3,5.1,13.1,19.1,13.8,33,0,0-22.2-39.1-27.4-23.8,0,0-9.8-2.6-5.1,8.5,4.7,11.1,11.1,24.9,12.4,26.6,0,0-3.6,24.9,3.6,40.6,1.7,3.7,11,24.1,17.4,23.8Z" fill="#e8a48d"/>
        <path d="M466,199.3c-.7,0-1.3-.4-1.5-1-5.7-15.6-15.4-27.7-15.5-27.8-.6-.7-.4-1.7.2-2.2.7-.6,1.7-.4,2.2.2.4.5,10.1,12.6,16,28.7.3.8-.1,1.7-.9,2.1-.2,0-.4,0-.6,0Z" fill="#483432"/>
      </g>
    </g>
  </g>
  <path d="M401.6,353.6c-.2,0-.4,0-.6-.1-.8-.3-1.2-1.3-.9-2.1.2-.6,25.3-60.3,54-113.4,0-1.9-.4-9.2-.3-13.8,0-.9.8-1.6,1.7-1.5.9,0,1.6.8,1.5,1.7-.2,5,.3,13.8.3,13.9,0,.3,0,.6-.2.8-28.7,53.1-53.8,112.9-54,113.5-.3.6-.9,1-1.5,1Z" fill="#483432"/>
  <path d="M117.7,359.1c-.7,0-1.3-.4-1.5-1.1-.3-.7-25.6-70.9-61.1-121.8-.2-.3-.3-.6-.3-1,0,0,.4-10.1.4-16.2,0-.9.7-1.6,1.6-1.6h0c.9,0,1.6.7,1.6,1.6,0,5.4-.3,13.6-.4,15.8,35.7,51.2,61,121.4,61.2,122.1.3.8-.1,1.7-1,2-.2,0-.4,0-.5,0Z" fill="#483432"/>
</svg>