<?xml version="1.0" encoding="utf-8"?>
<!-- Generator: Adobe Illustrator 28.0.0, SVG Export Plug-In . SVG Version: 6.00 Build 0)  -->
<svg version="1.1" id="Layer_1" xmlns="http://www.w3.org/2000/svg" xmlns:xlink="http://www.w3.org/1999/xlink" x="0px" y="0px"
	 viewBox="0 0 391.1 408.2" style="enable-background:new 0 0 391.1 408.2;" xml:space="preserve">
<style type="text/css">
	.st0{fill:#FFFFFF;}
	.st1{fill:#785756;}
	.st2{fill:#FEC3AA;}
</style>
<path class="st0" d="M96.3,161.8c0,0-15.4,20.2-20.5,23.6c-5.1,3.4-17.1,13.1-21.4,18.8c-4.3,5.6-10.3,25.5-11.5,30.5
	c-1.2,5-6.4,31.5-7.4,51.4s-2.8,59.4-1.6,62.9c1.2,3.5,1.8,7.1,4,7.3s19.3-1.4,24.4-2.7c5.1-1.4,42.2-9,42.2-9l3.9-29.8
	c0,0,8.1,18.1,8.9,21.9c0.8,3.8,3.5,38.9,4.4,45.1c0.9,6.2,4.5,19.7,4.5,19.7h185.1c0,0-5.5-38.4-8.8-46c-3.3-7.7-19.1-57-19.1-57
	l-8.7-55.3c0,0-7.8-42.7-8.2-44.7s0.2-1.9,0.9-2.1s27.2,7.3,33.7,8.6s11-0.3,12.5-2.5s16.9-30.4,20.7-40.7
	c3.8-10.3,6.6-14.8,3.1-16.6s-76.2-25.5-89.1-28c-12.9-2.4-40-5.8-60.3,1.3s-34.3,13.5-46.1,14.4C130.2,133.7,96.3,161.8,96.3,161.8
	L96.3,161.8z"/>
<path class="st1" d="M24.1,94.9c0,0-12.7-7.7-15.1-21.9S17,51.1,17,51.1s-6.3-8.4,2.9-23.2S59.3,4.6,77.9,5.1
	c18.6,0.5,37.7,11.4,42.6,17.4s3.2,9.4,3.2,9.4s9.5,10.9,10.6,25.9s-3.1,45.7-3.3,49.4c-0.2,3.7,0.2,10,0.2,10S36.3,103.8,24.1,94.9
	L24.1,94.9z"/>
<path class="st2" d="M31.7,57.8c-0.1-0.1-8.8,5.7-8.4,17s3.8,26.4,5.6,32.8c1.8,6.4-0.2,11.2-2.5,13.3s-4.3,3.7-1.3,4.8
	s6.8,2.9,7.8,5.8s3.4,4.5,5.5,6.2s4.1,1.1,6.3-0.6c2.2-1.6,5.6-5.2,9.6-5.7s7.4,2.9,7.7,5.5s-5.9,6.4-9.4,8.6s-6.7,2.7-4.1,5.9
	s6.4,8.9,11,9s24.3-10.8,24.3-10.8s4.1,0.7,7.6,5.3s9.2,13.6,10.2,17.1s9.2,3.8,12.4,2.9c3.2-0.9,20.5-7.8,26.8-14.5
	c6.3-6.7,11.4-14,9.9-19.1c0,0-11.3-10.5-14.4-14.5c-3.1-3.9-5.3-9.8-5.3-9.8s-16.3-1.9-22.3-12c0,0,4.6-9.2,2.7-16.7
	s-6.1-12.1-11.1-12.1s-8.2,11.6-8.2,11.6l-9.6-10.5C82.7,77.4,48.3,79.1,31.7,57.8L31.7,57.8z"/>
<path class="st2" d="M318,198l4.2,0.9c0,0-8.4,26.3-11.7,34.9c-3.3,8.6-9.8,42.4-11.6,44.4c-1.8,2-13,14.9-13.9,25.7l8.3,27.2
	c0,0-1.8,14.2-0.7,17.9s2,6.2,6,8.1s3.4-3.8,3.6-7.7s-0.2-5.2,2.1-11.2s10-20.4,13-28.5c3-8.1,5.3-16.6,7.9-22
	c2.5-5.4,29.3-46.4,29.3-46.4s19.3-34.6,23.2-44.9c3.9-10.3,4.6-24.2-3.4-32.2s-35-15.3-35-15.3s-10.1,26.6-13.6,32.9
	S318,198,318,198L318,198z"/>
<path class="st2" d="M40,356.4v43h57.3l7-54.6l-46.5,10C57.9,354.7,41.9,357.9,40,356.4z"/>
<g>
	<path d="M323.9,196.5c0.9-1.7,6.6-20.6,9.9-31.7L318,198C318,198,322.5,198.9,323.9,196.5z"/>
	<path d="M336.2,156.8c0,0-1,3.3-2.4,7.9l0.2-0.5L336.2,156.8z"/>
</g>
<path d="M45.1,357.4c0,0,32.5-3.9,42.7-5.1s14.4,0.8,14.4,0.8v-9.4c0,0-40.3,8.4-41.9,9.3S44.2,356,45.1,357.4L45.1,357.4z"/>
<polygon points="94.4,287.5 105.7,328.2 108.3,314.9 "/>
<path d="M95,161.1c-4.7,6.4-9.6,12.6-15,18.3S68.5,190,62.2,194.8c-2.9,2.2-5.6,4.5-7.9,7.3s-4.1,6.2-5.6,9.6
	c-3.1,7.2-5.2,14.9-7.1,22.4c-3.2,12.3-5.7,25.1-6.6,37.8c-0.3,4.7-0.6,9.4-0.9,14.1c-1,16.9-1.9,33.8-1.6,50.7
	c0.1,5.6-0.1,11.8,1.5,17.3c0.5,1.6,1.1,3,2.8,3.6c2.5,0.9,5.5,0.5,8,0.3c9.3-0.9,18.6-2.9,27.8-4.9c9.4-2,18.8-4.3,28.3-6.1
	c1.5-0.3,3-0.6,4.6-0.8c0.6-0.1,0.9-0.8,1-1.3c1-8.7,1.9-17.4,2.9-26.1c0.1-1.2,0.3-2.5,0.4-3.7c0.2-1.7-2.5-1.7-2.7,0
	c-1,8.7-1.9,17.4-2.9,26.1c-0.1,1.2-0.3,2.5-0.4,3.7l1-1.3c-8.2,1.2-16.4,3.3-24.5,5.1c-9.7,2.2-19.5,4.4-29.3,5.9
	c-3.4,0.5-6.9,1-10.3,1c-1,0-2,0-2.9-0.4c-0.2-0.1-0.5-0.3-0.3-0.2c-0.1-0.1-0.1,0-0.3-0.4c0-0.1-0.1-0.3-0.3-0.7s-0.2-0.9-0.3-1.3
	c-0.2-1-0.4-2.1-0.5-3.2c-0.3-3-0.5-6.1-0.6-9.1c-0.5-16.5,0.4-33.1,1.3-49.6c0.3-5.6,0.7-11.2,1-16.9c0.6-9.4,2.2-18.8,4.2-28.1
	c1.7-8,3.7-15.8,6.2-23.6c2.2-7.1,4.9-14.3,10-19.8c2.6-2.8,5.7-5,8.7-7.2c3-2.2,5.9-4.6,8.7-7.1c5.6-5,10.6-10.6,15.3-16.5
	c2.3-2.9,4.5-5.8,6.7-8.8C98.4,161.1,96,159.7,95,161.1L95,161.1L95,161.1z"/>
<path d="M58.3,226.1c7.3,16.6,16.2,32.5,26.6,47.3c1,1.4,3.3,0.1,2.3-1.4c-10.4-14.9-19.4-30.7-26.7-47.3
	C60,223.1,57.6,224.5,58.3,226.1L58.3,226.1L58.3,226.1z"/>
<path d="M91.7,283.8c5.1,15.2,14.8,28.2,20.8,43c6.3,15.4,6,31.8,7.1,48.1c0.6,9.2,1.8,18.4,5.1,27c0.6,1.6,3.2,0.9,2.6-0.7
	c-5.9-15.7-4.9-32.6-6.4-49c-0.7-8-2.1-15.9-4.8-23.4s-6.4-14.2-10.2-21c-4.4-8-8.8-16-11.7-24.7C93.7,281.4,91.1,282.1,91.7,283.8
	L91.7,283.8L91.7,283.8z"/>
<path d="M140.6,363.1c24.6-13.9,49.5-28.1,70.4-47.4c5.8-5.4,11.2-11.1,16.2-17.3c1.1-1.3-0.8-3.3-1.9-1.9
	c-17.7,22-41.2,38.1-65.3,52.4c-6.9,4.1-13.8,8-20.8,12C137.7,361.6,139.1,364,140.6,363.1L140.6,363.1L140.6,363.1z"/>
<path d="M154.1,365.1c30.3,2.1,57.2-14.5,83.1-27.8c7.6-3.9,15.4-7.6,23.4-10.6c1.6-0.6,0.9-3.2-0.7-2.6
	c-27.7,10.4-51.9,29.1-81,36.1c-8.1,2-16.4,2.8-24.8,2.2C152.4,362.3,152.4,365,154.1,365.1L154.1,365.1L154.1,365.1z"/>
<path d="M264.7,196.8c3.8,19.2,7.4,38.5,10.3,57.9c1.5,9.9,2.7,19.9,4,29.8c1.2,9.5,4.2,18.5,6.9,27.6c2.1,7.3,4.1,14.7,6.3,22
	c0.5,1.7,3.1,1,2.6-0.7c-2-6.6-3.8-13.2-5.7-19.9c-2.5-8.6-5.5-17.2-7-26.1c-1.6-9.9-2.5-19.8-4-29.7s-3-19.3-4.7-28.9
	c-1.9-10.9-4-21.8-6.1-32.7C267,194.4,264.4,195.1,264.7,196.8L264.7,196.8L264.7,196.8z"/>
<path d="M296.8,317.9c0-2.5,0.2-5,0.7-7.4c0.7-2.9,1.9-5.6,3.4-8.1c0.9-1.5-1.4-2.9-2.3-1.4c-1.6,2.7-2.9,5.7-3.7,8.8
	c-0.6,2.7-0.8,5.4-0.8,8.1C294.1,319.6,296.8,319.6,296.8,317.9L296.8,317.9L296.8,317.9z"/>
<path d="M294.5,321.7c-0.9,6-2.6,11.9-3.2,18c-0.5,5.2-0.2,11.4,2.7,15.9c1.1,1.7,2.9,3.2,5.1,2.8s3.8-2.5,4.2-4.7
	c0.6-2.9,0-5.9,0.5-8.9c0.5-3.1,1.5-6,2.7-8.8c2.5-6.4,3.5-12.8,4.2-19.6c0.2-1.7-2.5-1.7-2.7,0c-0.7,6.5-1.7,12.8-4.1,18.9
	c-1.2,3.1-2.3,6.1-2.8,9.5c-0.2,1.3-0.3,2.7-0.3,4c0,1.6,0.3,3.5-0.3,5.1c-0.7,1.7-2.2,2.5-3.6,1.1c-0.9-0.9-1.4-2.4-1.8-3.6
	c-1-3-1.3-6.2-1.2-9.3c0.3-6.6,2.3-13.1,3.3-19.6C297.3,320.8,294.7,320,294.5,321.7L294.5,321.7L294.5,321.7z"/>
<path d="M286.2,303c1.6-7.3,5.1-14.2,10.1-19.7c1.2-1.3,2.5-2.5,3.4-4s1.4-3.3,1.9-5c0.8-3.2,1.6-6.4,2.4-9.6
	c3.5-14.2,6.9-28.4,11.3-42.3c2.3-7.4,4.9-14.8,8.1-21.8c0.7-1.6-1.6-2.9-2.3-1.4c-5.9,12.9-9.9,26.7-13.5,40.4
	c-1.9,7.2-3.7,14.4-5.4,21.6c-0.8,3.3-1.6,6.6-2.4,9.8c-0.4,1.6-0.8,3.2-1.2,4.8c-0.6,2-1.8,3.4-3.2,4.9
	c-5.7,6.1-9.8,13.5-11.6,21.7C283.2,304,285.8,304.7,286.2,303L286.2,303L286.2,303z"/>
<path d="M329,199.5c6.4-5.6,13.7-10.1,21.5-13.3c1.6-0.6,0.9-3.3-0.7-2.6c-8.3,3.4-15.9,8.1-22.7,14
	C325.8,198.7,327.7,200.6,329,199.5L329,199.5L329,199.5z"/>
<path d="M300.6,354.6c4.6,14.2,7.7,28.9,9.2,43.7c0.2,1.7,2.9,1.7,2.7,0c-1.5-15.1-4.6-30-9.3-44.4
	C302.7,352.2,300.1,352.9,300.6,354.6L300.6,354.6L300.6,354.6z"/>
<path d="M141.9,134.2c6.4-0.4,12.6-2.5,18.6-4.6c7.2-2.6,14.4-5.4,21.6-7.9c7.8-2.6,15.8-4.8,24-5.7c4.7-0.5,9.4-0.5,14.1-0.6
	c7-0.1,14,0.2,21,1.3c5.9,0.9,11.6,2.6,17.3,4.3c9.5,2.8,19.1,5.5,28.6,8.2c10.6,3.1,21.3,6.2,31.8,9.8c4.1,1.4,8.2,2.8,12.2,4.5
	c1.4,0.6,2.8,1.2,4.1,1.9c0.9,0.5,1.8,1,2.3,1.5c0.1,0.1,0.4,0.3,0.1,0.1c0.3,0.2,0,0.3,0.1,0.1c-0.1,0.2,0.2-0.3,0,0
	c-0.1,0.2,0-0.1,0,0.3c-0.2,1.1-0.6,2.3-0.9,3.4c-1.2,3.9-2.8,7.7-4.3,11.5c-4,9.8-8.3,19.6-13.4,28.9c-1.9,3.4-3.8,7-6.3,10
	c-0.7,0.9-1.5,1.8-2.4,2.2c-1.5,0.7-3.4,0.6-5,0.6c-5.5-0.2-11.1-1.7-16.4-3s-11.1-3.1-16.7-4.6c-1.9-0.5-3.9-1-5.8-1.4
	c-1.7-0.3-2.4,2.3-0.7,2.6c4.9,0.8,9.7,2.4,14.5,3.7c6,1.7,12,3.3,18.2,4.4c4,0.7,9.4,1.9,13.3,0c2.6-1.3,4.4-4.3,5.9-6.6
	c5.7-8.7,10-18.4,14.2-27.9c2-4.6,3.9-9.2,5.7-13.9c1.1-3,2.4-6,3-9.1c0.4-2.2-0.6-3.3-2.4-4.5c-2.7-1.7-5.8-2.9-8.7-4.1
	c-9.8-3.8-19.9-6.9-30-9.9c-10.7-3.2-21.5-6.2-32.3-9.3c-3.8-1.1-7.7-2.2-11.5-3.4c-7.7-2.4-15.6-3.7-23.6-4.2
	c-5.2-0.4-10.4-0.4-15.6-0.1c-2.8,0.1-5.6,0-8.4,0.2c-4.1,0.3-8.2,1-12.2,1.9c-8.1,1.8-16,4.6-23.8,7.5c-7,2.6-13.9,5.4-21.1,7.4
	c-2.8,0.8-5.7,1.4-8.7,1.6C140.2,131.7,140.2,134.4,141.9,134.2L141.9,134.2L141.9,134.2z"/>
<path d="M223.6,146.9c4.9,16.8,16,31.5,30.9,40.8c1.5,0.9,2.8-1.4,1.4-2.3c-14.3-8.9-24.9-23-29.6-39.2
	C225.7,144.5,223.1,145.2,223.6,146.9L223.6,146.9z"/>
<path d="M317,199.3c1.2,0.2,2.4,0.4,3.6,0.5c0.4,0,0.9,0.1,1.3,0.1c0.2,0-0.3-0.1-0.1,0c0.1,0,0.1,0,0.2,0c0.1,0,0.3,0,0.4,0.1
	c0.4,0.1,0.8,0.1,1.1,0.2c0.7,0.1,1.5-0.2,1.7-0.9c0.1-0.7-0.2-1.5-0.9-1.7c-1.2-0.2-2.4-0.4-3.6-0.5c-0.4,0-0.9-0.1-1.3-0.1
	c-0.2,0,0.3,0.1,0.1,0c-0.1,0-0.1,0-0.2,0c-0.1,0-0.3,0-0.4-0.1c-0.4-0.1-0.8-0.1-1.1-0.2c-0.7-0.1-1.5,0.2-1.7,0.9
	C315.9,198.3,316.2,199.2,317,199.3L317,199.3z"/>
<path d="M338.8,150.2c6.4,1.9,12.6,4.1,18.9,6.4c4.5,1.6,9.1,3.1,13,6.1c4.4,3.6,7.4,8.6,8.1,14.2c1,7.4-1,15.4-3.6,22.3
	c-2.1,5.4-5.1,10.3-7.7,15.4c-3.8,7.4-7.7,14.7-11.8,21.9s-8.2,13.7-12.6,20.4c-4.7,7.2-9.7,14.1-14.4,21.2
	c-5.5,8.2-7.8,17.9-11.2,27.1s-7.6,18.8-12.1,27.9c-0.8,1.5,1.6,2.9,2.3,1.4c4.1-8.2,7.8-16.7,11.1-25.3c1.6-4.3,3.2-8.6,4.7-13
	s2.9-8.9,5.2-13c2.1-3.8,4.8-7.4,7.3-11c2.5-3.6,5-7.3,7.5-11c4.5-6.9,8.9-13.8,13-20.9s8.4-14.8,12.2-22.4
	c2.8-5.4,5.9-10.7,8.3-16.3c5.2-12.2,7.9-28.2-2.2-38.7c-3.8-3.9-8.4-6-13.4-7.9c-7.2-2.6-14.5-5.2-22-7.5
	C337.8,147.2,337.1,149.8,338.8,150.2L338.8,150.2L338.8,150.2z"/>
<path d="M99,171.1c2.9,9.1,14.8,5.9,21.3,3.3c10-3.9,20.1-10,26.9-18.4c3.9-4.8,6.6-10.8,3.8-16.8c-0.7-1.6-3.1-0.2-2.3,1.4
	c2.2,4.9-0.4,10-3.5,13.8c-3.4,4.2-7.8,7.7-12.4,10.7c-3.5,2.3-7.1,4.2-10.9,5.9c-3.7,1.6-7.8,3.1-11.8,3.4c-3.4,0.3-7.2-0.3-8.4-4
	C101.1,168.8,98.5,169.5,99,171.1L99,171.1L99,171.1z"/>
<path d="M116.4,199c14.1-10.3,26.9-22.5,37.7-36.2c1.1-1.4-0.8-3.3-1.9-1.9c-10.7,13.6-23.2,25.6-37.2,35.8
	C113.6,197.7,115,200,116.4,199L116.4,199L116.4,199z"/>
<g>
	<path d="M93.9,89.2c0.3-3.2,0.8-7.6,3.2-9.9c3.9-3.8,8.9,0.3,11.1,4s2.8,8.2,2,12.4c-0.9,4.6-3,10.5-7.1,13.3
		c-1.4,1-0.1,3.3,1.4,2.3c3.9-2.7,6-7.2,7.4-11.6s1.8-8.8,0.6-13.2c-1.1-3.8-3.3-7.3-6.7-9.6c-3.6-2.5-8.2-2.3-11.1,1.1
		c-2.5,2.9-3.1,7.6-3.5,11.3C91.1,91,93.8,91,93.9,89.2L93.9,89.2L93.9,89.2z"/>
	<path d="M103.3,82.3c-2.8,0.5-3.8,3.7-4.3,6.1c-0.6,2.8-0.7,5.7-0.2,8.5c0.1,0.7,1,1.1,1.7,0.9c0.8-0.2,1.1-0.9,0.9-1.7
		c-0.3-2.2-0.3-4.4,0.2-6.6c0.2-1,0.4-2.1,0.9-3.1c0.3-0.8,0.8-1.4,1.7-1.6c0.7-0.1,1.1-1,0.9-1.7C104.8,82.4,104,82.1,103.3,82.3
		L103.3,82.3L103.3,82.3z"/>
	<path d="M100.7,92.4C101,92.3,100.6,92.3,100.7,92.4c0.2,0,0.3,0.1,0.1,0c0.1,0,0.2,0.1,0.3,0.1c0.1,0-0.1-0.1,0.1,0
		c0.1,0.1,0.2,0.1,0.3,0.2c0.1,0.1-0.1-0.1,0.1,0.1c0.1,0.1,0.3,0.3,0.4,0.4c0,0,0.2,0.3,0.1,0.1s0.1,0.1,0.1,0.1
		c0.1,0.2,0.2,0.3,0.3,0.5c0,0.1,0.1,0.2,0.1,0.2c0,0.1,0.1,0.3,0,0c0.1,0.2,0.1,0.3,0.2,0.5s0.1,0.3,0.1,0.5c0,0.1,0,0.1,0,0.2
		c-0.1-0.3,0,0,0,0.1c0,0.3,0,0.7,0,1c0,0.2,0.1-0.2,0,0c0,0.1,0,0.2-0.1,0.3c0,0.2-0.1,0.3-0.2,0.5c0,0.1-0.1,0.2-0.1,0.3
		c0.1-0.2,0-0.1,0,0c-0.1,0.2-0.2,0.3-0.3,0.5c-0.4,0.6-0.2,1.5,0.5,1.8s1.4,0.2,1.8-0.5c1.1-1.7,1.3-3.9,0.6-5.9
		c-0.8-2.2-2.7-4.3-5.2-3.8c-0.7,0.1-1.2,1-0.9,1.7C99.2,92.2,99.9,92.5,100.7,92.4L100.7,92.4L100.7,92.4z"/>
</g>
<path d="M97.2,119.4c0.3,7.9-1.5,15.4-6.7,21.6S78,151.4,70.7,154.9c-1.8,0.9-3.7,1.7-5.6,2.6c-2.4,1.1-4.7,2.5-7.2,1
	c-1.7-1-3.2-2.2-4.6-3.5c-0.7-0.6-1.3-1.3-2-2.1c-0.6-0.7-2.3-2.2-2.3-3.1c0-0.7,1.8-1.5,2.3-1.9c1.2-0.8,2.4-1.5,3.6-2.3
	c2.3-1.5,4.6-3,6.5-5c1.6-1.8,2.3-3.6,1.2-5.9c-1.3-2.9-4.5-4.1-7.5-4.4c-2.7-0.2-4.3,0.4-6.4,2s-4,3.4-6.3,4.7
	c-1.7,0.9-5.3-0.9-6.7-2.3c-1.2-1.1-1.3-3.2-2.1-4.6c-0.9-1.6-2.2-2.9-3.7-3.9c-0.8-0.5-5-1.6-4.7-2.6c0.2-0.5,1.6-1.4,2-1.8
	c0.6-0.8,1.2-1.6,1.7-2.6c1.7-3.4,1.9-7.3,1.3-11c-0.8-5.2-2.7-10.2-3.9-15.4s-2.1-10.7-1.9-16.1c0.2-6.5,1.7-14,7-18.3
	c1.4-1.1-0.6-3-1.9-1.9c-4.7,3.8-6.6,9.8-7.4,15.6c-1.4,9.8,0.8,19.5,3.5,28.9c1.3,4.5,2.8,9.2,1.9,13.9c-0.4,2-1.2,4-2.7,5.6
	c-1.2,1.3-2.9,2.1-2.3,4.2c0.5,1.8,2.2,2.4,3.8,2.9c2.3,0.7,4.2,2.1,5.2,4.3c0.7,1.5,0.8,3.2,2,4.4c1.1,1.1,2.6,1.9,4,2.5
	c2.5,1.1,4.5,1.5,6.9,0s4.3-3.4,6.6-5c1.1-0.8,1.7-1,3.1-0.9c1.7,0.1,3.6,0.4,4.9,1.6c2.6,2.2,0.7,4.1-1.3,5.7
	c-2.3,1.9-4.9,3.5-7.4,5s-5.5,3.2-3.5,6.5c2,3.3,5.2,6.1,8.4,8.3c1.7,1.2,3.5,2.1,5.7,1.8s4.4-1.6,6.4-2.5c8.7-4,17.5-8.3,24-15.5
	c6.2-6.9,8.6-15.2,8.3-24.4C99.8,117.7,97.1,117.7,97.2,119.4L97.2,119.4L97.2,119.4z"/>
<g>
	<path d="M39.1,98.5c-0.3,0.3-0.5,1-0.5,1.4c-0.2,1.1-0.1,2.2,0.1,3.3c0.1,0.5,0.3,0.9,0.6,1.3s0.8,0.7,1.2,0.7
		c0.7,0,1.2-0.6,1.5-1.2c0.4-0.8,0.4-1.7,0.3-2.6s-0.5-1.7-0.9-2.4c-0.1-0.3-0.3-0.5-0.5-0.7s-0.5-0.3-1-0.2
		C39.5,98.1,39.3,98.3,39.1,98.5L39.1,98.5z"/>
	<path d="M38.3,97.8c-0.9,1.1-1,2.9-0.9,4.2c0.2,1.6,0.6,3.5,2.3,4s3-1,3.4-2.4c0.4-1.6,0-3.2-0.7-4.7c-0.4-0.8-0.8-1.6-1.7-1.8
		S39,97.1,38.3,97.8c-0.4,0.4-0.4,1,0,1.4s1.1,0.4,1.4,0c0.1-0.1,0.1-0.1,0.2-0.2c-0.1,0.1,0.1,0,0,0c-0.1,0,0.1,0,0.2,0
		c-0.2,0,0.2,0.1,0,0c0,0,0.2,0.1,0.1,0.1c0,0-0.1-0.1,0,0c0,0.1,0.1,0.1,0.1,0.1c0.1,0.2,0.2,0.5,0.4,0.7c0.2,0.4,0.4,0.9,0.5,1.4
		c0.1,0.4,0.1,0.9,0.1,1.3c0,0.2-0.1,0.5-0.2,0.7c0,0.1-0.2,0.4-0.2,0.4c-0.1,0.1-0.2,0.2-0.3,0.3c0.1-0.1-0.1,0-0.1,0
		c0,0,0.1,0,0,0c-0.2,0,0.1,0.1,0,0c-0.1,0,0,0,0,0c0,0-0.1-0.1-0.1-0.1s0,0-0.1-0.1c0-0.1-0.2-0.3-0.2-0.4c-0.2-0.5-0.3-1-0.3-1.5
		c-0.1-0.6-0.1-1.2,0-1.8c0-0.2,0.1-0.4,0.1-0.6c0-0.1,0.1-0.2,0.1-0.3c-0.1,0.2,0.2-0.2,0,0c0.3-0.4,0.4-1,0-1.4
		C39.4,97.4,38.7,97.4,38.3,97.8L38.3,97.8z"/>
</g>
<path d="M133.5,120.6c-1.6-4.6-1.6-9.3-1.1-14s1-9.1,1.4-13.6c0.4-4.1,1-8.3,1.4-12.4s0.5-8.4,0.6-12.6c0.1-7.9,0.3-16.2-2.8-23.7
	c-1.5-3.7-3.9-7.1-6.2-10.3c-2.4-3.4-5.1-6.8-8.2-9.5c-6.7-6-15.5-9.8-24.3-11.4c-1.7-0.3-2.4,2.3-0.7,2.6
	c7.8,1.5,15.7,4.6,21.9,9.7c3.2,2.6,5.9,5.8,8.3,9.1s4.8,6.6,6.4,10.3c3.2,7.2,3,15.6,2.9,23.3c-0.1,8.2-1.1,16.1-1.9,24.2
	c-0.5,4.9-1,9.8-1.5,14.7s-0.4,9.8,1.2,14.4C131.5,122.9,134.1,122.2,133.5,120.6L133.5,120.6L133.5,120.6z"/>
<path d="M130.9,121.3c0.6,1.5,1.6,2.9,2.6,4.2c1.4,1.9,3,3.6,4.6,5.4c3.4,3.7,7,7.2,11,10.3c1.4,1.1,3,2.3,4.7,2.7s2.4-2.2,0.7-2.6
	c-0.6-0.1-0.7-0.2-1.4-0.6c-0.7-0.4-1.4-0.9-2.1-1.4c-1.7-1.3-3.3-2.7-4.9-4.1c-3.5-3.2-6.9-6.7-9.9-10.4c-0.6-0.8-1.2-1.5-1.7-2.3
	c-0.2-0.3-0.5-0.7-0.7-1.1c-0.1-0.2-0.2-0.3-0.2-0.4c0-0.1-0.1-0.1-0.1-0.2c-0.2-0.3,0.1,0.2,0-0.1
	C132.9,119,130.2,119.7,130.9,121.3L130.9,121.3L130.9,121.3z"/>
<path d="M83.7,150c7.5,4.9,12.5,12.8,15.3,21.2c0.6,1.6,3.2,0.9,2.6-0.7c-3.1-9.1-8.5-17.5-16.6-22.8C83.5,146.7,82.2,149,83.7,150
	L83.7,150L83.7,150z"/>
<path d="M96.2,129.8c-0.4,2.1-0.8,4.2-1.4,6.3c-0.2,0.6-0.3,1.1-0.5,1.7c-0.1,0.2-0.1,0.4-0.2,0.6c0,0.1-0.2,0.6-0.2,0.4
	c0.1-0.2-0.1,0.2-0.1,0.3c-0.2,0.4-0.4,0.9-0.6,1.4c-0.6,1.2-1.2,2.5-1.8,3.7c-0.5,1.1-1.1,2.2-1.7,3.2s-1.2,2.3-2.1,3.1h1.9l0,0
	l0.4,0.9c0,0.3,0-0.3,0.1-0.4c0-0.2,0-0.3,0-0.5c-0.1-0.5-0.4-0.9-0.8-1.2l0.5,1.8c1.8-2.9,3.4-5.8,4.2-9.1c0.3-1.4-1.8-2.5-2.5-1
	c-1.2,2.7-3.1,5-5.5,6.7l1.6,2.1c0.9-1,1.8-2.1,2.7-3.1c1.1-1.3-0.7-3.2-1.9-1.9c-1,1.1-2.1,1.9-3.4,2.5c-0.8,0.4-0.9,1.6-0.3,2.1
	c0.5,0.5,0.9,1,1.2,1.6c0.3,0.7,0.9,1.1,1.7,0.9c0.6-0.2,1.2-1,0.9-1.7c-0.4-1.1-1-2-1.9-2.8l-0.3,2.1c1.5-0.7,2.8-1.7,4-2.9
	l-1.9-1.9c-0.9,1-1.8,2.1-2.7,3.1s0.3,3.1,1.6,2.1c2.8-2,5-4.6,6.4-7.7l-2.5-1c-0.8,3.1-2.2,5.8-3.9,8.5c-0.4,0.6-0.1,1.4,0.5,1.8
	l-0.5-0.8v0.2c0.1-0.2-0.1,0.2-0.1,0.4c0,0.4,0.1,0.8,0.4,1c0.5,0.5,1.4,0.5,1.9,0c0.9-0.8,1.6-2,2.2-3c0.7-1.1,1.3-2.3,1.8-3.5
	c0.9-1.9,1.9-3.8,2.8-5.8c1.3-3,1.9-6.3,2.6-9.5C99.1,128.8,96.5,128,96.2,129.8L96.2,129.8L96.2,129.8z"/>
<path d="M29.9,87.3c5.6,3.2,12.9,5.9,18.8,1.9c1.4-1,0.1-3.3-1.4-2.3c-5.1,3.5-11.3,0.8-16.1-1.9C29.8,84.1,28.4,86.4,29.9,87.3
	L29.9,87.3L29.9,87.3z"/>
<path d="M82.9,79.8c1.8,1.4,3.4,2.9,4.9,4.7c0.1,0.1,0.1,0.1,0-0.1c0,0.1,0.1,0.1,0.1,0.1c0.1,0.1,0.1,0.2,0.2,0.3
	c0.2,0.2,0.3,0.4,0.4,0.6c0.3,0.4,0.6,0.8,0.8,1.2c0.7,1.1,1.4,2.2,2.1,3.2c0.4,0.6,1.2,0.9,1.8,0.5c0.6-0.4,0.9-1.2,0.5-1.8
	c-1.3-2-2.5-4.1-4-5.9s-3.1-3.3-4.9-4.8c-0.6-0.4-1.3-0.6-1.9,0C82.5,78.3,82.4,79.3,82.9,79.8L82.9,79.8L82.9,79.8z"/>
<path d="M18.1,50.4c-1.5-2.1-2.2-4.6-2.4-7.3c-0.5-6.9,3.3-13,8.1-17.5s10.1-7.7,15.8-10.5c6.7-3.3,13.7-5.7,21-6.9
	c12.6-2.2,25.8-1.4,38.1,2.2c4.8,1.4,9.3,3.3,13.4,6.1c5.1,3.4,10.4,8.4,10.5,14.9c0,1.7,2.7,1.7,2.7,0
	c-0.2-10.8-11.5-18.2-20.6-21.8c-11.9-4.6-25.4-6-38-4.8c-14.8,1.4-29.4,6.8-41.2,16C19,25.7,13.3,32.6,13,41
	c-0.1,3.6,0.7,7.8,2.8,10.8C16.8,53.2,19.1,51.8,18.1,50.4L18.1,50.4L18.1,50.4z"/>
<path d="M107.6,104.7c0.6,2.2,2.5,3.9,4.3,5.3s3.8,2.3,5.8,3.2c4.2,1.8,8.7,2.9,12.8,4.7c1.6,0.7,2.9-1.6,1.4-2.3
	c-3.9-1.7-8-2.8-11.9-4.3c-1.9-0.7-3.8-1.6-5.5-2.7c-1.6-1-3.7-2.6-4.2-4.5C109.8,102.3,107.2,103,107.6,104.7L107.6,104.7
	L107.6,104.7z"/>
<path d="M23.4,43.7c5-8.6,12.8-15.9,22.1-19.7c9-3.6,19.5-4.1,28,1c1.5,0.9,2.8-1.4,1.4-2.3c-9.1-5.5-20.4-5.1-30.1-1.2
	S26.5,33.1,21.1,42.3C20.2,43.8,22.6,45.2,23.4,43.7L23.4,43.7L23.4,43.7z"/>
<path d="M29.1,56.7c5.5,7.2,12.8,13,21.1,16.7c8.6,3.8,18.6,5.6,28,5.6c5.4,0,10.8-0.8,15.8-2.9c1.6-0.7,0.9-3.3-0.7-2.6
	c-10.8,4.6-23.5,3-34.5,0.1C48,70.7,38.2,64.2,31.4,55.3C30.4,54,28.1,55.3,29.1,56.7L29.1,56.7L29.1,56.7z"/>
<path d="M16,50.2c-3.6,3.3-6,7.7-7.2,12.4c-1,4-1.6,8.5-0.8,12.6c1.6,8.9,8.7,16.8,16.5,20.9c1.5,0.8,2.9-1.5,1.4-2.3
	C18.7,90,12.3,82.9,10.6,74.8c-0.8-3.7-0.1-7.9,0.8-11.6c1.1-4.3,3.2-8.2,6.5-11.2C19.2,50.9,17.3,49,16,50.2L16,50.2L16,50.2z"/>
<path d="M80.1,66c9.6,4.7,20.6,5.8,30.9,3.1c1.7-0.4,1-3-0.7-2.6c-9.6,2.5-19.9,1.5-28.8-2.9C79.9,62.9,78.6,65.2,80.1,66
	C80.1,66,80.1,66,80.1,66z"/>
<path d="M38.7,357.4v41.9c0,1.7,2.7,1.7,2.7,0v-41.9C41.4,355.6,38.7,355.6,38.7,357.4L38.7,357.4z"/>
<path d="M102,345.4c-1.6,15.1-3.2,30.3-5,45.4c-0.3,2.9-0.7,5.7-1,8.5c-0.2,1.7,2.5,1.7,2.7,0c1.8-13.9,3.2-27.9,4.7-41.8
	c0.4-4,0.9-8.1,1.3-12.1C104.9,343.7,102.2,343.7,102,345.4L102,345.4L102,345.4z"/>
<path d="M360.5,307.7c-6.1,0.2-12.1,0-18.1-0.8c-1.1-0.1-1.8,1.6-1,2.3c2.2,1.8,4.2,3.8,5.9,6l1.3-2.2c-6-1.1-12-2.2-17.9-3.3
	c-1.7-0.3-2.4,2.3-0.7,2.6c6,1.1,12,2.2,17.9,3.3c1.4,0.3,2.1-1.2,1.3-2.2c-1.8-2.2-3.7-4.2-5.9-6l-1,2.3c6,0.7,12.1,1,18.1,0.8
	C362.2,310.4,362.2,307.7,360.5,307.7L360.5,307.7L360.5,307.7z"/>
<path d="M351.6,332.7c-3.8-1.8-7.8-2.9-12-3.1c-0.9-0.1-1.6,0.9-1.3,1.7c0.5,1.4,1,2.8,1.6,4.1l1.8-1.8c-3.8-2.2-7.6-4.5-11.5-6.7
	c-1.5-0.9-2.9,1.5-1.4,2.3c3.8,2.2,7.6,4.5,11.5,6.7c1.3,0.7,2.4-0.7,1.8-1.8s-0.9-2.3-1.3-3.5l-1.3,1.7c3.7,0.2,7.3,1.2,10.6,2.8
	C351.8,335.8,353.2,333.5,351.6,332.7L351.6,332.7L351.6,332.7z"/>
<path d="M320.8,349.9c2.5,3.5,5.1,7,8.3,10c0.8,0.8,2.4,0.3,2.3-1c-0.1-1.9-0.2-3.9-0.3-5.8l-2.3,1c3.1,3.6,6.7,6.8,10.7,9.5
	c1.4,1,2.8-1.4,1.4-2.3c-3.8-2.6-7.1-5.6-10.1-9c-0.8-0.9-2.4-0.2-2.3,1c0.1,1.9,0.2,3.9,0.3,5.8l2.3-1c-3-2.8-5.5-6.1-7.9-9.4
	C322.1,347.1,319.8,348.5,320.8,349.9L320.8,349.9L320.8,349.9z"/>
</svg>
