<?xml version="1.0" encoding="utf-8"?>
<!-- Generator: Adobe Illustrator 28.0.0, SVG Export Plug-In . SVG Version: 6.00 Build 0)  -->
<svg version="1.1" id="Layer_1" xmlns="http://www.w3.org/2000/svg" xmlns:xlink="http://www.w3.org/1999/xlink" x="0px" y="0px"
	 viewBox="0 0 246.5 370.6" style="enable-background:new 0 0 246.5 370.6;" xml:space="preserve">
<style type="text/css">
	.st0{fill:#785756;}
	.st1{fill:#95A3E2;}
	.st2{fill:#FEC3AA;}
	.st3{opacity:0.21;}
	.st4{clip-path:url(#SVGID_00000158741462351905603810000002079456644627400080_);}
	.st5{fill:#FF7B86;}
	.st6{clip-path:url(#SVGID_00000101819846480091468340000008313265304440288947_);}
</style>
<path class="st0" d="M49.3,171.8c0,0,0.6-10.9,4.5-16.5c3.9-5.6,7.4-14.6,7.6-22.9s-1.1-47.6,0.1-64c1.2-16.3,9.4-33.2,21-43.2
	s19.8-13.6,28.1-13.4s12.7,1.3,12.7,1.3s8-2.6,22.5,1.6c14.5,4.1,24.8,22,29.1,36.1c4.3,14.1,8.1,33.7,8.8,45.9
	c0.7,12.2,2,48.4,3.9,58.7s3.3,14,11.8,17.4C207.8,176.1,49.3,171.8,49.3,171.8L49.3,171.8z"/>
<path class="st1" d="M12,315.9c-2.9-1.4-4.7-4.5-4.5-7.7c0.3-5.6,0.9-14.5,1.2-18c0.4-5.3,7.7-55.1,7.7-55.1s6.5-29.8,8.9-38.3
	s6.8-16.7,13.6-21.9S71.6,164,71.6,164l14-1.6c0,0,1.7,11.5,23.5,18.7s45.7,2.1,55.7-4.2c10-6.4,12.9-10.6,12.9-10.6l28.8,6.5
	c0,0,22.1,4.9,28.5,17.6s3.9,32,3.9,32s-3.9,39.8-4.9,45c-0.9,5.2-0.2,10.1-0.2,10.1s2.4,17.6-0.9,25.2
	c-3.4,7.6-11.7,12.7-11.7,12.7l-27.1,4.2l5.6,49.7H58l-3.5-49.8C54.4,319.4,28.7,323.9,12,315.9L12,315.9z"/>
<path class="st2" d="M85.6,162.3c0,0,5.6-0.1,10.4-1.7c4.9-1.6,9.4-10.2,9.4-10.2l-0.1-6.1c0,0-9.2,0-16.2-9.8s-13.9-17.5-14-24.5
	c-0.1-7,0.6-29.2,0.7-29.5S74,65.1,76.5,57.8c2.5-7.4,4.2-11.3,9.8-13.4c5.6-2.1,7.3-1.5,7.3-1.5s2-8.9,9-10.4c7-1.5,9.8,1.7,11.6,6
	c1.8,4.3,7.4,23.5,11.2,31.6c3.7,8.2,17.4,27.4,22,29c0,0,3.4-5.8,7.7-6.2s7.5,2.9,8.1,6.8c0.6,3.9-0.5,11.2-6.3,16.3
	c-5.9,5.1-7.4,8.1-7.4,8.1s-1.3,10.7,1.9,17.6c3.3,6.9,18.1,23.9,24.6,24.2c0,0-1.4,3.7-5.7,7.5s-21.1,11.4-39,11.8
	S86.7,173.7,85.6,162.3L85.6,162.3z"/>
<path class="st2" d="M13.5,316.4l-2.6,52.9h47c0,0-1.7-34.1-2.1-38s-1.4-11.8-1.4-11.8S35,325.4,13.5,316.4L13.5,316.4z"/>
<g>
	<g class="st3">
		<g>
			<defs>
				<circle id="SVGID_1_" cx="128.7" cy="109.2" r="25.4"/>
			</defs>
			<clipPath id="SVGID_00000167368731918019457040000006816601320089165446_">
				<use xlink:href="#SVGID_1_"  style="overflow:visible;"/>
			</clipPath>
			<g style="clip-path:url(#SVGID_00000167368731918019457040000006816601320089165446_);">
				<rect x="103.3" y="83.8" class="st5" width="50.8" height="50.8"/>
				<circle class="st5" cx="128.7" cy="109.2" r="25.4"/>
				<circle class="st5" cx="128.7" cy="109.2" r="16.7"/>
			</g>
		</g>
	</g>
	<g>
		<defs>
			<circle id="SVGID_00000052082391438923205320000007798663069488182945_" cx="128.7" cy="109.2" r="17.2"/>
		</defs>
		<clipPath id="SVGID_00000022554816799635406750000014011480852821105826_">
			<use xlink:href="#SVGID_00000052082391438923205320000007798663069488182945_"  style="overflow:visible;"/>
		</clipPath>
		<g style="clip-path:url(#SVGID_00000022554816799635406750000014011480852821105826_);">
			<rect x="111.6" y="92.1" class="st5" width="34.3" height="34.3"/>
			<circle class="st5" cx="128.7" cy="109.2" r="17.2"/>
			<circle class="st5" cx="128.7" cy="109.2" r="11.3"/>
		</g>
	</g>
</g>
<path d="M103.8,151.9c-2.7,3.3-6.6,5.8-10.4,7.6c-5,2.4-10.8,2.5-16.2,3c-11.5,1.2-23.2,3.5-33.6,8.7c-9,4.5-15.9,12.2-19.2,21.7
	c-2.7,7.8-4.4,15.9-6.1,24c-4.1,20.1-6.1,40.5-9.2,60.8c-1.4,9.1-3.1,18.3-3.3,27.5c-0.1,2.5-0.1,5.5,1,7.8c0.9,1.8,2.9,3,4.6,4
	c6,3,12.9,4.3,19.5,5.1s14,1.3,20.6-0.3c1.2-0.3,2.4-0.7,3.5-1.2c1.6-0.8,0.2-3.1-1.4-2.3c-2.3,1.1-5.1,1.5-7.6,1.7
	c-3.4,0.3-6.9,0.2-10.3,0c-6.8-0.5-13.8-1.6-20.2-4c-2-0.7-4.4-1.7-5.8-3.3c-1.3-1.4-1.2-3.9-1.2-5.8c-0.1-8.6,1.6-17.3,2.8-25.8
	c2.9-19.6,4.9-39.3,8.7-58.8c1.6-8.4,3.4-16.7,5.8-24.9c1-3.5,2.2-7,4.1-10.1c2.8-4.5,6.7-8.6,11.1-11.4c9.6-6.2,21.5-8.7,32.7-10.2
	c5.6-0.7,11.4-0.9,16.9-2.3c4-1,7.7-3.4,10.9-5.9c1.5-1.1,2.9-2.3,4-3.7C106.8,152.4,104.9,150.5,103.8,151.9L103.8,151.9
	L103.8,151.9z"/>
<path d="M51.3,200c4.2,16.2-3.3,32.2-6.4,47.9c-2.4,11.9-0.9,23.7,1.5,35.4c1.7,8.2,4.2,16.1,5.8,24.3c1.9,10.2,2.7,20.6,3.4,30.9
	c0.4,5.9,0.7,11.7,0.8,17.6c0.1,4.1,0.2,8.2-0.2,12.2c-0.2,1.7,2.5,1.7,2.7,0c0.8-8.5,0.1-17.3-0.3-25.8
	c-0.6-10.7-1.5-21.5-3.2-32.1c-1.2-7.9-3.7-15.5-5.4-23.3c-2.5-11.3-4.9-23.4-3.1-35c2.7-17.5,11.7-34.8,7.1-52.8
	C53.5,197.6,50.9,198.3,51.3,200L51.3,200L51.3,200z"/>
<path d="M158.1,152.5c5.4,7.8,13.9,13.4,22.9,16.3c5.2,1.7,10.8,2.3,16.1,3.3c3,0.6,6,1.3,9,2.2c0.7,0.2,1.3,0.5,2,0.6
	c11.6,2.7,24.2,9.2,28.1,21.3c2,6.2,1.8,13.1,1.7,19.5c-0.2,8.2-1,16.3-1.9,24.5c-0.8,7.6-1.9,15.1-2.8,22.7
	c-0.5,4.2-1.5,8.9-1,13.1c0.1,1.1,0.5,2.1,0.7,3.2c0.5,2.5,0.9,5.1,1,7.6c0.4,7-0.6,14.8-5.2,20.3c-1.3,1.6-2.8,2.9-4.6,4
	c-1.5,0.9-0.1,3.3,1.4,2.3c12-7.7,12.7-23.7,9.7-36.3c-0.3-1.2-0.4-1.3-0.4-2.5c0-2.1,0.2-4.2,0.4-6.2c0.7-7,1.7-13.9,2.5-20.8
	c1-8.4,1.9-16.8,2.5-25.2c0.4-7.2,0.7-14.6-0.3-21.9c-1.1-7.4-4.8-13.9-10.5-18.6c-4.9-4.1-10.8-6.9-16.9-8.7s-12.9-3.5-19.4-4.6
	c-4.9-0.8-9.8-1.7-14.5-3.6c-4.7-2-9.2-4.7-12.9-8.1c-1.9-1.7-3.7-3.7-5.1-5.8C159.5,149.7,157.1,151.1,158.1,152.5L158.1,152.5
	L158.1,152.5z"/>
<path d="M84.4,165.3c4.9,7.6,13,12.6,21.2,15.9c8.4,3.5,17.9,5.6,27,5.1c1.7-0.1,1.7-2.8,0-2.7c-8.7,0.5-17.4-1.5-25.4-4.7
	c-7.8-3.1-15.8-7.9-20.5-15.1C85.8,162.5,83.5,163.9,84.4,165.3L84.4,165.3L84.4,165.3z"/>
<path d="M162.2,179.1c1.4-0.8,3-1.2,4.4-1.9c1.4-0.7,2.7-1.4,3.9-2.3c2.6-1.8,4.8-4,6.7-6.6c0.4-0.6,0.1-1.5-0.5-1.8
	c-0.7-0.4-1.4-0.1-1.8,0.5c-1.7,2.3-3.7,4.3-6.1,5.9c-1.2,0.8-2.4,1.5-3.7,2.1c-1.4,0.6-2.9,1.1-4.2,1.8
	C159.3,177.6,160.7,179.9,162.2,179.1L162.2,179.1L162.2,179.1z"/>
<path d="M146.9,122.3c-0.3,5.1-0.2,10.5,1.3,15.5c1.2,3.9,3.5,7.2,6.5,10c1.3,1.2,3.2-0.7,1.9-1.9c-2.7-2.5-4.8-5.5-5.9-9.1
	c-1.4-4.7-1.4-9.6-1.2-14.4C149.7,120.5,147,120.5,146.9,122.3L146.9,122.3L146.9,122.3z"/>
<path d="M137.1,125.9c-0.6,0.8-2,2.3-3,3.3c-3.3,3.1-7,5.8-10.8,8.1c-7.5,4.6-16.1,8.2-24.8,4.6c-3-1.2-5.3-3.7-7.4-6.1
	c-2.4-2.7-4.6-5.7-6.6-8.7c-3.9-5.7-7.2-11.9-8.2-18.9c-0.9-6.4,0-12.6,0.3-18.9c0.3-7,0.2-14-0.4-21c-0.1-1.7-2.8-1.7-2.7,0
	c0.5,6.7,0.7,13.3,0.4,20c-0.2,6-1.2,11.9-0.6,17.9c0.9,7.8,3.9,15,8.3,21.5c2.1,3.1,4.4,6.2,6.8,9.1c2.2,2.6,4.7,5.3,7.7,6.9
	c7.9,4.2,16.8,2.1,24.3-1.8c5.2-2.7,10.2-6,14.5-9.9c1.6-1.4,3.2-3,4.5-4.8C140.4,125.9,138,124.5,137.1,125.9L137.1,125.9
	L137.1,125.9z"/>
<path d="M149.1,98.6c2.2-2.7,6.4-6.4,10-3.6c2.9,2.3,3.2,7.2,2.4,10.6c-0.8,3.8-3,7.1-5.9,9.7s-7.1,5.5-11.3,5.6
	c-1.7,0-1.7,2.7,0,2.7c4.1-0.1,7.8-2.3,11-4.7s5.8-5.1,7.4-8.7c1.5-3.3,2.1-7.1,1.5-10.7c-0.6-3.4-2.5-7-6.1-7.9
	c-4.4-1.1-8.3,1.8-10.9,5.1C146.2,98,148.1,100,149.1,98.6L149.1,98.6L149.1,98.6z"/>
<path d="M158.8,99.8c-2.8-1.3-5.3,0.8-7.2,2.7c-1.8,1.8-3.2,3.9-4.3,6.2c-0.3,0.7-0.2,1.4,0.5,1.8c0.6,0.3,1.5,0.2,1.8-0.5
	c0.9-1.9,2-3.6,3.4-5.1c0.7-0.7,1.5-1.5,2.2-2c0.4-0.3,0.9-0.6,1.2-0.7c0.2-0.1,0.3-0.1,0.5-0.1c0.2,0,0.4,0,0.5,0.1
	c0.7,0.3,1.4,0.2,1.8-0.5C159.6,101.1,159.4,100.1,158.8,99.8L158.8,99.8L158.8,99.8z"/>
<path d="M151.1,106.5C150.9,106.4,151.1,106.5,151.1,106.5C151.3,106.6,151,106.4,151.1,106.5c0.1,0.1,0.2,0.3,0.2,0.2
	s0.1,0.1,0.1,0.1c0,0.1,0.1,0.1,0.1,0.2c-0.1-0.2,0,0,0,0.1c0.1,0.2,0.1,0.4,0.1,0.5s0-0.3,0,0c0,0.1,0,0.1,0,0.2c0,0.2,0,0.4,0,0.5
	c0,0,0,0.3,0,0.1s0,0.1,0,0.1c0,0.2-0.1,0.3-0.1,0.5c-0.1,0.2-0.1,0.3-0.2,0.5s0.1-0.2,0,0c0,0.1-0.1,0.2-0.1,0.2
	c-0.1,0.2-0.2,0.3-0.3,0.5c-0.1,0.1-0.1,0.2-0.2,0.2c0.1-0.1,0.1-0.1,0,0c-0.1,0.1-0.2,0.3-0.4,0.4c-0.1,0.1-0.1,0.1-0.2,0.2
	c-0.1,0-0.2,0.2,0,0c-0.3,0.2-0.6,0.4-0.9,0.6c-0.6,0.3-0.9,1.3-0.5,1.8c0.4,0.7,1.2,0.8,1.8,0.5c1.8-0.8,3.1-2.6,3.6-4.5
	c0.5-2.2,0-4.8-2.3-5.7c-0.7-0.3-1.5,0.3-1.7,0.9C150,105.6,150.4,106.2,151.1,106.5L151.1,106.5L151.1,106.5z"/>
<path d="M93,87.4c-1.8,3.2-3.8,6.4-5.4,9.7c-0.8,1.7-0.8,3.2-0.1,4.9c0.7,1.6,1.6,3,2.8,4.3s3.1-0.7,1.9-1.9c-0.9-1-1.7-2.1-2.2-3.3
	c-0.2-0.6-0.5-1.3-0.3-1.9c0.2-0.7,0.6-1.4,1-2c1.6-2.8,3.1-5.6,4.7-8.3C96.2,87.3,93.8,85.9,93,87.4L93,87.4L93,87.4z"/>
<g>
	<path d="M86.2,84c0.3,0.3,0.5,0.9,0.6,1.3c0.2,1,0.3,2.1,0.1,3.1c-0.1,0.4-0.2,0.9-0.4,1.3c-0.2,0.4-0.7,0.7-1.1,0.7
		c-0.6,0-1.2-0.5-1.5-1c-0.4-0.7-0.5-1.6-0.4-2.4c0.1-0.8,0.4-1.6,0.7-2.4c0.1-0.3,0.2-0.5,0.5-0.7s0.5-0.3,0.9-0.3
		C85.8,83.6,86,83.8,86.2,84L86.2,84z"/>
	<path d="M85.5,84.7C85.6,84.8,85.4,84.6,85.5,84.7c0.1,0.1,0.1,0.2,0.2,0.3c-0.1-0.1,0,0.1,0,0.1c0,0.1,0.1,0.2,0.1,0.3
		c0.1,0.5,0.2,0.9,0.2,1.4s0,1-0.1,1.4c0,0.2-0.1,0.5-0.2,0.7c0,0-0.1,0.2-0.1,0.2c-0.1,0.1,0,0,0,0c0,0.1-0.1,0.1-0.1,0.1
		c0,0-0.1,0.1-0.1,0.1s-0.1,0-0.1,0s-0.2,0.1-0.1,0s-0.1,0-0.1,0c0,0,0.2,0,0,0c-0.1,0,0,0,0,0c-0.1,0-0.1,0-0.1,0
		c-0.1-0.1,0.1,0.1,0,0c0,0-0.2-0.1-0.1-0.1s-0.1-0.1-0.1-0.1c0,0-0.2-0.2-0.1-0.1c-0.1-0.2-0.2-0.4-0.3-0.5
		c-0.3-0.9-0.2-1.8,0.1-2.7c0.1-0.3,0.2-0.6,0.3-0.8c0,0,0.1-0.2,0.1-0.2c0-0.1,0.1-0.1,0.1-0.1c-0.1,0.1,0,0,0-0.1
		c-0.1,0.1,0,0,0,0c0,0,0.1-0.1,0,0c0,0,0.1,0,0.1,0c0.2,0-0.2,0,0,0c0,0,0.2,0,0.2,0c0,0-0.1,0-0.2,0
		C85.4,84.6,85.4,84.7,85.5,84.7C85.3,84.5,85.5,84.7,85.5,84.7c0.4,0.4,1,0.4,1.4,0c0.4-0.4,0.4-1.1,0-1.4
		c-0.6-0.6-1.3-0.8-2.2-0.6c-0.7,0.2-1.3,0.7-1.6,1.4c-0.6,1.4-1.1,3-0.7,4.6c0.3,1.5,1.5,3.1,3.2,2.7s2.2-2.1,2.3-3.5
		c0.1-0.9,0-1.7-0.2-2.6c-0.1-0.7-0.4-1.5-0.9-2c-0.4-0.4-1.1-0.4-1.4,0S85.1,84.3,85.5,84.7L85.5,84.7z"/>
</g>
<g>
	<path d="M116.6,84.4c0.3,0.3,0.5,0.9,0.6,1.3c0.2,1,0.3,2.1,0.1,3.1c-0.1,0.4-0.2,0.9-0.4,1.3c-0.2,0.4-0.7,0.7-1.1,0.7
		c-0.6,0-1.2-0.5-1.5-1c-0.4-0.7-0.5-1.6-0.4-2.4c0.1-0.8,0.4-1.6,0.7-2.4c0.1-0.3,0.2-0.5,0.5-0.7s0.5-0.3,0.9-0.3
		C116.2,84,116.4,84.2,116.6,84.4L116.6,84.4z"/>
	<path d="M115.9,85.1C116,85.2,115.9,85,115.9,85.1c0.1,0.1,0.1,0.2,0.2,0.3c-0.1-0.1,0,0.1,0,0.1c0,0.1,0.1,0.2,0.1,0.3
		c0.1,0.5,0.2,0.9,0.2,1.4s0,1-0.1,1.4c0,0.2-0.1,0.5-0.2,0.7c0,0-0.1,0.2-0.1,0.2c-0.1,0.1,0,0,0,0c0,0.1-0.1,0.1-0.1,0.1
		c0,0-0.1,0.1-0.1,0.1s-0.1,0-0.1,0s-0.2,0.1-0.1,0s-0.1,0-0.1,0c0,0,0.2,0,0,0c-0.1,0,0,0,0,0c-0.1,0-0.1,0-0.1,0
		c-0.1-0.1,0.1,0.1,0,0c0,0-0.2-0.1-0.1-0.1s-0.1-0.1-0.1-0.1c0,0-0.2-0.2-0.1-0.1c-0.1-0.2-0.2-0.4-0.3-0.5
		c-0.3-0.9-0.2-1.8,0.1-2.7c0.1-0.3,0.2-0.6,0.3-0.8c0,0,0.1-0.2,0.1-0.2c0-0.1,0.1-0.1,0.1-0.1c-0.1,0.1,0,0,0-0.1
		c-0.1,0.1,0,0,0,0c0,0,0.1-0.1,0,0c0,0,0.1,0,0.1,0c0.2,0-0.2,0,0,0c0,0,0.2,0,0.2,0c0,0-0.1,0-0.2,0
		C115.8,85,115.9,85.1,115.9,85.1C115.7,84.9,115.9,85.1,115.9,85.1c0.4,0.4,1,0.4,1.4,0c0.4-0.4,0.4-1.1,0-1.4
		c-0.6-0.6-1.3-0.8-2.2-0.6c-0.7,0.2-1.3,0.7-1.6,1.4c-0.6,1.4-1.1,3-0.7,4.6c0.3,1.5,1.5,3.1,3.2,2.7s2.2-2.1,2.3-3.5
		c0.1-0.9,0-1.7-0.2-2.6c-0.1-0.7-0.4-1.5-0.9-2c-0.4-0.4-1.1-0.4-1.4,0S115.5,84.7,115.9,85.1L115.9,85.1z"/>
</g>
<path d="M106.2,144.5L106.2,144.5L106,146l0.1-0.1l-1.6,0.2l0.1,0l-0.6-0.8c-0.1-0.5,0,0.2,0,0.4c0,0.3,0,0.6,0.1,0.9
	c0,0.8,0.1,1.6,0.1,2.4c0,2.1,0,4.1,0,6.1s-0.1,4.1-0.3,6.2c-0.1,0.8-0.1,1.5-0.2,2.2c-0.1,0.3-0.1,0.6-0.2,0.9
	c0,0.1-0.1,0.2-0.1,0.4c-0.1,0.4,0.1-0.1,0,0c-0.8,1.5,1.5,2.9,2.3,1.4c0.7-1.3,0.7-3,0.9-4.4c0.2-2.2,0.3-4.5,0.3-6.8
	s0.1-4.4,0-6.7c0-1.2,0.3-3.8-0.9-4.5c-0.5-0.3-1.2-0.2-1.6,0.2l-0.1,0.1c-0.4,0.4-0.5,1.1-0.2,1.6l0,0.1
	C104.7,147.3,107.1,146,106.2,144.5L106.2,144.5L106.2,144.5z"/>
<path d="M134.1,130.9c3-2.9-7.4,8.3-10,11.5c-2.6,3.2-6.7,4.7-10.6,6.3c-3.2,1.3-8.1,0-8.1,0l0.5-3.6
	C105.9,145.1,119.3,145,134.1,130.9L134.1,130.9z"/>
<path d="M94.9,43.2c1.8-4.6,6.7-11.4,12.5-9.9c2.7,0.7,4.4,3.3,5.5,5.6c1.3,2.7,2.3,5.7,3.2,8.6c1.9,6.1,3.3,12.3,5.4,18.2
	c2.1,5.9,4.9,11.4,8.8,16.4s8.9,9.8,15.5,9.3c1.7-0.1,1.7-2.8,0-2.7c-6.7,0.5-11.7-5.7-15.2-10.7c-3.9-5.7-6.3-12-8.3-18.5
	c-1.9-6.5-3.4-13.1-5.9-19.3c-1.9-4.8-5.2-10.3-11.2-9.8C99,31,94.4,37,92.3,42.5C91.7,44.1,94.3,44.8,94.9,43.2L94.9,43.2
	L94.9,43.2z"/>
<path d="M101.5,44.7c1.6-4.2,5.5-8.5,10.4-7.4c0.7,0.2,1.5-0.2,1.7-0.9c0.2-0.7-0.2-1.5-0.9-1.7c-3-0.7-6.2,0.1-8.6,2
	c-2.5,1.8-4.1,4.5-5.2,7.3c-0.2,0.7,0.3,1.5,0.9,1.7C100.6,45.8,101.3,45.3,101.5,44.7L101.5,44.7L101.5,44.7z"/>
<path d="M93.6,41.5c-2.8,0.1-5.4,1.4-8,2.5c-2.8,1.3-5,3.3-6.8,5.7c-4.2,5.7-5,13-5.5,19.9c-0.1,1.7,2.6,1.7,2.7,0
	c0.5-6.2,1.1-12.6,4.7-17.9c1.5-2.2,3.5-4,5.9-5.2c2.2-1,4.6-2.3,7-2.3C95.4,44.1,95.4,41.4,93.6,41.5L93.6,41.5z"/>
<path d="M136.8,88.8c2,1.5,3.4,3.8,4.9,5.9s3,4.2,5.4,5.1c0.7,0.3,1.5-0.3,1.7-0.9c0.2-0.8-0.3-1.4-0.9-1.7
	c-0.2-0.1,0.1,0.1-0.2-0.1c-0.1-0.1-0.2-0.1-0.4-0.2c-0.1-0.1-0.2-0.1-0.3-0.2c-0.1,0-0.3-0.2-0.1-0.1c-0.4-0.3-0.8-0.7-1.2-1.1
	c-0.8-0.9-1.4-1.8-2.1-2.8c-1.6-2.3-3.1-4.6-5.4-6.2c-0.6-0.4-1.5-0.1-1.8,0.5C135.9,87.6,136.2,88.3,136.8,88.8L136.8,88.8
	L136.8,88.8z"/>
<path d="M107.6,73.6c4.4,2.1,9.2,3.2,14.1,3c1.7-0.1,1.7-2.8,0-2.7c-4.4,0.2-8.8-0.7-12.7-2.6c-0.7-0.3-1.5-0.2-1.8,0.5
	C106.8,72.3,106.9,73.3,107.6,73.6L107.6,73.6L107.6,73.6z"/>
<path d="M81.3,77c5.8,0.2,11.2-2.3,16.3-4.8c1.6-0.8,0.2-3.1-1.4-2.3c-4.7,2.2-9.6,4.6-14.9,4.4C79.6,74.3,79.6,77,81.3,77L81.3,77
	L81.3,77z"/>
<path d="M94.9,37.3c1.5-5.2,4.7-9.5,8.9-12.7c4-3,8.5-5.2,12.9-7.4c1.6-0.8,0.2-3.1-1.4-2.3c-4.7,2.4-9.5,4.7-13.7,8
	c-4.5,3.5-7.9,8.2-9.4,13.8C91.9,38.3,94.5,39,94.9,37.3C94.9,37.3,94.9,37.3,94.9,37.3z"/>
<path d="M123.6,14.5c15.5-4.7,31.7,4.3,40.5,17c4.6,6.7,7.7,14.4,10.3,22.1c2.2,6.8,4.1,13.6,5.3,20.6c2.4,13.8,3.1,27.8,3.6,41.8
	c0.5,11.9,0.5,24,2.2,35.9c1,6.9,2.9,17.9,11.1,19.6c1.7,0.3,2.4-2.3,0.7-2.6c-6.9-1.4-8.3-11.4-9.2-17.1c-1.8-12-1.8-24.2-2.3-36.3
	c-0.6-14.1-1.3-28.2-3.7-42.1c-1.2-7-3.1-13.8-5.3-20.6c-2.6-7.7-5.6-15.3-10.1-22.1c-9.4-14-26.9-24-44-18.9
	C121.3,12.4,122,15,123.6,14.5L123.6,14.5L123.6,14.5z"/>
<path d="M123.9,12c-4.2-1.9-9.4-1.9-13.9-1.4c-8.1,0.8-15.8,3.9-22.4,8.7c-13,9.4-21.5,23.7-25.5,39.1c-3.3,12.9-3.4,26.2-3,39.5
	c0.4,12.6,1.5,25.3,0.8,37.8c-0.2,3.6-0.8,7.2-2.1,10.5c-1,2.4-2.4,4.5-4,6.6s-2.9,4.1-3.8,6.4c-1.4,3.5-1.9,7.2-2.1,10.9
	c-0.1,1.7,2.6,1.7,2.7,0c0.3-5.8,1.6-10.6,5-15.3c3-4.2,5.3-8.2,6.2-13.4s0.9-10.9,0.8-16.4c-0.1-6.4-0.4-12.9-0.6-19.3
	c-0.5-12.4-1.1-24.9,0.7-37.2c2.2-15,8.2-30.2,19.1-41c6.7-6.6,14.8-11.8,24.1-13.7c5-1.1,11.8-1.7,16.5,0.4
	C124.2,15,125.5,12.7,123.9,12L123.9,12L123.9,12z"/>
<path d="M102.6,197.6c7.1,0.9,14.3,0.7,21.3-0.5c1.7-0.3,1-2.9-0.7-2.6c-6.8,1.1-13.8,1.2-20.6,0.4c-0.7-0.1-1.3,0.7-1.3,1.4
	C101.2,197,101.8,197.5,102.6,197.6L102.6,197.6L102.6,197.6z"/>
<path d="M193.7,321.8c0,15.8,2.2,31.7,4.8,47.3c0.3,1.7,2.9,1,2.6-0.7c-2.5-15.3-4.7-31-4.7-46.5
	C196.4,320.1,193.7,320.1,193.7,321.8L193.7,321.8L193.7,321.8z"/>
<path d="M88.6,355.6c21.2-9,43-16.6,65.2-23c1.7-0.5,1-3.1-0.7-2.6c-22.4,6.4-44.4,14.2-65.8,23.3C85.6,353.9,87,356.2,88.6,355.6
	L88.6,355.6L88.6,355.6z"/>
<path d="M12.2,316.4c0,17.7-1.1,35.3-2.6,52.9c-0.1,1.7,2.6,1.7,2.7,0c1.5-17.6,2.6-35.2,2.6-52.9C14.9,314.7,12.2,314.7,12.2,316.4
	L12.2,316.4z"/>
<path class="st2" d="M220.1,268c-2.7-5-29.4-49-29.4-49s-32-51.1-32.5-52.8c-0.6-1.7-0.4-2.3,0-7.1c0.4-4.7,2.8-42.8,2.8-42.8
	s0.1-14.5-1.7-19.1s-9.3-16.8-10.2-18.2s-3.1-2.2-4.1,1.6c-1.1,3.8,5,15.9,5,15.9s-2.4-4.3-5.1-7.7s-7.3-7.9-7.3-7.9
	s-5.3-3.3-7.1-0.9c-1.8,2.4,1.1,7.3,1.1,7.3l-1.9-0.6c-1.9-0.6-5.6-1.4-4,4.7c1.6,6.1,12.5,15.5,13.4,17.4
	c0.9,1.9,2.3,12.4,2.3,12.4s-3.4-6.5-5.6-9.8s-6.6-8.3-9.3-8c-2.6,0.3-3.2,1.5-1.7,5.7c1.4,4.2,7.8,11.8,8.1,17.2
	c0.3,5.4-7.5,35.8-7.5,35.8c-0.1,9.9,8.1,19.9,8.1,19.9l17.4,56.1c0,0,17.6,56.3,23.6,67.3s20.4,17.3,30.3,17.5
	c9.9,0.2,20.9-6,22.7-20.1C229.9,284.9,222.8,272.9,220.1,268L220.1,268z"/>
<g>
	<path d="M145.9,135.2c-0.5-6.9-2.6-14.3-6.2-20.2c-2.1-3.4-10.5-17.5-16-11.5c-1.5,1.7-0.9,4-0.3,6c0.9,2.8,2.3,5.6,3.7,8.2
		c1.1,2.2,2.4,4.3,3.6,6.4c0.5,0.8,0.6,1.1,0.6,2.1c0.2,2.9-0.3,5.8-0.9,8.7c-1.3,5.6-2.8,11.1-4.2,16.6c-1.4,5.3-2.9,10.7-1.8,16.2
		c1,5,4,9.2,7,13.2c0.7,0.9,0.8,0.8,1.1,1.7c1.6,5.6,3.3,11.2,5,16.9c3.2,10.6,6.4,21.1,9.6,31.6c3.7,12,7.5,23.9,11.4,35.9
		c3.3,9.9,6.6,19.9,10.4,29.6c1.9,4.9,3.7,10.2,7.2,14.2c8.6,9.9,22.3,16.6,35.4,12.5c15-4.7,19-21.7,17.1-35.6
		c-0.5-4-1.5-7.9-2.9-11.6c-0.6-1.6-3.2-0.9-2.6,0.7c4.5,12.6,5.8,30.8-5.7,40.3c-5.8,4.8-14.1,5.7-21.1,3.8
		c-6-1.6-11.4-5.1-15.9-9.4c-1.2-1.2-2.3-2.4-3.4-3.7c-0.4-0.4,0,0-0.3-0.3c-0.2-0.3-0.5-0.7-0.7-1c-1.3-2.2-2.3-4.7-3.3-7.1
		c-3.5-8.6-6.5-17.4-9.5-26.2c-3.8-11.2-7.4-22.5-10.9-33.8c-3.4-10.7-6.7-21.5-9.9-32.3c-2.2-7.2-4.4-14.5-6.5-21.8
		c-0.4-1.3-0.7-2.7-1.2-4c-0.2-0.5-0.6-0.9-0.9-1.4c-1.5-1.9-3-3.9-4.2-6c-2.8-4.8-3.7-9.7-2.7-15.1s2.7-10.7,4-16
		c1.3-5.1,3.1-10.3,2.9-15.6c0-1.2-0.1-2.6-0.6-3.7c-0.3-0.6-0.7-1.2-1.1-1.8c-1.4-2.3-2.7-4.7-3.9-7.1c-1.2-2.3-2.4-4.8-3-7.4
		c-0.4-2,0.8-2.8,2.8-1.6c3.8,2.3,6.5,6.9,8.8,10.5c1.8,2.9,3.1,5.9,4.1,9.1c1,3.3,1.8,6.7,2.1,10.1
		C143.4,137,146.1,137,145.9,135.2L145.9,135.2L145.9,135.2z"/>
	<path d="M150.8,129.3c0.1-4.4,0.1-8.8-0.2-13.3c-0.2-3-0.6-6.1-1.7-9c-1.1-2.8-2.9-5.3-4.7-7.6c-2.1-2.7-4.5-5.2-6.9-7.7
		c-1.2-1.3-2.5-2.7-3.7-4c-1.2-1.3-2.4-2.6-4.2-3.1c-3.1-0.8-5.7,1.4-5.3,4.6c0.4,3.6,2.8,7.2,4.9,10.1c2.5,3.5,5.3,6.7,7.8,10.2
		c2.5,3.5,2.5,7.1,2.8,11.2c0.1,1.7,2.8,1.7,2.7,0c-0.2-2.9-0.1-5.9-1-8.6c-1-3.1-3.3-5.6-5.2-8.1c-2.1-2.7-4.3-5.3-6.1-8.2
		c-0.8-1.3-5.4-9.1-1.5-8.7c1.6,0.2,2.7,1.8,3.6,2.8c1.3,1.4,2.6,2.8,3.8,4.1c2.1,2.3,4.3,4.5,6.2,7c1.6,2.1,3.3,4.4,4.3,6.9
		c1,2.5,1.3,5.2,1.5,7.9c0.3,4.4,0.3,8.8,0.2,13.3C148.1,131,150.8,131,150.8,129.3L150.8,129.3L150.8,129.3z"/>
	<path d="M133.3,87.6c-0.7-1.3-3.4-6.6-0.6-7c2.4-0.4,4.7,2.2,6.2,3.8c3.2,3.4,6.3,6.9,9,10.7c1.4,1.9,2.9,3.9,4,6
		c1,1.8,0.9,4.1,1,6.1c0.3,5.6,0.5,11.3,0.5,16.9c0,1.7,2.7,1.7,2.7,0c0-5.5-0.1-11-0.4-16.5c-0.1-1.9-0.1-3.9-0.6-5.8
		c-0.5-2.2-2-4-3.2-5.8c-2.5-3.6-5.1-7-8-10.2c-2.8-3.1-6.1-7.9-10.8-8c-2.1,0-3.9,1.2-4.2,3.3c-0.4,2.6,1,5.6,2.1,7.8
		C131.8,90.4,134.1,89.1,133.3,87.6L133.3,87.6L133.3,87.6z"/>
	<path d="M150.2,93.2c-1.5-2.8-2.9-5.7-3.9-8.8c-0.4-1.3-1.2-3.5-0.5-4.7c1.1-1.9,2.8,1.2,3.3,2.1c1.9,3.3,3.7,6.6,5.6,9.9
		c1.1,1.9,2.6,4,3.3,6.2c0.4,1.3,0.3,2.7,0.5,4.1c0.2,1.5,0.4,2.5,0.5,3.8c0.2,3,0.2,6,0.1,9c-0.2,16.4-1.1,33-2.9,49.4
		c-0.1,1.3-0.4,2.2,0.3,3.4s1.4,2.2,2.1,3.3c3,4.6,5.9,9.2,8.9,13.9c9.4,14.9,18.8,29.7,28,44.7c8.9,14.4,17.8,28.9,25.9,43.8
		c0.7,1.3,1.4,2.6,2.1,4c0.8,1.5,3.1,0.2,2.3-1.4c-9.2-17.3-19.6-34-29.9-50.7c-10.2-16.5-20.6-33-31-49.4
		c-2.2-3.4-4.3-6.8-6.5-10.2l0.1,1c0.8-5.8,1.2-11.6,1.6-17.4c0.6-8.2,1-16.4,1.4-24.6c0.2-6.2,0.6-12.6,0.1-18.8
		c-0.2-2.6-0.6-5.2-1-7.8c-0.2-1.2-0.7-2.2-1.2-3.2c-1.4-2.7-3-5.4-4.6-8.1c-1.5-2.7-6.6-14.7-11.1-8.8c-1.7,2.3-0.7,5.5,0.1,8
		c1,3.1,2.4,5.9,3.9,8.8C148.7,96.1,151,94.8,150.2,93.2L150.2,93.2L150.2,93.2z"/>
</g>
<path d="M13.5,322.1c0,0.3,30.1,6.1,41.4-1.5c0,0-12.2,1.4-18.4,0.7c-6.1-0.8-23-4.8-23-4.8L13.5,322.1L13.5,322.1z"/>
<path d="M157.8,260.1c0,0,9.6,37.7,14.1,48.1c6.3,15,22.9,24.3,22.9,24.3l-0.6-12.9c0,0-14.1-2.3-19.7-14S157.8,260.1,157.8,260.1
	L157.8,260.1z"/>
<path d="M64.5,166.4c1.2-2.4,2.1-4.8,3.1-7.3s1.8-4.9,2.3-7.4c0.4-1.7-2.2-2.4-2.6-0.7c-0.6,2.4-1.4,4.8-2.2,7.2
	c-0.9,2.3-1.8,4.6-2.9,6.8c-0.3,0.6-0.2,1.5,0.5,1.8C63.3,167.2,64.2,167,64.5,166.4L64.5,166.4L64.5,166.4z"/>
<path d="M94.9,120.8c3.7-2.8,8.5-4.4,13.1-3.3c1.7,0.4,2.4-2.2,0.7-2.6c-5.3-1.3-10.9,0.3-15.2,3.6c-0.6,0.4-0.9,1.2-0.5,1.8
	C93.4,120.9,94.3,121.2,94.9,120.8L94.9,120.8L94.9,120.8z"/>
</svg>
