<?xml version="1.0" encoding="utf-8"?>
<!-- Generator: Adobe Illustrator 28.0.0, SVG Export Plug-In . SVG Version: 6.00 Build 0)  -->
<svg version="1.1" id="Layer_1" xmlns="http://www.w3.org/2000/svg" xmlns:xlink="http://www.w3.org/1999/xlink" x="0px" y="0px"
	 viewBox="0 0 325.5 374.4" style="enable-background:new 0 0 325.5 374.4;" xml:space="preserve">
<style type="text/css">
	.st0{fill:#FFD2A5;}
	.st1{fill:#785756;}
	.st2{fill:#FEC3AA;}
	.st3{fill:#FFFFFF;}
</style>
<path class="st0" d="M96.8,158.1c0,0-35.7,12-44,15.1s-27.2,10.4-34.4,23s-7.3,44.1-7.3,44.1s2,44.7,3.7,60.4
	c1.7,15.7,4.8,42.4,9.4,45c4.6,2.6,11.6,0.4,11.6,0.4l3.6,22.8h190.4c0,0-9.3-55-10.2-60.1s-3.4-35.4-3.6-38.7
	c-0.2-3.4-0.4-24-0.4-24s17,8.8,35.9,13.6s28.6,5.3,32.4,2.1c1.8-1.5,2.7-3.8,2.7-3.8l-19.9-55.4l-26.3-15.8c0,0-18-10.2-22.4-12.9
	c-4.4-2.7-18.3-6.4-31.1-10.1s-24.8-9-24.8-9L96.8,158.1L96.8,158.1z"/>
<path class="st1" d="M112.2,96.7c0,0-4.3-17.4-4.7-20.8c-0.4-3.4-4-17.2,1.6-29.1c5.7-11.9,15.1-20.6,23.8-27.4
	c8.7-6.7,27.4-8.2,32.4-5c0,0,20.3-4,37.1,6.1C219.1,30.6,223.9,49,223,55.2c-0.8,6.2-16.3,41.5-16.3,41.5S118.9,122.9,112.2,96.7z"
	/>
<polygon class="st2" points="35,346.5 39.3,369 97.1,369 89.2,342.4 62.6,345.5 "/>
<path class="st2" d="M119.5,114.3c0,0-3.4,19.6-6.9,27.8c-3.4,8.2-13.9,15.2-13.9,15.2s-4.4,9.6,11.1,14.7s30.6,4.2,39.9,1
	c9.3-3.1,9.3-3.7,9.3-3.7s0.2-3,0.9-8c0.6-5,2.1-6.4,2.1-6.4s9.8-0.2,15.2-4.2c5.5-4,17.3-14.1,21.4-21.3s6.1-22.1,6.1-22.1
	s11-27.8,4.6-37.2s-40.7-14.5-40.7-14.5s-14.4-1.7-18.6,7c-4.1,8.8-7,15.9-10.2,19.5s-11.4,9.7-11.4,9.7s-3.2-5.4-8.2-5.2
	s-8,7.4-7.8,12.4S116.7,111.7,119.5,114.3L119.5,114.3z"/>
<path d="M159.7,154.6c-1.5,4.2-2.2,8.6-2.1,13.1c0,1.7,2.7,1.7,2.7,0c-0.1-4.2,0.6-8.4,2-12.4c0.2-0.7-0.3-1.5-0.9-1.7
	C160.6,153.5,159.9,153.9,159.7,154.6L159.7,154.6z"/>
<path d="M163.6,156.6c5.5,3.6,12,5.6,18.2,7.4c6.7,1.9,13.6,2.9,20.2,4.8c4.1,1.2,8,2.9,11.8,4.7c2.2,1.1,4.5,2.1,6.6,3.3
	c3.3,2,6.5,4.1,9.9,6.1c2.4,1.4,4.8,2.8,7.2,4.1c1.6,0.9,3.4,1.8,5.2,2.3c1.7,0.4,2.4-2.2,0.7-2.6c-3.8-0.9-7.4-3.5-10.6-5.4
	c-3.6-2.1-7.1-4.3-10.5-6.5c-1.5-1-3.2-1.7-4.8-2.6c-3.6-1.8-7.4-3.5-11.2-4.9c-6.5-2.4-13.5-3.4-20.2-5.1c-7.2-1.8-14.8-3.9-21.1-8
	C163.5,153.4,162.1,155.7,163.6,156.6L163.6,156.6L163.6,156.6z"/>
<path d="M118.2,113.3c0.4,10.9-3,21.6-8.2,31.1c-1,1.8-2,3.7-3.3,5.4c-3.1,4.2-8.3,6.5-13,8.2c-10.7,4-21.4,7.6-32.2,11.1
	c-5.1,1.6-10.3,3.3-15.3,5.3s-10.3,4.7-15,7.8c-4.2,2.7-8.5,5.9-11.5,9.9c-3.5,4.6-5.3,10.3-6.7,15.8c-1.8,7.3-2.3,14.9-2.7,22.4
	c-1,19-0.6,38.3,1.4,57.3c0.4,3.6,0.8,7.2,1.4,10.8c0.3,1.8,0.6,2.9,0.8,4.6c0.5,5.8,1.1,11.5,1.9,17.2c0.9,7,1.9,14.2,4.1,20.9
	c0.6,1.9,1.3,4.2,2.9,5.5c1.1,0.9,2.6,1,4,1.1c5.4,0.5,10.8,0.4,16.2,0.2c7.6-0.1,15.3-0.5,22.9-1.2c7.1-0.6,14.3-1.5,21.3-3.2
	c3.9-1,9.7-2.3,11.9-6.1c1.2-2.1,0.9-5,0.7-7.3c-0.4-3.8-1.2-7.5-2.2-11.2c-2.1-7.8-4.8-15.3-7.6-22.8c-0.8-2-1.6-4-2.4-6
	c-1.3-3.3-2.1-6.9-2.9-10.4c-2.8-11.9-4.6-23.9-6.6-35.9c-0.9-5.4-1.8-10.8-3-16.2c-0.4-1.7-3-1-2.6,0.7c2.4,11.3,4,22.8,6,34.1
	c1,5.8,2.1,11.7,3.4,17.5c0.6,2.6,1.3,5.3,2,7.9c0.2,0.6,0.3,1.2,0.5,1.8c0.1,0.2,0.5,1.4,0.2,0.7c0.1,0.1,0.1,0.3,0.2,0.4
	c2.1,5.2,4.1,10.4,6,15.7c2.6,7.5,5.2,15.2,6.2,23.1c0.2,2,0.6,5.2-0.3,6.7c-0.8,1.1-2.6,2.1-4.1,2.8c-5.6,2.4-11.8,3.3-17.8,4.1
	c-14,1.9-28.3,2.5-42.4,2.2c-2,0-4.1-0.1-6.1-0.3c-0.8-0.1-0.6-0.1-1.4-0.2c-0.3,0-0.1,0-0.2-0.1c-0.3-0.3-0.4-0.4-0.6-0.7
	c-1.3-2-1.9-4.5-2.5-6.8c-0.9-3.4-1.5-6.9-2.1-10.3c-1.1-6.7-1.9-13.4-2.6-20.1c-0.2-1.6-0.3-3.1-0.4-4.7c-0.3-2.4-0.9-4.8-1.2-7.1
	c-2.6-17.8-2.9-36.2-2.6-54.2c0.2-8.4,0.5-17,1.7-25.3c1.3-9.1,3.9-19,11-25.3c8.4-7.4,18.7-12.1,29.2-15.6
	c10.4-3.5,20.9-6.7,31.2-10.5c8.3-3.1,18.3-5.3,23.7-12.9c4.3-6.2,7.5-13.4,9.5-20.6c1.5-5.5,2.3-11.2,2.1-16.8
	C120.8,111.5,118.1,111.5,118.2,113.3L118.2,113.3L118.2,113.3z"/>
<path d="M212.6,219.2c0.6,15.9,1,31.8,1.8,47.7c0.4,7.9,0.9,15.8,1.5,23.7c0.4,4.4,0.6,8.9,1.4,13.3c2.7,16,5.4,32,8.1,48
	c1,5.8,2,11.7,3,17.5c0.3,1.7,2.9,1,2.6-0.7c-2.4-14.2-4.8-28.5-7.2-42.7c-1.2-7.2-2.4-14.4-3.6-21.6c-1.8-10.6-2.1-21.5-2.8-32.1
	c-1-17.7-1.5-35.4-2.1-53C215.2,217.4,212.5,217.4,212.6,219.2L212.6,219.2L212.6,219.2z"/>
<path d="M214.8,247.4c10.6,6.6,22.7,10.2,34.8,12.8c6.2,1.3,12.4,2.4,18.6,3.4c3.2,0.5,6.2,1.1,9.4,0.9c3.6-0.2,8.5-1.2,9.3-5.5
	c0.3-1.7-2.3-2.4-2.6-0.7c-0.6,3.1-4.9,3.4-7.5,3.5c-3.2,0.1-6.2-0.5-9.3-1c-11.4-1.9-22.8-3.9-33.8-7.6c-6.2-2.1-12.1-4.7-17.6-8.1
	C214.7,244.1,213.4,246.5,214.8,247.4L214.8,247.4L214.8,247.4z"/>
<path d="M97.7,157.5c-3.7,5.7,2.6,11.4,7.2,13.8c4.7,2.5,9.9,3.9,15.1,4.7c7.6,1.2,15.5,1.6,23,0.2c8.3-1.6,16-5.1,23.1-9.6
	c1.5-0.9,0.1-3.3-1.4-2.3c-5.7,3.6-11.9,6.7-18.4,8.4c-7.2,1.9-14.6,1.9-21.9,1.2c-5.3-0.5-10.7-1.6-15.6-3.7c-2.9-1.2-6-3-8-5.5
	c-1.4-1.9-1.9-4-0.7-5.8C101,157.4,98.7,156,97.7,157.5L97.7,157.5L97.7,157.5z"/>
<g>
	<path d="M130.8,128c0.6,1.7,1.6,3.4,2.5,4.9c2.7,4.3,6,8.2,9.6,11.9c6.8,6.9,15,12.7,25.1,11.4c3.6-0.4,6.7-2.2,9.7-4.1
		c3.4-2.2,6.5-4.7,9.6-7.4c5.7-4.9,11-10.5,14-17.6c2.8-6.6,3.1-13.9,4.6-20.9c1.5-7.5,3.6-14.9,6.1-22.1c0.6-1.6-2-2.3-2.6-0.7
		c-2.1,6-3.9,12.1-5.3,18.3c-1.4,5.9-2.1,11.9-3.3,17.9c-1.7,8.2-6.5,15.1-12.6,20.6c-2.6,2.3-5.2,4.6-7.9,6.7
		c-2.9,2.2-6,4.5-9.5,5.8c-8.2,3.1-16.6-1.3-22.6-6.6c-4.5-4-8.6-8.5-11.9-13.5c-0.8-1.3-1.6-2.6-2.3-4c-0.1-0.3-0.5-1-0.5-1.1
		c0.1,0.1-0.1-0.2-0.1-0.3C132.8,125.6,130.2,126.3,130.8,128L130.8,128L130.8,128z"/>
	<path d="M130.6,93.2c-1.9-4.3-5.8-8.9-11.2-7.8c-4.7,1-7.3,6.5-8,10.8c-0.7,4.9,0.5,9.9,3.1,14.1c2.8,4.3,6.8,9,11.9,10.4
		c1.7,0.5,2.4-2.1,0.7-2.6c-4.1-1.2-7.5-5-9.8-8.5c-2.2-3.3-3.6-7.1-3.4-11.1c0.1-3.6,1.5-8.1,4.8-10c4.4-2.6,8,2.5,9.6,5.9
		C129,96.1,131.3,94.7,130.6,93.2L130.6,93.2L130.6,93.2z"/>
	<path d="M119,95.9c0.8-0.1,1.6,0.7,2,1.2c0.7,0.8,1.2,1.7,1.7,2.7c1,1.9,1.7,4,2.1,6.1c0.1,0.7,1,1.1,1.7,0.9
		c0.8-0.2,1.1-0.9,0.9-1.7c-0.5-2.6-1.4-5.1-2.8-7.4c-1.4-2.4-3.3-5-6.4-4.5c-0.7,0.1-1.1,1-0.9,1.7C117.6,95.7,118.3,96,119,95.9
		L119,95.9L119,95.9z"/>
	<path d="M124.2,99.2c-1.3,0.2-2.3,0.9-2.9,2c-0.5,0.9-0.8,2-0.8,3.1c-0.1,2,0.8,4.1,2.4,5.4c0.5,0.4,1.4,0.6,1.9,0
		c0.4-0.5,0.6-1.4,0-1.9c-0.2-0.1-0.3-0.2-0.4-0.4c-0.1-0.1-0.1-0.1-0.2-0.2c0,0-0.2-0.3-0.1-0.1s-0.1-0.1-0.1-0.1
		c0-0.1-0.1-0.1-0.1-0.2c-0.1-0.2-0.2-0.3-0.3-0.5c0,0-0.1-0.3-0.1-0.2c0.1,0.2,0-0.1,0-0.1c-0.1-0.2-0.1-0.4-0.2-0.6
		c0-0.2-0.1-0.3-0.1-0.5c0,0.2,0,0.1,0,0c0-0.1,0-0.2,0-0.3c0-0.2,0-0.3,0-0.5c0-0.1,0-0.2,0-0.3c0,0.1,0,0.2,0,0
		c0-0.2,0.1-0.4,0.1-0.6c0-0.1,0-0.2,0.1-0.2c0,0,0.1-0.3,0.1-0.2s0.1-0.1,0.1-0.2c0.1-0.1,0.1-0.2,0.2-0.3s0.1-0.2,0.2-0.2
		c-0.1,0.1-0.1,0.1,0,0s0.2-0.1,0.2-0.2c0.1-0.1-0.2,0.2,0.1,0c0.1-0.1,0.1-0.1,0,0c0.1,0,0.4-0.1,0.1-0.1c0.7-0.1,1.4-0.6,1.3-1.3
		C125.5,99.8,124.9,99.1,124.2,99.2L124.2,99.2L124.2,99.2z"/>
	<path d="M184.8,98.8c0.9,3.2,1.7,6.5,2.6,9.7c0.2,0.7,0.5,1.6,0.4,2.3c-0.1,0.6-0.5,1.2-0.8,1.7c-0.8,1.1-1.9,2.1-3.1,2.8
		c-1.5,0.9-0.1,3.2,1.4,2.3c2.7-1.7,5.8-4.6,5.2-8.1c-0.3-1.9-0.9-3.7-1.4-5.5c-0.5-2-1-3.9-1.6-5.9C187,96.4,184.4,97.1,184.8,98.8
		L184.8,98.8L184.8,98.8z"/>
	<g>
		<path d="M195.1,96.4c-0.4,0.2-0.7,0.8-0.9,1.1c-0.5,1-0.8,2-0.9,3.1c0,0.5,0,1,0.1,1.4c0.2,0.4,0.5,0.8,0.9,1
			c0.6,0.2,1.3-0.2,1.8-0.7c0.6-0.6,0.9-1.5,1.1-2.3s0.1-1.7-0.1-2.6c0-0.3-0.1-0.6-0.3-0.8c-0.2-0.2-0.4-0.4-0.9-0.5
			C195.7,96.1,195.4,96.3,195.1,96.4L195.1,96.4z"/>
		<path d="M194.6,95.5c-0.6,0.3-1,0.9-1.3,1.5c-0.4,0.7-0.6,1.4-0.8,2.2c-0.3,1.4-0.5,3.3,0.7,4.4c1.4,1.2,3.2,0.3,4.1-1.1
			c0.9-1.3,1-2.9,0.9-4.4c-0.1-0.9-0.2-1.8-0.9-2.4c-0.4-0.3-0.8-0.5-1.2-0.6C195.6,95.1,195.1,95.2,194.6,95.5
			c-0.5,0.3-0.6,0.9-0.4,1.4c0.3,0.5,0.9,0.6,1.4,0.4c0,0,0.2-0.1,0.1-0.1c0.1,0,0.1,0,0.1,0c-0.1,0,0,0.1,0,0c0,0,0.1,0,0,0
			c0,0,0.1,0.1,0.1,0.1c0,0,0,0,0,0c0,0,0.1,0.1,0.1,0.1c0,0,0.1,0.1,0,0c-0.1-0.1,0,0.1,0,0.1c0,0,0,0.2,0.1,0.3
			c0.1,0.3,0.1,0.4,0.1,0.7c0,0.5,0.1,1.1,0,1.5c0,0.2-0.1,0.4-0.1,0.7c-0.1,0.3-0.1,0.3-0.2,0.6c-0.1,0.2-0.2,0.4-0.3,0.5
			c-0.1,0.1-0.1,0.2-0.2,0.2c-0.1,0.1,0,0-0.2,0.1c0,0-0.2,0.1-0.1,0.1c0.1,0-0.1,0-0.1,0c-0.1,0-0.3,0.1-0.1,0c0,0-0.2,0-0.1,0
			c0.1,0-0.1,0-0.1,0c0,0,0.1,0,0,0c-0.1,0,0.1,0.1-0.1-0.1c0,0-0.1-0.1-0.1-0.1s0-0.1,0-0.1c0,0-0.1-0.3-0.1-0.1
			c-0.1-0.3-0.1-0.4-0.1-0.7c0-0.5,0.1-0.9,0.2-1.4c0.1-0.6,0.3-1.1,0.6-1.6c0.1-0.2,0.2-0.4,0.3-0.6c0,0,0.1-0.1,0.1-0.1
			c0-0.1,0-0.1,0,0l0.1-0.1c0,0,0.1-0.1,0.1-0.1c0.1-0.1-0.2,0.1,0,0c0.5-0.3,0.6-0.9,0.4-1.4S195.1,95.2,194.6,95.5L194.6,95.5z"/>
	</g>
	<g>
		<path d="M164.6,88.8c-0.4,0.2-0.7,0.8-0.9,1.1c-0.5,1-0.8,2-0.9,3.1c0,0.5,0,1,0.1,1.4c0.2,0.4,0.5,0.8,0.9,1
			c0.6,0.2,1.3-0.2,1.8-0.7c0.6-0.6,0.9-1.5,1.1-2.3s0.1-1.7-0.1-2.6c0-0.3-0.1-0.6-0.3-0.8s-0.4-0.4-0.9-0.5
			C165.1,88.5,164.8,88.7,164.6,88.8L164.6,88.8z"/>
		<path d="M164.1,87.9c-0.6,0.3-1,0.9-1.3,1.5c-0.4,0.7-0.6,1.4-0.8,2.2c-0.3,1.4-0.5,3.3,0.7,4.4c1.4,1.2,3.2,0.3,4.1-1.1
			c0.9-1.3,1-2.9,0.9-4.4c-0.1-0.9-0.2-1.8-0.9-2.4c-0.4-0.3-0.8-0.5-1.2-0.6C165,87.5,164.5,87.7,164.1,87.9
			c-0.5,0.3-0.6,0.9-0.4,1.4c0.3,0.5,0.9,0.6,1.4,0.4c0,0,0.2-0.1,0.1-0.1c0.1,0,0.1,0,0.1,0c-0.1,0,0,0.1,0,0c0,0,0.1,0,0,0
			c0,0,0.1,0.1,0.1,0.1c0,0,0,0,0,0c0,0,0.1,0.1,0.1,0.1c0,0,0.1,0.1,0,0c-0.1-0.1,0,0.1,0,0.1c0,0,0,0.2,0.1,0.3
			c0.1,0.3,0.1,0.4,0.1,0.7c0,0.5,0.1,1.1,0,1.5c0,0.2-0.1,0.4-0.1,0.7c-0.1,0.3-0.1,0.3-0.2,0.6c-0.1,0.2-0.2,0.4-0.3,0.5
			c-0.1,0.1-0.1,0.2-0.2,0.2c-0.1,0.1,0,0-0.2,0.1c0,0-0.2,0.1-0.1,0.1c0.1,0-0.1,0-0.1,0c-0.1,0-0.3,0.1-0.1,0c0,0-0.2,0-0.1,0
			c0.1,0-0.1,0-0.1,0c0,0,0.1,0,0,0c-0.1,0,0.1,0.1-0.1-0.1c0,0-0.1-0.1-0.1-0.1s0-0.1,0-0.1c0,0-0.1-0.3-0.1-0.1
			c-0.1-0.3-0.1-0.4-0.1-0.7c0-0.5,0.1-0.9,0.2-1.4c0.1-0.6,0.3-1.1,0.6-1.6c0.1-0.2,0.2-0.4,0.3-0.6c0,0,0.1-0.1,0.1-0.1
			c0-0.1,0-0.1,0,0l0.1-0.1c0,0,0.1-0.1,0.1-0.1c0.1-0.1-0.2,0.1,0,0c0.5-0.3,0.6-0.9,0.4-1.4S164.5,87.7,164.1,87.9L164.1,87.9z"/>
	</g>
	<path d="M214.1,29.1c-4.8-5.6-10.6-10.3-17.5-13.2c-5.7-2.4-11.9-3.6-18.1-3.7c-2.9-0.1-5.8,0.1-8.8,0.3c-1.3,0.1-2.8,0.1-4.1,0.5
		c-0.9,0.2,0.2,0.1-0.2,0.1c-0.2-0.1-0.4-0.1-0.6-0.2c-4.9-1.6-10.3-1.9-15.3-1.2c-11.6,1.6-22.1,8.5-30,16.9
		c-4.5,4.8-8.3,10.2-11.1,16.2c-1.5,3.1-2.7,6.4-3.6,9.7c-0.7,2.5-1.4,5.1-1.3,7.8c0.2,6.4,2.2,12.8,3.8,19
		c1.6,6.3,3.7,12.8,3.9,19.4c0.1,1.7,2.8,1.7,2.7,0c-0.2-5.4-1.6-10.8-3-16c-1.5-5.8-3.1-11.5-4.2-17.4c-0.4-2.2-0.7-4.4-0.5-6.7
		c0.2-3,1.3-6,2.3-8.8c2.1-6.1,5.3-11.9,9.3-17c6.6-8.4,15.7-15.7,26-18.9c5.9-1.8,12.4-2.2,18.4-0.7c0.9,0.2,1.8,0.7,2.7,0.8
		c1.2,0.2,2.7-0.3,3.9-0.4c1.5-0.1,2.9-0.3,4.4-0.3c6.6-0.3,13.3,0.2,19.6,2.4c7.6,2.6,14,7.5,19.2,13.6
		C213.3,32.3,215.2,30.4,214.1,29.1L214.1,29.1L214.1,29.1z"/>
	<path d="M135,133c-2.3-3.7,3.3,9.8,7,14.1c2.8,3.3,6,5.9,9.5,8.5c2.8,2.1,7.7,1.8,7.7,1.8l1.2-2.7C160.4,154.8,146.2,150.9,135,133
		L135,133z"/>
	<path d="M130.5,92.3c8.6-5.7,14.6-13.9,17.9-23.6c1.1-3.3,3.6-6.8,6.7-9c3.8-2.7,8.4-3.4,13-3c1.7,0.2,1.7-2.5,0-2.7
		c-7.5-0.7-14.7,2-19.2,8.1c-1.2,1.6-2.2,3.4-2.9,5.3c-1.2,3.2-2.3,6.3-4.1,9.3c-3.2,5.3-7.6,9.9-12.8,13.3
		C127.7,90.9,129,93.3,130.5,92.3L130.5,92.3L130.5,92.3z"/>
	<path d="M204.8,88.1c-4.5-1.7-8.4-4.6-11.4-8.2c-0.5-0.6-1.4-0.5-1.9,0c-0.6,0.6-0.5,1.3,0,1.9c3.3,4.1,7.7,7.1,12.6,8.9
		c0.7,0.2,1.5-0.3,1.7-0.9C205.9,89,205.4,88.3,204.8,88.1L204.8,88.1L204.8,88.1z"/>
	<path d="M120.7,83.8c6.3-2.4,12-5.9,16.9-10.6c1.3-1.2-0.6-3.1-1.9-1.9c-4.5,4.3-9.9,7.7-15.8,9.9c-0.7,0.3-1.2,0.9-0.9,1.7
		C119.2,83.5,120,84.1,120.7,83.8C120.7,83.8,120.7,83.8,120.7,83.8z"/>
	<path d="M163.9,76.2c4.5,1.5,9.3,2.2,14.1,2.1c1.7-0.1,1.7-2.7,0-2.7c-4.5,0.1-9-0.6-13.3-2C163,73,162.2,75.6,163.9,76.2
		L163.9,76.2z"/>
</g>
<path d="M122.7,189.6c13.2,0.1,26.2-3.1,37.8-9.3c1.5-0.8,0.2-3.1-1.4-2.3c-11.2,5.9-23.8,9-36.5,8.9
	C121,186.9,121,189.6,122.7,189.6L122.7,189.6L122.7,189.6z"/>
<g>
	<path class="st3" d="M180.6,127.8c-0.2-0.5-0.7-0.8-1.1-1.1c-3.7-2.3-7.5-3.5-11.8-4.6s-7.7-0.8-10.9,1.2c-1.1,0.5-1.4,2.1-0.9,3.2
		c0.5,1.1,1.6,1.8,2.8,2.4c5.3,2.7,10.8,5,16.7,4.9c1.3,0,3.3-1.9,4.3-3.1C180.1,130.3,180.8,128.4,180.6,127.8L180.6,127.8z"/>
	<path d="M181.7,127.1c-0.9-1.9-3.8-2.9-5.6-3.6c-2.2-1-4.5-1.7-6.9-2.3c-4.5-1.2-9.1-1.6-13.2,1.1c-1.6,1-2.2,3-1.5,4.8
		c0.9,2.2,3.3,3.2,5.4,4.2c4.5,2.1,9.2,3.9,14.3,4.1c2.4,0.1,4.1-1.1,5.8-2.8c1.2-1.3,2.3-3.2,1.9-5c-0.4-1.7-3-1-2.6,0.7
		c0.2,1-0.8,2-1.4,2.6c-0.5,0.5-1,1-1.6,1.4c-0.7,0.5-1.4,0.4-2.2,0.4c-3.9-0.2-7.6-1.4-11.1-3c-1.6-0.7-3.3-1.4-4.7-2.4
		c-0.6-0.4-1.2-1-1.2-1.8s0.7-1,1.3-1.3c3.2-1.7,6.7-1.2,10.1-0.3c2,0.5,3.9,1.1,5.8,1.9c0.9,0.4,1.8,0.8,2.7,1.2
		c0.8,0.4,2.1,0.9,2.5,1.7C180.2,130,182.5,128.7,181.7,127.1L181.7,127.1z"/>
</g>
<path d="M87.9,344.3c2.1,7.2,4.2,14.4,6.2,21.7c0.3,1,0.6,2.1,0.9,3.1c0.5,1.7,3.1,1,2.6-0.7c-2.1-7.2-4.2-14.4-6.2-21.7
	c-0.3-1-0.6-2.1-0.9-3.1C90,341.9,87.4,342.6,87.9,344.3L87.9,344.3z"/>
<path d="M33.7,348.5c1.5,7,2.9,13.9,4.4,20.9c0.4,1.7,3,1,2.6-0.7c-1.5-7-2.9-13.9-4.4-20.9C35.9,346.1,33.3,346.8,33.7,348.5
	L33.7,348.5z"/>
<path d="M116.3,367.7c23.2-12.5,44.8-27.7,64.4-45.2c5.6-5,11-10.2,16.2-15.5c1.2-1.2-0.7-3.1-1.9-1.9
	c-18.3,18.7-38.8,35.3-60.9,49.2c-6.3,3.9-12.6,7.6-19.1,11.1C113.4,366.2,114.7,368.5,116.3,367.7L116.3,367.7L116.3,367.7z"/>
<path d="M215.5,224.7c0,0,2.5,15.2,5,19.3c2.5,4.1,10.9,9.3,10.9,9.3s-17.6-8.1-17.5-9C214.5,238.9,215.5,224.7,215.5,224.7
	L215.5,224.7z"/>
<polygon points="94.8,339 94.8,363.4 89.2,342.4 "/>
<path d="M35.4,350.2c0,0,23.5-0.5,36.9-4.8l-36.5,0.9C35.8,346.3,35.4,350.2,35.4,350.2z"/>
<g>
	<path class="st2" d="M171.1,51.2c0-0.1-0.7-0.1-0.9,2.2s3.5,7.2,6.9,9.6s9.4,3.7,11.2,5.2c1.9,1.6,9.8,12.4,9.8,12.4
		s0.7,12,1.5,15.3c0.9,3.4,4.6,15,12.9,16.5l25.2,64.2c0,0,19.8,37.3,22.6,39.7c0,0-2.2,5.4-0.8,8.8c1.5,3.4,10.3,28.5,13.6,30.9
		c3.3,2.5,20.2,2.2,30.7-0.4c10.5-2.6,16.6-13.3,17.2-19.9c0.6-6.6-0.4-17.3-6.9-26.8S268,145.6,268,145.6s-30.9-38.2-32.1-41.2
		s-9-36.1-10.4-41.8c-1.4-5.8-6.7-24.2-10-29.6s-6.3-7.1-8-5.5c-1.6,1.6,0.6,11.2,0.6,11.2l-16.5-7.7c0,0-10-4.1-15-3.8
		c-3.8,0.3-2.8,5.1-0.3,6.8c0,0-6.8-2.8-9.9-1.8c-3.1,0.9-6.4,5.5,0.6,9.4c0,0-5.6-0.8-5.7,2.9C161.3,48,171.1,51.2,171.1,51.2
		L171.1,51.2z"/>
	<path d="M199.6,80.6c-1.8-2.4-3.6-4.8-5.4-7.3c-1.5-2-2.8-4.2-4.8-5.8c-1.8-1.4-4.2-2-6.2-2.9s-4.1-2-5.9-3.3s-3.7-3-4.9-5
		c-0.5-0.8-1.6-2.6-0.2-3c1-0.3,2.4,0.5,3.2,0.9c4.3,2,8.6,3.8,12.8,6c4.8,2.5,9.3,5.6,12.4,10c1,1.4,3.3,0.1,2.3-1.4
		c-6.4-9-17.2-12.9-26.9-17.3c-1.8-0.8-4.3-1.7-6.1-0.2c-2.2,1.8-1.1,4.8,0.2,6.7c2.9,4.5,7.7,7.2,12.4,9.3c1.3,0.6,2.7,1.1,4.1,1.7
		c1.4,0.7,2.4,1.9,3.4,3.2c2.4,3.2,4.8,6.4,7.2,9.7C198.3,83.3,200.6,82,199.6,80.6L199.6,80.6L199.6,80.6z"/>
	<path d="M173.7,50.4c-2.5-0.4-4.9-1.1-7.1-2.3c-1.2-0.6-6.8-4.1-2.9-4.9c2.3-0.5,5.2,0.4,7.5,1c2.5,0.7,5,1.6,7.4,2.5
		c4.9,1.8,9.9,3.5,14.6,5.8c4.3,2.1,7.6,5.7,11.8,7.8c1.6,0.7,2.9-1.6,1.4-2.3c-2.7-1.3-4.9-3.3-7.3-5s-4.9-3-7.6-4.1
		c-6.1-2.5-12.4-5.1-18.7-6.9c-3.2-0.9-13.9-3.7-13.1,2.8c0.3,2.5,2.8,4.1,4.8,5.3c2.6,1.5,5.5,2.6,8.5,3
		C174.7,53.3,175.4,50.7,173.7,50.4L173.7,50.4L173.7,50.4z"/>
	<path d="M168.4,40.8c-1.4-1.1-3.3-2.4-3.7-4.3c-0.6-2.6,1.6-3.2,3.8-2.9c4.4,0.7,8.7,2.6,12.9,4.2c4.2,1.6,8.3,3.1,12.5,4.7
		s8.1,3.5,11.4,6.3c1.3,1.1,3.2-0.8,1.9-1.9c-4-3.5-8.8-5.6-13.7-7.5c-5.4-2.1-10.8-4.1-16.2-6.1c-2.6-1-5.3-1.9-8.1-2.4
		c-2.1-0.4-4.4-0.5-6,1.2c-3.4,3.7,0.3,8.2,3.3,10.5C167.8,43.7,169.8,41.9,168.4,40.8L168.4,40.8L168.4,40.8z"/>
	<path d="M176.4,32.8c-0.8-0.9-1.8-2.5-1-3.7c0.7-1.1,2.8-0.8,3.9-0.7c2.9,0.2,5.7,1.2,8.4,2.3c2.9,1.2,5.8,2.5,8.7,3.7
		c2.6,1.1,5.1,2.2,7.5,3.7c4.5,2.9,8.2,7.1,11.6,11.1s6.5,8.5,6.6,13.9c0,1.7,2.7,1.7,2.7,0c-0.1-4.9-2.4-9.3-5.3-13.1
		c-3.1-4.1-6.6-8-10.5-11.4c-4.3-3.7-9.4-5.8-14.6-8c-5-2.1-10.2-4.8-15.7-5c-2.3-0.1-4.8,0.2-5.9,2.5s0.1,4.7,1.6,6.5
		C175.6,36,177.5,34.1,176.4,32.8L176.4,32.8L176.4,32.8z"/>
	<path d="M211.5,40.5c-1.2-1.6-2.2-3.4-2.9-5.3c-0.6-1.7-1.5-4-1-5.9c0.7-2.5,3.1-0.2,4,0.9c1.3,1.7,2.4,3.5,3.5,5.4
		c3.3,5.6,5.3,11.6,6.9,17.9c1.1,4.3,2.1,8.7,3.1,13c1.4,6.2,2.2,12.4,3.4,18.6c1.4,7.4,3.9,14.7,7.1,21.6c0.7,1.6,3.1,0.2,2.3-1.4
		c-3.2-7-5.7-14.5-7-22.1c-1.1-6.7-2.2-13.3-3.7-20c-0.9-3.9-1.9-7.8-2.8-11.7c-1-4.3-2.5-8.5-4.4-12.5c-1.8-3.9-4-8-6.9-11.2
		c-2.5-2.8-7.3-3.2-8.1,1.3c-0.8,4.3,1.8,9.4,4.2,12.8C210.2,43.3,212.5,41.9,211.5,40.5L211.5,40.5L211.5,40.5z"/>
	<path d="M197.3,81.5c-0.1,6.5,0.2,13.3,2,19.6c1.7,5.9,7.1,10.3,12.5,12.7l-0.6-0.8c1.4,3.5,2.8,6.9,4.2,10.4
		c3.1,8,5.7,16.2,8.7,24.2c6.8,17.9,14.5,35.6,23.9,52.4c4.9,8.7,10.1,17.4,17.7,24c1.3,1.1,3.2-0.8,1.9-1.9
		c-10.1-8.6-16.4-21.2-22.3-32.8c-6.5-12.6-12.1-25.6-17.2-38.8c-4-10.3-7.3-20.9-11.4-31.2c-0.6-1.6-1.3-3.2-1.9-4.8
		c-0.3-0.8-0.6-2.1-1.2-2.7c-0.6-0.6-1.6-0.9-2.3-1.3c-1.7-1-3.4-2.1-4.8-3.4c-1.9-1.7-3.6-3.8-4.4-6.3c-0.8-2.6-1.2-5.4-1.5-8.2
		c-0.4-3.7-0.6-7.4-0.5-11.1C200,79.8,197.3,79.8,197.3,81.5L197.3,81.5L197.3,81.5z"/>
	<path d="M235.7,107c24.4,29.8,47.7,60.5,69.8,92.2c2.8,4.1,5.6,8.1,8.4,12.2c0.8,1.2,1.6,2.4,2.2,3.7c2,4.4,3.5,9.2,4.1,14
		c0.8,6.6-0.3,13.6-4.9,18.7c-3.7,4.1-9.1,6.3-14.4,7.5c-5.9,1.4-12,1.7-18.1,1.4c-2.1-0.1-4.3-0.2-6.4-0.5c-1-0.1-1.7-0.2-2.2-0.3
		c-1.7-0.3-2.4,2.3-0.7,2.6c7.9,1.2,16.1,1.2,24,0.1c5.7-0.9,11.6-2.5,16.4-6c5.4-3.9,8.4-9.9,9.1-16.4c0.6-6.1-0.6-12.3-2.7-18
		c-0.6-1.8-1.3-3.5-2.1-5.2c-1.1-2.2-2.7-4.2-4.1-6.3c-11.3-16.5-22.9-32.7-34.9-48.7c-13.4-18-27.3-35.7-41.5-53
		C236.5,103.8,234.6,105.7,235.7,107L235.7,107L235.7,107z"/>
</g>
<path d="M261.2,218.2l0.1-0.1c0.2-0.4,0.3-1,0-1.4c-0.4-0.6-0.8-0.8-1.5-0.9c-0.5-0.1-0.9,0.3-1.2,0.7c-1,1.3-0.3,3.8-0.2,5.3
	c0.2,1.8,0.5,3.7,0.8,5.5c0.8,4.2,2.1,8.3,3.6,12.3c2.9,7.6,6.9,14.8,11.9,21.3c1.1,1.4,3-0.5,1.9-1.9c-4.6-6-8.3-12.8-11.1-19.8
	c-1.4-3.5-2.5-7.1-3.3-10.7c-0.4-1.8-0.8-3.7-1-5.6c-0.1-0.8-0.2-1.7-0.2-2.5c0-0.6-0.3-2.1,0-2.4l-1.2,0.7l0.2,0l-1.2-0.7l0.1,0.2
	v-1.4l-0.1,0.1C258.1,218.4,260.4,219.7,261.2,218.2L261.2,218.2L261.2,218.2z"/>
</svg>
