<?xml version="1.0" encoding="utf-8"?>
<!-- Generator: Adobe Illustrator 28.0.0, SVG Export Plug-In . SVG Version: 6.00 Build 0)  -->
<svg version="1.1" id="Layer_1" xmlns="http://www.w3.org/2000/svg" xmlns:xlink="http://www.w3.org/1999/xlink" x="0px" y="0px"
	 viewBox="0 0 308.1 441" style="enable-background:new 0 0 308.1 441;" xml:space="preserve">
<style type="text/css">
	.st0{fill:#95A3E2;}
	.st1{fill:#785756;}
	.st2{fill:#FEC3AA;}
	.st3{fill:#FFFFFF;}
</style>
<path class="st0" d="M4.9,314.1l18.9-90.7c0,0,8.3-23.4,16.6-32.3s27.2-14.3,33.6-16.3s29.7-9.5,29.7-9.5s9.4,17.6,33.2,19.7
	s40.3-3.1,48.3-7.8s13.8-11.5,13.8-11.5s26.5,5.9,36.2,7.1c9.7,1.2,27.9,7.4,38.4,22.1c10.5,14.7,13,31.3,13,31.3
	s14.8,60.9,14.9,61.4s5.9,14.9,6,17c0.2,2.1-5.3,8.3-10.5,10.4s-49.7,70.4-49.7,70.4l-1.9,45.1H56.7l0.2-77.3l-34.2-30.7
	c0,0-13.2-2.3-15.1-3.8C5.7,317.2,4.9,314.1,4.9,314.1L4.9,314.1z"/>
<path class="st1" d="M116.2,91.2c0,0-6.9-25.8-6.6-34.3c0.3-8.5,6.1-27.2,14.8-32s19-9,29.4-8.7c0,0,9.4-7,29.5-4.8
	s31.9,15.2,35.2,20.4c3.3,5.3,9.8,19.8,11,25.8s3.8,9.4,5.3,9.2s-2.2,6.7-5.3,8.3c-3.1,1.6-11.1,5-19.5,3.9
	c-8.4-1.1-72.3,15.9-72.3,15.9S118.6,99.8,116.2,91.2L116.2,91.2z"/>
<path class="st2" d="M129.9,115.5c0,0,1.9,27.6,1.5,30.7s-1.9,9.1-1.9,9.1l-25.8,10c0,0,6.4,15.8,28.7,19.1s39.3-0.6,50.2-5.8
	s16.4-12.9,16.4-12.9s-12.3-5.8-14.4-8.6c-2-2.8-2.8-11.5-2.8-11.5s13.7-11.7,17.6-19.1c3.9-7.4,4.9-11.9,5.9-17.7s1.8-14.3,5-21.4
	s2.6-18.6,2.6-18.6s-5.6-4.9-7.9-12.4c-2.4-7.5-7-12-14.6-13.2c-7.6-1.2-15.7,5.5-16.5,8.8c0,0-9.1,2.1-12.7,3.2s-9.6,5.9-11.6,13.3
	S136.9,86.4,132.9,88c0,0-4.8-3.7-9.4-4.2s-7.1,10.4-6.6,13.3S118.8,110.8,129.9,115.5L129.9,115.5z"/>
<path class="st2" d="M7.7,318.7c0,0-0.9,13.6,0.3,17.8c1.3,4.2,7.3,25.9,17.9,28s24-6.8,27.4-9.6s12.8-13,15.1-17.1
	s23.9-51.1,23.9-51.1s12.1,7.9,18.6,8.4c6.5,0.5,26.9,9.6,29,10.8s54.9,42.8,55.8,42.4s42.1,33.7,51.5,37.2c9.4,3.5,26.8,8.6,37.2,0
	s12.5-30.5,12.7-31.7c0.2-1.2-0.1-38.7-0.1-38.7l-40.8,3.4c0,0-26.6-9.1-31.1-11.1s-38.6-17.7-52.6-28c-14-10.4-19.1-15.9-20.8-20.2
	c-1.7-4.3-5.8-13.9-5.8-13.9s9.5-5.6,10.5-10.3c1-4.7,3.1-5.7,0.2-6.1s-6,0.4-6,0.4s5.5-6.4,6.9-11s-4.3-3.4-4.3-3.4s6-4.6,2.6-8.9
	c-3.4-4.3-10.1,2-10.1,2s3.6-5.5-2.1-6.1c-5.7-0.7-33.4,15.1-33.4,15.1l-7.5-2.4c0,0,2.4-5.6,1.8-7.5s-1-5.5-6-3.6
	s-12.9,7.5-15.1,8.8c-2.1,1.4-3.8,10.1-3.8,10.1s-3.7-3.9-7.7-3.3c-4,0.6-5.5,6.8-4.1,9.4s1.9,3.3,1.9,3.3s-7-0.5-7.5,3.4
	c-0.5,3.9-0.7,7.3,2.5,9.4c0,0-4.1,2.5-4.6,6.3s2.4,7.6,2.4,7.6s-3.5,7.1-0.8,9.8c0,0-20.6,21.1-25.8,31.5s-13.3,22.9-13.3,22.9
	L7.7,318.7L7.7,318.7z"/>
<path d="M167.6,328.1c0,0,36.9,33.3,49.5,42.7c12.7,9.4,29.2,20.2,29.2,20.2l0.9-5.6c0,0-32.3-23.9-43.9-31.4
	S167.6,328.1,167.6,328.1L167.6,328.1z"/>
<path d="M260.2,319.8c0,0,19.1-1.2,24.5-1.5s13.5,3,13.5,3L297,314c0,0-10.8,2.1-16,3.1c0,0-25.4,1-24.5,2.1
	S260.2,319.8,260.2,319.8L260.2,319.8z"/>
<path d="M57.8,366.1c0.2,0.3,5.9-8.9,11.2-22.2c5.3-13.3,16.5-42.8,16.5-42.8s-19.1,39-21.1,42.7c-2,3.7-6.6,7.1-6.6,7.1L57.8,366.1
	L57.8,366.1z"/>
<path d="M240.5,265c0,0,3.1,34.1,4.1,40.7s5.3,11,5.3,11l-9.9-5.4C239.9,311.2,238.3,259.6,240.5,265L240.5,265z"/>
<path d="M81,222.1c0.5-2,1-4,1.5-6c0.3-0.9,0.6-1.8,1.3-2.5s1.6-1.1,2.4-1.6c3.8-2.1,7.7-4.2,11.5-6.2c1.2-0.6,3.2-1.8,4.6-0.9
	c1.4,1,1,3.7,0.5,5.1c-1.3,3.5-5.1,4.5-7.6,6.9c-2.3,2.3-3.3,6.2-3.3,9.4c0,1.7,2.7,1.7,2.7,0s0.4-3.6,1.1-5.2
	c0.8-1.8,1.9-2.8,3.5-3.8c3.5-2.3,6.5-4.9,6.7-9.4c0.1-1.9-0.4-3.9-2-5.1s-3.6-1-5.3-0.4c-2.2,0.8-4.1,2.1-6.2,3.1
	c-2.2,1.2-4.3,2.4-6.5,3.5s-4.3,2.2-5.3,4.4c-1.2,2.4-1.6,5.3-2.2,7.9C77.9,223,80.5,223.7,81,222.1L81,222.1L81,222.1z"/>
<path d="M120.8,233.9c-1.9-2-3.8-4.1-6.3-5.4c-2.8-1.5-5.9-1.4-8.5-3.2c-2.1-1.5-5.4-3.9-5.3-6.7c0.1-4.5,5.5-1.3,7.6-0.3
	c2.8,1.3,5.7,2.4,8.7,3.3c3.1,0.9,6.7,1.2,9.5,2.8s5.1,4.1,7.3,6.3s4.4,4.5,6.4,6.8c2,2.4,3.3,5.6,4.7,8.4c1.2,2.5,2.4,5.1,3.3,7.7
	c0.6,1.8,1.1,3.6,1.9,5.3c1.4,2.8,3.7,5.3,5.9,7.5c2.7,2.9,5.7,5.5,8.6,8.1c4,3.5,8.2,7.1,12.6,10.1c2.4,1.6,5.2,2.8,7.8,4.2
	c13,6.9,26.1,13.9,39.6,19.8c6.1,2.6,12.4,4.4,18.5,6.9c8.2,3.2,16.6,6.8,24.1,11.6c1,0.6,2,1.3,2.8,2.1c1.2,1.2,3.1-0.7,1.9-1.9
	c-2.2-2.2-5.2-3.8-7.9-5.2c-4.2-2.3-8.6-4.3-13-6.2s-8.8-3.7-13.4-5.3c-2.8-1-5.7-1.8-8.5-2.9c-6.8-2.7-13.4-6-19.9-9.3
	c-7-3.5-14-7.1-20.9-10.8c-3.2-1.7-6.6-3.2-9.7-5.2c-4.2-2.7-8-6.2-11.8-9.4c-3.1-2.6-6.1-5.4-8.9-8.3c-2.2-2.3-4.7-4.8-5.9-7.8
	c-0.9-2.2-1.5-4.6-2.4-6.8c-1-2.5-2.2-4.9-3.4-7.3c-0.8-1.6-1.7-3.3-2.6-4.9c-0.8-1.4-1.9-2.6-2.9-3.8c-2.2-2.5-4.5-4.9-6.9-7.1
	c-2.2-2-4.5-4.4-7.3-5.6c-3-1.3-6.4-1.7-9.6-2.7s-6.4-2.3-9.4-3.7c-2.4-1.1-5.3-2.5-7.7-0.7c-1.8,1.4-2.3,4-1.7,6.1
	c0.8,2.7,3.3,4.8,5.4,6.5c1.1,0.8,2.1,1.6,3.4,2.1c1.6,0.7,3.3,0.8,5,1.4c2.8,1,4.9,3.4,6.8,5.5C120,237.1,121.9,235.2,120.8,233.9
	L120.8,233.9L120.8,233.9z"/>
<path d="M110.9,217.9c4.6-2.8,9.3-5.6,14.1-8.1s9.2-4.9,14.3-6.2c1.5-0.4,6.8-1.6,6.4,1.5c-0.2,2.1-3.8,3.7-5.2,4.7
	c-4.7,3.1-9.5,6.2-14.3,9.1c-1.5,0.9-0.1,3.2,1.4,2.3c5.8-3.6,11.8-7.2,17.4-11.2c1.7-1.2,3.5-2.9,3.5-5.2c0-2.5-2.2-4.2-4.5-4.5
	c-2.9-0.4-6.1,0.7-8.8,1.6s-5.4,2.2-8,3.6c-6,3.1-11.8,6.5-17.6,10C108,216.5,109.4,218.8,110.9,217.9L110.9,217.9L110.9,217.9z"/>
<path d="M146.4,209c1.2-0.9,2.6-1.6,3.9-2.2c1.1-0.4,2.9-1.3,4-0.5c0.8,0.6,0.9,1.8,0.8,2.7c-0.3,1.4-1.4,2.5-2.3,3.5
	c-4.5,4.5-9.4,8.7-14.4,12.5c-0.6,0.4-0.9,1.1-0.5,1.8c0.3,0.6,1.3,0.9,1.8,0.5c3.1-2.4,6.2-4.9,9.1-7.5c1.5-1.3,2.9-2.6,4.4-4
	c1.3-1.3,2.7-2.5,3.7-4.1c1.5-2.5,1.4-6.4-1.5-7.9c-1.7-0.9-3.6-0.4-5.2,0.2c-1.8,0.7-3.5,1.6-5.1,2.7
	C143.6,207.6,144.9,210,146.4,209L146.4,209L146.4,209z"/>
<path d="M151.6,217.3c0.9-0.8,1.9-1.4,3-1.6c0.3,0,0.6-0.1,0.9,0c0.3,0,0.4,0,0.6,0.2c0.5,0.7,0.2,1.9-0.1,2.7
	c-0.3,1.2-0.9,2.4-1.5,3.5c-2.9,4.8-7.7,7.9-11.9,11.5c-1.3,1.1,0.6,3,1.9,1.9c5.1-4.4,11.2-8.3,13.7-14.9c0.9-2.3,1.5-6.2-1.4-7.3
	c-2.5-0.9-5.3,0.5-7.1,2.2C148.4,216.6,150.3,218.5,151.6,217.3L151.6,217.3L151.6,217.3z"/>
<path d="M150.2,230.9c1.4-0.9,3.4-1.5,5-1.3c0.8,0.1,1.1,0.6,0.9,1.4c-0.1,0.9-0.3,1.8-0.6,2.7c-0.7,1.8-2.1,3.3-3.4,4.7
	c-1.7,1.9-3.7,3.5-5.7,5.1c-0.6,0.5-0.5,1.4,0,1.9c0.6,0.6,1.3,0.5,1.9,0c2.4-1.9,4.6-3.8,6.6-6.1c1.6-1.9,3.2-3.9,3.6-6.5
	c0.1-1,0.5-2.1,0.2-3.1c-0.4-1.5-1.6-2.5-3.2-2.7c-2.2-0.2-4.9,0.5-6.7,1.6C147.4,229.5,148.7,231.8,150.2,230.9L150.2,230.9
	L150.2,230.9z"/>
<path d="M117.2,233.6c-12.6-0.5-25-4.6-35.4-11.7c-2.4-1.6-4.7-3.9-7.7-4.4c-2.4-0.4-4.5,0.4-5.9,2.4c-1.3,1.8-2.3,4.1-2.1,6.3
	c0.3,2.4,1.6,5,3.3,6.7c3.5,3.6,8.5,5.4,12.6,8.2c1.4,1,2.8-1.3,1.4-2.3c-3.3-2.3-7-3.9-10.2-6.3c-1.7-1.3-2.9-2.7-3.8-4.7
	c-1-2.4-0.4-4.7,1.3-6.6c2-2.4,5.1-0.4,7.1,1c2.2,1.6,4.4,3.1,6.7,4.5c4.6,2.7,9.6,4.9,14.8,6.5c5.9,1.8,12,2.8,18.2,3.1
	C118.9,236.4,118.9,233.7,117.2,233.6L117.2,233.6L117.2,233.6z"/>
<path d="M70.2,230.4c-2.7-0.5-5.7,0.1-7.7,2.1c-2.4,2.3-2.6,5.9-1.3,8.8s3.7,5.3,6.3,7.2c2.6,2,5.5,3.4,8.6,4.4
	c1.7,0.5,2.4-2.1,0.7-2.6c-4.7-1.5-9.6-4.5-12.3-8.7c-1.3-2-2.1-4.9-0.4-6.9c1.3-1.6,3.6-2.2,5.5-1.8
	C71.2,233.3,72,230.7,70.2,230.4L70.2,230.4L70.2,230.4z"/>
<path d="M62.6,244.2c-1.8,2.1-3.6,4.3-3.6,7.2s1.2,5.5,2.8,7.7c3.5,4.9,8.8,7.6,14.1,10.2c1.6,0.8,2.9-1.6,1.4-2.3
	c-4.5-2.2-9.2-4.5-12.4-8.3c-1.5-1.7-2.6-3.8-3-6.1c-0.5-2.6,1.2-4.6,2.8-6.4C65.6,244.8,63.7,242.8,62.6,244.2L62.6,244.2
	L62.6,244.2z"/>
<path d="M61.4,258.2c0.2,2-0.4,3.9-0.7,5.9c-0.3,2.1,0.1,4,1.4,5.7c2.2,3.2,5.7,5.8,9.1,7.8c6.6,3.9,14.2,5.8,20.6,10.1
	c4.1,2.8,8.9,4.6,13.5,6.5c3.9,1.5,7.8,2.9,11.8,4c4.3,1.2,8.7,2.2,12.8,3.9c7.4,3,14.3,7.4,20.4,12.6c1.2,1,2.5,2,3.8,3
	c5.7,4.4,11.4,8.7,17.1,13.1c16.4,12.6,32.7,25.1,49.1,37.7c7.4,5.7,14.7,11.8,23,16.3c7.3,4,15.4,6.8,23.8,7
	c6.7,0.2,13.5-1.1,18.7-5.6c4.6-4,7.3-9.7,9.1-15.4c2.2-7,3-14.4,3.4-21.7c0.6-11.3,0.6-22.8,0.2-34.1c0-0.4,0-0.7,0-1
	c-0.1-1.7-2.8-1.7-2.7,0c0.4,7.1,0.2,14.3,0.1,21.4c-0.1,8.1-0.1,16.1-1.3,24.1c-1,6.5-2.5,13.2-5.9,18.9c-2.9,5-7.3,8.7-13,10
	c-8.1,1.9-16.8,0.3-24.4-2.7c-9.9-4-18.3-10.7-26.7-17.1c-15.6-12-31.2-24-46.8-36c-6.5-5-13-10-19.5-15c-5-3.8-9.8-8-15.1-11.5
	c-7-4.5-14.5-7.8-22.6-9.8c-7.5-1.8-14.7-4.6-21.7-7.8c-4.8-2.2-9-5.4-13.8-7.5c-7-3.1-14-5.5-19.4-11.2c-1.7-1.8-2.6-3.5-2.2-5.9
	c0.3-1.9,0.9-3.7,0.7-5.7C63.9,256.5,61.2,256.5,61.4,258.2L61.4,258.2L61.4,258.2z"/>
<path d="M181.6,143.9c-0.1,3.8-0.6,7.7,0.3,11.4c1,4.3,2.9,8.5,6.7,11.1c1.4,1,2.8-1.3,1.4-2.3c-3.3-2.3-4.7-6.3-5.6-10.1
	c-0.7-3.3-0.1-6.8,0-10.1C184.3,142.2,181.6,142.2,181.6,143.9L181.6,143.9L181.6,143.9z"/>
<path d="M129.3,153.8c-9,4.8-18.9,7.9-28.6,11c-11.1,3.6-22.3,6.9-33.3,10.7c-4.5,1.6-9.2,3-13.6,4.8c-5,2-9.3,5-13.2,8.7
	c-7.2,6.8-11.2,15.6-14.4,24.8c-4,11.4-5.9,23.3-9.5,34.8c-0.5,1.7,2.1,2.4,2.6,0.7c3.2-10.1,5.1-20.5,8.1-30.6
	c2.7-9,6.2-18.2,12.6-25.3c3.7-4,8.1-7.6,13.1-9.9c4.5-2,9.1-3.4,13.7-5c10.6-3.6,21.3-6.9,32-10.3c10.7-3.4,21.8-6.8,31.8-12.1
	C132.2,155.3,130.9,153,129.3,153.8L129.3,153.8L129.3,153.8z"/>
<path d="M16.7,248.5c-2.9,11.9-4.9,24-7.1,36c-1.1,6.1-2.3,12.3-3.5,18.4c-0.5,2.6-1.1,5.3-1.7,7.9c-0.7,3.1-1.5,5.9,1.4,8.1
	c2.2,1.8,5.1,2.4,7.9,3c2.9,0.6,5.9,1,8.8,1.5c1.7,0.3,2.4-2.3,0.7-2.6c-4.6-0.8-9.9-1.1-14.2-3.1c-1.5-0.7-2.9-1.7-2.7-3.6
	c0.2-1.3,0.6-2.6,0.9-3.8c0.6-2.5,1.1-5.1,1.6-7.7c2.4-12,4.5-24.1,6.8-36.2c1.1-5.8,2.2-11.6,3.7-17.3
	C19.7,247.6,17.1,246.9,16.7,248.5L16.7,248.5L16.7,248.5z"/>
<path d="M23.9,322.9c5.5-9.8,11.3-19.5,17.8-28.8c6.5-9.3,13.7-18,21.3-26.4c1.2-1.3-0.7-3.2-1.9-1.9c-7.7,8.4-14.9,17.2-21.5,26.5
	c-6.6,9.4-12.5,19.2-18,29.2C20.8,323,23.1,324.4,23.9,322.9L23.9,322.9L23.9,322.9z"/>
<path d="M6.1,319.5c-0.5,4.4-0.8,8.8-0.2,13.2c0.5,4.1,1.8,8,3.3,11.7c2.6,6.4,5.3,14.1,11.3,18.2c6.3,4.4,15.5,3.9,22.3,0.9
	c2.3-1,4.5-2.7,6.5-4.1c4.6-3.2,9-6.7,12.8-10.8s6.5-8.4,8.9-13.2c4.4-9.3,8.8-18.6,13.1-27.9c3.1-6.7,6.3-13.5,9.4-20.2
	c0.7-1.6-1.6-2.9-2.3-1.4c-6.6,14.3-13.2,28.6-20,42.9c-1.9,3.9-3.6,8-5.9,11.7c-3.1,4.8-7.3,8.8-11.7,12.4
	c-3.2,2.6-6.7,5.1-10.2,7.2c-4.1,2.5-9.5,3.4-14.2,2.9c-4.1-0.5-7.8-2.4-10.4-5.7c-2.5-3.1-4-6.8-5.5-10.4
	c-1.8-4.2-3.6-8.4-4.4-12.9c-0.8-4.8-0.6-9.7,0-14.5C9,317.8,6.3,317.8,6.1,319.5L6.1,319.5L6.1,319.5z"/>
<path d="M55.4,353.2c0.2,21.3,0,42.6,0,63.9c0,4.5,0,9,0,13.4c0,1.7,2.7,1.7,2.7,0c-0.2-21.3,0-42.6,0-63.9c0-4.5,0-9,0-13.4
	C58,351.5,55.3,351.5,55.4,353.2L55.4,353.2z"/>
<path d="M246,385.4c-0.5,5.3-0.6,10.7-0.7,16.1c-0.2,7.2-0.4,14.4-0.7,21.5c-0.1,2.5-0.2,5-0.4,7.5c-0.2,1.7,2.5,1.7,2.7,0
	c0.5-5.3,0.6-10.7,0.7-16.1c0.2-7.2,0.4-14.4,0.7-21.5c0.1-2.5,0.2-5,0.4-7.5C248.8,383.7,246.1,383.7,246,385.4L246,385.4z"/>
<path d="M256.6,319.7c5.8-1,12-1,17.9-1.4c7.2-0.5,14.6-0.9,21.6-2.6c2.9-0.7,5-1.8,7.3-3.6c1.8-1.5,3.5-3.3,4.3-5.5
	c0.9-2.5,0.1-5-0.9-7.4c-3.7-9.1-6-18.8-8.2-28.4c-2.3-9.8-4.2-19.6-6.7-29.3c-3-11.8-5.7-23.8-10.5-35
	c-4.2-9.8-10.5-19.1-19.3-25.3c-6.8-4.8-15-7.1-23-8.8c-8.9-1.9-17.9-3.1-26.9-4.8c-7.7-1.4-15.9-3.1-22.7-7.1
	c-1.4-0.9-2.7-1.8-3.9-2.9c-1.3-1.2-3.2,0.7-1.9,1.9c5.2,4.9,12.3,7.2,19.1,8.9c8.5,2.1,17.1,3.3,25.7,4.8c8.4,1.4,16.9,3,24.8,6.4
	c9,3.8,15.9,10.8,20.9,19c6.2,10.2,9.4,21.7,12.3,33.2c2.5,9.8,4.9,19.6,7.1,29.5c2.2,9.9,4.4,19.9,7.4,29.7
	c0.7,2.1,1.4,4.3,2.1,6.4s2.3,4.6,2.3,7c0,2.7-2.1,4.7-4.1,6.3c-1,0.8-2,1.6-3.3,2c-2.6,0.9-5.4,1.3-8.1,1.7
	c-3.7,0.5-7.5,0.9-11.2,1.2c-6.7,0.5-13.4,0.8-20.1,1.5c-1,0.1-1.9,0.2-2.9,0.4C254.2,317.4,254.9,320,256.6,319.7L256.6,319.7
	L256.6,319.7z"/>
<path d="M241.4,312.7c-0.7-9.8-0.9-19.7-0.8-29.5c0-5,0.1-10,0.4-15c0.2-5.2,0.3-10.8,2.1-15.8c0.6-1.6-2-2.3-2.6-0.7
	c-1.8,4.9-1.9,10.4-2.2,15.6s-0.4,10.2-0.4,15.4c-0.1,10,0.1,20.1,0.8,30.1C238.8,314.4,241.5,314.4,241.4,312.7L241.4,312.7
	L241.4,312.7z"/>
<path d="M198.6,165.1c-10.5,11.1-25,17.5-40.1,19.2c-13.1,1.5-27.6,0.1-39.4-5.9c-5.5-2.8-10.2-7.9-13.8-13c-1-1.4-3.3-0.1-2.3,1.4
	c3.2,4.6,7.2,8.9,11.8,12.1c5.5,3.9,12.7,5.9,19.2,7.1c14.7,2.9,30.6,1.6,44.5-4.1c8.3-3.4,15.9-8.4,22.1-15
	C201.7,165.8,199.8,163.9,198.6,165.1L198.6,165.1L198.6,165.1z"/>
<path d="M82.1,425.4c38.1-3.2,75.7-11.5,111.5-24.9c10-3.7,19.9-7.8,29.6-12.3c1.6-0.7,0.2-3-1.4-2.3
	c-34.3,15.8-70.8,26.9-108.1,32.9c-10.5,1.7-21.1,3-31.7,3.9C80.3,422.9,80.3,425.6,82.1,425.4L82.1,425.4L82.1,425.4z"/>
<path d="M128.6,115.9c1.1,7.9,1.7,15.8,1.7,23.8c0,7.8-0.6,15.9-3.2,23.3c-0.6,1.6,2,2.4,2.6,0.7c2.7-7.6,3.3-16,3.3-24
	s-0.6-16.4-1.8-24.5C131,113.4,128.4,114.2,128.6,115.9L128.6,115.9L128.6,115.9z"/>
<g>
	<g>
		<path d="M134.6,123.9c0.6,1.7,1.5,3.3,2.5,4.8c2.7,4.3,6,8.2,9.6,11.8c6.7,6.7,14.7,12.2,24.6,10.9c3.4-0.5,6.5-2.2,9.4-4.1
			c3.3-2.2,6.4-4.6,9.4-7.2c5.5-4.8,10.6-10.2,13.5-17c2.7-6.4,3.1-13.7,4.5-20.5c1.5-7.2,3.5-14.4,5.9-21.4c0.6-1.6-2-2.3-2.6-0.7
			c-2,5.8-3.7,11.7-5.1,17.6s-2.1,11.8-3.3,17.7c-1.7,7.9-6.2,14.6-12.1,20c-5,4.5-10.5,9.6-16.9,12.1c-7.9,3.2-16.2-1.1-22.1-6.3
			c-4.4-3.8-8.4-8.2-11.6-13.1c-0.9-1.3-1.7-2.7-2.4-4.1c-0.3-0.7-0.4-0.9-0.6-1.3C136.6,121.5,134,122.2,134.6,123.9L134.6,123.9
			L134.6,123.9z"/>
		<path d="M134.5,89.9c-1.9-4.2-5.7-8.7-10.9-7.6c-4.6,1-7.2,6.3-7.8,10.6c-0.7,4.8,0.5,9.7,3.1,13.7s6.7,8.8,11.6,10.2
			c1.7,0.5,2.4-2.1,0.7-2.6c-4-1.2-7.3-4.9-9.6-8.3s-3.5-6.9-3.4-10.8c0.1-3.4,1.4-7.8,4.6-9.7c4.3-2.5,7.8,2.5,9.3,5.8
			C132.9,92.8,135.2,91.5,134.5,89.9C134.5,89.9,134.5,89.9,134.5,89.9z"/>
		<path d="M123.2,92.6c0.7-0.1,1.5,0.6,1.9,1.2c0.7,0.8,1.2,1.7,1.7,2.6c1,1.8,1.7,3.9,2,5.9c0.1,0.7,1,1.1,1.7,0.9
			c0.8-0.2,1.1-0.9,0.9-1.7c-0.4-2.5-1.4-5-2.7-7.2s-3.3-4.9-6.3-4.4c-0.7,0.1-1.1,1-0.9,1.7C121.7,92.4,122.4,92.7,123.2,92.6
			C123.2,92.6,123.2,92.6,123.2,92.6z"/>
		<path d="M128.2,95.7c-1.3,0.2-2.3,0.9-2.9,2c-0.5,0.9-0.8,1.9-0.8,3c-0.1,2,0.8,4,2.3,5.3c0.5,0.4,1.4,0.6,1.9,0
			c0.4-0.5,0.6-1.4,0-1.9c-0.1-0.1-0.3-0.2-0.4-0.4c-0.1-0.1-0.1-0.1-0.1-0.2c0,0-0.2-0.3-0.1-0.1s-0.1-0.1-0.1-0.1
			c0-0.1-0.1-0.1-0.1-0.2c-0.1-0.2-0.2-0.3-0.3-0.5c0,0-0.1-0.3-0.1-0.1c0.1,0.2,0-0.1,0-0.1c-0.1-0.2-0.1-0.3-0.2-0.5
			c0-0.2-0.1-0.3-0.1-0.5c0,0.2,0,0.1,0,0c0-0.1,0-0.2,0-0.3c0-0.2,0-0.3,0-0.5c0-0.1,0-0.2,0-0.3c0,0.1,0,0.2,0,0
			c0-0.2,0.1-0.4,0.1-0.5c0-0.1,0-0.1,0.1-0.2c0,0,0.1-0.3,0.1-0.2s0.1-0.1,0.1-0.2c0-0.1,0.1-0.2,0.1-0.3s0.1-0.2,0.2-0.2
			c-0.1,0.1-0.1,0.1,0,0c0.1-0.1,0.1-0.1,0.2-0.2c0.1-0.1-0.2,0.2,0.1,0c0.1-0.1,0.1-0.1,0,0c0.1,0,0.4-0.1,0.1-0.1
			c0.7-0.1,1.4-0.6,1.4-1.3C129.5,96.4,128.9,95.7,128.2,95.7L128.2,95.7L128.2,95.7z"/>
		<path d="M187.3,95.4c0.8,3.2,1.6,6.3,2.5,9.5c0.2,0.7,0.5,1.5,0.4,2.2c-0.1,0.6-0.5,1.2-0.8,1.6c-0.8,1.1-1.9,2-3,2.7
			c-1.5,0.9-0.1,3.2,1.4,2.3c2.7-1.7,5.6-4.5,5-8c-0.3-1.8-0.9-3.6-1.4-5.4c-0.5-1.9-1-3.8-1.5-5.8C189.4,93,186.8,93.7,187.3,95.4
			L187.3,95.4L187.3,95.4z"/>
		<g>
			<path d="M197.4,93.1c-0.3,0.2-0.7,0.8-0.9,1.1c-0.5,0.9-0.8,2-0.9,3c0,0.5,0,0.9,0.1,1.4s0.5,0.8,0.9,1c0.6,0.2,1.3-0.2,1.7-0.6
				c0.6-0.6,0.9-1.4,1-2.2c0.1-0.8,0.1-1.7-0.1-2.5c0-0.3-0.1-0.6-0.3-0.8s-0.4-0.4-0.9-0.5C197.9,92.8,197.6,92.9,197.4,93.1
				L197.4,93.1z"/>
			<path d="M196.9,92.2c-0.6,0.3-1,0.9-1.3,1.5c-0.4,0.7-0.6,1.4-0.8,2.1c-0.3,1.4-0.5,3.2,0.7,4.3c1.4,1.2,3.1,0.3,4.1-1.1
				c0.8-1.2,1-2.8,0.8-4.3c-0.1-0.8-0.2-1.7-0.9-2.3c-0.3-0.3-0.8-0.5-1.2-0.6C197.8,91.8,197.3,91.9,196.9,92.2
				c-0.5,0.2-0.6,0.9-0.3,1.4c0.3,0.5,0.9,0.6,1.4,0.4c0,0,0.2-0.1,0.1-0.1c0.1,0,0.1,0,0.1,0c-0.1,0,0,0.1,0,0c0,0,0.1,0,0,0
				c0,0,0.1,0.1,0.1,0.1l0,0l-0.1-0.1c0,0,0.1,0.1,0.1,0.1c0,0,0.1,0.1,0,0c-0.1-0.1,0,0.1,0,0c0-0.1,0,0.1,0,0.1c0,0.1,0,0.1,0,0.2
				c0.1,0.3,0.1,0.4,0.1,0.7c0,0.5,0.1,1.1,0,1.5c0,0.2-0.1,0.4-0.1,0.6c0,0.1-0.1,0.2-0.1,0.4c0-0.1-0.1,0.2-0.1,0.2
				c-0.1,0.2-0.2,0.4-0.3,0.5c-0.1,0.1-0.1,0.2-0.2,0.2c0,0-0.1,0.1-0.1,0.1c0.1,0-0.1,0.1-0.1,0.1c0,0-0.2,0.1-0.1,0.1
				c0.1,0-0.1,0-0.1,0c-0.1,0-0.3,0-0.1,0c0,0-0.2,0-0.1,0s-0.1,0-0.1,0c0,0,0.1,0,0,0c-0.1,0,0.1,0.1-0.1-0.1c0,0-0.1-0.1-0.1-0.1
				s0-0.1,0-0.1c0,0-0.1-0.3-0.1-0.1c-0.1-0.3-0.1-0.3-0.1-0.6c0-0.5,0.1-0.8,0.2-1.4c0.1-0.6,0.3-1.1,0.5-1.5
				c0.1-0.2,0.2-0.4,0.3-0.6c0,0,0.1-0.1,0.1-0.1c0.1-0.1-0.1,0.1,0.1-0.1c0,0,0.1-0.1,0.1-0.1c0.1-0.1-0.2,0.1,0,0
				c0.5-0.3,0.6-0.9,0.4-1.4S197.4,91.8,196.9,92.2L196.9,92.2z"/>
		</g>
		<g>
			<path d="M167.6,85.7c-0.3,0.2-0.7,0.8-0.9,1.1c-0.5,0.9-0.8,2-0.9,3c0,0.5,0,0.9,0.1,1.4s0.5,0.8,0.9,1c0.6,0.2,1.3-0.2,1.7-0.6
				c0.6-0.6,0.9-1.4,1-2.2c0.1-0.8,0.1-1.7-0.1-2.5c0-0.3-0.1-0.6-0.3-0.8s-0.4-0.4-0.9-0.5C168.1,85.4,167.8,85.6,167.6,85.7
				L167.6,85.7z"/>
			<path d="M167,84.8c-0.6,0.3-1,0.9-1.3,1.5c-0.4,0.7-0.6,1.4-0.8,2.1c-0.3,1.4-0.5,3.2,0.7,4.3c1.4,1.2,3.1,0.3,4.1-1.1
				c0.8-1.2,1-2.8,0.8-4.3c-0.1-0.8-0.2-1.7-0.9-2.3c-0.3-0.3-0.8-0.5-1.2-0.6C168,84.4,167.5,84.6,167,84.8
				c-0.5,0.2-0.6,0.9-0.3,1.4c0.3,0.5,0.9,0.6,1.4,0.4c0,0,0.2-0.1,0.1-0.1c0.1,0,0.1,0,0.1,0c-0.1,0,0,0.1,0,0c0,0,0.1,0,0,0
				c0,0,0.1,0.1,0.1,0.1l0,0l-0.1-0.1c0,0,0.1,0.1,0.1,0.1c0,0,0.1,0.1,0,0c-0.1-0.1,0,0.1,0,0c0-0.1,0,0.1,0,0.1c0,0.1,0,0.1,0,0.2
				c0.1,0.3,0.1,0.4,0.1,0.7c0,0.5,0.1,1.1,0,1.5c0,0.2-0.1,0.4-0.1,0.6c0,0.1-0.1,0.2-0.1,0.4c0-0.1-0.1,0.2-0.1,0.2
				c-0.1,0.2-0.2,0.4-0.3,0.5c-0.1,0.1-0.1,0.2-0.2,0.2c0,0-0.1,0.1-0.1,0.1c0.1,0-0.1,0.1-0.1,0.1c0,0-0.2,0.1-0.1,0.1
				c0.1,0-0.1,0-0.1,0c-0.1,0-0.3,0-0.1,0c0,0-0.2,0-0.1,0s-0.1,0-0.1,0c0,0,0.1,0,0,0c-0.1,0,0.1,0.1-0.1-0.1c0,0-0.1-0.1-0.1-0.1
				s0-0.1,0-0.1c0,0-0.1-0.3-0.1-0.1c-0.1-0.3-0.1-0.3-0.1-0.6c0-0.5,0.1-0.8,0.2-1.4c0.1-0.6,0.3-1.1,0.5-1.5
				c0.1-0.2,0.2-0.4,0.3-0.6c0,0,0.1-0.1,0.1-0.1c0.1-0.1-0.1,0.1,0.1-0.1c0,0,0.1-0.1,0.1-0.1c0.1-0.1-0.2,0.1,0,0
				c0.5-0.3,0.6-0.9,0.4-1.4S167.5,84.5,167,84.8L167,84.8z"/>
		</g>
		<path d="M118.3,97.1c-0.3-8.4-3.2-16.6-5.2-24.7c-1-3.9-2-7.8-2.2-11.8C110.6,56.4,112,52,113,48c2-7.3,4.7-14.9,10.3-20.3
			c5.3-5.1,12.4-7.4,19.4-8.7c3.6-0.7,7.3-1.1,11-1.4c0.9-0.1,1.5-0.1,2.1-0.7s1.2-1.1,2-1.6c5.1-2.8,12-2.8,17.7-2.5
			c7.9,0.4,16,2,23.3,5.1c3.6,1.5,7.1,3.5,10.2,5.9c0.7,0.5,1.3,1.1,2,1.7c0.3,0.3,0.6,0.6,0.9,0.9c0.1,0.1,1,0.9,0.6,0.7
			c-0.3-0.2,0.4,0.4,0.6,0.5c4.1,3.7,7.1,8.6,9.4,13.6c2.1,4.6,3.7,9.6,4.7,14.5c0.7,3.2,0.7,6.9,3,9.5c1.2,1.4,2.9,2,4.7,2.1
			c1.7,0.1,1.7-2.6,0-2.7c-4.3-0.1-4.3-5.6-4.9-8.7c-1.1-5.5-2.7-10.8-5.1-15.9s-5.7-10.6-10.1-14.5c-1.9-1.7-3.7-3.6-5.8-5.1
			c-3.5-2.5-7.3-4.4-11.3-5.9c-8.1-3-16.9-4.5-25.4-4.5c-3.9,0-7.9,0.3-11.7,1.4c-2.6,0.7-5.3,1.8-7,4.1l1.2-0.7
			c-12.2,0.8-26.4,2.9-34.9,12.7c-4.9,5.6-7.5,12.9-9.4,20c-1.1,3.9-2.4,8.2-2.3,12.3c0.1,3.5,0.9,7.1,1.7,10.5
			c1.1,4.8,2.4,9.5,3.6,14.2c1,4.1,2,8.3,2.2,12.6C115.7,98.8,118.4,98.8,118.3,97.1L118.3,97.1L118.3,97.1z"/>
		<path d="M138.8,128.8c-2.2-3.6,2.4,7.4,6,11.6c2.7,3.2,8.7,9.4,12.3,11.6c10.9,6.9,25.6-1.2,25.6-1.2v-6c0,0-7.2,5-9.2,5.4
			c-2.4,0.5-10-0.2-10-0.2S149.7,146.3,138.8,128.8L138.8,128.8z"/>
		<path d="M134.3,89.1c8.4-5.5,14.2-13.6,17.5-23.1c1.1-3.3,3.6-6.7,6.6-8.8c3.7-2.6,8.1-3.3,12.6-2.9c1.7,0.2,1.7-2.5,0-2.7
			c-7.3-0.6-14.3,1.9-18.7,7.9c-3.2,4.2-4.1,9.6-6.8,14.1c-3.1,5.3-7.4,9.8-12.5,13.1C131.5,87.8,132.9,90.1,134.3,89.1L134.3,89.1z
			"/>
		<path d="M206.8,84.9c-4.3-1.6-8.2-4.4-11.1-8c-0.5-0.6-1.4-0.5-1.9,0c-0.6,0.6-0.5,1.3,0,1.9c3.2,4,7.5,6.9,12.3,8.7
			c0.7,0.2,1.5-0.3,1.7-0.9C207.9,85.8,207.4,85.2,206.8,84.9L206.8,84.9z"/>
		<path d="M124.8,80.8c6.1-2.3,11.8-5.8,16.5-10.3c1.3-1.2-0.6-3.1-1.9-1.9c-4.4,4.2-9.6,7.5-15.3,9.6c-0.7,0.3-1.2,0.9-0.9,1.7
			C123.3,80.5,124.1,81.1,124.8,80.8L124.8,80.8L124.8,80.8z"/>
		<path d="M166.9,73.4c4.4,1.5,9.1,2.2,13.7,2c1.7-0.1,1.7-2.7,0-2.7c-4.4,0.1-8.8-0.5-13-1.9C165.9,70.2,165.2,72.8,166.9,73.4
			L166.9,73.4L166.9,73.4z"/>
	</g>
	<path d="M174,49c-1.1-4.5-4.2-8.2-7.4-11.5c-3.4-3.4-7.2-6.4-11.3-8.9c-1.5-0.9-2.9,1.4-1.4,2.3c3.8,2.3,7.3,5,10.5,8.2
		c3,3,5.9,6.3,6.9,10.5C171.8,51.4,174.4,50.7,174,49L174,49L174,49z"/>
	<path d="M176.5,50.6c6.5-8.7,19.8-7.7,25.3,1.5c1.3,2.1,1.7,4.3,2.5,6.6c0.6,2,1.5,4,2.7,5.8c2,3,4.8,5.8,8.2,6.8
		c4.1,1.3,9.1,1.2,13.1-0.4c1.6-0.6,0.9-3.2-0.7-2.6c-3.7,1.5-8.5,1.7-12.2,0.2c-3.7-1.4-6.6-5.5-7.9-9.1c-0.9-2.3-1.2-4.7-2.3-6.9
		s-2.4-4.2-4.1-5.8c-3.6-3.4-8.6-5.3-13.5-4.9c-5.4,0.4-10.1,3.2-13.3,7.5C173.1,50.6,175.4,52,176.5,50.6L176.5,50.6L176.5,50.6z"
		/>
	<path d="M230,64.7c-3.6-0.9-6.8-2.7-9.5-5.3c-1.2-1.2-3.1,0.7-1.9,1.9c3,2.9,6.7,5,10.7,6c0.7,0.2,1.5-0.2,1.7-0.9
		S230.7,64.9,230,64.7C230,64.7,230,64.7,230,64.7z"/>
	<path d="M211.2,68.9c0.8,5.4-0.3,11.2-1.5,16.5c-0.4,1.7,2.2,2.4,2.6,0.7c1.4-5.8,2.4-11.9,1.5-17.9c-0.1-0.7-1-1.1-1.7-0.9
		C211.4,67.4,211.1,68.1,211.2,68.9L211.2,68.9L211.2,68.9z"/>
	<path d="M194.6,43.3c-3-0.8-6-0.8-8.6,1c-2.5,1.6-4.2,4.1-5.7,6.6c-0.9,1.5,1.4,2.8,2.3,1.4c1.3-2,2.6-4.1,4.6-5.5
		c0.9-0.6,1.9-1.1,2.9-1.2c1.3-0.2,2.6,0.1,3.8,0.4C195.5,46.4,196.2,43.8,194.6,43.3L194.6,43.3L194.6,43.3z"/>
	<path d="M231.8,71.5c-4.6,5.5-12.2,6-18.8,6.3c-1.7,0.1-1.7,2.8,0,2.7c7.3-0.3,15.6-1,20.7-7.1C234.8,72.1,232.9,70.1,231.8,71.5
		C231.8,71.5,231.8,71.5,231.8,71.5z"/>
</g>
<g>
	<path class="st3" d="M184.7,126.3c-0.4-3.6-3.8-6.2-7.4-6.9s-6.3-1.4-10.9-0.5c0,0-6.3,0.7-5.4,5.2c0.9,4.5,7.8,3.7,12.5,5
		S185.3,131.5,184.7,126.3L184.7,126.3z"/>
	<path d="M186,125.9c-0.4-2.7-2.2-4.9-4.4-6.3s-5-1.9-7.6-2.2s-5.3-0.2-8,0.2c-1.2,0.2-2.4,0.5-3.4,1.1c-1.6,0.9-2.9,2.4-2.9,4.4
		c-0.1,2.1,1.1,4,3,5c2,1.1,4.4,1.3,6.6,1.6s4.4,0.9,6.6,1.3c3.9,0.8,10.8,1.2,10.2-4.7c-0.2-1.7-2.9-1.7-2.7,0
		c0.1,1.4-0.4,2.1-1.8,2.4c-1.6,0.3-3.2,0-4.8-0.2c-1.8-0.3-3.6-0.9-5.5-1.2s-3.8-0.4-5.6-0.9c-1.4-0.3-2.9-0.9-3.3-2.4
		c-0.4-1.3,0.3-2.3,1.4-2.9c0.8-0.5,1.8-0.7,2.7-0.9c0.3-0.1-0.2,0-0.1,0c0.6-0.1,1.3-0.2,1.9-0.3c1.3-0.2,2.6-0.2,3.8-0.1
		c4.5,0.3,10.5,1.6,11.3,6.8C183.6,128.3,186.2,127.6,186,125.9L186,125.9z"/>
</g>
</svg>
