<?xml version="1.0" encoding="utf-8"?>
<!-- Generator: Adobe Illustrator 28.0.0, SVG Export Plug-In . SVG Version: 6.00 Build 0)  -->
<svg version="1.1" id="Layer_1" xmlns="http://www.w3.org/2000/svg" xmlns:xlink="http://www.w3.org/1999/xlink" x="0px" y="0px"
	 viewBox="0 0 651.8 591.2" style="enable-background:new 0 0 651.8 591.2;" xml:space="preserve">
<style type="text/css">
	.st0{fill:#FFFFFF;}
	.st1{fill:#95A3E2;}
	.st2{fill:#785756;}
	.st3{fill:#FEC3AA;}
</style>
<path class="st0" d="M180.8,125.2l-58.8-3.1c0,0-19.6-1.1-37.4,12.7S36,204.3,36,204.3s-19,33.4-18.5,35s6.1,8.1,16.7,14l-15.8,92
	c0,0-4.6,41.6-4.1,42.3s1.7-10.7,10.9-20.9c9.2-10.1,28.7-22.6,28.7-22.6l179.9-43.3c0,0,30.2,2.5,40.2,2.2
	c10-0.4,10.7,0.9,11.8-2.2c1.2-3,9.2-32.5,11.1-52.9s0.5-37.6-3.2-47.3S268,168.5,268,168.5s-24-24.1-37.2-31.3
	C217.5,129.9,190.1,126.9,180.8,125.2L180.8,125.2z"/>
<path class="st1" d="M14.1,391.1c0,0-1.6,18.2,3.4,31.9s19.2,31.5,33.8,38s35,6.8,41.4,7.9c6.4,1.1,48.9,10.4,81.5,5.5
	c32.5-4.9,42.7-10.7,42.7-10.7s11.2,26.9,13.9,27.8s22.9,8.6,46.9,3.2s24.6-17.1,26.1-19.6c1.6-2.4-17.2-49.9-17.2-49.9l69.8-41.9
	c0,0,9.7-7.3,13-4.4s50.6,51.8,50.6,51.8s47.8,51.3,65,54.6s55.5-23,56.6-23.1s2.9-2.4,0.7-4.6s-87.4-98.7-87.4-98.7
	s-44.8-45.5-50.1-49.2c-5.4-3.8-33.9-18.3-53.6-15.7s-39.5,13.6-58.7,21.2c-21,8.2-38.5,17.8-38.5,17.8s-5.6-42.1-24.9-58
	s-79.2-22.5-105.8-3.1s-89.5,86.6-89.5,86.6S16.8,371.1,14.1,391.1L14.1,391.1z"/>
<path class="st2" d="M190.9,87.6c0,0-4.6-25.8-5.1-30.5s3.5-21.4,9.7-27.9s17.7-17.1,28.8-19s20.7,2.1,20.7,2.1s12.4-2.3,20.7,0.2
	s22.5,9.1,29,18.2s10.4,19.4,10.1,24.3s-1.4,20.5-1.4,20.5l-3.4-4c0,0-8.3,15.3-15.3,16.7C277.7,89.8,203,109.3,190.9,87.6
	L190.9,87.6z"/>
<path class="st3" d="M180.8,125.2l12.4,0.5c0,0,5.8-8.8,6.7-15.5c0,0-9-8.9-8.9-16c0.1-7.2,2-10.5,5.4-12.6s8.6-0.5,10.4,4.1
	c0,0,10.4-7.2,13.8-11.5c3.3-4.2,5.3-11.5,5.3-11.5s0.7-11,8.4-19.1c7.7-8.2,21.3-7.5,26.4,0.6c5.1,8.1,10.6,3.3,17,3
	c6.3-0.4,11.9,7.2,13.2,12.6c1.3,5.3-1.7,17.9-2.6,21.1s-5.9,18.1-6.3,24.4c-0.4,6.4-4.1,16.1-7.9,21.5s-19.4,19.5-24,20
	c-4.7,0.5-6.5,0.3-6.5,0.3l7.3,5c0,0,0.4,7.3-6.9,9.3c-7.3,2-21.6,2.7-36.6-4.6C192.1,149.4,173.6,132.5,180.8,125.2L180.8,125.2z"
	/>
<path class="st3" d="M24.3,249.6c0,0-8.3,26.8-9.7,46.2c-1.4,19.4,0.3,42.1,7.9,51.8s21.2,11.5,32.3,9.2s36.7-31.5,36.7-31.5
	s40.3-43.2,43.5-47s9.8-10.6,13-11.8c3.2-1.2,41.8-2.6,41.8-2.6s-8.6,8.6-5.3,10.1s5.3,1.3,5.3,1.3s-6.9,3.6-3.7,6.9
	s7.1,2.8,7.1,2.8s-3.7,4.7,1.3,6.6c5.1,2,10.4,2.5,10.4,2.5s-3.8,6.5,0,7.9s22.8,3.1,26.8,4.3s5.1,1.5,7.1,4.7
	c2,3.3,10.1,13.6,15.1,16.6c0,0,3.9-4.8,3.9-9.3s1.2-18.2-1.2-30.2s-5.7-17-11.3-22.4s-18-7.5-21.1-7c-3.1,0.4-5.5,0.4-5.5,0.4
	s4.4-2.4,5.1-5.9s-1.6-5.8-1.6-5.8s2-2.8,2-6.2v-3.4c0,0,2.8-2.2,1.2-6s-29.4-19-29.4-19s-10.7-5.6-22.2-1.5
	c-11.5,4-32.8,17-32.8,17l-55.7,35.4l-11.6,8c0,0-21.4-8-28.2-11.4c-5.4-2.8-20.6-13.1-20.6-13.1L24.3,249.6L24.3,249.6z"/>
<path class="st3" d="M278.5,303.6c0,0-6.2,21.1-6.2,21.5s-18.5,8-18.5,8l-3.2-16.3l6.1-14.5L278.5,303.6L278.5,303.6z"/>
<path class="st3" d="M239.2,493.6l4.1,14.3c0,0,10.6,5.3,25.7,2.5c13.3-2.6,26.9-9.1,28.2-10.8l1.3-1.7c0,0-3.4-6-5.1-9.5
	c0,0-12.8,6.9-28.3,7.5S239.2,493.6,239.2,493.6L239.2,493.6z"/>
<path class="st3" d="M502.6,482.2l6.4,8.6c0,0,12.7,4.5,23.4,2.1s20.5-15.4,20.5-15.4l-12-13.9C541,463.7,524.8,477.1,502.6,482.2
	L502.6,482.2z"/>
<path class="st0" d="M239.7,506c0,0-2-0.6-3.8,4.3c-1.8,4.8-0.8,23.9,0.4,28.2c1.1,4.3,3,8,6.4,9s18.6,2.9,21.6,4.7
	s37.8,21,58.8,25.5s43.1,2.8,53.2-6.8c10.1-9.5,5.4-21.6,2.1-24.8c-3.3-3.3-9.6-6.3-13.7-8.8s-25.8-8-32.1-15.4S317,504,311.8,500.3
	s-10.7-6.2-13.3-2.4c-2.6,3.8-15.1,9.9-23.8,11.1C266,510.2,248.5,511.8,239.7,506L239.7,506z"/>
<path class="st0" d="M175.6,349.6l-19.6,33l0,0c-0.2,0.4,17.2-3.2,22.7-6c5.6-2.8,6.4-4.6,6.4-4.6L175.6,349.6z"/>
<path d="M193.5,125.2c-6.1-1.6-12.3-1-18.5-1.5c-9.1-0.8-18.3-1.8-27.4-2.3c-16.7-0.9-35-2.5-50.8,4.4c-13.7,6-23.8,17.6-32.8,29.1
	c-1.4,1.8-2.9,3.6-4,5.6s-2.3,3.9-3.4,5.8c-8.8,14.9-17.5,29.9-26,45c-3.8,6.8-7.6,13.5-11.1,20.4c-1,1.9-2,3.9-2.8,6
	c-0.7,1.8-0.2,3.3,1,4.8c2.1,2.7,5.1,4.8,7.9,6.7c4.2,3,8.7,5.6,13.2,8.1c9.7,5.4,19.7,10.4,30.2,14.1c2,0.7,3.9,1.3,6,1.8
	c1.7,0.4,2.4-2.2,0.7-2.6c-9.7-2.4-19-6.9-27.8-11.5S30,250,22.5,243.7c-1.1-0.9-2.2-1.9-3-3c-0.2-0.3-0.5-0.7-0.6-1.1
	c-0.1-0.1,0-0.4,0-0.2c0.6-1.5,0.9-2.5,1.7-4.1c3-6.2,6.4-12.2,9.7-18.2c8.5-15.3,17.3-30.4,26.2-45.5c2.2-3.7,4.2-7.5,6.5-11.1
	c0.8-1.2,1.7-2.3,2.6-3.4c2.3-3,4.7-5.9,7.2-8.8c4.7-5.4,9.8-10.6,15.7-14.8c6.4-4.6,13.6-7.6,21.4-9c8.3-1.5,16.7-1.4,25.1-1.1
	c9,0.3,17.9,0.8,26.9,1.6c4.4,0.4,8.8,0.9,13.2,1.3c2.7,0.2,5.4,0.2,8.1,0.3c3.2,0.1,6.5,0.3,9.7,1.1
	C194.4,128.2,195.2,125.6,193.5,125.2L193.5,125.2L193.5,125.2z"/>
<path d="M244.2,148.1c9,7.4,17.3,15.7,25.4,24c4.8,4.9,9.6,10,13.9,15.4s8.3,11.3,10.6,18.1c2.7,8.2,2,16.5,2,25
	c0,1.7,2.7,1.7,2.7,0c0-7.5,0.6-14.9-1.1-22.2c-1.8-7.3-5.4-13.9-10-19.9c-8.6-11.2-18.9-21.2-29.1-31c-4.1-3.9-8.2-7.7-12.6-11.3
	C244.8,145.1,242.8,147,244.2,148.1L244.2,148.1L244.2,148.1z"/>
<path d="M265.2,213.9c-0.8,2.1-2.3,4.5-3.5,6.6c-2.1,3.6-4.2,7.2-6.3,10.9c-5.6,9.9-10.9,19.9-15.3,30.4c-0.7,1.6,1.9,2.3,2.6,0.7
	c4.4-10.6,9.8-20.7,15.5-30.6c2-3.6,4.1-7.1,6.1-10.6c1.2-2.1,2.5-4.3,3.5-6.6C268.4,213,265.8,212.3,265.2,213.9L265.2,213.9
	L265.2,213.9z"/>
<path d="M112.1,185.9c-0.9,10.9-4.6,21.7-8.2,32c-3.9,11.4-8.4,22.7-13.6,33.6c-1.9,4-3.8,8-6.2,11.8c-0.9,1.5,1.4,2.8,2.3,1.4
	c5.1-8,8.8-17.2,12.4-25.9c4.8-11.7,9.2-23.6,12.5-35.8c1.5-5.6,2.8-11.2,3.3-17C114.9,184.1,112.2,184.1,112.1,185.9L112.1,185.9
	L112.1,185.9z"/>
<path d="M38.5,306.9c18.3-18.3,37.8-35.2,58.9-50.2c6.6-4.7,13.4-9.2,20.2-13.5c1.5-0.9,0.1-3.3-1.4-2.3
	c-22.8,14.4-44.3,30.8-64.2,49.2C46.7,295,41.6,300,36.5,305C35.4,306.2,37.3,308.1,38.5,306.9L38.5,306.9L38.5,306.9z"/>
<path d="M117.6,243.2c7.4-5,15.2-9.5,23-13.8c6.9-3.8,13.8-7.9,20.9-11.3c6.9-3.4,14.6-6.5,22.4-6.7c9-0.3,16.9,5.3,24.5,9.5
	c4.2,2.3,8.8,4.5,12.4,7.7c2.3,2.1,5.2,5.1,2.2,8c-0.4,0.4-0.5,1.1-0.2,1.6c1.2,2.3,0.8,5.5-1.5,7.2c-0.6,0.5-0.8,1.1-0.5,1.8
	c1.2,2.5,2.3,7.4-1.4,8.8c-1.6,0.6-0.9,3.2,0.7,2.6c5.4-2.1,5.1-8.3,3-12.8l-0.5,1.8c3.5-2.6,4.5-7,2.5-10.9l-0.2,1.6
	c6.4-5.9-2.6-12.6-7.4-15.5c-4.2-2.6-8.7-4.9-13-7.3s-8.7-4.9-13.6-6.2c-7.9-2.1-16.4,0.2-23.8,3.1c-8.1,3.2-15.5,7.6-23.1,11.8
	c-9.5,5.2-18.9,10.4-27.9,16.4C114.8,241.8,116.2,244.2,117.6,243.2L117.6,243.2L117.6,243.2z"/>
<path d="M223.4,267.5c-8.1,0-16.2,1.1-24,3.2c-2,0.5-4,1.2-6,1.9c-1.9,0.7-4,1.8-6.1,1.6s-3.2-1.7-2.2-3.8c0.8-1.7,2.4-3,4-4
	c3.1-1.9,6.7-2.9,10.2-3.8c4-1,8-1.8,12.1-2.3c4-0.4,8-0.6,12.1-0.4c3.3,0.1,7,0.2,10.2,1c3,0.7,5.9,2.4,8.4,4.1
	c4.2,2.8,7.7,6.8,9.4,11.6c3,8.5,4,17.9,4.6,26.8c0.4,5.1,0.5,10.4,0,15.5c-0.2,1.8-0.5,3.6-1.1,5.3c-0.2,0.5-0.4,1.1-0.8,1.5
	c-0.2,0.3-0.5,0.5-0.7,0.6c-1.6,0.6-0.9,3.2,0.7,2.6c2.9-1,3.7-4.6,4.1-7.2c0.8-4.7,0.8-9.5,0.6-14.3c-0.2-5.6-0.8-11.2-1.6-16.7
	c-0.7-4.7-1.6-9.5-3.1-14.1c-2.9-8.7-10.9-15.8-19.8-18.2c-3-0.8-6.4-0.9-9.5-1.1c-4.4-0.2-8.9-0.1-13.3,0.3
	c-4.4,0.5-8.8,1.2-13.1,2.4c-3.8,1-7.7,2.1-11.1,4.2c-3,1.9-6.7,5.6-5.1,9.5c1.8,4.4,7.2,3.1,10.6,1.9c9.8-3.5,20.1-5.4,30.5-5.4
	C225.1,270.2,225.1,267.5,223.4,267.5L223.4,267.5L223.4,267.5z"/>
<path d="M189.4,273.9c-2.7,1.3-5.7,5.3-5.1,8.4c0.9,4.7,7.4,4.4,10.8,3.5c5.8-1.5,11.4-3,17.3-3.7c6-0.8,12-1,18-0.7
	c1.7,0.1,1.7-2.6,0-2.7c-9.6-0.4-19.3,0.4-28.8,2.6c-2.2,0.5-4.5,1.2-6.7,1.8c-2.1,0.6-4.6,1.1-6.6,0.1c-1.7-0.9-1.5-2.1-0.7-3.6
	c0.7-1.3,1.8-2.6,3.2-3.3C192.3,275.5,190.9,273.2,189.4,273.9L189.4,273.9L189.4,273.9z"/>
<path d="M191.1,285.3c-1.5,3.1,0.4,6.3,3.3,7.7c3.6,1.7,8.1,1.7,11.9,1.7c8.6-0.1,17.5-1.9,25.9,0.7c1.7,0.5,2.4-2.1,0.7-2.6
	c-6.9-2.1-14.1-1.5-21.2-1c-3.5,0.2-7.1,0.4-10.6,0.1c-1.8-0.2-3.7-0.4-5.4-1.1c-1.5-0.6-3.2-2.2-2.4-4
	C194.1,285.1,191.8,283.8,191.1,285.3L191.1,285.3L191.1,285.3z"/>
<path d="M203.8,293.4c-3.4,3.4-2.6,8.8,2,10.6c2.9,1.1,6.2,1.4,9.3,1.8s6.2,0.6,9.3,0.8s6.2,0.7,9.2,1.6c0.8,0.2,1.8,0.4,2.4,0.9
	s0.9,1.4,1.2,2.1c0.6,1.3,1.4,2.5,2.2,3.6c3.2,4.6,7.3,8.6,12,11.6c1.5,1,2.8-1.4,1.4-2.3c-4.4-2.9-8.4-6.8-11.3-11.1
	c-0.6-1-1.2-1.9-1.8-3c-0.5-0.9-0.8-2-1.6-2.7c-1.7-1.7-5-2.2-7.3-2.6c-5.5-1-11.1-1-16.6-1.8c-2.6-0.4-5.9-0.5-8.2-1.9
	c-2.2-1.4-1.9-4.1-0.2-5.8C206.9,294.1,205,292.1,203.8,293.4L203.8,293.4L203.8,293.4z"/>
<path d="M296.2,230.5c-0.1,13.5-1.1,26.9-3.9,40.1c-1.3,6.6-3,13-4.7,19.5c-0.5,1.8-1,3.6-1.5,5.4c-0.4,1.5-0.7,3.2-1.5,4.5
	c-1.3,2.1-4.1,1.7-6.2,1.7c-7-0.1-14.1,0.2-21.1-0.4c-1.7-0.1-1.7,2.6,0,2.7c6.7,0.5,13.4,0.2,20,0.4c2.2,0.1,5,0.4,7.1-0.6
	c2.7-1.2,3.4-4.4,4.1-7c3.7-13.6,7.2-27.2,8.9-41.2c1-8.3,1.4-16.7,1.4-25.1C298.9,228.8,296.2,228.8,296.2,230.5L296.2,230.5
	L296.2,230.5z"/>
<path d="M277.4,302.7c-1.7,5-3.3,10-4.7,15c-0.6,2-1.2,4.1-1.5,6.2c-0.3,1.7,2.3,2.4,2.6,0.7c0.4-2.1,1-4.2,1.5-6.2
	c1.4-5.1,3-10.1,4.7-15C280.5,301.8,277.9,301.1,277.4,302.7L277.4,302.7z"/>
<path d="M110.6,142.3c1.4,7.6,2.4,15.2,3,22.9c0.1,1.7,2.8,1.7,2.7,0c-0.6-7.9-1.6-15.8-3.1-23.7
	C112.9,139.9,110.3,140.6,110.6,142.3L110.6,142.3L110.6,142.3z"/>
<path d="M23.6,247.6c-5.8,16.7-9.7,34.1-10.6,51.8c-0.4,8.8-0.2,17.6,0.7,26.4c0.8,7.3,2.4,14.8,6.3,21.1c2.2,3.6,5,6.6,8.8,8.6
	c5.1,2.7,10.8,4.2,16.5,4.2c5,0,10.4-1,14.8-3.6c2.7-1.6,5.2-3.6,7.6-5.6c6.9-5.8,13.3-12.3,19.6-18.8c7.7-8,15.2-16.1,22.8-24.3
	c7-7.6,14-15.3,21.1-22.9c4.8-5.1,9.6-10.4,15-14.8c1.6-1.3,2.6-1.9,4.7-2.2c4.1-0.7,8.2-0.9,12.4-1.2c8.7-0.5,17.4-0.8,26.2-0.9
	c0.6,0,1.1,0,1.7,0c1.7,0,1.7-2.7,0-2.7c-6.7,0.1-13.4,0.3-20.1,0.6c-4.9,0.2-9.7,0.5-14.5,0.9c-2.9,0.3-6.4,0.3-9.1,1.5
	c-1.8,0.9-3.4,2.3-4.8,3.6c-2.4,2.2-4.8,4.5-7,6.8c-6.5,6.6-12.7,13.4-19,20.2c-14.2,15.4-28.2,31.2-43.5,45.6
	c-4.7,4.5-9.7,9.5-15.6,12.4c-8.8,4.4-21.8,3-29.9-2.9c-4.7-3.4-7.5-9.6-9.1-15c-2.2-7.7-2.7-15.8-2.9-23.8
	c-0.5-17.6,1.8-35,6.6-51.9c1.2-4.2,2.5-8.4,4-12.6C26.8,246.6,24.2,245.9,23.6,247.6L23.6,247.6L23.6,247.6z"/>
<path d="M199.3,226.9c4.8,0.8,9.4,2.5,13.7,4.6c3.6,1.9,7.2,4.1,10.2,7c1.2,1.2,3.1-0.7,1.9-1.9c-3.1-3.1-6.9-5.4-10.7-7.4
	c-4.5-2.3-9.3-4.1-14.3-4.9C198.3,224,197.6,226.6,199.3,226.9L199.3,226.9L199.3,226.9z"/>
<path d="M196,238.9c4.9,0.6,10.1,0.9,14.9,2.4c4,1.3,7.6,3.9,10,7.2c1,1.4,3.3,0.1,2.3-1.4c-2.7-3.8-6.4-6.6-10.8-8.2
	c-2.5-0.9-5.1-1.3-7.7-1.6c-2.9-0.4-5.8-0.8-8.7-1.2C194.3,236,194.3,238.7,196,238.9L196,238.9L196,238.9z"/>
<path d="M194.4,248.6c8.5,1,17.9,2.2,24.5,8.3c1.3,1.2,3.2-0.7,1.9-1.9c-7.2-6.6-17.1-7.9-26.4-9.1
	C192.7,245.7,192.7,248.4,194.4,248.6L194.4,248.6L194.4,248.6z"/>
<path d="M17.6,342c-1.8,9.2-3.2,18.5-4.1,27.8c-0.7,7.1-1.3,14.3-0.8,21.4c0.1,1.7,2.8,1.7,2.7,0c-0.5-6.9,0.1-14,0.7-20.9
	c0.9-9.3,2.2-18.5,4.1-27.6C20.6,341,18,340.3,17.6,342L17.6,342L17.6,342z"/>
<path d="M106.5,458.4c22.8-31,44-63.2,63.3-96.5c5.4-9.3,10.7-18.7,15.8-28.1c0.8-1.5-1.5-2.9-2.3-1.4
	c-18.3,33.8-38.4,66.6-60.2,98.2c-6.1,8.9-12.4,17.7-18.8,26.4C103.2,458.5,105.5,459.8,106.5,458.4L106.5,458.4z"/>
<path d="M174.8,349.1c4.6,10.7,8.4,21.7,12.1,32.7c4.7,13.7,9.1,27.4,13.8,41.1c4.6,13.5,9.2,27,14.5,40.3c2.3,5.7,4.6,11.4,7.2,17
	c1.1,2.4,2.3,4.9,3.6,7.2c0.8,1.5,1.7,4.3,3.3,5.1c2.4,1.2,5.2,1.8,7.8,2.4c6.1,1.5,12.5,2.2,18.8,2.4c8.9,0.2,17.9-0.8,26.5-3.1
	c6-1.6,12.1-4,16.9-8.1c3.5-3.1,6.9-8.5,5.7-13.4c-0.2-0.9-0.7-1.8-1-2.6c-0.9-2.2-1.8-4.5-2.7-6.8c-2.5-6.1-4.4-12.3-6.6-18.5
	c-12.1-35.2-24.4-70.4-36.4-105.6c-1.6-4.7-3.2-9.3-4.8-14c-0.6-1.6-3.2-0.9-2.6,0.7c11.8,34.8,23.9,69.4,35.9,104.1
	c4.5,13.2,8.8,26.5,14,39.4c0.5,1.3,1.1,2.6,1.6,3.9c0,0.1,0,0.1,0,0.2c0.1,0.3,0-0.2,0,0s0,0.3,0,0.5c0.1,2.1-0.4,3.9-1.5,5.9
	c-2.2,3.9-6.1,6.5-10,8.4c-7.5,3.7-16.3,5.3-24.6,6c-11.6,1-23.7,0.1-34.7-3.8c-0.4-0.1-0.8-0.3-1.2-0.5c-0.1,0-0.2-0.1-0.3-0.1
	c0.2,0,0.5,0.6,0.4,0c-0.2-0.9-1.2-2.2-1.7-3c-0.6-1.2-1.3-2.4-1.9-3.6c-2.6-5.1-4.9-10.4-7.1-15.7c-5.2-12.5-9.7-25.2-14.1-38
	c-8.6-25.1-16.1-50.6-26-75.2c-0.9-2.2-1.8-4.4-2.7-6.5C176.5,346.1,174.1,347.5,174.8,349.1L174.8,349.1L174.8,349.1z"/>
<path d="M169.6,381.8c4.8-1.6,9.4-3.7,13.7-6.3c1.5-0.9,0.1-3.2-1.4-2.3c-4.1,2.5-8.5,4.5-13.1,6C167.3,379.7,168,382.3,169.6,381.8
	L169.6,381.8L169.6,381.8z"/>
<path d="M216.2,462.5c-20.4,9.3-42.8,11.6-65.1,11.2c-17.6-0.3-35.2-2.3-52.5-5.2c-4.2-0.7-8.4-1.5-12.6-1.9
	c-10.7-1-21.7-1.8-31.8-5.8c-10.8-4.3-19.9-12.2-26.5-21.6c-3.3-4.7-6-9.9-8.4-15.1c-1.6-3.6-3.1-7.2-3.8-11
	c-1.5-7.9-1.3-16.3,0.3-24.2c2.1-9.9,6.7-18.5,14.3-25.2c1.9-1.7,3.8-3.4,5.7-5c1.3-1.1-0.6-3-1.9-1.9c-4,3.6-8.3,7-11.6,11.3
	c-3,3.9-5.3,8.3-7,12.9c-3,8.5-4,17.7-3.2,26.7c0.3,3.3,0.8,6.7,1.7,9.9c1.5,4.9,3.9,9.8,6.2,14.3c5.5,10.5,13.2,19.9,23.2,26.4
	c9.2,6,19.6,8.6,30.4,10c7,0.9,13.3,1.2,19.9,2.3c16.3,2.9,32.8,5,49.3,5.8c11.1,0.5,22.3,0.4,33.4-0.7c11-1.1,22.2-3.1,32.6-7
	c2.9-1.1,5.9-2.4,8.7-3.7C219.1,464.1,217.8,461.8,216.2,462.5L216.2,462.5L216.2,462.5z"/>
<path d="M255.4,333.5c17.5-7.4,34.2-16.4,51.6-24.1c8.7-3.8,17.6-7.3,26.7-10c8.8-2.6,18-4.8,27.2-4.6c16,0.4,31.5,6.8,43.9,16.7
	c7.4,5.9,14.2,12.4,20.9,19c17.8,17.5,34.5,36.1,51,54.7c15.4,17.4,30.5,35,45.7,52.5c4.7,5.5,9.5,11,14.4,16.3
	c1.3,1.4,2.5,2.8,3.9,4.1c0.2,0.2,0.4,0.3,0.6,0.5c0.5,0.4,0.4,0.2,0.5,0.7c0-0.1-0.1,0.4-0.2,0.6c-0.2,0.5-0.6,1-1,1.4
	c-2.7,3.1-6.6,5.3-10.1,7.2c-5,2.9-10.3,5.3-15.7,7.6s-10.8,4.2-16.4,5.8c-3.8,1.1-8,2.2-12,2c-0.6,0-1.8-0.3-2.7-0.6
	c-1.2-0.4-2.2-0.9-3.4-1.5c-3-1.6-5.8-3.5-8.6-5.5c-7.6-5.5-14.6-11.7-21.5-18c-16.6-15.3-32.4-31.6-48-48
	c-6.5-6.8-13-13.6-19.5-20.4c-3.8-4-7.6-8.1-11.8-11.6c-1.3-1.1-2.3-1.8-4.1-1.4c-3.7,0.8-7.3,3-10.6,4.8
	c-14.5,7.7-28.4,16.4-42.4,24.9c-8.8,5.3-17.6,10.6-26.4,16c-1.5,0.9-0.1,3.2,1.4,2.3c17.2-10.4,34.4-20.9,51.7-31.1
	c6-3.5,11.9-7,18-10.2c2.1-1.1,4.2-2.2,6.3-3.1c0.6-0.2,1.2-0.5,1.8-0.7c0.3-0.1,0.5-0.2,0.8-0.2c0.5-0.1,0.3,0,0.5-0.1
	c0.3-0.1-0.1-0.1,0,0c0.2,0.2,0.4,0.3,0.6,0.4c0.3,0.2-0.2-0.2,0.2,0.1c0.1,0.1,0.3,0.2,0.4,0.4c0.3,0.3,0.6,0.6,1,0.9
	c1.9,1.7,3.8,3.6,5.6,5.4c5.9,6,11.7,12.1,17.5,18.1c15.7,16.4,31.3,32.9,47.8,48.6c7.5,7.1,15,14.1,23.1,20.6
	c5.5,4.4,11.3,9,17.9,11.6c2.4,1,4.7,1.2,7.3,1c5-0.5,9.8-1.9,14.5-3.4c10.9-3.5,21.9-8.2,31.6-14.3c3-1.9,6.6-4.1,8.4-7.3
	c1.2-2.1,0.5-3.8-1.1-5.4c-3.7-3.4-7-7.5-10.3-11.2c-14.1-16-27.9-32.3-42-48.4c-17-19.4-34.2-38.8-52.2-57.3
	c-7.5-7.8-15.1-15.4-23.2-22.6c-9-8.1-18.5-15.2-29.9-19.6c-8.2-3.2-17-5-25.8-5c-9.2,0-18.6,2.4-27.4,5
	c-18.3,5.5-35.4,14-52.5,22.3c-8.4,4-16.7,8-25.3,11.7C252.4,331.9,253.8,334.2,255.4,333.5L255.4,333.5L255.4,333.5z"/>
<path d="M379.3,340.8c-3.4,11.8-5.2,24-5.1,36.3c0,1.7,2.7,1.7,2.7,0c0-12,1.7-24,5-35.6C382.4,339.8,379.8,339.1,379.3,340.8
	L379.3,340.8z"/>
<g>
	<path d="M198.7,109c-1,5-2.5,10.1-5.2,14.5c-1.8,2.9-4.2,5.7-7.7,6.4c-1.7,0.3-1,2.9,0.7,2.6c3.9-0.8,6.9-3.9,9-7.1
		c3-4.7,4.7-10.2,5.8-15.6C201.7,108.1,199.1,107.3,198.7,109L198.7,109L198.7,109z"/>
	<path d="M209.1,120.8c0.6,1.7,1.6,3.3,2.5,4.8c2.7,4.2,6,8,9.6,11.5c6.9,6.7,15.1,12.3,25.1,11.1c3.5-0.4,6.7-2.1,9.7-3.9
		c3.4-2.1,6.6-4.6,9.7-7.2c5.6-4.7,10.9-10.1,13.9-16.8c2.8-6.3,3.2-13.5,4.6-20.2c1.5-7.3,3.6-14.5,6.1-21.5c0.6-1.6-2-2.3-2.6-0.7
		c-2.1,5.8-3.9,11.8-5.3,17.8c-1.4,5.8-2.1,11.7-3.4,17.5c-1.8,7.8-6.6,14.4-12.5,19.7c-2.6,2.3-5.3,4.5-8.1,6.5s-5.9,4.2-9.3,5.4
		c-8.1,3-16.4-1.1-22.6-6.3c-4.5-3.8-8.6-8.2-11.9-13.1c-0.9-1.2-1.6-2.6-2.3-3.9c-0.2-0.4-0.4-0.7-0.5-1.1
		c-0.1-0.3,0.1,0.2-0.1-0.2C211.1,118.4,208.5,119.1,209.1,120.8L209.1,120.8L209.1,120.8z"/>
	<path d="M208.9,87.1c-2-4.3-6-8.6-11.2-7.5c-4.6,1-7.3,6.2-7.9,10.5c-0.8,4.9,0.6,9.8,3.3,13.9c2.8,4.2,6.8,8.5,11.7,9.9
		c1.7,0.5,2.4-2.1,0.7-2.6c-3.9-1.1-7.1-4.5-9.5-7.7c-2.4-3.3-3.9-7.1-3.8-11.2c0.1-3.5,1.6-8,5-9.7c4.3-2.2,7.8,2.5,9.4,5.8
		C207.3,90,209.7,88.6,208.9,87.1L208.9,87.1L208.9,87.1z"/>
	<path d="M197.3,89.8c0.8-0.1,1.5,0.6,2,1.2c0.7,0.8,1.2,1.7,1.7,2.6c1,1.8,1.7,3.8,2.1,5.9c0.1,0.7,1,1.1,1.7,0.9
		c0.8-0.2,1.1-0.9,0.9-1.7c-0.5-2.5-1.4-5-2.8-7.2c-1.4-2.3-3.4-4.8-6.4-4.3c-0.7,0.1-1.1,1-0.9,1.7
		C195.8,89.6,196.6,89.9,197.3,89.8L197.3,89.8z"/>
	<path d="M202.5,92.9c-1.3,0.2-2.3,0.8-2.9,1.9c-0.5,0.9-0.8,1.9-0.8,3c-0.1,2,0.8,4,2.4,5.3c0.6,0.4,1.4,0.6,1.9,0
		c0.4-0.5,0.6-1.4,0-1.9c-0.3-0.2-0.5-0.5-0.8-0.8c0.1,0.1,0.1,0.1,0,0s-0.1-0.2-0.1-0.2c-0.1-0.2-0.2-0.3-0.3-0.5
		c0-0.1-0.1-0.2-0.1-0.2c0.1,0.1,0.1,0.2,0,0s-0.1-0.3-0.2-0.5s-0.1-0.3-0.1-0.5c0,0.2,0,0.1,0,0s0-0.2,0-0.3c0-0.2,0-0.3,0-0.5
		c0-0.1,0-0.2,0-0.3c0,0.2,0,0.1,0,0c0-0.2,0.1-0.3,0.1-0.5c0-0.1,0.1-0.2,0.1-0.3c0.1-0.1,0-0.1,0,0c0.1-0.2,0.2-0.3,0.3-0.5
		c0,0,0.2-0.3,0.1-0.1s0.1-0.1,0.1-0.1c0.1-0.1,0.1-0.1,0.2-0.2c-0.2,0.2,0,0,0,0c0.1-0.1,0.2-0.1,0,0c0.1,0,0.4-0.1,0.1-0.1
		c0.7-0.1,1.4-0.6,1.4-1.3C203.8,93.5,203.2,92.8,202.5,92.9L202.5,92.9L202.5,92.9z"/>
	<path d="M263.1,92.5c0.9,3.2,1.7,6.4,2.6,9.6c0.2,0.7,0.5,1.5,0.4,2.2c-0.1,0.6-0.5,1.1-0.9,1.6c-0.8,1.1-1.9,1.9-3,2.6
		c-1.5,0.9-0.1,3.2,1.4,2.3c2.6-1.6,5.7-4.4,5.2-7.8c-0.3-1.9-1-3.7-1.4-5.5c-0.5-1.9-1-3.8-1.5-5.7
		C265.2,90.1,262.6,90.9,263.1,92.5L263.1,92.5L263.1,92.5z"/>
	<g>
		<path d="M273.4,90.2c-0.4,0.2-0.7,0.8-0.9,1.1c-0.5,0.9-0.8,2-0.9,3c0,0.5,0,0.9,0.1,1.4c0.2,0.4,0.5,0.8,0.9,1
			c0.6,0.2,1.3-0.2,1.8-0.6c0.6-0.6,0.9-1.4,1-2.2c0.1-0.8,0.1-1.7-0.1-2.5c0-0.3-0.1-0.6-0.3-0.8s-0.4-0.4-0.9-0.5
			C273.9,89.9,273.7,90.1,273.4,90.2L273.4,90.2z"/>
		<path d="M272.9,89.3c-1.2,0.7-1.8,2.3-2.1,3.6c-0.3,1.4-0.5,3.2,0.7,4.2c0.6,0.5,1.5,0.7,2.3,0.4c0.8-0.3,1.3-0.8,1.8-1.4
			c0.9-1.2,1-2.8,0.9-4.3c-0.1-0.9-0.2-1.8-1-2.4c-0.3-0.3-0.7-0.4-1.1-0.5C273.8,88.9,273.4,89.1,272.9,89.3
			c-0.5,0.2-0.6,0.9-0.4,1.4c0.3,0.5,0.9,0.6,1.4,0.4c0,0,0.2-0.1,0.1-0.1c0.1,0,0.1,0,0,0s0,0,0,0s0.1,0,0.1,0.1c0,0-0.1-0.1,0,0
			c0,0,0.1,0,0.1,0.1c-0.1,0-0.1-0.1,0,0s0,0,0,0s0.1,0.2,0,0.1s0,0.1,0,0.1c0,0.1,0,0.1,0,0.2c0,0.2,0.1,0.4,0.1,0.7
			c0,0.5,0,1.1,0,1.5c0,0.2-0.1,0.5-0.2,0.7s-0.1,0.3-0.2,0.6c0,0.1-0.1,0.2-0.2,0.3c0,0-0.1,0.1,0,0.1c0.1-0.1-0.1,0.1-0.1,0.1
			c-0.1,0.1-0.1,0.2-0.2,0.2c0,0-0.1,0-0.2,0.1c0,0-0.2,0.1,0,0c0,0-0.1,0-0.1,0.1c-0.1,0,0,0,0,0H273c-0.1,0,0,0,0,0
			s-0.2-0.1-0.1,0s-0.1,0-0.1-0.1c-0.1-0.1,0.1,0.1,0,0l-0.1-0.1c0,0,0.1,0.1,0,0c0-0.1-0.1-0.3-0.1-0.1c0-0.1-0.1-0.2-0.1-0.3
			c0,0,0,0.1,0,0s0-0.2,0-0.2c0-0.6,0-0.9,0.2-1.4s0.3-1,0.5-1.5c0.1-0.2,0.2-0.4,0.4-0.6c0,0,0.1-0.1,0-0.1s0.1-0.1,0.1-0.1
			l0.1-0.1c0.1-0.1-0.2,0.1,0,0c0.5-0.3,0.6-0.9,0.4-1.4S273.3,89.1,272.9,89.3L272.9,89.3z"/>
	</g>
	<g>
		<path d="M242.8,82.9c-0.4,0.2-0.7,0.8-0.9,1.1c-0.5,0.9-0.8,2-0.9,3c0,0.5,0,0.9,0.1,1.4c0.2,0.4,0.5,0.8,0.9,1
			c0.6,0.2,1.3-0.2,1.8-0.6c0.6-0.6,0.9-1.4,1.1-2.2s0.1-1.7-0.1-2.5c0-0.3-0.1-0.6-0.3-0.8s-0.4-0.4-0.9-0.5
			C243.4,82.6,243.1,82.8,242.8,82.9L242.8,82.9z"/>
		<path d="M242.3,82c-1.2,0.7-1.8,2.3-2.1,3.6c-0.3,1.4-0.5,3.2,0.7,4.2c0.6,0.5,1.5,0.7,2.3,0.4c0.8-0.3,1.3-0.8,1.8-1.4
			c0.9-1.2,1.1-2.8,0.9-4.3c-0.1-0.9-0.2-1.8-1-2.4c-0.3-0.3-0.7-0.4-1.1-0.5C243.3,81.6,242.8,81.8,242.3,82s-0.6,0.9-0.4,1.4
			c0.3,0.5,0.9,0.6,1.4,0.4c0,0,0.2-0.1,0.1-0.1c0.1,0,0.1,0,0.1,0c-0.1,0,0,0,0,0s0.1,0,0.1,0.1c0,0-0.1-0.1,0,0c0,0,0.1,0,0.1,0.1
			c-0.1,0-0.1-0.1,0,0s0,0,0,0s0.1,0.2,0,0.1s0,0.1,0,0.1c0,0.1,0,0.1,0,0.2c0.1,0.2,0.1,0.4,0.1,0.7c0,0.5,0.1,1.1,0,1.5
			c0,0.2-0.1,0.5-0.2,0.7s-0.1,0.3-0.2,0.6c-0.1,0.1-0.1,0.2-0.2,0.3l-0.1,0.1c0.1-0.1-0.1,0.1-0.1,0.1c-0.1,0.1-0.1,0.2-0.2,0.2
			c0,0-0.1,0-0.2,0.1c0,0-0.2,0.1-0.1,0c-0.1,0-0.1,0-0.1,0.1c-0.1,0,0,0,0,0c-0.1,0-0.1,0-0.1,0c-0.1,0,0,0,0,0s-0.2-0.1-0.1,0
			s-0.1,0-0.1-0.1c-0.1-0.1,0.1,0.1,0,0l-0.1-0.1c0,0,0.1,0.1,0,0c0-0.1-0.1-0.3-0.1-0.1c0-0.1-0.1-0.2-0.1-0.3c0,0,0,0.1,0,0
			s0-0.2,0-0.2c0-0.6,0.1-0.9,0.2-1.4s0.3-1,0.5-1.5c0.1-0.2,0.2-0.4,0.4-0.6c0,0,0.1-0.1,0-0.1s0.1-0.1,0.1-0.1l0.1-0.1
			c0.1-0.1-0.2,0.1,0,0c0.5-0.3,0.6-0.9,0.4-1.4S242.8,81.8,242.3,82L242.3,82z"/>
	</g>
	<path d="M304.6,75.1c-0.9-0.9-0.9-3.2-0.9-4.7c0-2.9,0.1-5.8,0.2-8.7c0.2-7.3,0-14.9-2.5-21.9c-3.1-8.7-10-15-17.2-20.4
		c-6.2-4.6-13.2-8-20.9-9c-3.1-0.4-6.3-0.5-9.5-0.3c-1.6,0.1-3.2,0.2-4.8,0.4c-0.8,0.1-1.5,0.2-2.3,0.3c-0.3,0-0.8,0-1.1,0.1
		c-0.4,0.2-0.2,0.2-0.1,0.2c-0.6-0.1-1.4-0.6-2-0.8c-1.4-0.5-2.7-0.9-4.1-1.2c-4.3-1-8.7-1.2-13-0.6c-14.9,2-28.3,13.5-35.4,26.4
		c-4.2,7.7-6.9,16.7-6.6,25.6c0.3,9.4,2.9,18.4,4.4,27.6c0.3,2,0.6,4,0.6,6c0.1,1.7,2.8,1.7,2.7,0c-0.3-8.5-2.9-16.9-4.2-25.3
		c-0.7-4.5-1.1-9-0.7-13.6c0.4-4.5,1.7-9,3.3-13.2c5.2-13.4,16.6-25.1,30.4-29.6c7.3-2.4,15.6-2.1,22.7,0.7c0.4,0.2,1,0.4,1.8,0.4
		c1.5-0.1,3.1-0.4,4.6-0.6c3.1-0.3,6.1-0.5,9.2-0.4c7,0.3,13.6,2.6,19.6,6.3c4.1,2.6,7.9,5.7,11.4,9.1c3.1,3,5.8,6.2,7.6,10.1
		c3.1,6.7,3.5,14.3,3.4,21.6c0,3-0.2,5.9-0.3,8.8c0,2.1-0.1,4.3,0.5,6.3c0.2,0.8,0.6,1.4,1.2,2C304,78.3,305.9,76.4,304.6,75.1
		L304.6,75.1L304.6,75.1z"/>
	<path d="M239.1,148.1L239.1,148.1c0.5-0.1,0.9-0.5,1-0.9c0.2-0.8-0.2-1.5-1-1.8c-0.5-0.2-1,0-1.3,0.4s-0.5,0.8-0.6,1.2
		c-0.1,0.3-0.2,0.6-0.3,0.8c-0.2,0.6-0.4,1.2-0.6,1.8c-0.4,1.2-0.7,2.5-0.9,3.7c-0.1,0.7,0.2,1.5,0.9,1.7c0.6,0.1,1.5-0.2,1.7-0.9
		c0.2-1.2,0.5-2.3,0.8-3.5c0.2-0.6,0.4-1.1,0.6-1.7c0.1-0.3,0.2-0.6,0.3-0.9c0,0,0.2-0.4,0.1-0.2c0.1-0.1,0.3-0.5,0-0.2l-1.3,0.4
		l0,0c-0.2-0.1-0.4-0.2-0.6-0.3l0,0l-0.4-0.6l0,0v-0.7l0,0c0.3-0.3,0.6-0.6,0.9-0.9l0,0c-0.7,0.2-1.2,1-0.9,1.7
		S238.4,148.3,239.1,148.1L239.1,148.1L239.1,148.1z"/>
	<path d="M213.3,125.6c-2.3-3.6,3.3,9.5,7,13.7c2.8,3.2,6,5.7,9.5,8.2c2.8,2,7.7,1.8,7.7,1.8l1.2-2.6
		C238.7,146.7,224.5,143,213.3,125.6L213.3,125.6z"/>
	<path d="M297.6,68.8c-0.1,2-0.3,3.9-1,5.8c-0.5,1.5-1.4,2.9-2.4,4.2c-2.1,2.7-4.8,4.9-7.5,7c-0.6,0.5-0.5,1.4,0,1.9
		c0.5,0.6,1.3,0.4,1.9,0c2.9-2.3,5.8-4.7,8-7.7c1.1-1.4,1.9-3,2.5-4.6c0.8-2.1,0.9-4.3,1.1-6.5C300.4,67.1,297.7,67.1,297.6,68.8
		L297.6,68.8L297.6,68.8z"/>
	<path d="M290.5,79.6c1-4.7,2.6-9.3,3-14.1c0.3-4.5-0.7-9.3-2-13.7c-2.1-7.1-8.4-13-15.2-15.6c-1.6-0.6-2.3,2-0.7,2.6
		c6.4,2.4,11.9,8,13.6,14.7c1,4,1.9,8.2,1.6,12.3c-0.4,4.5-1.9,8.8-2.8,13.1C287.5,80.6,290.1,81.3,290.5,79.6L290.5,79.6
		L290.5,79.6z"/>
	<path d="M266.8,48.5c-2.6-4.6-6.2-8.7-11.2-10.8c-3.6-1.5-8-1.9-11.8-1.1c-4.9,1-8.8,4.5-11.6,8.5c-2.1,2.8-3.2,6.2-5.1,9.2
		c-2.9,4.6-7.3,7.1-12.7,7.8c-1.7,0.2-1,2.8,0.7,2.6c4.5-0.6,8.7-2.5,11.9-5.8c2.4-2.6,3.9-5.8,5.5-9c1.8-3.5,4.2-6.7,7.5-8.9
		c3.6-2.3,8.2-2.6,12.4-1.5c5.6,1.4,9.4,5.6,12.1,10.4C265.4,51.4,267.7,50,266.8,48.5L266.8,48.5L266.8,48.5z"/>
	<path d="M223.4,59.8c-0.5,4.9-2.7,9.6-5.4,13.6c-2.8,4.2-6.4,7.9-10.6,10.6c-1.5,0.9-0.1,3.3,1.4,2.3c8.9-5.6,16.3-15.9,17.3-26.5
		C226.2,58.1,223.6,58.1,223.4,59.8L223.4,59.8L223.4,59.8z"/>
	<path d="M291.8,57.7c-3.2-5.3-7.6-10.9-14.1-11.9c-2.3-0.3-4.6-0.2-6.8,0.1c-2.2,0.3-4.5,0.9-6.2,2.4c-1.3,1.2,0.6,3.1,1.9,1.9
		c1.3-1.1,3.4-1.5,5-1.7c1.9-0.2,3.9-0.4,5.7-0.1c5.7,1,9.4,6,12.2,10.6C290.4,60.5,292.7,59.2,291.8,57.7L291.8,57.7L291.8,57.7z"
		/>
	<path d="M264.2,37.5c-2.8-10.2-11.6-18.1-21.9-20.2c-1.7-0.4-2.4,2.2-0.7,2.6c9.4,1.9,17.5,9,20,18.3
		C262.1,39.9,264.7,39.2,264.2,37.5L264.2,37.5L264.2,37.5z"/>
	<path d="M283,80.3c-4.4-1.6-8.4-4.4-11.4-8c-0.5-0.6-1.4-0.5-1.9,0c-0.5,0.6-0.5,1.3,0,1.9c3.3,4,7.7,6.9,12.6,8.7
		c0.7,0.2,1.5-0.3,1.7-0.9C284.2,81.2,283.7,80.5,283,80.3L283,80.3z"/>
	<path d="M258.1,71.9l0.5-0.3l-1.6-2.1c-0.8,0.8-1.6,1.6-2.7,2c-1.2,0.4-2.5,0.3-3.8,0.1c-2.8-0.3-5.6-0.9-8.4-1.6
		c-1.7-0.5-2.4,2.1-0.7,2.6c3.2,0.9,6.4,1.5,9.7,1.8c1.5,0.1,2.9,0.1,4.4-0.5c1.3-0.6,2.5-1.4,3.4-2.5s-0.3-3-1.6-2.1l-0.5,0.3
		C255.3,70.5,256.7,72.8,258.1,71.9L258.1,71.9L258.1,71.9z"/>
</g>
<g>
	<path class="st0" d="M260.4,121.8c-0.5-1.9-2.1-4.1-3.8-5.1c-4.5-2.6-9.3-3.6-14.5-3.5c-0.9,0-1.8,0.1-2.7,0.3
		c-2,0.6-3.6,0.4-5.9,4l0,0c-0.9,1.5-0.8,3.7,0.7,4.9c1.5,1.1,3,1.9,4.8,1.9s3.6,0,5.4,0.5c1.3,0.4,2.5,1.1,3.8,1.7
		c2.2,1,5.2,2.5,7.4,1.7C257.6,127.3,261.2,125.5,260.4,121.8z"/>
	<path d="M234.5,118.2c0.9-1.4,1.9-2.5,3.6-2.9c1.8-0.5,3.4-0.7,5.3-0.7c4.3,0.1,9.4,1,12.9,3.7c1.4,1.1,3,3.2,2.8,5
		c-0.2,1.4-1.6,2.4-2.8,3c-1.7,0.9-3.1,0.8-5,0.2c-2.1-0.7-4-1.8-6-2.6c-1.2-0.4-2.4-0.7-3.6-0.7s-2.6,0.1-3.9-0.2
		C235.7,122.4,233.2,120.6,234.5,118.2c0.8-1.5-1.5-2.9-2.3-1.4c-1.1,2.1-1,4.7,0.8,6.4c2.2,2.1,4.9,2.4,7.8,2.5
		c3.1,0.1,5.6,1.5,8.4,2.7c2.3,1,4.7,1.7,7.1,0.8c1.8-0.7,3.7-1.7,4.8-3.4c1.3-2,0.9-4.4-0.2-6.4c-2.7-4.8-9-6.6-14.1-7.3
		c-3-0.4-5.9-0.3-8.9,0.5c-2.5,0.7-4.1,2.2-5.6,4.3C231.2,118.2,233.6,119.6,234.5,118.2L234.5,118.2L234.5,118.2z"/>
</g>
<path d="M179.5,124.8c-4.7,5,0.2,11.7,3.9,15.7c5.3,5.8,11.7,10.8,18.4,14.8c11.9,7,26.4,10.9,40.2,7.8c5.4-1.2,10.9-4.3,9.9-10.7
	c-0.3-1.7-2.9-1-2.6,0.7c0.8,4.7-4.3,6.6-8,7.4s-7.8,1-11.7,0.9c-15.6-0.7-29.7-8.9-40.9-19.4c-2.5-2.4-5-4.9-6.8-7.9
	c-1.4-2.3-2.5-5.2-0.4-7.4C182.6,125.4,180.7,123.5,179.5,124.8L179.5,124.8L179.5,124.8z"/>
<g>
	<g>
		<path class="st0" d="M611,485.7c-8,1.3-27.8-3.3-35.5-5.8s-11.1-8.8-18.2-4.9c-5.5,3-8.9,8.7-13.8,12.6
			c-5.7,4.5-13.2,6.5-20.6,6.5s-13.5-5.4-17.1-2.5c0,0-2.7,1.8-3.2,5.6s2.2,28.5,3.1,34.7c0.9,6.2,3.4,13.9,13.7,12.8
			c18.9-2,22.9-5.7,46.2-9.5c5.6-0.9,46-9.6,68-19.3C651.3,508,649.4,479.4,611,485.7L611,485.7z"/>
		<path d="M610.7,484.4c-2.8,0.4-5.7,0.1-8.4-0.1c-3.6-0.4-7.2-1-10.8-1.7c-3.4-0.7-6.8-1.5-10.2-2.4c-2.8-0.8-5.8-1.5-8.4-2.8
			c-3-1.5-5.7-3.9-9-4.6c-3.6-0.9-6.9,0.7-9.8,2.9c-3.1,2.4-5.6,5.5-8.4,8.3c-3.2,3.2-6.8,5.6-11.1,7.1c-4.1,1.4-8.8,2.2-13.2,1.8
			c-3.8-0.4-7.1-2.3-10.8-3c-2.3-0.5-4.5-0.2-6.3,1.5c-1.9,1.8-3,4.3-3.1,6.9c-0.2,4.9,0.5,9.8,1,14.7c0.5,5.7,1.2,11.4,1.9,17.1
			c0.6,4.7,1.5,10,5.2,13.4c2.4,2.1,5.5,3,8.6,3c3.7-0.1,7.5-0.8,11.2-1.4c5.8-1,11.5-2.7,17.3-4.1c6.8-1.7,13.6-3,20.5-4.3
			c10.6-2,21.2-4.6,31.6-7.4c7.3-2,14.6-4.1,21.8-6.5c3.2-1.1,6.4-2.2,9.5-3.5c2.5-1,5-1.9,7.2-3.4c6.3-4.1,10.3-11.9,8-19.4
			c-3.1-9.7-14.2-12.6-23.3-12.7C618,483.4,614.4,483.8,610.7,484.4c-1.7,0.3-1,2.9,0.7,2.6c9.3-1.5,23.5-2.2,29.6,6.9
			c3.9,5.9,1.8,13.4-3.3,17.9c-3.8,3.3-9.1,4.9-13.8,6.6c-6.6,2.4-13.4,4.5-20.1,6.4c-11.3,3.2-22.7,6-34.2,8.4
			c-5,1-10.1,1.8-15.2,2.9c-6,1.3-11.8,2.9-17.8,4.4c-2.9,0.7-5.7,1.3-8.7,1.8c-3.4,0.6-7.1,1.3-10.6,1.3c-6.3-0.1-9.1-5-10.1-10.6
			c-0.8-4.5-1.2-9.2-1.7-13.8c-0.6-5.6-1.2-11.2-1.5-16.9c-0.1-1.6-0.3-3.3-0.1-4.9c0.3-2.1,1.8-4.7,3.9-5.1
			c1.3-0.3,2.6,0.2,3.8,0.6c1.8,0.5,3.6,1.2,5.4,1.8c3.9,1.1,7.9,1.1,11.9,0.5c3.9-0.6,7.8-1.7,11.3-3.6c3.6-1.9,6.5-4.6,9.2-7.6
			s5.2-5.8,8.6-7.7s6.1-0.8,9.1,1c2.9,1.7,5.6,3.3,8.8,4.3c2.7,0.8,5.5,1.5,8.2,2.2c6.5,1.6,13.1,2.9,19.8,3.4
			c2.5,0.2,5,0.3,7.5-0.1C613.2,486.7,612.4,484.1,610.7,484.4L610.7,484.4z"/>
	</g>
	<g>
		<path class="st0" d="M611,485.7c-8,1.3-27.8-3.3-35.5-5.8s-11.1-8.8-18.2-4.9c-5.5,3-8.9,8.7-13.8,12.6
			c-5.7,4.5-13.2,6.5-20.6,6.5s-13.5-5.4-17.1-2.5c0,0-2.7,1.8-3.2,5.6s2.2,28.5,3.1,34.7c0.9,6.2,3.4,13.9,13.7,12.8
			c18.9-2,22.9-5.7,46.2-9.5c5.6-0.9,46-9.6,68-19.3C651.3,508,649.4,479.4,611,485.7L611,485.7z"/>
		<path d="M610.7,484.4c-2.8,0.4-5.7,0.1-8.4-0.1c-3.6-0.4-7.2-1-10.8-1.7c-3.4-0.7-6.8-1.5-10.2-2.4c-2.8-0.8-5.8-1.5-8.4-2.8
			c-3-1.5-5.7-3.9-9-4.6c-3.6-0.9-6.9,0.7-9.8,2.9c-3.1,2.4-5.6,5.5-8.4,8.3c-3.2,3.2-6.8,5.6-11.1,7.1c-4.1,1.4-8.8,2.2-13.2,1.8
			c-3.8-0.4-7.1-2.3-10.8-3c-2.3-0.5-4.5-0.2-6.3,1.5c-1.9,1.8-3,4.3-3.1,6.9c-0.2,4.9,0.5,9.8,1,14.7c0.5,5.7,1.2,11.4,1.9,17.1
			c0.6,4.7,1.5,10,5.2,13.4c2.4,2.1,5.5,3,8.6,3c3.7-0.1,7.5-0.8,11.2-1.4c5.8-1,11.5-2.7,17.3-4.1c6.8-1.7,13.6-3,20.5-4.3
			c10.6-2,21.2-4.6,31.6-7.4c7.3-2,14.6-4.1,21.8-6.5c3.2-1.1,6.4-2.2,9.5-3.5c2.5-1,5-1.9,7.2-3.4c6.3-4.1,10.3-11.9,8-19.4
			c-3.1-9.7-14.2-12.6-23.3-12.7C618,483.4,614.4,483.8,610.7,484.4c-1.7,0.3-1,2.9,0.7,2.6c9.3-1.5,23.5-2.2,29.6,6.9
			c3.9,5.9,1.8,13.4-3.3,17.9c-3.8,3.3-9.1,4.9-13.8,6.6c-6.6,2.4-13.4,4.5-20.1,6.4c-11.3,3.2-22.7,6-34.2,8.4
			c-5,1-10.1,1.8-15.2,2.9c-6,1.3-11.8,2.9-17.8,4.4c-2.9,0.7-5.7,1.3-8.7,1.8c-3.4,0.6-7.1,1.3-10.6,1.3c-6.3-0.1-9.1-5-10.1-10.6
			c-0.8-4.5-1.2-9.2-1.7-13.8c-0.6-5.6-1.2-11.2-1.5-16.9c-0.1-1.6-0.3-3.3-0.1-4.9c0.3-2.1,1.8-4.7,3.9-5.1
			c1.3-0.3,2.6,0.2,3.8,0.6c1.8,0.5,3.6,1.2,5.4,1.8c3.9,1.1,7.9,1.1,11.9,0.5c3.9-0.6,7.8-1.7,11.3-3.6c3.6-1.9,6.5-4.6,9.2-7.6
			s5.2-5.8,8.6-7.7s6.1-0.8,9.1,1c2.9,1.7,5.6,3.3,8.8,4.3c2.7,0.8,5.5,1.5,8.2,2.2c6.5,1.6,13.1,2.9,19.8,3.4
			c2.5,0.2,5,0.3,7.5-0.1C613.2,486.7,612.4,484.1,610.7,484.4L610.7,484.4z"/>
	</g>
	<path d="M636.6,499.3c-7.9,6.3-16.7,10.6-26.3,13.7c-9,2.9-18.1,5.2-27.3,7.2c-14.7,3.2-29.5,5.8-44.3,8.2c-4,0.6-7.8,2-11.6,3.2
		c-4.9,1.6-10.8,4-16.1,2.8c-1.7-0.4-2.4,2.2-0.7,2.6c4.6,1,9.5-0.3,13.8-1.7c4.6-1.4,9.2-3.4,13.9-4.2c5.1-0.9,10.3-1.6,15.4-2.5
		c18.6-3.2,37.3-6.7,55.3-12.3c5-1.6,10-3.4,14.8-5.6c5.4-2.5,10.3-5.8,15-9.5C639.8,500.1,637.9,498.2,636.6,499.3L636.6,499.3
		L636.6,499.3z"/>
</g>
<path d="M240.4,504.9c-5.5-2.7-6.7,9.2-6.9,12.2c-0.3,4.8-0.1,9.7,0.4,14.5c0.5,4.1,0.8,8.8,2.7,12.6c1.3,2.6,3.5,3.8,6.2,4.7
	c3,1,6.2,1.6,9.3,2.2c2.7,0.5,5.3,0.9,7.9,1.8c3.8,1.3,7.5,3,11,4.7c7.2,3.5,14.3,7.2,21.7,10.4c5.9,2.6,11.9,5,18,7.2
	c5.6,2,11.3,3.9,17.2,4.5c1.9,0.2,4.7,0.7,6.9,0.9c11.4,1.2,23.7,0.8,34.4-3.9c6.1-2.7,12.2-7.4,14.5-13.9c2.1-6,0.1-12.2-3.7-17
	c-3.5-4.5-8.4-7.9-13.8-9.6c-5.9-1.9-11.8-3.9-17.5-6.5c-6-2.7-12.2-5.9-16.9-10.6c-2-2-3.5-4.5-5.2-6.7c-1.9-2.4-4-4.7-6.2-6.9
	c-4.1-4.1-8.9-8.3-14.3-10.5c-1.8-0.7-3.9-1.2-5.8-0.6c-2,0.6-2.6,2.4-3.9,3.8c-1.7,1.8-4,2.9-6.2,3.9c-3.6,1.6-7.5,2.8-11.3,4
	c-8.8,2.7-17.9,4.4-27.1,2.6C247.7,508.3,243.9,506.9,240.4,504.9c-1.5-0.9-2.9,1.5-1.4,2.3c14.9,8.6,32.2,5.1,47.5-0.4
	c4.5-1.6,10.1-3.6,12.9-7.8c0.9-1.4,1.7-2,3.4-1.8c2.2,0.3,4.2,1.5,6,2.6c5,3.2,9.5,7.5,13.4,11.9c3.7,4.2,6.5,8.9,10.9,12.4
	c9.7,7.5,21.7,11.3,33.2,15.1c5.1,1.7,9.8,5.5,12.7,10c3.6,5.6,3.7,12.1-0.5,17.4c-7.9,9.8-22,12-33.8,12c-6.6,0-13.5-0.6-20-1.9
	c-6.1-1.2-12-3.4-17.7-5.6c-5.4-2-10.7-4.3-15.9-6.6c-7.7-3.5-15.1-7.5-22.8-11c-3.1-1.4-6.2-2.7-9.4-3.6c-2.4-0.7-4.9-1-7.4-1.5
	c-3-0.6-6-1.2-8.9-2.2c-3.1-1.2-4.2-3.5-4.9-6.7c-1-4.7-1.5-9.5-1.7-14.3c-0.1-4-0.3-8.2,0.5-12.1c0.1-0.8,1.7-6.2,2.5-5.8
	C240.5,507.9,241.9,505.6,240.4,504.9L240.4,504.9z"/>
<path d="M239.9,537.7c4.9,0.5,9.9,1.1,14.7,2.1c4.5,1,8.9,2.6,13.2,4.3c8.4,3.4,16.4,7.8,24.4,12c12.1,6.4,24.4,12.4,37.9,15.3
	c7.8,1.7,16,3,24,2.1c1.7-0.2,1.7-2.9,0-2.7c-7.3,0.8-14.8-0.2-21.9-1.8c-4.6-1-9.1-2.2-13.5-3.7c-16.9-5.9-31.8-16.3-48.3-23.2
	c-4.7-2-9.5-3.8-14.4-4.9c-5.3-1.2-10.7-1.8-16-2.4C238.2,534.8,238.2,537.5,239.9,537.7L239.9,537.7L239.9,537.7z"/>
<path d="M237.9,495c1.3,3.7,2.4,7.4,3.5,11.1c0.5,1.7,3.1,1,2.6-0.7c-1.1-3.7-2.2-7.5-3.5-11.1c-0.2-0.7-0.9-1.1-1.7-0.9
	C238.1,493.6,237.6,494.4,237.9,495L237.9,495z"/>
<path d="M292.1,489.1c0.9,3.8,2.6,7.2,5,10.3c0.5,0.6,1.4,0.5,1.9,0c0.6-0.6,0.5-1.3,0-1.9c-2.1-2.7-3.5-5.8-4.3-9.1
	c-0.2-0.7-1-1.1-1.7-0.9C292.3,487.6,291.9,488.4,292.1,489.1L292.1,489.1z"/>
<path d="M501.4,483.4c1.8,2.8,3.8,5.5,6,7.9c0.5,0.5,1.4,0.5,1.9,0c0.5-0.6,0.5-1.4,0-1.9s-1-1.2-1.5-1.8c-0.2-0.3-0.5-0.6-0.7-0.9
	c-0.1-0.1-0.1-0.1-0.2-0.2c0,0-0.2-0.2-0.1-0.1s-0.1-0.1-0.1-0.1c-0.1-0.1-0.1-0.2-0.2-0.3c-1-1.3-1.8-2.6-2.7-3.9
	c-0.4-0.6-1.2-0.9-1.8-0.5S501,482.7,501.4,483.4L501.4,483.4L501.4,483.4z"/>
<path d="M539.8,464.4c3.7,5,7.8,9.7,12.2,14.1c1.2,1.2,3.1-0.7,1.9-1.9c-4.2-4.3-8.2-8.8-11.7-13.6c-0.4-0.6-1.2-0.9-1.8-0.5
	C539.7,462.9,539.4,463.8,539.8,464.4L539.8,464.4L539.8,464.4z"/>
<path d="M244.1,39.2c5.1-0.3,9.9,2.7,11.9,7.4c0.3,0.7,1.3,0.8,1.8,0.5c0.7-0.4,0.8-1.2,0.5-1.8c-2.4-5.4-8.3-9-14.2-8.7
	C242.4,36.6,242.4,39.3,244.1,39.2L244.1,39.2L244.1,39.2z"/>
<path d="M258,233.8l-12.8,31.9c0,0-4.7-1.7-2.2-7.1S261.8,217.5,258,233.8z"/>
<polygon points="257.1,306 278.2,305.7 278.5,303.6 256.8,302.4 "/>
<path d="M32.1,252.8c-2.8-0.4,16,16.6,36.6,23.2l6.3-4.1C75.1,272,50.3,265.8,32.1,252.8L32.1,252.8z"/>
<path d="M107.4,216.2c0,0-8.4,24.5-9.3,28.7c-0.4,1.8-0.8,10.3-0.8,10.3s-12,10-8.3,2.3C92.7,249.8,105.4,222.6,107.4,216.2
	L107.4,216.2z"/>
<path d="M193.4,396.6c0,0,15.8,69,16.9,69.2s6.7-1.8,5.5-5C214.6,457.7,193.4,396.6,193.4,396.6z"/>
<path d="M240.7,499.2c0,0,37.9,0.2,47.4-7.5c0,0-33.1,7.1-48.9,1.9L240.7,499.2z"/>
<path d="M505.5,486.1c0,0,26.9-9.4,33.4-19.4l-36.3,15.6L505.5,486.1L505.5,486.1z"/>
</svg>
