<?xml version="1.0" encoding="utf-8"?>
<!-- Generator: Adobe Illustrator 28.0.0, SVG Export Plug-In . SVG Version: 6.00 Build 0)  -->
<svg version="1.1" id="Layer_1" xmlns="http://www.w3.org/2000/svg" xmlns:xlink="http://www.w3.org/1999/xlink" x="0px" y="0px"
	 viewBox="0 0 349.2 452.1" style="enable-background:new 0 0 349.2 452.1;" xml:space="preserve">
<style type="text/css">
	.st0{fill:#785756;}
	.st1{fill:#FFFFFF;}
	.st2{fill:#FEC3AA;}
</style>
<path class="st0" d="M107.9,103.6c0,0.3-1.1-29,11.1-45.9c10.3-14.2,32.9-26.2,44.7-28.8c11.8-2.6,37.5,4.2,49.4,14.4
	c0,0,13.4-0.3,24.9,11.5c11.6,11.8,15.1,25.7,14.9,38.3c-0.2,12.6-5.4,49-12.2,60.2c-6.8,11.1,19.2,53.8,15.6,60.5
	s-165.1,21.2-167.3,2C87,196.4,107.9,103.6,107.9,103.6L107.9,103.6z"/>
<path class="st1" d="M261.6,428.6c-1.1-3.6-3.4-34.9-3.5-43.4s3-26.7,3.8-32.7s3.9-28.2,3.9-33.7s-0.4-12.5-0.4-12.5l25.1,33
	l2.3,2.9l-9.4-22.1l-23.2-70.2l-11.6-35.3l-17.4-5.3c0,0-8.9,10.4-35.3,11.9s-49.2-1.9-56.6-5.4c-7.5-3.4-10.1-8.9-10.1-8.9
	l-1.6,0.7l-25.1,7l-61.2,95.1l21.8,29.8l21.2-25.9c0,0,2,36.6,4.4,45.9c2.4,9.4,2.1,49.3,1.6,56l-3.1,22.5h176.3L261.6,428.6
	L261.6,428.6z"/>
<path class="st2" d="M82.6,183.6c1,0.6-2.3-23.2-3.4-28.9c-1.1-5.7,2.2-15.4,6-24s12.4-20,17.5-22.3s11.9-14.6,15.4-15.3
	s4.6,1.9,4.6,1.9s4.6-7.6,9.2-8.5c4.6-0.9,4.8,2.4,4.7,4.3s-3.8,8.1-3.8,8.1s4.2-0.9,2.7,4.2c-1.5,5.1-14.2,24-15.9,27.5
	c-1.7,3.6-4.8,10.4-3.8,14.5s5.2,12.6,5.2,12.6l5.8-9.2l7.1,1l1.9,8.2c0,0-7.3,5.7-7.4,9.1s-2.9,15.7-7.2,23.1
	c-4.2,7.3-9.4,12-9.4,12l-25.8,77.9c0,0-17.7,55.6-20.2,58.3c-2.6,2.6-14.7,23.4-29.2,22.2c-14.5-1.2-25.2-11-25.8-25.7
	s6.3-30.2,8.4-34.3s38.2-66.8,38.2-66.8s24.8-36.8,25.4-40.4S82.5,183.6,82.6,183.6L82.6,183.6z"/>
<path class="st2" d="M153.7,186.8c0,0-0.6,7.8-2.4,8.4s-22.1,11.5-22.1,11.5s7.8,9.4,28.9,13.3s43.1,0.1,53.7-1.4
	c10.7-1.5,19.4-9.6,19.4-9.6s-12.9-4.2-16-7.7c-3.1-3.5-2.8-17-2.8-17L153.7,186.8L153.7,186.8z"/>
<path class="st2" d="M243.5,200.9c0,0-7.9-8.4-10.7-12.3c-4.6-6.3-5-22.1-7.1-24.3c-2.1-2.2,1.6-15.1,1.6-15.1s7.7,9.3,7.6,9.3
	s4.8-12.2,4.8-14.6c0-2.5-4.3-15.2-4.3-15.2s-12.8-19.2-15-22.8c-2.2-3.6-1-7.4,1.5-7.3c0,0-3.9-9.3-2.6-11.2
	c1.3-1.9,5.6-1.2,7.6,1.4c1.9,2.6,5.8,5.3,5.8,5.3s0.7-2.7,3-2.4s9.6,9.9,11.9,11.9c2.3,1.9,13.4,12.5,15.2,15.3
	s10.8,17.2,12.6,26.3c1.8,9.1-0.6,24.8-1.9,29.7s-3,15.2-0.9,18.5c2.1,3.3,43.7,69.7,44.1,70.3c0.4,0.6,24.2,45.1,27.1,56
	s2,30.3-9.5,36.3c-11.5,6-21.7,5-31.7-3s-21-39.6-23.1-43s-24.6-77.8-24.6-77.8L243.5,200.9L243.5,200.9z"/>
<path d="M46.8,60.1c1.1,3.3,2.7,7.1,6.1,8.6c4.4,1.8,9-1.4,13.5-1c5,0.4,5.9,5.5,9.3,8.4c3.2,2.8,7.5,3.7,11.5,4.6
	c1.7,0.3,2.4-2.2,0.7-2.6c-3.8-0.8-8-1.6-10.9-4.4c-2.8-2.7-3.8-6.7-7.8-8.1c-3.9-1.4-7.8,0-11.7,0.8c-4.9,1-6.8-2.9-8.2-6.9
	C48.9,57.8,46.3,58.5,46.8,60.1L46.8,60.1L46.8,60.1z"/>
<path d="M72.4,32.1c-0.1,3.5,1.7,6.9,4.7,8.7c3.3,2,7.3,2.1,10,5c4.6,5,5.8,14,13.7,15.3c1.7,0.3,2.4-2.3,0.7-2.6
	c-6.8-1.1-8.3-9.8-12.2-14.3c-2.3-2.6-5.2-3.5-8.4-4.6c-3.4-1.2-6-3.6-5.8-7.5C75.2,30.3,72.5,30.4,72.4,32.1L72.4,32.1L72.4,32.1z"
	/>
<path d="M298.5,60.5c-3.5-1-7.3-0.6-10.6,1c-1.7,0.8-3.2,2-4.5,3.3c-1.2,1.4-2,3.1-3.4,4.4c-3.4,3.1-7.9,1.6-11.8,0.9
	c-3.4-0.6-7.2-0.1-9.6,2.5c-1.2,1.3,0.7,3.2,1.9,1.9c2.7-3,6.8-1.8,10.2-1.1c3.2,0.7,6.8,0.6,9.7-1.2c2.8-1.7,3.9-5.1,6.5-7.1
	c3-2.3,7.1-3,10.7-2C299.5,63.5,300.2,60.9,298.5,60.5L298.5,60.5L298.5,60.5z"/>
<path d="M270.7,25c-3,0.8-5.9,2.2-7.6,4.9c-1.1,1.6-1.4,3.6-2.3,5.3c-0.4,0.9-0.9,1.9-1.8,2.4c-0.8,0.4-1.8,0.5-2.7,0.7
	c-1.7,0.3-3.4,0.9-4.9,1.8c-3.2,1.7-5.8,4.5-7.2,7.8c-0.7,1.6,1.6,3,2.3,1.4c1.4-3.2,3.8-5.7,6.9-7.2c3.2-1.5,7.1-0.9,9.1-4.3
	c1.1-1.8,1.4-3.8,2.4-5.7c1.3-2.5,3.8-3.8,6.5-4.5C273.1,27.2,272.4,24.6,270.7,25L270.7,25L270.7,25z"/>
<path d="M215.1,152.9c1.8,2.4,3.6,4.8,5.4,7.2c1.8,2.4,3.8,4.7,4.8,7.5c1.6,5.1,1.8,10.6,3.9,15.6c1.6,3.6,3.7,7.1,5.9,10.4
	c1.9,2.9,4.1,6.2,7.5,7.4l-0.9-0.9c2.7,7,5.8,14.6,8.3,21.1c1.7,4.4,2.9,8.9,4.3,13.4c5.2,17.1,10.4,34.2,15.8,51.2
	c1.1,3.4,2.2,6.9,3.3,10.3c0.5,1.5,0.9,3.5,1.9,4.8c1,1.4,3.3,0.1,2.3-1.4c-0.1-0.2-0.2-0.4-0.3-0.6c0.2,0.4,0-0.1-0.1-0.2
	c-0.1-0.2-0.2-0.5-0.3-0.7c-0.5-1.3-0.9-2.6-1.4-4c-1.4-4.2-2.7-8.4-4-12.6c-3.5-11.1-6.9-22.3-10.3-33.4
	c-2.6-8.4-5.1-16.9-7.8-25.2c-1-2.9-2.2-5.7-3.3-8.6c-1.9-4.8-3.6-9.8-5.7-14.6c-0.4-0.9-1-1.1-1.8-1.6c-1.4-0.9-2.6-2.3-3.6-3.6
	c-2.2-2.9-4-6.2-5.8-9.4c-2.3-4.2-3.3-8.5-4.2-13.1c-0.5-2.5-0.9-5-2-7.3c-1.1-2.3-2.9-4.3-4.5-6.4c-1.7-2.2-3.4-4.4-5.1-6.7
	C216.4,150.2,214,151.6,215.1,152.9L215.1,152.9L215.1,152.9z"/>
<path d="M220.4,143.9c2.6,2.2,5,4.7,7.3,7.2c2.2,2.5,4.4,5.1,5.9,8.1c0.8,1.6,3.1,0.2,2.3-1.4c-1.5-3.1-3.9-5.9-6.1-8.5
	c-2.3-2.6-4.8-5.1-7.4-7.4C221.1,140.9,219.1,142.8,220.4,143.9L220.4,143.9L220.4,143.9z"/>
<path d="M138.1,151.6c-1.7,2.2-3.4,4.4-5.1,6.7c-1.6,2.1-3.3,4.1-4.5,6.4c-2.2,4.5-2.2,9.9-3.7,14.7c-1.1,3.7-3.2,7-5.1,10.3
	c-1.7,2.9-3.8,6.7-6.8,8.5c-0.8,0.5-1.4,0.6-1.8,1.6c-0.3,0.7-0.5,1.4-0.8,2.1c-1.1,2.7-2.1,5.4-3.2,8.1c-1.5,3.9-3.2,7.7-4.6,11.6
	c-2.6,7.4-4.7,15-7,22.5c-3.4,11.3-6.9,22.6-10.4,33.8c-1.4,4.6-2.9,9.2-4.4,13.8c-0.5,1.6-1,3.2-1.6,4.8c-0.2,0.6-0.4,1.2-0.6,1.7
	c-0.1,0.2-0.2,0.4-0.2,0.6c-0.1,0.1-0.3,0.7-0.1,0.3c-0.1,0.2-0.2,0.4-0.3,0.6c-1,1.4,1.3,2.8,2.3,1.4c0.8-1.1,1.2-2.7,1.6-4
	c1-2.8,1.9-5.6,2.8-8.5c2.7-8.4,5.2-16.8,7.8-25.2c2.7-8.6,5.3-17.3,7.9-25.9c1.6-5.2,3.1-10.4,4.9-15.5c2.4-6.8,5.8-14.5,8.5-21.7
	l-0.9,0.9c3.3-1.3,5.6-4.6,7.5-7.4c2.2-3.3,4.3-6.8,5.9-10.4c2.2-5,2.3-10.5,3.9-15.6c0.9-2.9,2.9-5.2,4.8-7.5
	c1.8-2.4,3.6-4.8,5.4-7.2C141.5,151.5,139.2,150.2,138.1,151.6L138.1,151.6L138.1,151.6z"/>
<path d="M133.1,142c-2.6,2.2-5,4.5-7.3,7c-2.3,2.4-4.5,5.1-6,8.1c-0.3,0.6-0.2,1.5,0.5,1.8c0.6,0.4,1.5,0.2,1.8-0.5
	c1.4-2.9,3.6-5.4,5.8-7.7c2.2-2.4,4.6-4.6,7.1-6.8c0.6-0.5,0.5-1.4,0-1.9C134.5,141.4,133.7,141.5,133.1,142L133.1,142L133.1,142z"
	/>
<path d="M103.4,107.2c-6,4.2-10.8,10.6-15,16.4c-2.2,3.1-4.4,6.2-6.2,9.6c-1.5,2.9-1.9,5.9-2.6,9c-0.5,2-1.1,3.9-1.4,5.9
	c-0.2,2-0.3,3.9-0.2,5.9c0.1,4.4,0.8,8.8,1.5,13.2c0.7,4.5,1.6,9,2.1,13.5c0.5,3.6,0.9,7.4,0.3,10.9c-0.2,1.5-1.4,2.9-2.3,4.3
	c-2.1,3.2-4.1,6.4-6.2,9.6c-6.4,10-12.7,20-19,30c-6.4,10.2-12.8,20.5-18.8,30.9c-2,3.5-4,7-5.9,10.6c-0.6,1.1-1.1,2.2-1.6,3.4
	c-0.1,0.3-0.2,0.7-0.3,1c-0.1,0.2,0.2-0.4,0-0.1c-0.1,0.2-0.2,0.4-0.3,0.5c-2.7,4.6-5.3,9.3-7.7,14c-3.5,6.8-6.8,13.8-8.9,21.1
	c-2,7-2.2,14.7-1,21.8c1.2,7.5,4.8,14.6,11.4,18.8c7.7,4.9,17.4,5,25.5,1c7-3.5,12.8-9.6,16.7-16.4c3.7-6.4,6.5-13.4,9.2-20.3
	c2.4-6,4.6-12.1,6.7-18.3c0.3-1,0.7-2,1-3c0.6-1.6-2.1-2.4-2.6-0.7c-3.5,10.6-7.4,21.1-11.9,31.4c-2.9,6.5-6,12.8-11,17.9
	c-6.1,6.3-14.5,10.9-23.5,9.4c-8.2-1.4-14.6-6.9-17.4-14.7c-2.4-6.9-2.6-15-1.4-22.1c1.2-7,4.3-13.8,7.4-20.2
	c2.7-5.6,5.6-11.1,8.8-16.5c0.5-0.9,1.2-1.8,1.6-2.8c0.3-0.9,0.4-1.4,0.7-2c1.4-3.1,3.1-6,4.7-8.9c5.5-9.7,11.4-19.3,17.3-28.8
	c6.3-10.2,12.8-20.4,19.3-30.6c3.7-5.8,7.5-11.7,11.2-17.5c0.5-0.7,0.7-1.4,0.8-2.3c0.6-3.4,0.3-6.9-0.1-10.4
	c-1-8.7-3.1-17.2-3.7-26c-0.3-4.3,0.1-8.2,1.3-12.3c0.8-3,0.9-6,2.3-8.8c3.5-6.9,8.5-13.2,13.6-18.9c2.1-2.3,4.2-4.6,6.7-6.4
	C106.2,108.5,104.8,106.2,103.4,107.2L103.4,107.2L103.4,107.2z"/>
<path d="M99.4,158.1c1.3,4.8,4.1,9,5.6,13.7c1.5,4.9,2,9.9,1.4,15c-0.2,1.7,2.5,1.7,2.7,0c0.6-5.1,0.2-10.3-1.3-15.2
	c-1.5-4.9-4.4-9.3-5.7-14.2C101.5,155.7,98.9,156.4,99.4,158.1L99.4,158.1L99.4,158.1z"/>
<path d="M210.5,170.4c-0.2,6.3-0.1,12.6,0.2,18.9c0.3,5.7,1,11.3,3.3,16.5c0.7,1.6,3,0.2,2.3-1.4c-2.3-5.1-2.8-10.8-3-16.4
	c-0.3-5.9-0.3-11.7-0.1-17.6C213.3,168.7,210.6,168.7,210.5,170.4L210.5,170.4L210.5,170.4z"/>
<path d="M151.7,191.6c-1.8,2.8-5.4,4.6-8.2,6.3c-3.6,2-7.1,4-10.8,5.8c-4.5,2.2-9.2,4.4-13.9,6c-3.7,1.3-7.5,1.9-11.2,3.5
	c-1.6,0.7-0.9,3.3,0.7,2.6c3.8-1.6,7.8-2.3,11.7-3.7c5-1.8,9.8-4.1,14.6-6.4c3.8-1.9,7.6-3.9,11.2-6.1c2.9-1.7,6.3-3.7,8.2-6.7
	C154.9,191.5,152.6,190.2,151.7,191.6L151.7,191.6L151.7,191.6z"/>
<path d="M130.1,210.1c5.2,5.9,12.7,8.6,20.2,10.1c9,1.8,18.3,2.7,27.4,3.2c12.5,0.6,25.3-0.7,37.3-4.1c6.4-1.8,13-4.3,17.9-8.9
	c1.3-1.2-0.6-3.1-1.9-1.9c-4.2,3.8-9.7,6-15.1,7.7c-6,1.9-12.3,3.1-18.5,3.8c-14.3,1.8-28.8,0.6-42.9-1.7
	c-8.2-1.3-16.9-3.6-22.6-10.1C130.8,206.9,128.9,208.8,130.1,210.1L130.1,210.1L130.1,210.1z"/>
<path d="M212.5,200.8c4.5,4.7,11.1,7.2,17.1,9.2c5.9,2,11.9,3.6,18.1,5c1.7,0.4,2.4-2.2,0.7-2.6c-5.8-1.2-11.4-2.7-17-4.6
	s-12.5-4.3-16.9-8.9C213.2,197.6,211.3,199.6,212.5,200.8L212.5,200.8L212.5,200.8z"/>
<path d="M151.4,164.9c1.1,13.2,2.3,27.3-3.7,39.6c-0.8,1.6,1.6,2.9,2.3,1.4c6.2-12.8,5.2-27.2,4.1-40.9
	C154,163.2,151.3,163.2,151.4,164.9L151.4,164.9L151.4,164.9z"/>
<path class="st2" d="M128.3,121.4c0,0-1.9-3.8-4.5,0c-3.6,5.4-6.6,12-5,15.3c7.4,15.2,14,13.9,15.1,12.8c0,0,8.2,25.7,14,32.2
	c5.9,6.5,22.3,21.4,35.2,17.9c12.9-3.5,28.3-12.6,34.7-22c6.4-9.3,9.9-29.4,9.9-29.4s8.8-3.7,12-12.1s2.2-12.7-1.3-17.1
	c-3.5-4.4-11.3,0.7-11.5,1.4c-0.2,0.7-0.8-14.3-5.8-23.7c-5-9.4-10.1-22.5-27.4-23.3c0,0-3.4,5.8-6.9,0c-3.1-5.2-5.6-13.4-25-3.6
	C152,75,147.8,116.4,128.3,121.4L128.3,121.4z"/>
<path d="M132.1,147.8c-3.3,1.7-6.5-2.3-8.2-4.5c-2.1-2.7-3.7-5.8-4.7-9.1c-0.4-1.7-3.1-1-2.6,0.7c1.1,4.1,3.2,7.6,5.8,10.9
	c1.3,1.6,2.8,3.3,4.6,4.2c2,1,4.3,1.2,6.4,0.1C134.9,149.4,133.6,147,132.1,147.8L132.1,147.8L132.1,147.8z"/>
<path d="M131.6,143.3c0.8,6.1,1.8,12.2,3.9,18.1c1.1,3.1,2.5,6.1,3.9,9c2.4,4.8,5.1,9.4,8.5,13.5c3.7,4.5,8.4,8,13.3,11.1
	c4.9,3.1,10.3,5.4,16.1,6.1c6.4,0.7,12.8-0.9,18.6-3.7c10.3-4.9,20.3-12.4,25.3-22.9c4-8.3,5.8-17.2,7-26.3c0.2-1.7-2.4-2.4-2.6-0.7
	c-0.7,5-1.4,10-2.7,14.8c-0.8,2.7-1.8,5.4-2.8,8c-3.6,9.3-10.7,16-19.1,21.2c-5.9,3.7-12.5,6.8-19.6,7.1c-5.7,0.2-11.1-1.5-16.1-4.2
	s-9.8-6-13.6-10c-3.6-3.8-6.5-8.4-8.9-13.1c-1.8-3.4-3.4-6.8-4.7-10.4c-2.2-5.9-3.1-12.1-4-18.3
	C133.9,140.8,131.3,141.6,131.6,143.3L131.6,143.3L131.6,143.3z"/>
<g>
	<path d="M159,125.4c0.4,0.3,0.7,1.1,0.9,1.6c0.4,1.3,0.5,2.7,0.4,4c-0.1,0.6-0.2,1.2-0.4,1.7c-0.3,0.5-0.8,0.9-1.4,1
		c-0.8,0.1-1.6-0.5-2-1.2c-0.6-0.9-0.8-2-0.8-3.1s0.3-2.1,0.6-3.1c0.1-0.3,0.3-0.7,0.5-1c0.3-0.2,0.6-0.4,1.2-0.4
		C158.4,124.9,158.7,125.2,159,125.4L159,125.4z"/>
	<path d="M158.3,126.1c0.3,0.2,0.4,0.7,0.6,1.1c0.2,0.6,0.3,1.2,0.4,1.8c0.1,0.7,0.1,1.4,0,2c-0.1,0.5-0.1,1-0.5,1.4
		c-0.3,0.3-0.5,0.4-0.9,0.2c-0.4-0.2-0.7-0.7-0.9-1.1c-0.5-1.1-0.5-2.3-0.2-3.4c0.1-0.6,0.3-1.4,0.6-1.9c0.1-0.1,0.2-0.2,0.4-0.2
		C158,125.9,158.1,126,158.3,126.1c0.4,0.3,1,0.4,1.4,0c0.4-0.3,0.4-1.1,0-1.4c-0.4-0.3-0.7-0.6-1.2-0.7s-1-0.1-1.5,0.1
		c-0.9,0.3-1.4,1.1-1.7,2c-0.6,1.8-1,3.7-0.4,5.5c0.5,1.7,2,3.5,3.9,3.1s2.4-2.7,2.5-4.4c0-1.1-0.1-2.2-0.4-3.2
		c-0.2-0.8-0.6-1.8-1.2-2.4c-0.4-0.4-1-0.4-1.4,0C157.9,125,157.9,125.7,158.3,126.1L158.3,126.1z"/>
</g>
<g>
	<path d="M202.4,125.4c0.4,0.3,0.7,1.1,0.9,1.6c0.4,1.3,0.5,2.7,0.4,4c-0.1,0.6-0.2,1.2-0.4,1.7c-0.3,0.5-0.8,0.9-1.4,1
		c-0.8,0.1-1.6-0.5-2-1.2c-0.6-0.9-0.8-2-0.8-3.1s0.3-2.1,0.6-3.1c0.1-0.3,0.3-0.7,0.5-1s0.6-0.4,1.2-0.4
		C201.8,124.9,202.1,125.2,202.4,125.4L202.4,125.4z"/>
	<path d="M201.7,126.1c0.3,0.2,0.4,0.7,0.6,1.1c0.2,0.6,0.3,1.2,0.4,1.8c0.1,0.7,0.1,1.4,0,2c-0.1,0.5-0.1,1-0.5,1.4
		c-0.3,0.3-0.5,0.4-0.9,0.2c-0.4-0.2-0.7-0.7-0.9-1.1c-0.5-1.1-0.5-2.3-0.2-3.4c0.1-0.6,0.3-1.4,0.6-1.9c0.1-0.1,0.2-0.2,0.4-0.2
		C201.5,125.9,201.5,126,201.7,126.1c0.4,0.3,1,0.4,1.4,0c0.4-0.3,0.4-1.1,0-1.4c-0.4-0.3-0.7-0.6-1.2-0.7s-1-0.1-1.5,0.1
		c-0.9,0.3-1.4,1.1-1.7,2c-0.6,1.8-1,3.7-0.4,5.5c0.5,1.7,2,3.5,3.9,3.1c2-0.5,2.4-2.7,2.5-4.4c0-1.1-0.1-2.2-0.4-3.2
		c-0.2-0.8-0.6-1.8-1.2-2.4c-0.4-0.4-1-0.4-1.4,0C201.3,125,201.3,125.7,201.7,126.1L201.7,126.1z"/>
</g>
<path d="M227.5,118.4c-1.2,1.3-2.1,3-2.9,4.7c-0.3,0.6-0.2,1.5,0.5,1.8c0.6,0.3,1.5,0.2,1.8-0.5c0.7-1.3,1.3-2.6,2.2-3.8l-0.2,0.3
	c0.1-0.2,0.3-0.4,0.5-0.6c0.5-0.5,0.6-1.4,0-1.9C228.8,118,228,117.9,227.5,118.4L227.5,118.4L227.5,118.4z"/>
<path d="M227.2,149.9c6.1-1.1,10.6-5.6,12.9-11.2c0.3-0.7-0.3-1.5-0.9-1.7c-0.8-0.2-1.4,0.3-1.7,0.9c-1.9,4.7-5.9,8.4-11,9.3
	c-0.7,0.1-1.1,1-0.9,1.7C225.7,149.7,226.4,150,227.2,149.9L227.2,149.9z"/>
<path d="M175,135.9c0.3,1.9,0.4,3.9,0.1,5.8c-0.3,2-1.2,3.8-1.7,5.8c-0.4,1.8-0.4,3.7,0.7,5.3c0.9,1.4,2.4,2.5,3.9,3.2
	s2.9-1.6,1.4-2.3c-1.3-0.6-2.8-1.4-3.3-2.8c-0.7-1.6,0.2-3.4,0.7-4.9c1.2-3.5,1.6-7.1,0.9-10.7C177.3,133.4,174.7,134.2,175,135.9
	L175,135.9L175,135.9z"/>
<path d="M188.4,66.3C188.2,66.2,188.4,66.3,188.4,66.3c0.2,0.1,0.2,0.2,0.3,0.2c0.1,0.1,0.3,0.3,0.4,0.4c0.3,0.3,0.6,0.6,0.8,0.8
	c0.1,0.1,0.1,0.1,0.2,0.2c0,0,0.2,0.3,0.1,0.2c-0.1-0.1,0.1,0.1,0.1,0.1c0.1,0.1,0.1,0.2,0.2,0.3c0.2,0.3,0.4,0.7,0.6,1
	c0.2,0.3,0.3,0.7,0.5,1c0.1,0.1-0.1-0.1,0,0.1c0,0.1,0.1,0.2,0.1,0.2c0.1,0.2,0.1,0.4,0.2,0.6c0.1,0.4,0.2,0.8,0.3,1.1
	c0,0.2,0.1,0.4,0.1,0.6c0,0.1,0,0.2,0,0.3c0-0.3,0,0.1,0,0.2c0.1,0.7,0.6,1.4,1.4,1.3c0.7,0,1.4-0.6,1.4-1.3
	c-0.4-3.8-2.3-7.2-5.4-9.6c-0.6-0.4-1.5-0.1-1.8,0.5C187.5,65.2,187.8,65.9,188.4,66.3L188.4,66.3L188.4,66.3z"/>
<path d="M223.9,114.7c0.2,1.6,0.4,3.2,0.4,4.8c0,1.4,0,2.8,0.1,4.2c0.1,0.7,0.6,1.4,1.4,1.3c0.7,0,1.4-0.6,1.4-1.3
	c-0.1-1.4-0.1-2.8-0.1-4.2c0-1.6-0.2-3.2-0.4-4.8c-0.1-0.7-0.6-1.4-1.4-1.3C224.6,113.4,223.8,114,223.9,114.7
	C223.9,114.7,223.9,114.7,223.9,114.7z"/>
<path d="M196.8,75.4c4.6-0.1,8.5,1.4,11.9,4.6c2.8,2.6,5,5.8,7,9.1c1.8,2.9,3.3,6,4.6,9.2c0.6,1.6,3.2,0.9,2.6-0.7
	c-1.3-3.5-3-6.9-4.9-10.1c-2.1-3.5-4.6-6.9-7.6-9.7c-3.8-3.5-8.3-5.2-13.5-5.1C195.1,72.7,195,75.4,196.8,75.4L196.8,75.4
	L196.8,75.4z"/>
<path d="M150.3,113.2c6.3,2.9,13.1,1.6,19.5-0.3c1.7-0.5,0.9-3.1-0.7-2.6c-5.6,1.7-11.9,3.1-17.4,0.5
	C150.1,110.2,148.7,112.5,150.3,113.2L150.3,113.2L150.3,113.2z"/>
<path d="M182.4,109.6c0.5,1.8,1.4,3.5,2.6,5c0.2,0.2,0.6,0.4,0.9,0.4c0.3,0,0.7-0.2,0.9-0.4s0.4-0.6,0.4-0.9c0-0.4-0.2-0.7-0.4-0.9
	c-0.1-0.1-0.2-0.2-0.2-0.3l0.2,0.3c-0.6-0.8-1.2-1.7-1.6-2.7l0.1,0.3c-0.2-0.5-0.4-0.9-0.5-1.4c-0.2-0.7-1-1.2-1.7-0.9
	S182.2,108.9,182.4,109.6L182.4,109.6L182.4,109.6z"/>
<path d="M187.8,111.3c5.6,3.9,12.6,5.4,19.3,4.4c0.7-0.1,1.1-1,0.9-1.7c-0.2-0.8-0.9-1.1-1.7-0.9c-6,1-12.3-0.6-17.3-4.1
	C187.8,108,186.4,110.4,187.8,111.3L187.8,111.3L187.8,111.3z"/>
<path d="M167.9,171.3c3.3-2,7.6-1.7,11.4-1.3c4.1,0.4,8,1.5,11.8,3c1.6,0.7,2.3-1.9,0.7-2.6c-4.1-1.7-8.5-2.8-12.9-3.2
	c-4.1-0.4-8.6-0.4-12.3,1.7C165,169.9,166.4,172.2,167.9,171.3L167.9,171.3L167.9,171.3z"/>
<path d="M124.3,162.8c-2.6-5.2-6.1-10.8-7-16.6s1.5-11.6,4.4-16.5s6.2-9.1,9.3-13.7c2-3,4.1-6.1,5.2-9.5c1.2-3.4,1-7.5-2.7-9.1
	c-1.6-0.7-2.9,1.7-1.4,2.3c3,1.3,2.1,4.7,1,7.1c-1.8,3.8-4.2,7.4-6.6,10.9c-5.9,8.4-13.5,17.8-11.9,28.8c0.9,6.2,4.6,12.1,7.3,17.6
	C122.8,165.8,125.1,164.4,124.3,162.8L124.3,162.8L124.3,162.8z"/>
<path d="M110.8,141.6c-0.6-4.1-1-8.2,1.1-12c1.6-3,3.7-5.8,5.8-8.5c4.1-5.2,8.5-10.2,12.4-15.6c3.1-4.3,6.3-9.3,7.7-14.5
	c0.4-1.6,0.4-3.5-0.8-4.8c-1.5-1.6-3.8-1.7-5.7-0.9c-2.3,1-4.2,3-5.8,4.9c-1.2,1.4-2.4,3-3.3,4.6c-0.8,1.5,1.5,2.9,2.3,1.4
	c1.6-2.9,4.2-6.2,7-7.9c1.2-0.7,3.5-1.4,3.9,0.6c0.2,1.5-0.5,2.5-0.9,3.7c-4.4,11.4-13.7,20-20.8,29.7c-2,2.7-4.1,5.6-5.2,8.9
	c-1.2,3.6-0.7,7.5-0.1,11.3C108.5,144,111.1,143.2,110.8,141.6L110.8,141.6L110.8,141.6z"/>
<path d="M88.9,140.4c0.1-1.7,1.2-4.1,1.8-5.8c0.8-2.1,1.6-4.2,2.6-6.2c3.8-7.3,8.2-14.3,13.2-20.9c2.6-3.4,5.3-6.7,8.1-9.8
	c1.2-1.3,2.9-3.7,4.7-4.3c3.1-1.2,1.8,4.2,1.3,5.4c-2.6,8-9.7,13.4-13.8,20.5c-4.7,8.1-4.5,17.6-6.8,26.4c-0.4,1.7,2.2,2.4,2.6,0.7
	c2.3-9,2-18.7,7.1-26.8c4.8-7.5,12.7-13.6,14.1-22.8c0.3-1.7,0.2-3.6-1-5s-3.1-1.8-4.7-0.9c-1.8,0.9-3.3,2.6-4.6,4
	c-1.8,1.9-3.4,3.9-5.1,5.9c-5.8,7.1-11,14.6-15.5,22.6c-1.7,3-3.2,6-4.4,9.1c-0.9,2.4-2.3,5.3-2.4,7.9
	C86.1,142.1,88.8,142.1,88.9,140.4C88.9,140.4,88.9,140.4,88.9,140.4z"/>
<path d="M84.2,288c-2.8,25.6-0.1,51.1,4.1,76.3c1.2,7.5,1.5,15.2,1.6,22.8c0.1,9-0.2,18-0.8,27c-0.5,7.7-1,15.8-3.1,23.3
	c-0.5,1.7,2.1,2.4,2.6,0.7c1.8-6.5,2.4-13.3,2.9-20c0.7-9,1.1-18.1,1.1-27.1c0-7.9-0.1-15.9-1.1-23.7c-0.7-5.5-1.7-11-2.5-16.5
	c-0.9-6.5-1.7-13-2.3-19.6c-1.2-14.5-1.3-29,0.3-43.4C87.1,286.3,84.4,286.3,84.2,288L84.2,288L84.2,288z"/>
<path d="M264.9,437.5c-2.8-9.8-3.7-20.4-4.5-30.5c-0.9-11.5-1.5-23.2-0.5-34.7c0.6-5.8,1.8-11.6,2.9-17.4c1.1-5.9,2.1-11.8,2.9-17.8
	c1.8-13.8,1.7-27.6-0.1-41.4c-0.6-4.4-1.3-8.8-1.8-13.2c-0.6-4.9-1.6-10.2-1.1-15.1c0.2-1.7-2.5-1.7-2.7,0
	c-0.4,4.4,0.4,9.1,0.9,13.4c0.4,3.5,0.9,6.9,1.4,10.3c2.1,13.9,2.7,28,1.2,42c-1.3,12.2-4.3,24.2-6,36.4
	c-1.5,11.1-0.9,22.6-0.1,33.8c0.5,6.7,1.1,13.3,2,19.9c0.7,5,1.5,10.1,2.8,15C262.8,439.9,265.4,439.2,264.9,437.5L264.9,437.5
	L264.9,437.5z"/>
<path d="M145.6,290.5c16.5-2.6,32.8-6.9,48.4-12.8c1.6-0.6,0.9-3.2-0.7-2.6c-15.7,5.9-31.9,10.1-48.4,12.8
	C143.2,288.1,143.9,290.7,145.6,290.5L145.6,290.5z"/>
<path d="M60.9,346.2c8.4-9.7,15.1-20.7,22.9-30.9c1.1-1.4-1.3-2.7-2.3-1.4c-7.7,10-14.2,20.9-22.5,30.4
	C57.9,345.6,59.8,347.6,60.9,346.2L60.9,346.2L60.9,346.2z"/>
<path d="M250.8,109.6c2.6,1.8,4.9,4.3,7,6.7c2.7,3.1,5.3,6.3,7.7,9.7c2.1,2.9,4.2,6,5.8,9.2c1.4,2.7,1.4,5.8,2.2,8.6
	c2.5,8.4,0.9,17.3-0.5,25.8c-0.7,4.2-1.4,8.4-1.9,12.6c-0.4,3.4-0.7,7,0,10.5c0.3,1.7,1.4,3,2.3,4.4c1.9,3,3.9,6,5.8,9
	c6.1,9.6,12.2,19.1,18.2,28.8c6.3,10.1,12.6,20.2,18.7,30.5c2.2,3.7,4.4,7.4,6.4,11.2c0.7,1.3,1.3,2.5,1.9,3.8
	c0.3,0.6,0.4,1.2,0.7,2c0.4,1,1.1,1.9,1.6,2.9c1.4,2.3,2.6,4.7,3.9,7c3.5,6.5,6.9,13.2,9.5,20.2c2.5,6.7,3.6,13.5,3.3,20.6
	s-2.4,15.2-8.1,20.3c-6.8,6.1-16.8,7-24.9,3.1c-7-3.4-12.6-9.4-16.4-16.1c-3.6-6.4-6.4-13.4-9.1-20.2c-2.3-5.8-4.4-11.6-6.4-17.5
	c-0.3-0.9-0.6-1.9-1-2.8c-0.5-1.6-3.1-0.9-2.6,0.7c3.6,11,7.6,21.8,12.4,32.4c2.9,6.6,6.2,12.9,11.3,18.1c6,6.2,14.1,10.9,23,10.5
	c8.4-0.4,16.2-4.9,20.3-12.2c3.8-6.7,4.6-14.9,4.1-22.4c-0.4-7.3-2.6-13.9-5.5-20.6c-2.9-6.6-6.2-13.1-9.8-19.4
	c-1-1.7-1.9-3.4-3-5.1c-0.1-0.1-0.2-0.3-0.2-0.4c-0.1-0.3,0.2,0.4,0,0c-0.1-0.4-0.2-0.7-0.3-1c-1.1-2.9-2.6-5.5-4.1-8.2
	c-5.4-9.7-11.2-19.1-17-28.5c-6.6-10.6-13.2-21.2-20-31.7c-4-6.2-8-12.5-12-18.7c-0.5-0.8-0.5-0.9-0.6-1.8c-0.6-3.6-0.1-7.4,0.4-11
	c1.2-8.9,3.3-17.7,3.6-26.6c0-2,0-3.9-0.3-5.9c-0.3-2.1-0.9-3.9-1.4-5.9c-0.7-3.2-1.1-6.1-2.6-9c-3.7-7-8.8-13.5-14.1-19.3
	c-2.1-2.3-4.4-4.7-7-6.5C250.7,106.2,249.4,108.6,250.8,109.6L250.8,109.6L250.8,109.6z"/>
<path d="M253.5,157.4c-1.3,5-4.2,9.3-5.7,14.2s-1.9,10.1-1.3,15.2c0.2,1.7,2.9,1.7,2.7,0c-0.6-5.1-0.2-10.1,1.4-15
	c1.5-4.7,4.3-8.9,5.6-13.7C256.6,156.4,254,155.7,253.5,157.4L253.5,157.4L253.5,157.4z"/>
<path d="M234.4,163.3c1.1-2.4,1.9-4.9,3.1-7.2c1.2-2.4,2.3-4.9,3-7.6c1.2-5.1,0.3-10.3-1.8-15.1c-4.1-9.5-11.6-16.9-16.2-26.1
	c-1.2-2.5-2.4-6.2,0.8-7.5c1.6-0.7,0.2-3-1.4-2.3c-7.2,3.1-1.3,12.5,1.3,16.6c5.7,9.1,15.1,18.3,15.1,29.6c0,3.4-1.1,6.6-2.5,9.6
	c-1.3,2.8-2.4,5.8-3.7,8.6C231.4,163.4,233.7,164.8,234.4,163.3L234.4,163.3L234.4,163.3z"/>
<path d="M247.3,142.3c0.5-3.2,0.9-6.5,0.3-9.8c-0.6-3.2-2.5-5.9-4.4-8.6c-3.4-4.9-7.3-9.4-11.1-14.1c-3.8-4.7-7.4-9.5-10-15
	c-0.6-1.3-1.1-2.6-1.6-3.9c0.1,0.2,0.1,0.2,0-0.1c-0.1-0.3-0.2-0.7-0.3-1c-0.3-1.8,1-2.8,2.7-2.2c2.1,0.7,3.7,2.7,5.1,4.3
	c1.1,1.3,2.2,2.7,3,4.2c0.8,1.5,3.1,0.2,2.3-1.4c-1.7-3.3-4.7-6.8-7.8-8.8c-1.7-1.1-3.7-1.7-5.6-0.8c-1.9,0.8-2.6,2.7-2.4,4.7
	c0.2,1.7,1,3.3,1.6,4.9c1.3,3.1,3,6,4.9,8.8c3.7,5.5,8.1,10.4,12.2,15.5c2.4,3,4.8,6.1,6.8,9.5c2.5,4.2,2.4,8.3,1.7,13
	C244.4,143.3,247,144,247.3,142.3L247.3,142.3L247.3,142.3z"/>
<path d="M269.3,140.4c-0.1-2.3-1.3-4.8-2.1-6.9c-0.9-2.5-1.9-4.9-3.2-7.3c-4.3-8.2-9.4-16-15.2-23.2c-2.8-3.6-5.7-7.3-9.1-10.3
	c-1.3-1.1-2.8-2.5-4.6-2.4c-2,0.2-3.4,2-3.7,3.9c-0.6,3.9,1.8,8.4,3.8,11.6c2.5,3.9,5.8,7.3,8.5,11c3.1,4.2,5.1,8.8,6.1,13.9
	c1.1,5.2,1.5,10.4,2.8,15.5c0.4,1.7,3,1,2.6-0.7c-2-7.8-2-16.1-5.3-23.6c-3.3-7.5-10.1-12.8-13.9-20c-0.9-1.8-1.7-3.8-2-5.9
	c-0.1-1.1-0.2-2.9,1.2-3c1.1-0.1,2.1,1.2,2.9,1.9c3,2.8,5.7,6.2,8.3,9.4c5.3,6.6,9.9,13.6,14,21c1.4,2.6,2.7,5.2,3.8,8
	c0.8,2.1,2.1,4.8,2.2,6.9C266.7,142.1,269.4,142.1,269.3,140.4L269.3,140.4L269.3,140.4z"/>
<path d="M296.5,344.3c-9.6-11-18.1-23.1-25.8-35.5c-0.9-1.5-3.2-0.1-2.3,1.4c7.8,12.6,16.5,24.8,26.2,36
	C295.7,347.5,297.6,345.6,296.5,344.3L296.5,344.3L296.5,344.3z"/>
<path d="M198,71.6c7.6-4.8,12.6-12.8,15-21.4c0.5-1.7-2.1-2.4-2.6-0.7c-2.2,7.8-6.8,15.3-13.8,19.7C195.2,70.2,196.6,72.5,198,71.6
	L198,71.6L198,71.6z"/>
<path d="M214.4,42.6c-8.4-8.3-20.1-12.9-31.6-14.7c-12.3-2-25.9-1-37.1,4.9c-3.1,1.6-6,3.7-8.9,5.7c-2.7,1.9-5.3,3.8-7.8,6
	c-6.2,5.3-11.4,11.7-15.1,19c-5.9,11.6-7.8,24.6-7.5,37.5c0,1.7,2.7,1.7,2.7,0c-0.3-11.3,1.1-22.7,5.7-33.1c3.2-7.4,8-14,13.9-19.5
	c4.3-4,9.1-7.3,13.9-10.6c10.1-6.8,22.8-8.9,34.8-7.8c12.6,1.1,25.9,5.5,34.9,14.5C213.8,45.7,215.7,43.8,214.4,42.6L214.4,42.6
	L214.4,42.6z"/>
<path d="M213.8,44.8c4.7-1,9.9,1.5,13.9,3.8s7.2,4.6,10.1,7.9c8.2,9.2,13.3,20.5,13.8,32.8c0.2,5.5-0.4,10.9-1.6,16.2
	c-0.4,1.7,2.2,2.4,2.6,0.7c2.3-10.9,2.5-22.2-1.4-32.8c-4-10.9-11.4-20.9-21.5-26.7c-4.9-2.8-11-5.7-16.8-4.4
	C211.4,42.6,212.1,45.2,213.8,44.8L213.8,44.8L213.8,44.8z"/>
<path d="M126.7,123.2c14.3-4,20.3-20.2,24.7-32.8c1.3-3.7,2.6-7.4,4.4-10.8c1.8-3.4,4.3-6.3,7.2-8.8c3.1-2.6,6.9-4.7,11.1-4.7
	c0.7,0,1.4,0,2.1,0c0,0-0.2,0,0.2,0c0.3,0,0.6,0,0.9,0c5.8,0.2,8.9,6.2,10.4,11.1c0.5,1.7,3.1,0.9,2.6-0.7
	c-1.6-5.3-4.7-11.1-10.5-12.7c-1.2-0.3-2.6-0.5-3.8-0.3c-0.6,0.1-0.7,0-1.3,0c-2-0.2-4.3,0.3-6.1,1c-7.4,2.7-13.1,9.3-16.3,16.3
	c-3.3,7.2-5.1,15-8.7,22.1c-3.8,7.5-9.1,15.3-17.6,17.7C124.3,121.1,125,123.7,126.7,123.2L126.7,123.2L126.7,123.2z"/>
<path d="M172.2,66.3c1.7-0.6,3.6-0.1,5,1.1c1.6,1.4,2.6,3.2,3.6,5.1c0.3,0.7,1.2,0.8,1.8,0.5c0.7-0.4,0.8-1.2,0.5-1.8
	c-1.1-2.3-2.4-4.5-4.4-6s-4.7-2.3-7.2-1.5c-0.7,0.2-1.1,0.9-0.9,1.7C170.7,66.1,171.5,66.6,172.2,66.3L172.2,66.3L172.2,66.3z"/>
<path d="M154.5,188.6l-1.6,3.7c0,0,11.2,12.9,23.7,12.9c10.5,0,29.5-14.2,29.5-14.2s-14,10-24.5,9.2
	C171,199.4,158.3,194.7,154.5,188.6L154.5,188.6z"/>
</svg>
