<?xml version="1.0" encoding="utf-8"?>
<!-- Generator: Adobe Illustrator 28.0.0, SVG Export Plug-In . SVG Version: 6.00 Build 0)  -->
<svg version="1.1" id="Layer_1" xmlns="http://www.w3.org/2000/svg" xmlns:xlink="http://www.w3.org/1999/xlink" x="0px" y="0px"
	 viewBox="0 0 292.7 448.9" style="enable-background:new 0 0 292.7 448.9;" xml:space="preserve">
<style type="text/css">
	.st0{fill:#785756;}
	.st1{fill:#FFFFFF;}
	.st2{fill:#FEC3AA;}
</style>
<path class="st0" d="M74.3,166.7c0,0-7.8-6.4-6.3-16.1s10.5-28.1,14.8-34.6c4.3-6.5,11.7-21.4,12.6-25.4s3.7-23.9,9.1-36.4
	s21.2-32.2,39-40.7s42.7-9.9,61.2-2.7c18.4,7.2,32.8,27.4,35.6,40.6s3.3,28.7-2.7,38.4s-14.6,12.4-14.6,12.4l-1.8,9.7
	c0,0,7.2,9.6,10,19.3s0.4,20.4-4.6,26.7c-4.9,6.3-11.5,8.7-11.5,8.7S95.1,201.5,74.3,166.7L74.3,166.7z"/>
<path class="st1" d="M97.4,160.3l-39.8,12.8c0,0-20.6,8.2-27.5,19.3c-6.8,11.1-8.7,25.9-9.2,31.6s4.4,29.8,10.3,41.4
	c5.9,11.6,25.3,41.1,25.3,41.1s14.9,46.2,15.8,51.9s7.8,36.1,8,47.6s-2.5,38.6-2.5,38.6h159.2l-5.8-59.8c0,0-2.3-26.1-1.6-31.6
	c0.7-5.5,3.7-36,4-37.9c0.3-1.9,1.5-11.7,1.5-11.7s15.4-2.9,23.6-5.4s11.8-7.7,11.8-7.7s-4.2-33.6-7.6-45.5
	c-3.5-11.9-10.5-43.2-11.7-46.6s-4.2-22.2-15.7-29.9c-11.4-7.7-29-7.5-34.2-8.5c-5.2-1.1-21-2.6-21-2.6s4.9,5.9,5.4,14.9
	c0.5,9-12.8,17.9-15.9,18.8c-3.1,0.9-12.2,5.2-27,2.6c-14.8-2.6-27.7-10.7-33.2-16c-5.5-5.3-9.3-18.7-9.3-18.7L97.4,160.3
	L97.4,160.3z"/>
<path class="st2" d="M116.9,184.2c0,0-13-7.9-16.1-23.9c0,0-4.3-7.3-5.8-13c0,0-3.3-8.3-1.2-11.4c2.1-3.1,5.4,0,5.4,0
	s-0.4-5.6,0.6-8.3s1.8-2.2,1.8-2.2s0.2-6.2,3.7-7.8s4.2-1.5,4.2-1.5s-0.4-1.6,2.9-4.6c3.3-3.1,5.1-2.6,5.1-2.6s3.2-2.5,6.8-3.4
	s4.5,0.8,4.5,0.8s-3.3-6.7-3.2-12.6c0.1-5.9,3.6-10.4,7-11.3c3.5-0.9,6.8,1.7,8.9,4c0,0,6-1.6,13.6-12.8
	c7.6-11.2,12.7-21.5,23.4-28.8s28.8-1.5,28.8-1.5s8.1-3.6,16.2,3.7c8.1,7.3,9.4,22.4,7.6,27c-1.8,4.6-3.4,10.1-3.4,10.1l-6.6,27.8
	c0,0-4.6,17.7-13.2,24.7c-8.6,7-16,13.1-20.3,14.4c-4.3,1.4-16.7-1.1-16.7-1.1v2.3c0,0,11.1,7,12.5,9.5s5.4,11.2-2.8,21.2
	c-8.2,9.9-19.6,11.1-28.4,11.7l2.1,46.5c0,0,1.2,50.4,1.6,58.8s-1.4,33.6-4.9,42.5c-3.5,8.9-11.6,18.5-29.9,17.9
	c-18.3-0.6-38-20.8-41-23.8s-6-8.8-6-8.8s5.3-6.1,11.2-11.6s18.6-19.6,18.6-19.6s1.8-30.2,3.8-37.6c2-7.4,7.7-45.3,9.2-51.4
	S116.9,184.2,116.9,184.2L116.9,184.2z"/>
<path class="st2" d="M266.5,293.3c0.7-0.7,4.1,31.9,3.8,39.1c-0.3,7.2,0,20.4,0,20.4s4.2,26.9,4.7,36.6c0.5,9.7,0.7,55.2,0.7,55.2
	h-38.8l-4.7-48.4c0,0-2.2-30.5-2.8-38.4c-0.6-7.8,4.4-45.6,4.4-45.6l1.2-8.6C234.9,303.5,257.6,301.8,266.5,293.3L266.5,293.3z"/>
<path d="M32,66.1c3.8,5.8,7.4,12.1,12.3,17.1c0.9,0.9,2,2,3.4,1.7c1.3-0.3,1.7-1.6,2.1-2.7c0.8-2.4,1-5.7,3.2-7.4l-2-0.8
	c2.2,5.6,5,10.9,8.6,15.8c1,1.4,3.3,0.1,2.3-1.4c-3.4-4.7-6.2-9.7-8.3-15.1c-0.3-0.7-1.2-1.4-2-0.8c-1.8,1.4-2.8,3.3-3.5,5.5
	c-0.3,1.1-0.6,2.2-0.9,3.3c0,0.1-0.2,0.8-0.3,0.9c-0.1,0.2-0.1,0.2-0.1,0c0-0.2-0.1-0.4-0.3-0.5c-0.5-0.6-1-1.1-1.5-1.6
	c-4.2-4.6-7.3-10.1-10.7-15.3C33.4,63.3,31.1,64.7,32,66.1L32,66.1L32,66.1z"/>
<path d="M17.3,152.4c3.9-1.9,7.9-3.9,11.8-5.9c1.8-0.9,3.5-1.9,5.4-2.5c0.3,0,0.3-0.1,0-0.2l-0.2,0.6c-0.2,0.4-0.3,1-0.4,1.4
	c-0.3,1.1-0.6,2.1-1,3.1s1,2.2,2,1.5c5.6-3.8,11.6-6.9,17.9-9.5c1.6-0.6,0.9-3.3-0.7-2.6c-6.5,2.7-12.7,5.9-18.5,9.8l2,1.5
	c0.4-1.3,0.8-2.7,1.2-4c0.3-1,0.8-2.1,0.3-3.1c-0.8-1.8-3.2-1.3-4.6-0.7c-5.6,2.6-11,5.5-16.5,8.2C14.4,150.8,15.8,153.1,17.3,152.4
	L17.3,152.4L17.3,152.4z"/>
<path d="M18.8,104.1c5.4,3.1,10.9,6.1,16.4,8.9c1,0.5,2.4-0.3,2-1.5c-0.6-1.8-1.4-3.5-2.3-5.2l-1.5,2c6.8,2.3,13.5,4.7,20.2,7.2
	c1.6,0.6,2.3-2,0.7-2.6c-6.7-2.5-13.4-4.9-20.2-7.2c-1.2-0.4-2.1,1-1.5,2c0.8,1.5,1.5,3,2.1,4.6l2-1.5c-5.6-2.8-11-5.8-16.5-8.9
	C18.7,101,17.3,103.3,18.8,104.1L18.8,104.1L18.8,104.1z"/>
<path d="M119.1,188.6c-0.1-4.4-2.2-8.6-4.2-12.4c-2.3-4.2-4.9-8.2-7.8-12c-2.5-3.2-5.7-5.9-7.8-9.5c-1.2-2.1-2-4.3-2.6-6.6
	c-0.8-2.8-1.9-5.9-2.2-8.9c-0.1-1.1-0.2-2.7,1.2-2.8c1.7-0.2,2.7,2,3.3,3.2c1.7,3.4,3.3,6.8,5.2,10.1c0.8,1.5,3.2,0.2,2.3-1.4
	c-1.7-3.2-3.3-6.5-4.9-9.7c-1.2-2.3-3-5.2-6.1-4.9c-2.8,0.3-3.8,2.7-3.7,5.3c0.2,3.2,1.4,6.5,2.3,9.6c0.7,2.5,1.5,5,2.8,7.2
	c1.4,2.4,3.3,4.4,5.3,6.5c3,3.1,5.4,6.9,7.7,10.6c2.8,4.5,6.4,10.1,6.5,15.6C116.5,190.4,119.2,190.4,119.1,188.6L119.1,188.6
	L119.1,188.6z"/>
<path d="M101.2,138.1c-1.3-2.1-1.8-4.5-1.2-6.9c0.2-1,0.6-1.9,1.1-2.7s1.7-1.6,2-2.5c0.2-0.8-0.1-1.6,0.1-2.4c0.2-1,0.7-1.9,1.2-2.8
	c1-1.8,2.8-3.6,5-3.2c0.9,0.2,1.7-0.4,1.7-1.3c0.1-1.7,1.5-3.2,2.6-4.4c1.3-1.3,2.8-1.8,4.5-0.9c0.8,0.4,1.7,0,2-0.8
	c0.7-2.1,3.3-3.3,5.4-3.2c2.2,0,3.9,1.6,5.1,3.3c1.2,1.8,2.3,3.9,3.2,6c1,2.3,1.5,4.9,2.4,7.2c1.8,4.9,4.3,9.5,6.2,14.3
	c2,4.9,3.6,9.9,4.8,15.1c1.4,6,2.3,12.2,2.6,18.4c0.1,1.7,2.8,1.7,2.7,0c-0.7-12.2-3.4-24.3-8.2-35.6c-2.4-5.7-5.3-11.2-7-17.2
	c-0.7-2.5-1.8-4.7-3-6.9s-2.3-4.3-4.4-5.7c-4.1-3-10.8-1.3-12.5,3.7l2-0.8c-2.2-1.3-5-1.1-7,0.6s-4.1,4.3-4.2,7l1.7-1.3
	c-3-0.5-5.4,0.8-7.2,3.2c-1.6,2.1-2.9,5.1-2.3,7.7l0.3-1.3c-4.2,3.9-4.9,10-1.9,14.9C99.7,140.9,102.1,139.5,101.2,138.1
	L101.2,138.1L101.2,138.1z"/>
<path d="M169.6,150.2c-0.6,2.9-0.9,5.7-0.9,8.6c0,3.3,0.5,6.7,2.4,9.4c0.4,0.6,1.2,0.9,1.8,0.5c0.6-0.3,0.9-1.2,0.5-1.8
	c-1.7-2.4-2.1-5.4-2.1-8.3c0-2.6,0.3-5.1,0.8-7.6C172.5,149.3,169.9,148.5,169.6,150.2L169.6,150.2L169.6,150.2z"/>
<path d="M169.9,152.3c5.3,5.4,12.3,7.7,19.7,8.3c7,0.6,14,0.8,21,1.3c7.1,0.5,14.6,2,20.9,5.6s10.7,9.8,13.8,16.1
	c1.1,2.3,2.3,4.8,2.8,7.3c0.4,1.7,0.7,3.4,1,5.1c0.9,4.4,1.7,8.9,2.7,13.3c2.7,12.7,6.5,25,10,37.5c4.1,14.6,6.3,29.5,7.2,44.6
	l0.4-1c-0.2,0.2,0.2-0.1,0,0c-0.2,0.1-0.3,0.2-0.5,0.4c-0.6,0.5-1.3,0.9-1.9,1.3c-2.2,1.5-4.6,2.8-7,3.9c-7.8,3.7-16.4,5.7-25,5.7
	c-1.7,0-1.7,2.7,0,2.7c8.8,0,17.5-2.1,25.5-5.7c2.6-1.2,5.1-2.5,7.5-4.1c1-0.7,2.4-1.4,3.3-2.3c0.3-0.3,0.4-0.6,0.4-1
	c0.2-1.4-0.2-3.1-0.3-4.5c-0.2-2.5-0.4-5.1-0.7-7.6c-0.5-4.5-1-9-1.8-13.4c-1.2-7.2-3-14.3-5-21.4c-4.2-14.9-8.4-29.7-11.4-44.9
	l-1.6-8.1c-0.5-2.6-1.4-5.1-2.5-7.5c-3.5-7.8-9.1-15.6-16.9-19.5c-7.7-3.8-15.8-4.8-24.2-5.5c-5.1-0.4-10.3-0.6-15.4-0.9
	c-5-0.3-9.8-0.9-14.3-3.3c-2.2-1.1-4.1-2.6-5.9-4.4C170.6,149.2,168.7,151.1,169.9,152.3L169.9,152.3L169.9,152.3z"/>
<path d="M116.4,188.6c0.6,16-2.3,31.8-5.4,47.4c-3.1,15.7-6.6,31.3-7.7,47.3c-0.6,8.6-0.4,17.3,1.1,25.8c0.3,1.7,2.9,1,2.6-0.7
	c-2.7-15.4-0.9-31.3,1.7-46.6c2.8-15.9,6.6-31.6,8.8-47.6c1.2-8.4,1.9-17,1.6-25.5C119,186.9,116.3,186.9,116.4,188.6L116.4,188.6
	L116.4,188.6z"/>
<path d="M149.8,171.2c0.7,29.6,3,59.1,4.2,88.6c0.6,14.8,0.9,29.5,0.6,44.3c-0.2,7.2-0.2,14.5-0.9,21.7s-2.3,14-5.6,20.1
	c-4.1,7.4-10.8,12.1-19.2,12.9c-9.2,0.9-18.5-1.8-26.6-6c-9.2-4.8-17.5-11.7-23.3-20.3c-0.7-1-1.3-1.9-1.9-2.9
	c-0.3-0.5-0.6-1.1-0.9-1.6c-0.2-0.3-0.1,0-0.1-0.1c0-0.1,0.1-0.3,0.2-0.6c0.2-0.5,0.6-0.9,0.9-1.4c2.1-2.7,4.7-4.9,7.2-7.1
	c6.3-5.7,13.1-11.1,18.3-18c1-1.3,1.9-2.7,2.6-4.1c0.7-1.6-1.6-2.9-2.3-1.4c-1.6,3.5-4.3,6.4-7,9.2c-3.2,3.3-6.7,6.4-10.1,9.5
	c-3,2.7-6.1,5.3-8.8,8.2c-1.4,1.5-3.7,3.7-3.6,5.9c0.1,1.9,1.9,4,3,5.5c1.4,2.1,3,4.2,4.7,6.2c3.5,4.1,7.6,7.7,12,10.8
	c8.1,5.7,17.7,9.9,27.6,11c8.5,1,17.6-0.6,24-6.6c5.9-5.5,8.9-13.5,10.6-21.2c0.9-4.4,1.3-8.8,1.4-13.2c0.2-7.6,0.7-15.1,0.7-22.7
	c0.1-7.7,0-15.3-0.2-23c-0.8-30.8-3.3-61.5-4.4-92.2c-0.1-3.8-0.2-7.6-0.3-11.4C152.5,169.5,149.8,169.5,149.8,171.2L149.8,171.2
	L149.8,171.2z"/>
<path d="M75.8,327.5c-12.7-14.2-24.5-29.2-34.3-45.6c-9.7-16.1-17.8-34.2-19.1-53.2c-0.3-4.9-0.2-9.9,0.9-14.7
	c0.5-2.1,1.3-4.1,1.8-6.1c0.1-0.3,0-0.3,0-0.1c0.4-2.5,1.1-5,2.1-7.3c4.9-11.7,15.5-19.9,27-24.6c9.3-3.8,19.1-6.6,28.8-9.5
	c6.1-1.8,12.3-3.4,18.2-5.8c1.6-0.6,0.9-3.2-0.7-2.6c-5.2,2.1-10.8,3.6-16.2,5.2c-8.7,2.6-17.2,5.2-25.8,8.2
	c-13.2,4.7-25.7,12.1-32.4,24.9c-1.6,3-2.9,6.3-3.5,9.6c-0.1,0.6-0.1,1.4-0.3,2c-0.5,2-1.4,3.9-1.8,6c-0.5,2.4-0.8,4.8-0.9,7.2
	c-1.1,19.3,6.5,38.6,15.6,55.3c9.4,17.2,21.4,33.1,34.2,47.9c1.5,1.7,3,3.4,4.5,5.1C75,330.7,76.9,328.8,75.8,327.5L75.8,327.5
	L75.8,327.5z"/>
<path d="M68.9,208.2c11.5,19,24.8,36.8,37.2,55.3c1,1.4,3.3,0.1,2.3-1.4c-12.4-18.4-25.6-36.3-37.2-55.3
	C70.3,205.4,68,206.7,68.9,208.2L68.9,208.2L68.9,208.2z"/>
<path d="M177.8,158.1c3.9,2.8,6.8,6.7,6.9,11.7c0,3.9-1.5,7.6-3.7,10.8c-6,9-18.1,13.3-28.6,12.9c-1.7-0.1-1.7,2.6,0,2.7
	c9.8,0.4,20.1-3,27.3-9.9c5-4.8,8.6-12.2,7.4-19.2c-0.8-4.9-4-8.6-7.9-11.3C177.7,154.7,176.4,157.1,177.8,158.1L177.8,158.1
	L177.8,158.1z"/>
<path d="M99.5,160.7c1.7,9.7,8,18.5,15.6,24.4c1.3,1.1,3.3-0.8,1.9-1.9c-7.3-5.7-13.3-14-14.9-23.2C101.8,158.3,99.2,159,99.5,160.7
	L99.5,160.7L99.5,160.7z"/>
<path d="M204,178.1c4.2,21.2,10.8,42.6,21.1,61.7c2.6,4.8,5.3,9.6,7,14.8s2.7,10.5,3.1,15.8c0.6,8.2,0.2,16.4-0.7,24.5
	c-1.3,12.8-3.1,25.5-4.8,38.2c-0.4,3-1,6-1.2,9.1c-0.6,10.8-0.6,21.6,0,32.3c1.1,20.6,4.1,41,6.1,61.6c0.3,2.8,0.5,5.6,0.8,8.5
	c0.1,1.7,2.9,1.7,2.7,0c-1.8-20.9-4.9-41.7-6.5-62.7c-1.1-15-1.9-30.4,0.2-45.4c1.7-12.5,3.4-25,4.8-37.5c2-17.4,2.9-35.7-4.9-51.9
	c-2.3-4.9-5.1-9.5-7.5-14.4s-4.6-10.1-6.5-15.3c-3.9-10.4-7.1-21-9.6-31.8c-0.6-2.7-1.2-5.4-1.8-8.1
	C206.3,175.7,203.7,176.4,204,178.1L204,178.1L204,178.1z"/>
<path d="M107,417c27.8-8.6,54.4-20.9,78.8-36.6c7-4.5,13.8-9.3,20.4-14.4c1.4-1,0-3.4-1.4-2.3c-23.1,17.6-48.6,32-75.6,42.7
	c-7.6,3-15.2,5.7-23,8C104.6,415,105.3,417.5,107,417L107,417L107,417z"/>
<path d="M55.1,306.8c3.8,13.6,9,26.7,12.7,40.3c5.5,20.2,10.5,40.5,11.1,61.5c0.3,11.7-0.5,23.4-2.4,34.9c-0.3,1.7,2.3,2.4,2.6,0.7
	c3.5-20.8,3.4-42-0.3-62.7c-3.2-17.7-8.1-35.2-13.7-52.3c-2.5-7.7-5.2-15.4-7.4-23.2C57.2,304.4,54.6,305.1,55.1,306.8L55.1,306.8
	L55.1,306.8z"/>
<path d="M277.1,444.5c0-25.3-0.1-50.8-3-75.9c-0.3-2.8-0.7-5.6-1.1-8.4c-0.3-2.2-1.1-4.7-1.3-6.7c-0.2-1.7-0.1-3.5-0.1-5.2
	c-0.2-9.3-0.5-18.5-1-27.8c-0.3-5.4-0.6-10.7-1.1-16.1c-0.3-3.2-0.4-6.9-1.7-9.9c-0.7-1.6-3.3-0.9-2.6,0.7c1,2.5,1.2,5.4,1.5,8
	c0.5,4.6,0.8,9.3,1.1,14c0.5,9.6,0.9,19.1,1.1,28.7c0.1,2.4,0,4.8,0.2,7.1c0.1,1.2,0.5,2.5,0.7,3.7c0.5,2.6,0.9,5.1,1.2,7.7
	c1.7,13,2.4,26.3,2.8,39.4c0.5,13.5,0.7,26.9,0.6,40.4C274.4,446.3,277.1,446.3,277.1,444.5L277.1,444.5L277.1,444.5z"/>
<g>
	<path d="M135.4,115.7c-0.2,0.9-0.4,1.8-0.6,2.8c-0.1,0.3-0.1,0.7,0.1,1c0.2,0.3,0.5,0.6,0.8,0.6c0.4,0.1,0.7,0.1,1-0.1
		c0.3-0.2,0.5-0.5,0.6-0.8c0.2-0.9,0.4-1.8,0.6-2.8c0.1-0.4,0.1-0.7-0.1-1c-0.2-0.3-0.5-0.6-0.8-0.6c-0.4-0.1-0.7-0.1-1,0.1
		C135.8,115.1,135.5,115.3,135.4,115.7L135.4,115.7z"/>
	<path d="M144.8,123.8c0.6,1.8,1.6,3.6,2.7,5.2c2.9,4.7,6.5,8.9,10.4,12.8c4,4.1,8.6,7.9,13.9,10.1c4.1,1.7,8.4,2.2,12.8,1.6
		c3.8-0.5,7.1-2.5,10.2-4.6c3.5-2.4,6.9-5,10.1-7.8c6-5.2,11.5-11.2,14.6-18.7c1.2-2.8,2.2-5.6,2.9-8.5c0.8-3.7,1.3-7.4,2.1-11.1
		c1.6-7.9,3.8-15.6,6.4-23.2c0.6-1.6-2-2.3-2.6-0.7c-2.2,6.3-4,12.6-5.5,19.1c-1.4,5.9-1.9,12.1-3.7,18c-2.4,8-7.1,15.1-13.3,20.7
		c-5.4,4.9-11.4,10.4-18.3,13.2c-8.6,3.5-17.5-1.1-23.9-6.7c-4.8-4.2-9.3-9.1-12.8-14.5c-0.9-1.4-1.8-2.8-2.5-4.3
		c-0.4-0.7-0.5-1-0.7-1.5C146.9,121.4,144.3,122.1,144.8,123.8L144.8,123.8L144.8,123.8z"/>
	<path d="M144.8,89.3c-2.1-4.5-6.2-9.4-11.8-8.2c-5,1.1-7.8,7-8.4,11.6c-0.7,5.3,0.7,10.7,3.7,15.2c3,4.4,7,8.9,12.2,10.4
		c1.7,0.5,2.4-2.1,0.7-2.6c-4.2-1.2-7.6-5-10.1-8.5s-4.1-7.6-4-12.1c0.1-3.8,1.5-8.8,5.1-10.9c4.7-2.7,8.6,2.7,10.2,6.3
		C143.2,92.2,145.5,90.8,144.8,89.3L144.8,89.3L144.8,89.3z"/>
	<path d="M132.5,92c0.9-0.2,1.7,0.7,2.2,1.3c0.7,0.9,1.3,1.8,1.8,2.8c1.1,2,1.8,4.2,2.2,6.5c0.1,0.7,1,1.1,1.7,0.9
		c0.8-0.2,1.1-0.9,0.9-1.7c-0.5-2.7-1.5-5.4-2.9-7.8s-3.5-5.2-6.7-4.7c-0.7,0.1-1.1,1-0.9,1.7C131.1,91.8,131.8,92.1,132.5,92
		L132.5,92L132.5,92z"/>
	<path d="M138,95.7c-1.3,0.2-2.4,0.9-3,2.1c-0.6,1-0.8,2.1-0.8,3.2c-0.1,2.1,0.9,4.3,2.5,5.6c0.6,0.5,1.4,0.6,1.9,0
		c0.5-0.5,0.6-1.4,0-1.9c-0.2-0.1-0.3-0.3-0.4-0.4c-0.1-0.1-0.1-0.1-0.2-0.2c0,0-0.2-0.3-0.1-0.1s-0.1-0.2-0.1-0.2
		c-0.1-0.1-0.1-0.1-0.1-0.2c-0.1-0.2-0.2-0.3-0.3-0.5c0,0-0.1-0.3-0.1-0.2c0.1,0.1,0-0.1,0-0.1c-0.1-0.2-0.1-0.4-0.2-0.6
		c0-0.2-0.1-0.3-0.1-0.5c0,0.2,0,0.1,0-0.1c0-0.1,0-0.2,0-0.3c0-0.2,0-0.4,0-0.5c0-0.1,0-0.2,0-0.3c0,0.1,0,0.1,0,0
		c0-0.2,0.1-0.4,0.1-0.6c0-0.1,0.1-0.2,0.1-0.2c0,0,0.1-0.3,0.1-0.2s0.1-0.2,0.1-0.2c0.1-0.1,0.1-0.2,0.2-0.3s0.1-0.2,0.2-0.3
		c-0.1,0.1,0,0,0,0c0.1-0.1,0.1-0.2,0.2-0.2c0.2-0.1-0.2,0.2,0.1-0.1c0.1-0.1,0.1-0.1,0,0c0,0,0.4-0.1,0.1-0.1
		c0.7-0.1,1.4-0.6,1.4-1.3C139.3,96.3,138.7,95.6,138,95.7L138,95.7L138,95.7z"/>
	<path d="M202.2,95.1c0.9,3.4,1.8,6.9,2.7,10.3c0.2,0.8,0.6,1.7,0.4,2.5c-0.1,0.7-0.5,1.3-0.9,1.8c-0.9,1.2-2,2.2-3.3,3
		c-1.5,0.9-0.1,3.2,1.4,2.3c2.9-1.8,6.1-4.8,5.4-8.5c-0.3-2-1-3.9-1.5-5.9c-0.6-2.1-1.1-4.2-1.6-6.2
		C204.4,92.7,201.8,93.5,202.2,95.1L202.2,95.1L202.2,95.1z"/>
	<g>
		<path d="M213.1,92.6c-0.4,0.2-0.8,0.8-1,1.2c-0.5,1-0.9,2.2-1,3.3c0,0.5-0.1,1,0.1,1.5c0.2,0.5,0.5,0.9,1,1.1
			c0.7,0.2,1.4-0.2,1.9-0.7c0.6-0.7,1-1.6,1.1-2.4c0.1-0.9,0.1-1.8-0.1-2.7c-0.1-0.3-0.1-0.6-0.3-0.9s-0.4-0.4-0.9-0.6
			C213.7,92.3,213.4,92.5,213.1,92.6L213.1,92.6z"/>
		<path d="M212.6,91.8c-0.6,0.4-1,1-1.3,1.6c-0.4,0.7-0.7,1.5-0.9,2.3c-0.4,1.5-0.6,3.5,0.8,4.6c1.5,1.2,3.3,0.3,4.3-1.1
			s1.1-3,0.9-4.6c-0.1-0.9-0.2-1.8-0.9-2.5c-0.4-0.3-0.8-0.5-1.3-0.6C213.5,91.3,213.1,91.5,212.6,91.8c-0.5,0.2-0.6,0.9-0.4,1.4
			c0.3,0.5,0.9,0.6,1.4,0.4c0,0,0.2-0.1,0.2-0.1c0,0,0.2,0,0.1,0c-0.1,0,0,0,0,0c0.1,0.1,0,0,0,0c0,0,0.1,0.1,0.1,0.1c0.1,0,0,0,0,0
			c0,0,0.1,0.1,0.1,0.1c0,0,0.1,0.1,0,0c-0.1-0.1,0.1,0.1,0,0.1c0,0,0,0.2,0.1,0.3c0.1,0.3,0.1,0.5,0.1,0.8c0.1,1,0,2.1-0.4,2.9
			c-0.2,0.4-0.5,0.7-0.8,0.9c-0.1,0.1-0.1,0.1-0.2,0.1c0,0-0.3,0.1-0.2,0c-0.1,0-0.1,0-0.3-0.1c-0.1-0.1,0,0-0.1-0.1
			c0,0-0.1-0.2-0.1-0.2c-0.1-0.3-0.1-0.4-0.1-0.7c0-0.5,0.1-1,0.2-1.5c0.1-0.6,0.3-1.2,0.6-1.7c0.1-0.2,0.2-0.4,0.4-0.6
			c0,0,0.1-0.1,0.1-0.1c0.1-0.1,0,0,0.1-0.1c0,0,0.1-0.1,0.1-0.1c0.1-0.1-0.2,0.1,0,0c0.5-0.3,0.6-0.9,0.4-1.4
			S213.1,91.5,212.6,91.8L212.6,91.8z"/>
	</g>
	<g>
		<path d="M180.7,84.6c-0.4,0.2-0.8,0.8-1,1.2c-0.5,1-0.9,2.2-1,3.3c0,0.5-0.1,1,0.1,1.5c0.2,0.5,0.5,0.9,1,1.1
			c0.7,0.2,1.4-0.2,1.9-0.7c0.6-0.7,1-1.6,1.1-2.4c0.1-0.9,0.1-1.8-0.1-2.7c-0.1-0.3-0.1-0.6-0.3-0.9s-0.4-0.4-0.9-0.6
			C181.3,84.3,181,84.5,180.7,84.6L180.7,84.6z"/>
		<path d="M180.2,83.8c-0.6,0.4-1,1-1.3,1.6c-0.4,0.7-0.7,1.5-0.9,2.3c-0.4,1.5-0.6,3.5,0.8,4.6c1.5,1.2,3.3,0.3,4.3-1.1
			s1.1-3,0.9-4.6c-0.1-0.9-0.2-1.8-0.9-2.5c-0.4-0.3-0.8-0.5-1.3-0.6C181.2,83.3,180.7,83.5,180.2,83.8c-0.5,0.2-0.6,0.9-0.4,1.4
			c0.3,0.5,0.9,0.6,1.4,0.4c0,0,0.2-0.1,0.2-0.1c0,0,0.2,0,0.1,0c-0.1,0,0,0,0,0c0.1,0.1,0,0,0,0c0,0,0.1,0.1,0.1,0.1c0.1,0,0,0,0,0
			c0,0,0.1,0.1,0.1,0.1c0,0,0.1,0.1,0,0c-0.1-0.1,0.1,0.1,0,0.1c0,0,0,0.2,0.1,0.3c0.1,0.3,0.1,0.5,0.1,0.8c0.1,1,0,2.1-0.4,2.9
			c-0.2,0.4-0.5,0.7-0.8,0.9c-0.1,0.1-0.1,0.1-0.2,0.1c0,0-0.3,0.1-0.2,0c-0.1,0-0.1,0-0.3-0.1c-0.1-0.1,0,0-0.1-0.1
			c0,0-0.1-0.2-0.1-0.2c-0.1-0.3-0.1-0.4-0.1-0.7c0-0.5,0.1-1,0.2-1.5c0.1-0.6,0.3-1.2,0.6-1.7c0.1-0.2,0.2-0.4,0.4-0.6
			c0,0,0.1-0.1,0.1-0.1c0.1-0.1,0,0,0.1-0.1c0,0,0.1-0.1,0.1-0.1c0.1-0.1-0.2,0.1,0,0c0.5-0.3,0.6-0.9,0.4-1.4
			S180.7,83.5,180.2,83.8L180.2,83.8z"/>
	</g>
	<path d="M149.3,129.1c-2.4-3.9,2.7,5.1,4.6,9.3s5.2,8.8,8.8,11.6c3,2.2,6.5,4.3,6.5,4.3l1.7-4.8
		C170.9,149.5,161.1,148.1,149.3,129.1L149.3,129.1z"/>
	<path d="M178.8,73.3c5.9-0.2,11.7-1.3,17.2-3.3c0.7-0.3,1.1-0.9,0.9-1.7c-0.2-0.7-1-1.2-1.7-0.9c-5.3,2-10.8,3.1-16.5,3.2
		C177,70.7,177,73.4,178.8,73.3L178.8,73.3L178.8,73.3z"/>
	<path d="M211.4,74.5c1.2,4.6,4.4,8.6,8.6,10.9c0.6,0.3,1.5,0.2,1.8-0.5s0.2-1.5-0.5-1.8c-3.6-2-6.3-5.3-7.4-9.3
		c-0.2-0.7-1-1.1-1.7-0.9S211.2,73.8,211.4,74.5L211.4,74.5L211.4,74.5z"/>
	<path d="M143.4,87.7c5.1-2.9,8.6-7,12-11.7c3.1-4.3,6.2-8.6,9-13.2c2.7-4.3,5.4-9.2,9.3-12.6c4.6-3.9,10.4-7.5,16.5-8.5
		c5.8-0.9,11.4,1,16.6,3.1c1.6,0.7,2.3-2,0.7-2.6c-4.8-1.9-9.9-3.7-15.1-3.4c-5.9,0.2-11.2,2.8-16,6.1c-2.4,1.6-4.7,3.3-6.6,5.5
		c-1.8,2.1-3.3,4.3-4.8,6.6c-3,4.5-5.6,9.2-8.9,13.5c-2,2.7-3.8,5.5-6,8.1c-2.3,2.7-4.9,4.9-8,6.7C140.5,86.3,141.9,88.6,143.4,87.7
		L143.4,87.7L143.4,87.7z"/>
	<path d="M207.5,44.9c4.5-1.7,9-1.4,12.9,1.5c3.8,2.9,6.4,7.5,7.9,11.9c2.9,8,1.6,15.8-1,23.6c-0.6,1.6,2,2.3,2.6,0.7
		c1.2-3.6,2.3-7.2,2.7-11c0.6-5.5-0.3-11-2.5-16.1c-2-4.6-4.9-9.1-9.2-11.9s-9.3-3.1-14.1-1.2C205.2,42.9,205.9,45.6,207.5,44.9
		L207.5,44.9L207.5,44.9z"/>
	<path d="M212.4,47.6c1.9-0.5,3.7-0.8,5.6-0.6c1.8,0.2,3.5,1,5,2c0.6,0.4,1.5,0.1,1.8-0.5c0.4-0.7,0.1-1.4-0.5-1.8
		c-1.9-1.3-3.9-2.1-6.2-2.3s-4.4,0.1-6.5,0.7C210,45.5,210.8,48,212.4,47.6L212.4,47.6L212.4,47.6z"/>
	<path d="M174,21.8c12.2-1,21.1,8.6,28.5,16.9c1.2,1.3,3.1-0.6,1.9-1.9C196.6,28,186.9,18,174,19.1C172.3,19.3,172.3,22,174,21.8
		C174,21.8,174,21.8,174,21.8z"/>
	<path d="M75.3,165.8c-3.6-3.1-5.9-7.1-6.1-11.9c-0.1-5.1,1.7-10.2,3.7-14.9c5.7-12.9,13.8-24.7,20-37.3c4.7-9.6,5.5-20.3,7.7-30.7
		c2.8-13.5,9.1-25.4,18.2-35.7c4.9-5.5,10.5-10.6,16.5-14.9c5.6-4,11.9-7.8,18.5-9.8c9.5-2.9,20.2-3.9,30.1-3.1
		c9,0.8,18.3,3.2,26.3,7.4c9.7,5.2,17.1,13.3,22.2,23c3.2,6.2,5.4,12.9,7.1,19.6c1.4,5.5,2.2,11.2,1.9,16.8
		c-0.5,9.2-4.8,17.2-12.5,22.4c-2,1.3-4.1,2.5-6.2,3.5c-1.6,0.7-0.2,3.1,1.4,2.3c8.6-4,15.8-10.6,18.6-19.8
		c3.4-11.3,0.6-23.8-3.1-34.6c-4.1-11.9-10.4-23-20.5-30.7c-7.6-5.8-16.6-9.4-25.9-11.2c-12.2-2.5-24.6-1.8-36.6,1
		c-11.5,2.7-21.9,9.6-30.6,17.3c-11.1,9.8-20.4,21.9-25.2,35.9c-3.7,10.9-4,22.5-7.5,33.5c-2.1,6.6-5.8,12.7-9.1,18.7
		c-3.6,6.5-7.4,12.9-10.8,19.5c-4.5,8.8-9.8,20.4-4.6,30c1.2,2.2,2.8,4.1,4.7,5.7C74.7,168.8,76.6,166.9,75.3,165.8L75.3,165.8
		L75.3,165.8z"/>
	<path d="M221.1,111.8c1.5,4.3,3.8,8.3,5.8,12.4s4.4,8.9,4.7,13.7c0.4,4.7-1,10-2.9,14.3c-1.6,3.7-4.2,7.7-8.4,8.5
		c-1.7,0.3-1,2.9,0.7,2.6c7.3-1.5,10.8-10.1,12.3-16.5c0.9-3.9,1.4-7.9,0.5-11.8c-0.8-4-2.6-7.8-4.3-11.4c-2-4.1-4.3-8.2-5.8-12.5
		C223.1,109.5,220.5,110.2,221.1,111.8L221.1,111.8L221.1,111.8z"/>
	<path d="M215.3,135.3c0.2,8.1-1.5,16.6-6.2,23.4c-1,1.4,1.3,2.8,2.3,1.4c5-7.1,6.8-16.2,6.5-24.7
		C218,133.6,215.3,133.6,215.3,135.3L215.3,135.3z"/>
	<path d="M81.9,137.4c-1,8.4,0.1,19.1,7.1,24.8c1.3,1.1,3.2-0.8,1.9-1.9c-6.5-5.3-7.2-15.2-6.3-22.9
		C84.8,135.7,82.1,135.7,81.9,137.4C81.9,137.4,81.9,137.4,81.9,137.4z"/>
</g>
<path d="M250.5,375.3c4.5-2.2,8.6-5.1,12.4-8.4c0.5-0.5,0.5-1.4,0-1.9c-0.5-0.5-1.4-0.5-1.9,0c-3.6,3.1-7.6,5.8-11.9,7.9
	c-0.6,0.3-0.8,1.2-0.5,1.8C249,375.5,249.8,375.6,250.5,375.3L250.5,375.3L250.5,375.3z"/>
<g>
	<path class="st1" d="M184.8,119.3c3.1,0.7,5.2,0.9,7.9,2.4c1.7,0.9,3.2,2.5,3.5,3.6c0.2,0.8,0.3,1.5,0.2,2
		c-0.1,1.2-1.3,2.9-2.5,3.1c-2.3,0.3-2.9-0.1-5.2-0.6c-3.6-0.7-7.1-1.5-10.6-2.2c-1.2-0.2-2.5-0.5-3.6-1.2c-1.1-0.7-1.9-1.8-1.9-3
		c0-1.2,0.8-2.3,1.9-2.9C174.5,120.6,177.3,117.6,184.8,119.3L184.8,119.3z"/>
	<path d="M184.4,120.6c3.4,0.8,7.8,1.2,10.1,4.3c0.9,1.2,1,3.1-0.3,4c-1.2,0.8-3.3,0.1-4.6-0.2c-2.3-0.5-4.6-0.9-6.9-1.4
		c-2.2-0.4-4.6-0.7-6.6-1.5c-1.8-0.7-2.8-2.5-1-3.9c0.2-0.1,0.4-0.3,0.5-0.4c0.1-0.1,0.1-0.1,0,0c0.1-0.1,0.2-0.2,0.4-0.3
		C178.4,119.7,181.7,120,184.4,120.6c1.7,0.4,2.4-2.2,0.7-2.6c-3.4-0.8-7.4-1.1-10.6,0.8c-0.7,0.4-1.6,1.1-2.1,1.7
		c-1.6,1.8-1.4,4.3,0.1,6c1.8,2,4.8,2.3,7.3,2.8c3,0.6,6,1.2,9,1.9c2,0.4,4.5,1.1,6.4,0.1c1.9-1,2.8-3.2,2.5-5.3
		c-0.8-5.8-8-7.1-12.6-8.1C183.4,117.7,182.7,120.3,184.4,120.6L184.4,120.6z"/>
</g>
<path d="M159.3,209.4c6-3,12-5.9,18-8.9c1.6-0.8,0.2-3.1-1.4-2.3c-6,3-12,5.9-18,8.9C156.4,207.9,157.8,210.2,159.3,209.4
	L159.3,209.4z"/>
<path d="M61.6,322.9c0,0,3.9,5.5,9.2,11.8s15.5,13.2,21.2,17c11.4,7.4,32.1,13.7,40,8c0,0-19.4,1.3-34-7.6
	c-14.6-8.9-24.6-26.5-24.6-26.5l-14.2-16L61.6,322.9L61.6,322.9z"/>
<path d="M233.8,312.9c-1.5,1.6,4.4-5.6,9.5-7.5c8.5-3.2,23.2-7,23.2-7l-1.4-3.4c0,0-11.5,5.5-17.4,6.8s-12.8,1.7-12.8,1.7
	L233.8,312.9L233.8,312.9z"/>
<path d="M117.8,199.4c0.2,2.9-6.1,29.8-9.4,43.4c-2.3,9.5-6.2,12.6-6.2,12.6l5,7.3C107.2,262.8,117.4,191.8,117.8,199.4L117.8,199.4
	z"/>
</svg>
