<?xml version="1.0" encoding="utf-8"?>
<!-- Generator: Adobe Illustrator 28.0.0, SVG Export Plug-In . SVG Version: 6.00 Build 0)  -->
<svg version="1.1" id="Layer_1" xmlns="http://www.w3.org/2000/svg" xmlns:xlink="http://www.w3.org/1999/xlink" x="0px" y="0px"
	 viewBox="0 0 331.7 376.1" style="enable-background:new 0 0 331.7 376.1;" xml:space="preserve">
<style type="text/css">
	.st0{fill:#785756;}
	.st1{fill:#FEC3AA;}
	.st2{fill:#FFFFFF;}
</style>
<path class="st0" d="M97.5,85.4c0,0-4.8-5.7-5-13.6s0.3-11.5,0.3-11.5s0.3-16.4,10-28.5c0,0,13.1-17.7,33.7-21.4
	c20.6-3.7,32.8,6.3,38.3,10.4s12,17.6,15.5,25.6s3.9,28.2-0.3,30.2s-4.2,3.9-4.2,3.9l-4.9,21.9c0,0-20.2,11.4-28.4,12.1
	s-16.9,2.1-22.2,1.7s-9.7-3.8-13.1-7.6c-3.3-3.8-3.4-1.5-5.6-5c-2.2-3.5-8.3-17.1-9.6-19.4S97.5,85.4,97.5,85.4L97.5,85.4z"/>
<path class="st1" d="M111.5,103.6c0.7,3.4,5,3.7,10.4,8.5s12.9,3.9,12.9,3.9s2.2-1.9,5.5-5.1s22-11.6,29.5-11.2s16.6,4.2,20.4,5
	s32.9-6.9,39.2-8.1c6.3-1.2,42.1-8.3,51.8-8.9s27.8,0.9,36,3.8c8.2,2.9,8.5,11.8,8.2,19.6s-7.8,25.3-7.8,25.3s-2.9-6.6-6.3-10.9
	c-3.4-4.3-10.4-6.3-16-8.8c-5.6-2.5-17.5-1.2-17.5-1.2l-6.6,8.3c0,0-5.5,2.2-12.4,3.4s-36,0.9-39.8,1.8s-12.7,4.4-19.1,7.4
	s-17.6,5.3-17.6,5.3l9.9,5.3c0,0-1.9,0.8-6.9,2.7s-23.2,6.7-40.8,5.5s-28-4.9-28-4.9s2.3-2.2,3.1-4.6s2.4-12.7,2.4-12.7
	s-2.5-1.6-6-5.4c-3.5-3.8-6-16.7-6.5-16.5s-5.7-3.3-8.9-7.2s-5-15.3-3-18.5s4.5-1.2,4.5-1.2S110.1,96.8,111.5,103.6L111.5,103.6z"/>
<path class="st1" d="M189.9,76.7c-2.4-1-4.2,2-4.2,2l-4.9,23.8c0,0,2.5,2.5,5.2,1.3c2.7-1.2,6.8-14.5,6.6-17.4
	C192.5,83.6,192.4,77.7,189.9,76.7L189.9,76.7z"/>
<path class="st2" d="M116.4,150.3c0,0-31.2,13.6-38.9,16.3s-24.5,9.7-28.8,11.6c-4.3,2-12.3,11.9-15.5,21.9
	c-3.2,10-8.4,46.5-8.2,50.9s-2.6,19-3.5,21.4c-0.9,2.5-5.9,19.3-3.2,22.8c2.7,3.5,26.8,7.1,27.6,7.3s25.3,3.7,25.3,3.7l0,63.4h177.3
	c0,0,3.1-71,3.8-75.7c0.6-4.7,9.8-57.6,11.5-66.1c1.7-8.5,5.1-25.9,11.1-33.7c6.1-7.8,28.4-33.7,33.9-40.6s8.8-15.2,8.8-17.1
	s-4-12.6-13.3-16.9s-24.6-6.2-26.5-4c-1.8,2.3-11,12.3-14.3,14.7c-3.2,2.4-22.2,9.3-28.3,12.2s-12.2,9.6-12.2,9.6s-15,1.7-31.9-5.5
	c0,0-13.9,8.1-32.2,8.2C140.7,154.9,123.1,154.5,116.4,150.3L116.4,150.3z"/>
<path class="st1" d="M23.7,298.3c0,0-1.8,71.5-1.9,71.3s49.5,0,49.5,0l0-63.4L23.7,298.3L23.7,298.3z"/>
<path d="M192.2,103.3c-3.9,0.4-8.8-0.6-12.3-2.4c-2.3-1.2-4.4-2.8-7.1-3.2s-5.4,0.4-8,1.2c-5.7,1.8-11.3,3.9-16.8,6.5
	c-4.9,2.3-9.6,4.8-12.7,9.4c-1.5,2.3-2.2,4.8-3.1,7.4c-0.5,1.4-1.7,3.3,0.4,4c1.7,0.5,2.4-2.1,0.7-2.6l-0.2-0.1l0.8,0.6
	c0.3,0.4,0,0.5,0.3,0c0.1-0.2,0.2-0.4,0.3-0.5c0.4-1,0.6-2.1,0.9-3.2c0.7-2,1.7-3.9,3-5.6c3.2-4,8.1-6,12.7-8.1
	c4.9-2.2,9.9-4.1,15.1-5.6c2.7-0.8,5.4-1.4,8.1-0.2c1.9,0.8,3.6,2.2,5.5,2.9c3.6,1.5,8.2,2.5,12.1,2.1
	C193.9,105.8,193.9,103.1,192.2,103.3L192.2,103.3L192.2,103.3z"/>
<path d="M159.4,106.8c-5.4,3.2-10.9,6.4-16.4,9.6c-4.7,2.7-9.5,5.6-13,9.7c-2.5,2.9-4.5,6.6-4.8,10.5c-0.2,3,1.5,5.3,4.6,5.2
	c1.7-0.1,1.7-2.8,0-2.7c-2.2,0.1-2.1-1.9-1.8-3.3c0.9-4.4,3.7-8,7-10.9c3.7-3.1,8-5.4,12.1-7.8c4.5-2.6,9-5.3,13.5-7.9
	C162.3,108.3,160.9,106,159.4,106.8L159.4,106.8L159.4,106.8z"/>
<path d="M161.4,117.4c-6.3,3-12.4,6.4-18.1,10.4c-2.7,1.9-5.4,3.9-7.9,6c-2.3,1.9-4.9,3.9-6.9,6.2c-1.5,1.7-2.2,4.3-1.2,6.4
	c1.1,2.3,3.8,3,6.1,1.8c1.3-0.7,2.5-1.9,3.6-2.8c1.5-1.2,3-2.3,4.5-3.4c2.7-1.9,5.6-3.7,8.5-5.4c6.8-3.9,14-6.8,21.6-8.8
	c1.7-0.4,1-3-0.7-2.6c-11.6,3.1-22.4,8.4-32.1,15.5c-1,0.7-2,1.5-3,2.3c-1.2,0.9-2.6,2.6-4.1,3.1c-2.8,0.9-2.3-2.9-1.2-4.3
	c2-2.3,4.6-4.3,7-6.2c2.4-2,4.9-3.8,7.4-5.6c5.7-3.9,11.7-7.4,17.9-10.3C164.3,119,163,116.7,161.4,117.4L161.4,117.4L161.4,117.4z"
	/>
<path d="M205.6,132.2c-6.1,2.9-12.2,5.8-18.7,7.4c-6.5,1.7-13.1,1.5-19.8,1.6c-6.5,0.1-12.6,0.9-18.6,3.4c-2.7,1.1-5.5,2.3-8.4,2.5
	c-1.8,0.1-2.4-0.6-2.1-2.4c0.3-1.7-2.3-2.4-2.6-0.7c-1.8,11.1,14.1,2.9,18.5,1.6c5.7-1.6,11.7-1.5,17.6-1.6s11.7-0.4,17.3-2
	c6.3-1.8,12.2-4.6,18.1-7.4C208.5,133.8,207.2,131.5,205.6,132.2L205.6,132.2L205.6,132.2z"/>
<path d="M192.2,106c16-2,31.5-6.6,47.2-10.4c7.6-1.9,15.3-3.6,23.1-4.6c4.8-0.7,9.6-0.8,14.4-1.2c9.7-0.9,19.7-1.2,29.4,0.2
	c5,0.7,10.8,1.8,14.3,5.8c3.2,3.6,3.8,8.8,3.5,13.4c-0.3,4.3-1.1,8.9-2.6,13c-0.8,2.1-1.6,4.1-2.4,6.1c-0.7,1.8-1.4,3.9-2.5,5.6
	c-1,1.4,1.3,2.8,2.3,1.4c1-1.5,1.7-3.4,2.3-5c0.9-2.1,1.7-4.2,2.5-6.2c1.4-3.5,2.2-7.3,2.7-11.1c0.7-4.8,0.8-9.9-1.1-14.5
	c-2-4.9-6.2-7.9-11.2-9.5c-10.6-3.2-22.4-2.9-33.3-2.2s-22.2,1.8-33.1,4.2c-18.5,4-36.7,10.1-55.5,12.4
	C190.5,103.5,190.5,106.2,192.2,106L192.2,106L192.2,106z"/>
<path d="M206.6,134.7c1.8-0.4,3.5-1.5,5.1-2.4c2.1-1.1,3.7-1.6,6-1.8c5.9-0.6,11.8-0.6,17.7-0.7c11.7-0.1,23.6-0.2,34.9-3.9
	c1.6-0.5,0.9-3.1-0.7-2.6c-11.5,3.7-23.5,3.7-35.4,3.8c-5.9,0.1-11.8,0.2-17.7,0.8c-2,0.2-3.6,0.8-5.3,1.7c-1.7,0.9-3.4,2.1-5.3,2.5
	C204.2,132.4,205,135,206.6,134.7L206.6,134.7L206.6,134.7z"/>
<path d="M275.6,116.2c-4.8,7.8-12.6,13.1-20.9,16.7c-7.1,3.1-14.5,5.1-21.2,9c-4.4,2.5-8.4,5.6-11.8,9.3c-1.2,1.3,0.7,3.2,1.9,1.9
	c6-6.6,13.9-10.7,22.1-13.9c7.7-3,15.4-5.6,22.1-10.6c4-3.1,7.5-6.7,10.2-11C278.9,116.1,276.5,114.7,275.6,116.2L275.6,116.2
	L275.6,116.2z"/>
<path d="M316.4,136.1c-4.3,12-12,21.9-20.5,31.3c-4.2,4.6-8.5,9.2-12.6,13.9c-4.5,5.2-9,10.7-12.3,16.8c-4.8,8.9-6.5,19.3-8.4,29.2
	c-1.7,9.2-3.2,18.5-4.8,27.7c-1.6,9.2-3.1,18.5-4.8,27.7c-0.7,4-1.8,7.9-2.1,12c-0.7,12.9-1.4,25.8-2,38.6
	c-0.3,7.5-0.6,14.9-0.9,22.4c-0.1,4.3-0.5,8.8,0,13.1c0.1,0.5,0.1,1,0.4,1.4c0.9,1.5,3.2,0.1,2.3-1.4c0,0.1,0.1,0.3,0-0.1
	c-0.1-0.3,0,0.2,0,0c0-0.1,0-0.3,0-0.4c-0.1-0.7-0.1-1.4-0.1-2.1c-0.1-2.3,0-4.7,0-7c0.1-7,0.4-14,0.7-21
	c0.6-13.8,1.3-27.5,2.1-41.3c0.1-1.3,0.1-2.7,0.2-4c0-0.1,0-0.2,0-0.3c0,0,0,0,0-0.1c-0.1,0.4,0.1-0.5,0.2-0.6
	c0.3-1.4,0.6-2.8,0.9-4.2c1.7-8.5,3.1-17.1,4.5-25.7c1.6-9.6,3.2-19.2,4.9-28.8c1.5-8.6,3-17.3,5.6-25.7
	c4.2-13.2,14.3-23.7,23.5-33.6c8.1-8.8,16.4-17.7,21.8-28.5c1.4-2.8,2.7-5.8,3.8-8.8C319.6,135.2,317,134.5,316.4,136.1L316.4,136.1
	L316.4,136.1z"/>
<path d="M281.1,114.9c6-6.4,13.5-11.3,21.8-14.2c1.6-0.6,0.9-3.2-0.7-2.6c-8.7,3.1-16.6,8.2-23,14.9
	C278,114.3,279.9,116.2,281.1,114.9C281.1,114.9,281.1,114.9,281.1,114.9z"/>
<path d="M116.4,148.2c-11.9,6.1-24.2,11.5-36.8,16.2c-6.1,2.3-12.3,4.4-18.4,6.6c-5.5,2-11,4.3-15.7,8
	c-14.4,11.4-16.6,31.5-18.9,48.3c-1.2,9.1-2.2,18.1-3.2,27.2c-0.4,3.6-0.8,7.3-1.3,11c-0.1,0.7-0.2,1.4-0.3,2.1
	c0,0.3-0.1,0.6-0.1,0.9c0,0.1-0.1,0.8,0,0.5c-0.2,0.6-0.6,1.2-0.8,1.8c-1.3,3.1-2.5,6.2-3.4,9.4c-1,3.5-2,7.3-1.8,11
	c0.2,2.5,1,4.6,3.1,6s4.7,2.1,7.1,2.8c13.8,3.8,28.3,4.7,42.5,7c0.9,0.1,1.7,0.3,2.6,0.5c1.7,0.4,2.4-2.2,0.7-2.6
	c-5.3-1.2-10.8-1.6-16.1-2.4c-7.6-1-15.3-2.1-22.8-3.7c-3.1-0.6-6.3-1.4-9.3-2.4c-1-0.4-2-0.7-2.9-1.2c-0.7-0.4-1.3-0.8-1.6-1.3
	c-1.5-2.6-0.6-6.6,0-9.3c0.8-3.5,2-7,3.3-10.4c0.6-1.6,1.6-3.2,1.9-4.9c0.5-3.1,0.8-6.3,1.2-9.5c1-8.4,1.9-16.9,2.9-25.4
	s2.3-17.6,4.2-26.2c1.7-7.9,4.3-15.1,9.2-21.6c7.7-10.1,20.4-13,31.8-17.1c12-4.3,23.8-9.2,35.3-14.6c3-1.4,5.9-2.9,8.8-4.3
	C119.3,149.7,117.9,147.4,116.4,148.2L116.4,148.2L116.4,148.2z"/>
<path d="M58,217.9c5.3,16.9,9.2,34.2,10.5,51.9c0.6,8.2,0.8,16.5,0.9,24.7c0.4,20.2,0.5,40.4,0.5,60.6c0,4.8,0,9.7,0,14.5
	c0,1.7,2.7,1.7,2.7,0c0.1-13.2,0-26.4-0.1-39.6c-0.1-19.4,0-39-1.3-58.4c-1.2-18.5-5.2-36.8-10.8-54.5
	C60.1,215.5,57.5,216.2,58,217.9L58,217.9L58,217.9z"/>
<path d="M181,143.2c16.1,8,34.8,13.9,52.5,7.5c1.6-0.6,0.9-3.2-0.7-2.6c-17,6.2-34.9,0.5-50.4-7.2
	C180.8,140.1,179.4,142.4,181,143.2L181,143.2L181,143.2z"/>
<path d="M101.3,81.5c-4.1-1.2-5.8,4.6-6.2,7.5c-0.6,3.9,0.2,7.9,1.9,11.5c1.4,2.9,3.3,5.6,5.6,7.9c1.9,1.9,4.5,4.1,7.4,3.8
	c1.7-0.2,1.7-2.9,0-2.7c-2,0.2-3.9-1.4-5.2-2.8c-1.8-1.8-3.4-3.9-4.7-6.1c-1.4-2.5-2.3-5.3-2.4-8.2c-0.1-1.6,0.1-3.2,0.5-4.8
	c0.2-0.9,1.1-4,2.5-3.6C102.2,84.6,102.9,82,101.3,81.5L101.3,81.5L101.3,81.5z"/>
<path d="M108.6,111.3c2.2,8.7,4.4,18.4,12.6,23.4c1.5,0.9,2.8-1.4,1.4-2.3c-7.6-4.6-9.4-13.9-11.4-21.8
	C110.8,108.9,108.2,109.6,108.6,111.3C108.6,111.3,108.6,111.3,108.6,111.3z"/>
<path d="M100.2,82.7c-2.1-5.1-4.3-10.2-5.4-15.7s-0.9-11.2,0.4-16.7c2.5-10.1,8.5-18.9,16-26c8.2-7.8,19.7-12.5,31-13.4
	c9.6-0.7,19.2,1.7,27.1,7.1c5.6,3.8,9.8,9.2,12.5,15.3c5.2,11.6,5.4,25,4,37.4c-0.5,4.7-1.4,9.3-2.5,13.9
	c-1.2,5.2-2.9,10.2-3.6,15.5c-0.1,0.8-0.2,1.7-0.3,2.5c-0.1,1.7,2.6,1.7,2.7,0c0.4-5.4,2.1-10.6,3.4-15.8c1.1-4.4,2-8.9,2.6-13.4
	c1.8-12.9,1.8-26.7-3-39c-2.5-6.5-6.5-12.4-11.9-16.8c-7.4-6-16.8-9.3-26.2-9.6c-8.1-0.2-16.1,1.7-23.5,4.9c-3.5,1.5-7,3.3-10,5.6
	c-8.1,6.1-14.9,14.8-18.7,24.1c-2.1,5-3.3,10.4-3.5,15.8s1.1,11.3,2.9,16.6c1,2.8,2.1,5.5,3.2,8.2C98.3,85,100.9,84.3,100.2,82.7
	L100.2,82.7L100.2,82.7z"/>
<path d="M100.9,84.2c0.4-0.1,1.1,1.1,1.5,1.6c0.8,1.4,1.5,2.8,2.1,4.3c1.5,3.5,2.7,7,4.3,10.4c0.8,1.8,1.7,3.6,3,5
	c1.4,1.6,3.3,2.4,4.9,3.7c2.7,2.1,5,4.7,7.9,6.6c3.6,2.3,7.6,2.7,11.5,0.9c1.6-0.7,0.2-3.1-1.4-2.3c-7.4,3.4-12.2-4.5-17.5-8.1
	c-2.1-1.4-3.7-2.5-4.9-4.7c-0.8-1.5-1.5-3.1-2.2-4.6c-1.4-3.4-2.6-6.8-4.1-10.1c-0.8-1.8-2.5-5.8-5.1-5.4
	C99.2,81.7,99.2,84.4,100.9,84.2L100.9,84.2L100.9,84.2z"/>
<path d="M187.6,79.1c0.8-0.9,1.6-1.7,2.7-0.8c0.6,0.5,0.9,1.4,1,2.2c0.7,2.8,0.9,5.4,0.3,8.3c-0.6,3-1.7,5.9-2.8,8.8
	c-0.7,1.9-1.9,4.6-3.8,5.5c-1.6,0.8-0.2,3.1,1.4,2.3c2.7-1.3,4.1-4.7,5.1-7.3c1.5-3.8,2.9-7.8,3.2-11.9c0.1-1.9-0.2-3.6-0.6-5.4
	c-0.3-1.2-0.5-2.4-1.2-3.4c-0.7-1.1-1.8-1.8-3-2c-1.8-0.3-3.1,0.5-4.3,1.9C184.5,78.5,186.4,80.4,187.6,79.1L187.6,79.1L187.6,79.1z
	"/>
<path d="M91.8,64.3c-1.6,7.2-0.6,16.2,4.7,21.8c1.2,1.2,3.1-0.7,1.9-1.9c-4.6-4.8-5.4-12.9-4-19.2C94.8,63.3,92.2,62.6,91.8,64.3
	L91.8,64.3L91.8,64.3z"/>
<path d="M181.5,32.5c2,4.4,5.2,8.1,7,12.7c0.9,2.5,1.6,5.2,2.2,7.8c0.8,3.7,1.5,7.4,1.6,11.2c0.1,2.7,0.1,6.3-1.9,8.4
	c-1.2,1.2,0.7,3.1,1.9,1.9c2.3-2.4,2.7-6,2.7-9.2c0-4-0.6-8-1.5-12c-0.6-2.9-1.3-5.9-2.4-8.7c-1.8-4.8-5.1-8.8-7.3-13.5
	C183.1,29.6,180.7,31,181.5,32.5L181.5,32.5L181.5,32.5z"/>
<path d="M179.6,61.7c-1.7,9.4-5.4,18.2-10.9,26c-1,1.4,1.3,2.8,2.3,1.4c5.6-7.9,9.4-17.1,11.2-26.6C182.5,60.8,179.9,60,179.6,61.7
	C179.6,61.7,179.6,61.7,179.6,61.7z"/>
<path d="M106.7,83.2c6.7,7.7,15.3,13.5,24.9,16.8c1.6,0.6,2.4-2,0.7-2.6c-9.2-3.2-17.4-8.8-23.8-16.1
	C107.4,80,105.5,81.9,106.7,83.2C106.7,83.2,106.7,83.2,106.7,83.2z"/>
<path d="M125.2,91.4c5.7,4.6,12.6,7.4,19.9,7.9c1.7,0.1,1.7-2.6,0-2.7c-6.5-0.4-12.9-2.9-18-7.1C125.8,88.4,123.9,90.3,125.2,91.4
	L125.2,91.4L125.2,91.4z"/>
<path d="M278,116.2l-0.1-0.3l0.1,1c-0.1,0.2,2.8,0,3,0c1.1-0.1,2.2-0.1,3.3-0.1c2,0,4,0.1,6,0.3c4.3,0.5,8.5,1.6,12.4,3.6
	c6.5,3.3,11.8,8.9,13.7,16c0.5,1.7,3.1,1,2.6-0.7c-2.4-8.7-9.2-15.3-17.4-18.7c-4.9-2.1-10.2-3-15.5-3.2c-2.6-0.1-5.2,0-7.8,0.3
	c-1.7,0.2-3.6,1.1-2.7,3.1C276.3,119.2,278.6,117.8,278,116.2L278,116.2L278,116.2z"/>
<path d="M118.1,150.3c3.3-2.8,4-7.8,4.5-11.9c0.7-4.9,0.9-9.9,1.7-14.8c0.3-1.7-2.3-2.4-2.6-0.7c-0.8,4.5-1,9.1-1.6,13.7
	c-0.3,2.3-0.7,4.6-1.2,6.8c-0.5,1.9-1.2,3.7-2.7,5C114.8,149.6,116.7,151.5,118.1,150.3L118.1,150.3L118.1,150.3z"/>
<path d="M22.4,298.3c-1.6,20.8-1.8,41.7-1.9,62.6c0,2.6,0,5.3,0,7.9c0,1.7,2.7,1.7,2.7,0c0-17.5,0.1-35,0.8-52.4
	c0.2-6,0.5-12,1-18.1C25.2,296.6,22.5,296.6,22.4,298.3L22.4,298.3L22.4,298.3z"/>
<path d="M124.9,169.2c10.8,13.4,17.6,29.6,20,46.5c0.2,1.7,2.8,1,2.6-0.7c-2.4-17.5-9.6-34-20.7-47.7
	C125.7,165.9,123.8,167.8,124.9,169.2L124.9,169.2z"/>
<path d="M190.3,164c-5.9,7.4-11.1,15.3-15.6,23.7c-0.8,1.5,1.5,2.9,2.3,1.4c4.4-8.1,9.4-15.9,15.2-23.1
	C193.3,164.6,191.4,162.6,190.3,164L190.3,164z"/>
<path d="M115.8,151.5c4.5,2.6,9.5,3.6,14.6,4.2c5.8,0.6,11.6,1,17.4,0.9c10.2,0,20.8-0.7,30.7-3.4c4.6-1.2,9.2-2.7,13.4-5.1
	c1.5-0.9,0.1-3.2-1.4-2.3c-7,4-15.6,5.9-23.5,6.9c-10.9,1.3-21.9,1.5-32.9,0.6c-5.8-0.5-11.9-1.1-17-4.2
	C115.6,148.2,114.3,150.6,115.8,151.5L115.8,151.5L115.8,151.5z"/>
<path d="M82,147l-4.5-0.2c-1.8-0.1-1.7,2.5,0,2.7c2.4,0.2,4.7,0.4,7.1,0.5c1,0,2,0.1,3.1,0.1c0.9,0,2,0.2,2.8-0.2
	c1.6-0.7,1.4-2.6,0.2-3.6c-0.8-0.6-1.9-1-2.8-1.4c-1-0.5-2-1-3.1-1.4l-0.7,2.5c6.4-0.6,12.8-0.1,18.9,1.7c1.7,0.5,2.4-2.1,0.7-2.6
	c-6.4-1.8-13-2.4-19.6-1.8c-1.2,0.1-2,1.9-0.7,2.5s2.6,1.2,3.9,1.9c0.4,0.2,0.7,0.3,1.1,0.5c0.1,0.1,0.3,0.1,0.4,0.2
	c0.4,0.3,0.5,0,0.3-0.9c-0.2-0.2-2,0-2.3,0c-3.1-0.1-6.3-0.3-9.4-0.6v2.7l4.5,0.2C83.7,149.8,83.7,147.1,82,147L82,147L82,147z"/>
<path d="M78.3,122.7c1.8,1.3,3.6,2.5,5.4,3.8l2.7,1.9c0.7,0.5,1.3,1.1,2.1,1.3c1.6,0.4,2.3-1.2,2-2.5c-0.5-2.1-1.3-4.2-2-6.3l-2,1.5
	c4.9,3.6,10.1,6.9,15.5,9.7c1.5,0.8,2.9-1.5,1.4-2.3c-5.4-2.8-10.6-6.1-15.5-9.7c-1-0.7-2.3,0.5-2,1.5c0.3,1.1,0.7,2.2,1.1,3.4
	c0.2,0.5,0.3,1.1,0.5,1.6c0.1,0.3,0.2,0.6,0.3,0.9c0.1,0.5,0.1,0.6,0.2,0.2l0.8-0.6c0.6,0.2,0.7,0.1,0.1-0.2l-0.6-0.4l-1.2-0.8
	l-2.5-1.8c-1.7-1.2-3.4-2.3-5-3.5C78.2,119.3,76.9,121.6,78.3,122.7L78.3,122.7L78.3,122.7z"/>
</svg>
