<?xml version="1.0" encoding="utf-8"?>
<!-- Generator: Adobe Illustrator 28.0.0, SVG Export Plug-In . SVG Version: 6.00 Build 0)  -->
<svg version="1.1" id="Layer_1" xmlns="http://www.w3.org/2000/svg" xmlns:xlink="http://www.w3.org/1999/xlink" x="0px" y="0px"
	 viewBox="0 0 293.5 384.5" style="enable-background:new 0 0 293.5 384.5;" xml:space="preserve">
<style type="text/css">
	.st0{fill:#D8D7E6;}
	.st1{fill:#FEC3AA;}
	.st2{fill:#785756;}
	.st3{fill:#FFFFFF;}
</style>
<path class="st0" d="M282,320.3c-0.4-2.3-18.6-106.8-18.6-106.8s-2.9-21.2-15.1-30.3s-23.2-18.6-44-22.5c0,0-9.7,24.2-34.7,27.6
	c-25,3.4-66.8,7.3-70.3-29.4c0,0-40.7,17.4-48.2,19.3c-7.5,1.9-21.8,16.5-26,29.7c-4.2,13.2-11.1,60.4-11.1,60.4s-8.9,55-7.3,56.5
	c1.6,1.4,15.1,7,15.1,7l49.4,4.8l6.2,38.8l0,0h141.6v-39.8c0,0,8.2,1.5,11.3,1c3.2-0.5,42.8-6.7,47.2-10.6
	C282,322,282.4,322.6,282,320.3z"/>
<polygon class="st1" points="220.7,375.4 272.7,375.4 270.3,328.8 238,335.6 219.1,336.4 "/>
<path class="st2" d="M81,79.6c0,0-6.5-10.9-6.7-17.6c-0.2-6.7,0-11,0-11s-4.2-3.6-3.4-8.3c0.8-4.6,6-8.3,10.2-11.3
	s11.3-12.9,23.1-16c11.8-3.1,25.2-6.4,37.8-3.6s15.7,7.7,15.7,7.7s13.5,4.5,21.7,18c8.1,13.5,7.3,28,6.1,33.5
	c-1.2,5.4-8.8,27.5-8.8,27.5s-7.3,22.3-44.4,9S81,79.6,81,79.6L81,79.6z"/>
<path class="st1" d="M86.1,55c0,0-5,11.5-4.7,15.6c0.3,4.2-0.4,9,1.7,15.4c-0.6,2.8,2.6,25.1,3,29.7c0.9,11.3,13.1,21.2,17.7,25.7
	s11.7,6.9,16.7,7.2l0,0l-0.2,1.2l-21,9.1c0,0,0.4,10.3,5.2,15.8s16.2,11.5,16.2,11.5s-4.6,10.1-4.8,16c-0.2,5.8-0.1,12-0.1,12
	s-41.3,48.6-41.6,49c-0.3,0.4-40.2,48.5-46.8,59c-6.7,10.5-5.5,9.7-5.5,9.7l-10.7-3.6c0,0-1.6,8-2.2,15.8s6.2,25.7,19.6,30.5
	c13.4,4.8,29-2.9,35.9-9.8s24.4-33.8,32.7-48.4c8.4-14.5,40.6-70.1,43.9-76.9c3.3-6.8,15.1-20.2,21.9-27.9
	c6.7-7.7,19.9-22.9,22.4-28.2c0,0,11.7-9.7,15-15.8c3.3-6.1,3.8-6.6,3.8-6.6l-20.8-6.2c0,0-1.2-3.1-5.2-3.4s-4.8,1.1-4.8,1.1
	s2.1-4-0.5-5.7s-3.8,0.6-3.8,0.6s-4.5-10-3.6-19.5c0.4-3.8,0.1-12,0.1-12s8.4-6.2,9.7-12s1.6-12.1-0.9-15.2s-5.2-3.4-8.3-1.7
	c-3.1,1.7-5,3.9-5,3.9s-7.9-6.2-13.1-16.3s-3.8-16.6-5.2-19.8c-1.4-3.1-5.2-11.1-14.4-9s-22.2,6.1-29,7.8
	C92.9,55.1,86.1,55.1,86.1,55L86.1,55z"/>
<path d="M121.1,149.4c0,0,10.4-0.4,19.6-8.5s10.9-11.1,10.9-11.1s-3.9,7.6-9,13.2c-5.1,5.6-8.5,6.8-12.4,8c-4.9,1.4-9.7,0-9.7,0
	L121.1,149.4L121.1,149.4z"/>
<path d="M74.9,355.5L74.9,355.5c0.8-0.3,1.1-0.9,1-1.7c-0.1-0.4-0.3-0.8-0.7-0.9c-0.5-0.2-1.2-0.3-1.6,0.2c-0.5,0.7-0.5,1.2-0.4,2
	c0.1,0.9,0.2,1.8,0.3,2.8c0.2,1.8,0.3,3.5,0.5,5.3c0.3,3.6,0.7,7.2,1,10.8c0.2,1.7,2.9,1.7,2.7,0c-0.3-3.4-0.6-6.7-0.9-10
	c-0.2-1.6-0.3-3.3-0.5-4.9s-0.5-3.3-0.4-4.9l-0.4,1l0.1-0.1l-1.6,0.2l0.1,0l-0.6-0.8l0,0.1l0.9-1.7l-0.1,0c-0.7,0.3-1.1,0.9-0.9,1.7
	C73.4,355.2,74.2,355.8,74.9,355.5L74.9,355.5L74.9,355.5z"/>
<path d="M192.5,108.8c-1.7,1.8-3.3,3.8-4.7,5.9c-1.2,1.7-3.1,4.1-2.1,6.3c0.2,0.5,0.5,0.9,0.9,1.2c0.3,0.3,0.9,0.6,0.9,1.1
	c0.1,1-1.4,2.3-2,3c-1.7,2-3.6,4-5.5,5.8c-1.3,1.2,0.6,3.1,1.9,1.9c1.9-1.8,3.7-3.7,5.4-5.7c1.4-1.6,3.5-3.8,2.7-6.1
	c-0.2-0.5-0.4-0.9-0.8-1.3c-0.3-0.3-0.9-0.6-1-1c-0.3-0.8,1-2.4,1.4-3c1.4-2.2,3.1-4.3,4.9-6.2C195.6,109.5,193.7,107.6,192.5,108.8
	L192.5,108.8L192.5,108.8z"/>
<path d="M209.4,122.8c-4.5,2.2-8.8,4.7-12.9,7.6c-1.5,1-3.8,2.2-3.2,4.4c0.4,1.6,2.2,2.1,2.9,3.5l0.5-1.8c-3,2.3-6.1,4.3-9.4,6.1
	c-1.5,0.8-0.2,3.2,1.4,2.3c3.3-1.8,6.5-3.8,9.4-6.1c0.6-0.5,0.9-1.1,0.5-1.8c-0.3-0.6-0.8-1.1-1.3-1.6c-0.3-0.3-1-0.7-1.2-1.1
	c-0.1-0.3-0.2,0,0.1-0.3c0.3-0.4,0.8-0.6,1.2-0.9c0.9-0.6,1.7-1.2,2.6-1.7c3.5-2.3,7.1-4.3,10.9-6.2
	C212.3,124.4,210.9,122,209.4,122.8L209.4,122.8L209.4,122.8z"/>
<path d="M117.2,215c-0.5-6.2-0.5-12.5,1-18.5c1.5-6.1,4.9-11.4,7.3-17.3c1.2-2.9,2.1-5.9,2.8-9c0.6-2.9,0.9-5.9,1.6-8.8
	c0.6-2.2,3.4-7.7,5.4-3.4c1.1,2.2,1.4,4.8,1.5,7.2c0.1,4.5-0.6,9.6-2.5,13.8c-0.7,1.6,1.6,2.9,2.3,1.4c2-4.4,2.8-9.4,2.8-14.2
	c0-3.8-0.8-13.7-6.7-12.4c-2.9,0.6-4.4,3.6-5.2,6.1c-1.1,3.4-1.3,7.1-2.1,10.6c-0.9,3.8-2.2,7.4-3.8,10.9c-1.5,3.2-3.2,6.2-4.5,9.5
	c-3,7.7-3.3,16.1-2.6,24.2C114.7,216.7,117.4,216.7,117.2,215L117.2,215L117.2,215z"/>
<path d="M136.9,180.3c9-7.9,17.8-15.9,25.5-25.1c1.7-2.1,3.5-4.1,5.6-5.8c0.9-0.7,2.1-1.6,3.3-1.7c2-0.3,1.9,1.6,1.6,3
	c-0.7,2.8-2.4,5.2-4,7.6c-1.8,2.6-3.8,5-5.8,7.5c-4.3,5.3-8.9,10.3-13.7,15.1c-1.2,1.2,0.7,3.1,1.9,1.9c5-4.9,9.7-10.1,14.1-15.5
	c2.1-2.6,4.2-5.3,6.1-8c1.8-2.5,3.5-5.4,4.1-8.5c0.4-2.4-0.2-5.1-2.9-5.7s-5.3,1.3-7.2,2.9c-2.3,1.9-4.2,4.3-6.1,6.6
	c-2.2,2.7-4.6,5.2-7,7.7c-5.6,5.6-11.5,10.9-17.4,16.1C133.7,179.5,135.6,181.4,136.9,180.3L136.9,180.3L136.9,180.3z"/>
<path d="M174.3,155.4c1.3-1.4,3.1-3.4,5.2-3c2.8,0.5,1.1,4,0.4,5.7c-1.6,4-3.9,7.8-6.4,11.3c-5.1,7.1-11.4,13.2-17.7,19.2
	c-1.2,1.2,0.6,3.1,1.9,1.9c7.8-7.4,15.6-15.1,21.2-24.4c1.3-2.2,2.4-4.4,3.4-6.8c0.9-2.2,2.2-5,0.9-7.3c-1-1.8-3-2.5-4.9-2.3
	c-2.5,0.2-4.3,2.1-6,3.8C171.2,154.7,173.1,156.6,174.3,155.4L174.3,155.4L174.3,155.4z"/>
<path d="M181.1,162.1c1.4-1,2.8-0.9,3.5,0.9c0.6,1.6,0.1,3.3-0.5,4.8c-1.3,3.1-3.1,6-4.9,8.8c-3.6,5.7-7.8,10.9-12.4,15.7
	c-1.2,1.2,0.7,3.1,1.9,1.9c6-6.2,11.2-13.1,15.4-20.6c1.8-3.2,4.2-7.1,3.1-11c-1-3.5-4.5-4.8-7.5-2.7
	C178.3,160.8,179.7,163.1,181.1,162.1L181.1,162.1L181.1,162.1z"/>
<path d="M142.3,235.2c-6.1,8.9-11,18.7-16.2,28.2c-1.4,2.6-2.9,5.1-4.4,7.7c-7.6,13.3-15.2,26.6-22.9,39.8
	C92,322.7,85.5,334.8,78,346.2c-6.3,9.6-14.4,18.7-24.8,23.9c-9.1,4.5-21.5,6.1-30.3,0.2c-6.5-4.3-9.9-12-11.5-19.4
	c-0.6-2.6-0.9-5.2-1-7.9c-0.1-3.9,0.6-7.9,1.1-11.7c0.1-1,0.3-2.1,0.4-3.1c0.2-1.7-2.3-2.4-2.6-0.7c-0.9,6.3-2.2,12.8-1.4,19.1
	c0.8,7.3,3.2,14.7,7.7,20.6c6.3,8,16.1,10.5,26,9.2c11.5-1.5,21.4-8.2,29.2-16.6c5.7-6.2,10.2-13.2,14.5-20.4
	c3.7-6.2,7.3-12.5,11-18.8c8.4-14.5,16.7-29,25-43.5c6.6-11.5,12.8-23.3,19.6-34.8c1.2-2,2.4-4,3.7-5.9
	C145.6,235.1,143.2,233.8,142.3,235.2L142.3,235.2L142.3,235.2z"/>
<path d="M184.7,171.6c0.8,0.3,1.2,1.9,1.2,2.7c0,1.3-0.4,2.7-0.7,4c-0.6,2.4-1.5,4.7-2.7,6.9c-2.4,4.6-5.7,8.6-9.1,12.4
	c-7.2,8.2-14.5,16.3-21.4,24.8c-3.4,4.2-6.7,8.4-9.8,12.9c-1,1.4,1.3,2.8,2.3,1.4c6.5-9.4,14-17.9,21.4-26.6
	c7.2-8.3,15.9-16.2,20.3-26.5c1.6-3.9,4.6-12.2-0.9-14.5C183.8,168.3,183.1,170.9,184.7,171.6L184.7,171.6L184.7,171.6z"/>
<path d="M114.7,214.3c-6.8,9.8-15.1,18.6-23,27.5c-8.6,9.7-17.4,19.3-26.3,28.8c-4,4.2-7.6,8.7-11.2,13.2
	c-7,8.7-13.9,17.5-20.4,26.6c-3.5,4.8-6.9,9.7-9.9,14.8c-1.9,3.2-4.1,6.8-4.6,10.5c-0.2,1.7,2.5,1.7,2.7,0c0.1-0.7,0.7-2.4,1.2-3.4
	c0.8-1.7,1.7-3.4,2.7-5c2.6-4.4,5.5-8.7,8.5-12.9c6.5-9.2,13.5-18.2,20.6-27c3.5-4.4,6.9-8.9,10.8-13c8.6-9.1,17-18.3,25.3-27.6
	c5.2-5.8,10.4-11.6,15.4-17.6c3.7-4.4,7.4-8.7,10.7-13.4C118,214.3,115.7,212.9,114.7,214.3L114.7,214.3L114.7,214.3z"/>
<path d="M21.4,330.7c-0.9-0.5-2.1-0.7-3.1-1.1c-1.8-0.6-3.6-1.2-5.4-2c-1.5-0.7-3.3-1.6-4.3-3c-0.6-0.8-0.6-1.7-0.5-2.6
	c0.4-6.3,1.4-12.6,2.3-18.9c1.4-9.9,2.9-19.7,4.2-29.6c1.8-13,3.6-26,5.4-39c0.8-5.8,1.6-11.5,3.2-17.2c3.3-11.6,9-23.6,18.4-31.4
	c5.3-4.4,11.5-7.4,17.7-10.2s12.9-5.6,19.5-8.2c12.5-4.8,25-9.4,37.4-14.4c1.1-0.4,2.2-0.9,3.3-1.3c0.6-0.2,1.3-0.4,1.8-0.9
	s0.5-1.1,0.2-1.6c-0.3-0.5-0.7-0.6-1.2-0.7c-1.7-0.2-1.7,2.5,0,2.7h0.1c-0.4-0.2-0.8-0.4-1.2-0.7l0,0l0.2-1.6
	c0.2-0.3-0.3,0.1-0.5,0.2c-0.4,0.2-0.9,0.4-1.3,0.6c-1.6,0.6-3.1,1.2-4.7,1.9c-3.3,1.3-6.6,2.7-9.9,4c-6.2,2.4-12.5,4.7-18.7,7
	c-6.4,2.4-12.7,4.8-18.9,7.5c-6.5,2.8-13,5.6-19.1,9.3C28.5,190.4,20.7,211,18,230.7c-1.9,13.3-3.7,26.5-5.6,39.8
	c-1.3,9.4-2.8,18.9-4.1,28.3c-1,7.1-2,14.1-2.7,21.2c-0.2,2.5-0.4,4.7,1.3,6.7c2.5,2.8,6.6,4.2,10.1,5.3c0.7,0.2,1.4,0.4,2,0.6
	c0.4,0.1,0.9,0.3,0.9,0.3C21.5,333.9,22.9,331.6,21.4,330.7L21.4,330.7L21.4,330.7z"/>
<path d="M184.1,155.9c9.7,3.1,19.8,5,29.3,8.6c9.2,3.5,18.1,8,26.1,13.6c7.4,5.2,14,11.2,17.8,19.5c2.9,6.2,4.2,13.4,5.5,20.1
	c2.1,10.9,3.8,21.8,5.8,32.7c1.6,8.9,3.3,17.8,4.8,26.7c2,11.5,4.1,22.9,5.8,34.4c0.5,3.3,1.1,6.6,1.3,9.9c0,0.2,0,0.4,0,0.6
	c0,0.4,0.1-0.1,0,0.3c0.1-0.3-0.1,0.2-0.2,0.3c0.1-0.2-0.3,0.3-0.5,0.5c-1,0.9-2.5,1.7-3.9,2.3c-4.5,2-9.5,3.4-14.3,4.6
	c-5.9,1.5-11.9,2.7-17.9,3.6c-5.1,0.8-10.3,1.5-15.5,1.8c-1.7,0.1-3.5,0.1-5.2-0.1c-0.2,0-0.9-0.1-1.3-0.3c0,0-0.2-0.1-0.3-0.2
	c-1.7-2.6-1.9-6.9-2.3-10.1c-0.6-5.7-0.9-11.4-1.1-17.1c-0.4-9.6-0.4-19.3-0.3-28.9c0-0.5,0-1.1,0-1.6c0-1.7-2.7-1.7-2.7,0
	c-0.1,7.6-0.1,15.3,0.1,23c0.1,6.1,0.3,12.3,0.8,18.4c0.4,4.8,0.7,9.7,1.9,14.4c0.7,2.7,1.7,4.7,4.6,5.1c4.1,0.6,8.4,0,12.5-0.4
	c11.9-1.3,24-3.6,35.4-7.2c3.8-1.2,8.1-2.5,11.2-5.1c2.2-1.8,1.7-4,1.4-6.5c-1.2-10.4-3.2-20.8-5-31.1c-1.9-11.1-3.9-22.1-6-33.2
	c-1.6-8.6-3.1-17.2-4.6-25.9c-1.4-8-2.7-16-4.9-23.8c-2.1-7.6-5.6-14.5-11.2-20.2c-6.4-6.6-14.6-11.8-22.8-16
	c-9.2-4.8-18.7-8.1-28.7-10.8c-5.1-1.3-10.1-2.7-15.1-4.3C183.1,152.7,182.4,155.3,184.1,155.9L184.1,155.9L184.1,155.9z"/>
<path d="M98,160.1c0.5,5.4,2.3,10.8,5.4,15.3c3.9,5.7,9.5,9.8,16,12.1c1.6,0.6,2.3-2,0.7-2.6c-10.7-3.9-18.4-13.5-19.4-24.9
	C100.6,158.4,97.9,158.4,98,160.1L98,160.1L98,160.1z"/>
<path d="M186.1,184.4c8.3-6,15.6-14.3,19.5-23.9c0.6-1.6-2-2.3-2.6-0.7c-3.6,8.9-10.6,16.7-18.2,22.3
	C183.4,183,184.7,185.4,186.1,184.4L186.1,184.4z"/>
<path d="M214.8,209.9c-0.2,21.1-0.4,42.3,0.2,63.4c0.1,5,0.4,10.1,0.6,15.1c0.4,10.6,0.8,21.1,1.2,31.7c0.4,11,0.9,22.1,1.4,33.1
	c0.3,6.7,0.5,13.4,1,20.1c0,0.3,0,0.6,0.1,0.8c0.2,1.7,2.9,1.7,2.7,0c-0.6-5.8-0.7-11.6-0.9-17.4c-0.5-10.8-0.9-21.5-1.4-32.3
	s-0.9-21.8-1.3-32.7c-0.2-6-0.5-12-0.7-18c-0.6-18.5-0.4-37-0.3-55.5c0-2.8,0-5.6,0.1-8.4C217.6,208.2,214.9,208.2,214.8,209.9
	L214.8,209.9L214.8,209.9z"/>
<path d="M64.8,226.1c1.9,6.2,3,12.7,4,19.1c1,6.5,1.8,13,2.1,19.6c0.1,1.7,2.8,1.7,2.7,0c-0.2-6.6-1.1-13.3-2.1-19.9
	s-2.1-13.3-4.1-19.6C66.9,223.7,64.3,224.4,64.8,226.1L64.8,226.1L64.8,226.1z"/>
<path d="M267.8,330.6c1.3,14.9,2.7,29.8,3.5,44.8c0.1,1.7,2.8,1.7,2.7,0c-0.8-14.9-2.2-29.9-3.5-44.8
	C270.4,328.9,267.7,328.9,267.8,330.6L267.8,330.6z"/>
<path d="M153.1,125.1c-0.7,1.4-1.7,2.8-2.6,4.1c-2.9,3.8-6.3,7.1-9.9,10.2c-7.1,5.9-15.6,11.1-25.1,8.4c-3.2-0.9-6-3.2-8.4-5.3
	c-2.9-2.4-5.6-5.1-8.2-7.9c-5-5.4-9.6-11.5-11.3-18.8c-0.8-3.5-1-7-1.2-10.6s-0.5-7.1-0.9-10.6c-0.8-7-2-13.9-3.7-20.7
	c-0.4-1.7-3-1-2.6,0.7c1.6,6.6,2.8,13.2,3.6,20s0.7,13,1.7,19.4c1.3,8.2,6,15.4,11.5,21.4c2.6,2.9,5.3,5.6,8.2,8.2s5.8,4.9,9.2,6.3
	c8.5,3.4,17.5-0.1,24.5-5.1c5.1-3.6,9.8-7.9,13.7-12.7c1.4-1.7,2.9-3.6,3.8-5.6C156.1,124.8,153.8,123.5,153.1,125.1L153.1,125.1
	L153.1,125.1z"/>
<path d="M161.4,93.1c1.9-3.2,6-7.8,10-4.9c3.2,2.3,4.1,7.1,3.8,10.8c-0.4,4.1-2.2,7.8-4.9,10.8s-6.1,6.2-10.3,7
	c-1.7,0.3-1,2.9,0.7,2.6c5-0.9,9.4-5,12.5-8.9s5-8.9,4.7-14c-0.2-4.4-2.3-10.1-7-11.6c-5.2-1.6-9.5,2.7-11.9,6.7
	C158.2,93.2,160.5,94.5,161.4,93.1L161.4,93.1L161.4,93.1z"/>
<path d="M171.3,92.9c-3-0.8-5.2,1.9-6.8,4s-2.7,4.5-3.4,7c-0.5,1.7,2.1,2.4,2.6,0.7c0.6-2.1,1.5-4,2.7-5.8c0.6-0.8,1.2-1.6,1.9-2.4
	c0.4-0.4,0.7-0.7,1.2-0.9c0.4-0.2,0.7-0.2,1.1-0.1C172.2,96,172.9,93.4,171.3,92.9L171.3,92.9L171.3,92.9z"/>
<path d="M164.4,100.9c0,0,0.3,0.1,0.2,0s0.1,0.1,0.1,0.1c-0.1-0.1-0.1-0.1,0,0c0.1,0.1,0.1,0.1,0.2,0.2c0.1,0.2-0.1-0.2,0,0.1
	c0,0.1,0.1,0.1,0.1,0.2c0,0,0.1,0.3,0.1,0.2s0.1,0.1,0.1,0.2c0.1,0.2,0.1,0.3,0.1,0.5c0,0.1,0,0.2,0.1,0.3c0-0.2,0-0.1,0,0
	c0,0.4,0,0.7,0,1.1c0-0.1,0-0.2,0,0c0,0.1,0,0.2-0.1,0.3c0,0.2-0.1,0.3-0.1,0.5c0,0.1-0.1,0.2-0.1,0.3c-0.1,0.2,0.1-0.2,0,0.1
	c-0.1,0.2-0.1,0.3-0.2,0.5c-0.1,0.2-0.2,0.3-0.3,0.5c-0.1,0.2,0.2-0.2,0,0c-0.1,0.1-0.1,0.1-0.1,0.2c-0.1,0.1-0.3,0.3-0.4,0.4
	c-0.1,0.1-0.1,0.1-0.2,0.2c0.2-0.2-0.1,0-0.1,0.1c-0.6,0.4-0.9,1.2-0.5,1.8c0.4,0.6,1.2,0.9,1.8,0.5c1.8-1.2,2.9-3.1,3.1-5.3
	s-0.7-4.8-3-5.3c-0.7-0.2-1.5,0.2-1.7,0.9C163.3,99.9,163.7,100.7,164.4,100.9L164.4,100.9L164.4,100.9z"/>
<g>
	<path d="M94.6,88.4c0.3,0.2,0.7,0.9,0.8,1.2c0.4,1,0.6,2.1,0.6,3.2c0,0.5-0.1,1-0.2,1.4s-0.6,0.8-1,0.9c-0.7,0.1-1.3-0.3-1.7-0.8
		c-0.5-0.7-0.8-1.6-0.8-2.4c0-0.9,0.1-1.7,0.3-2.6c0.1-0.3,0.2-0.6,0.4-0.8c0.2-0.2,0.5-0.4,0.9-0.4C94.1,88,94.4,88.2,94.6,88.4z"
		/>
	<path d="M94.1,89.2C93.9,89.1,94.1,89.2,94.1,89.2c0,0,0.1,0.2,0.1,0.2c0.1,0.1,0.1,0.2,0.2,0.3c0,0.1,0.2,0.4,0.1,0.2
		c0.2,0.5,0.3,1,0.4,1.6c0.1,0.5,0.1,1,0.1,1.5c0,0.3,0,0.3-0.1,0.6c0,0.1,0,0.1-0.1,0.2c0,0,0-0.1,0,0c0,0.1-0.2,0.3-0.1,0.2
		c0,0-0.2,0.2-0.1,0.1c0,0-0.2,0.1-0.1,0.1c0,0-0.2,0-0.1,0c0.1,0-0.1,0-0.1,0c0.2,0.1-0.2-0.1-0.1,0c0.1,0-0.1-0.1-0.1-0.1
		c-0.1,0-0.1-0.1-0.1-0.1c0.1,0.1-0.1-0.1-0.1-0.1s-0.2-0.2-0.1-0.1c-0.1-0.1-0.2-0.2-0.2-0.3c-0.1-0.2-0.1-0.3-0.2-0.5
		c0-0.1-0.1-0.2-0.1-0.3c0-0.1,0-0.1,0-0.2c0,0,0-0.2,0-0.1c-0.1-0.5-0.1-1.1,0-1.6c0.1-0.3,0.1-0.6,0.2-0.9c0-0.1,0.1-0.3,0.1-0.4
		c0,0,0.1-0.1,0-0.1c0,0,0.1-0.1,0.1-0.1c-0.1,0.1-0.1,0.1,0,0c0,0,0.1-0.1,0,0s0.1,0,0.1,0c0,0,0.2,0,0.2,0c0,0-0.1,0-0.1,0
		c0,0.1-0.1-0.1,0,0C93.9,89.1,94,89.2,94.1,89.2c0.4,0.3,1.1,0.1,1.4-0.4c0.3-0.5,0.1-1.1-0.4-1.4c-0.7-0.5-1.6-0.6-2.3-0.2
		c-0.7,0.3-1.1,1-1.2,1.7c-0.4,1.5-0.6,3.2,0,4.7c0.6,1.4,2,2.9,3.6,2.3s1.9-2.4,1.8-3.9c-0.1-0.9-0.2-1.8-0.6-2.6
		c-0.3-0.8-0.7-1.5-1.3-2c-0.4-0.3-1.1-0.1-1.4,0.4C93.4,88.4,93.6,88.9,94.1,89.2L94.1,89.2z"/>
</g>
<g>
	<path d="M125.8,83.9c0.3,0.2,0.7,0.9,0.8,1.2c0.4,1,0.6,2.1,0.6,3.2c0,0.5-0.1,1-0.2,1.4s-0.6,0.8-1,0.9c-0.7,0.1-1.3-0.3-1.7-0.8
		c-0.5-0.7-0.8-1.6-0.8-2.4c0-0.9,0.1-1.7,0.3-2.6c0.1-0.3,0.2-0.6,0.4-0.8c0.2-0.2,0.5-0.4,0.9-0.4
		C125.3,83.5,125.6,83.7,125.8,83.9z"/>
	<path d="M125.3,84.8C125.1,84.7,125.3,84.8,125.3,84.8c0,0,0.1,0.2,0.1,0.2c0.1,0.1,0.1,0.2,0.2,0.3c0,0.1,0.2,0.4,0.1,0.2
		c0.2,0.5,0.3,1,0.4,1.6c0.1,0.5,0.1,1,0.1,1.5c0,0.3,0,0.3-0.1,0.6c0,0.1,0,0.1-0.1,0.2c0,0,0-0.1,0,0c0,0.1-0.2,0.3-0.1,0.2
		c0,0-0.2,0.2-0.1,0.1c0,0-0.2,0.1-0.1,0.1c0,0-0.2,0-0.1,0c0.1,0-0.1,0-0.1,0c0.2,0.1-0.2-0.1-0.1,0c0.1,0-0.1-0.1-0.1-0.1
		c-0.1,0-0.1-0.1-0.1-0.1c0.1,0.1-0.1-0.1-0.1-0.1s-0.2-0.2-0.1-0.1c-0.1-0.1-0.2-0.2-0.2-0.3c-0.1-0.2-0.1-0.3-0.2-0.5
		c0-0.1-0.1-0.2-0.1-0.3c0-0.1,0-0.1,0-0.2c0,0,0-0.2,0-0.1c-0.1-0.5-0.1-1.1,0-1.6c0.1-0.3,0.1-0.6,0.2-0.9c0-0.1,0.1-0.3,0.1-0.4
		c0,0,0.1-0.1,0-0.1c0,0,0.1-0.1,0.1-0.1c-0.1,0.1-0.1,0.1,0,0c0,0,0.1-0.1,0,0s0.1,0,0.1,0c0,0,0.2,0,0.2,0c0,0-0.1,0-0.1,0
		c0,0.1-0.1-0.1,0,0C125.1,84.7,125.2,84.7,125.3,84.8c0.4,0.3,1.1,0.1,1.4-0.4c0.3-0.5,0.1-1.1-0.4-1.4c-0.7-0.5-1.6-0.6-2.3-0.2
		c-0.7,0.3-1.1,1-1.2,1.7c-0.4,1.5-0.6,3.2,0,4.7c0.6,1.4,2,2.9,3.6,2.3s1.9-2.4,1.8-3.9c-0.1-0.9-0.2-1.8-0.6-2.6
		c-0.3-0.8-0.7-1.5-1.3-2c-0.4-0.3-1.1-0.1-1.4,0.4C124.6,83.9,124.8,84.4,125.3,84.8L125.3,84.8z"/>
</g>
<path d="M71.6,49.5c2,3.8,6.3,5.5,10.3,6.2c4.6,0.9,9.3,0.8,13.9,0.2c9.6-1.2,18.9-4.4,27.9-7.9c1.6-0.6,0.9-3.2-0.7-2.6
	c-8.2,3.2-16.7,6.1-25.4,7.5c-4.3,0.7-8.7,1-13,0.5c-3.9-0.4-8.8-1.5-10.8-5.3C73.1,46.6,70.7,48,71.6,49.5L71.6,49.5L71.6,49.5z"/>
<path d="M177.6,101.1c1.3-9.3,6.1-17.8,8.4-26.9c1.3-5.2,1.6-10.3,1.3-15.5c-0.6-10.3-4.7-20.5-11.6-28.2c-2.5-2.8-5.4-5.3-8.5-7.4
	c-1.8-1.2-3.7-2.3-5.6-3.2c-0.9-0.5-1.9-0.9-2.9-1.3c-0.4-0.2,0.2,0.2-0.1,0c-1.1-0.7-2-1.7-3.1-2.4c-2.1-1.4-4.5-2.6-6.9-3.6
	c-7.9-3.2-16.7-3.9-25.1-2.8s-17.3,2.8-25.2,6.7c-3.7,1.8-7.2,4.1-10.3,6.7c-1.8,1.5-3.5,3.1-5.1,4.7c-0.6,0.6-1.2,1.4-1.9,2
	c0.2-0.1-0.4,0.3-0.6,0.4c-4.7,2.9-9.7,6.5-10.6,12.4c-0.3,1.8-0.1,3.7,0.4,5.5c0.4,1.7,3.1,1,2.6-0.7c-1.8-6.4,2.8-11,7.8-14.1
	c0.6-0.4,1.3-0.8,1.9-1.2c1.4-1.1,2.5-2.6,3.7-3.8c2.9-2.9,6.2-5.5,9.7-7.6c7-4.2,14.9-6.3,22.9-7.6c8.7-1.4,17.4-1.8,25.9,0.9
	c4.1,1.3,8.2,3.3,11.4,6c1.6,1.4,3.7,1.9,5.5,2.9c3.4,1.8,6.7,4.1,9.5,6.7c7.6,7.2,12.3,17.2,13.3,27.6c0.4,3.6,0.5,7.3,0,10.9
	c-1.3,9.2-5.6,17.7-8.2,26.6c-0.6,1.8-1,3.7-1.3,5.7C174.8,102.1,177.4,102.8,177.6,101.1L177.6,101.1L177.6,101.1z"/>
<path d="M161.1,88.7c-5.6-4.5-10.1-10.5-12.7-17.2c-0.8-2-1.7-4.3-1.9-6.5c-0.1-0.7,0-1.3-0.1-2c-0.5-6-2.7-12.3-8-15.7
	c-4.6-3-10.3-2.9-15.5-2c-1.7,0.3-1,2.9,0.7,2.6c4.4-0.8,9.3-0.9,13.3,1.6c2.6,1.7,4.4,4.3,5.5,7.2c0.8,2.2,1.2,4.5,1.4,6.9
	c0.2,3.1,1,6.1,2.2,9c2.8,7,7.3,13.2,13.2,17.9C160.6,91.7,162.5,89.8,161.1,88.7L161.1,88.7L161.1,88.7z"/>
<path d="M86.5,81.8c5-1.3,9.7-4,13.4-7.7c1.2-1.2-0.7-3.1-1.9-1.9c-3.4,3.4-7.6,5.8-12.2,7C84.1,79.6,84.8,82.2,86.5,81.8L86.5,81.8
	z"/>
<path d="M171.1,80.8c-5.7-2.8-10.8-6.8-15-11.6c-1.1-1.3-3,0.6-1.9,1.9c4.3,5,9.6,9.1,15.5,12C171.3,83.9,172.7,81.6,171.1,80.8
	L171.1,80.8L171.1,80.8z"/>
<path d="M127.1,68.8c-4.4,1-9,1.2-13.5,0.6c-0.7-0.1-1.3,0.7-1.3,1.3c0,0.8,0.6,1.3,1.3,1.3c4.7,0.6,9.5,0.3,14.2-0.7
	C129.6,71,128.8,68.4,127.1,68.8L127.1,68.8L127.1,68.8z"/>
<g>
	<path class="st3" d="M128.7,116.4c-4.7-1-7.4-0.3-11,0.5c-3.6,0.7-6.9,3.3-7.4,7l0,0c-0.6,5.2,6.5,4,11.2,2.8s11.5-0.5,12.5-5
		C135,117.1,128.7,116.4,128.7,116.4z"/>
	<path d="M111.7,124.2c0.7-4.8,5.6-6,9.7-6.6c2.5-0.4,4.9-0.2,7.3,0.2c-0.5-0.1,0.1,0,0.3,0.1c0.5,0.1,1.1,0.2,1.6,0.5
		c1,0.4,2.1,1.1,2.2,2.2c0.2,1.5-0.9,2.5-2.1,3c-1.7,0.7-3.6,0.8-5.4,1.1c-1.9,0.2-3.8,0.7-5.6,1.1s-3.8,0.8-5.7,0.6
		c-1.6-0.2-2.4-0.8-2.2-2.5s-2.5-1.7-2.7,0c-0.2,2,0.7,3.8,2.6,4.6s4.1,0.6,6.2,0.3c2.3-0.3,4.4-1,6.7-1.4s4.6-0.4,6.8-1.2
		c2-0.7,3.6-2.1,4.1-4.2s-0.3-3.9-1.9-5.2c-1.1-0.8-2.5-1.4-3.9-1.6c-2.2-0.4-4.3-0.7-6.5-0.5c-5.6,0.4-12.9,2.2-13.9,8.8
		C108.8,125.2,111.4,125.9,111.7,124.2L111.7,124.2z"/>
</g>
<path d="M83.4,56.3c-2.1,6.5-3.2,13.3-3.4,20.1c0,1.7,2.7,1.7,2.7,0C82.9,69.8,84,63.3,86,57C86.6,55.4,84,54.7,83.4,56.3L83.4,56.3
	L83.4,56.3z"/>
<path d="M73.1,52.7c-1.8,9.8,2.3,19,6.8,27.6c0.8,1.5,3.1,0.2,2.3-1.4c-4.1-7.8-8.2-16.5-6.5-25.5C76,51.8,73.4,51,73.1,52.7
	C73.1,52.7,73.1,52.7,73.1,52.7z"/>
<path d="M103,90.9c-0.4,2.3-1,4.5-1.8,6.7c-0.7,2-2,4.1-2.2,6.2c-0.1,1.8,0.7,4,2.1,5.2c1.3,1,2.9,1.5,4.3,2.4
	c1.5,0.9,2.8-1.4,1.4-2.3c-1.2-0.7-2.5-1.2-3.7-1.9c-1.3-0.9-1.6-2.8-1.2-4.2c0.6-1.8,1.5-3.5,2.1-5.3c0.7-2,1.2-4,1.6-6.1
	C105.9,89.9,103.3,89.2,103,90.9L103,90.9L103,90.9z"/>
<path d="M119,150.3c0.1,0.6,0.2,1.1,0.2,1.6l-0.1-0.4c0.1,1-0.1,2.1-0.2,3.1c-0.1,0.7,0.7,1.4,1.3,1.4c0.8,0,1.3-0.6,1.3-1.4
	c0.1-0.6,0.1-1.1,0.2-1.6c0-0.2,0.1-0.5,0.1-0.8c0-0.4-0.1-0.7-0.1-1.1c-0.1-0.6-0.2-1.1-0.2-1.6c0-0.3-0.4-0.7-0.6-0.8
	c-0.3-0.2-0.7-0.2-1-0.1s-0.6,0.3-0.8,0.6C119,149.6,119,149.9,119,150.3L119,150.3L119,150.3z"/>
<path d="M164.4,116.7c0,5.2,0,10.4,0.5,15.6c0.5,5.2,1.7,10.2,3,15.2c0.4,1.7,3.1,1,2.6-0.7c-1.3-4.9-2.5-9.8-3-14.9
	c-0.5-5-0.4-10.1-0.5-15.2C167.1,115,164.4,115,164.4,116.7L164.4,116.7L164.4,116.7z"/>
<path d="M219.1,335.6l0.1,7.8c-1,0.2,39.3-6.3,46-12.1c0,0-31.7,7.1-36.3,6.1S219.1,335.6,219.1,335.6z"/>
<path d="M68.3,232.9c0,0,0.9,33.7-2.2,38s6.1-4.5,6.1-4.5S69.8,237.1,68.3,232.9L68.3,232.9z"/>
<path d="M75.3,361.1c0.1-0.1,17.2-23.5,24-38s30.2-62.1,30.2-62.1s-35.2,60.5-38.7,66.2c-3.5,5.7-16.5,24.9-16.5,24.9
	S75.3,361.1,75.3,361.1z"/>
</svg>
