<?xml version="1.0" encoding="UTF-8"?>
<svg id="Layer_1" data-name="Layer 1" xmlns="http://www.w3.org/2000/svg" viewBox="0 0 335.49 475.97">
  <path d="m47.15,38.72s-9.88,8.37-11.25,18.01-1.63,23.26,2.63,32.72,8.23,16.31,6.85,20.9-2.63,6.35-2.63,6.35c0,0,9.1-1.49,11.38-10.13s94.76,3.94,94.76,3.94c0,0,14.16-11.59,15.77-14.97,0,0-1.11,17.89,6.09,28.45,7.2,10.57,18.66,20.14,40.27,19.67l11.61-2.58s-10.84-2.05-12.44-14.25-1.44-32.28-1.96-42.21-2.88-38.77-12.73-50.87c-9.85-12.1-25.87-20.62-40.21-15.61l-2.19.5s-14.78-13.13-32.72-15.68-39.85-.86-55.2,10.42c-15.35,11.27-18.03,25.33-18.03,25.33h0Z" fill="#785756" stroke-width="0"/>
  <path d="m59.34,58.04s-9.02,6.4-10.58,17.14c-1.56,10.73,4.54,25.99,5.37,29.25s5.24,26.05,7.45,30.55,11.11,19.59,25.14,27.34l-14.79,9.12s.98,17.1,23.82,28.16c22.84,11.06,44.71,7.94,53.13,2.79,8.42-5.15,23.65-17.32,28.8-33.65s-2.93-25.66-2.93-25.66c0,0-17.78.59-21.66-1.99-3.89-2.58-4.87-13.07-4.87-13.07,0,0,7.82-6.97,10.69-14.49s.11-14.35-3.48-17.98c-3.6-3.63-10.1-2.23-12.62,2.43l-2.51,4.66s-5.44-.95-12.27-8.27c0,0-12.82-2.22-23.24-19.06-10.42-16.84-16.16-31.15-26.64-35.54-10.49-4.39-13.33,14.26-13.33,14.26l-5.5,4.02h.02Z" fill="#fec3aa" stroke-width="0"/>
  <path d="m71.93,171.43s-29.52,9.75-39.48,18.24c-9.97,8.48-20.48,20.27-23.53,33.49-3.05,13.23-1.83,28.61-2.09,33.9s-3.72,43.36-4.37,49.4c-.65,6.03,0,11.94,0,11.94,0,0,12.83,6.42,23.73,8.62,5.45,1.1,15.95,1.8,23.83.97,7.89-.83,13.16-3.18,13.16-3.18,0,0,9.7,19.29,16.13,26.01s12.16,26.1,11.44,31.17-11.28,27.92-11.28,27.92c0,0-15.37,41.28-14.43,55.43h199.54s-4.25-29.89-5.31-35.96-3.36-35.18-3.36-35.18c0,0-6.66-38.16-6.96-45.29-.31-7.13-.96-44.56-.96-44.56,0,0,5.29,2.31,11.36-1.75,6.08-4.06,19.74-16.59,26.92-25.51,7.17-8.92,18.87-25.67,21.5-29.43,2.63-3.76-3.21-11.33-5.83-13.08-2.62-1.76-18.42-27.48-24.61-35.57s-19.26-33.08-39.5-44.07c-6.32-3.43-14.76-7.66-21.3-9.53-14.39-4.12-27.17-3.19-41.77-2.33,0,0,6.28,9.61,4.36,19.24s-15.53,33.87-30.24,40.07-31.22,5.43-46.07.27c-14.85-5.16-30.01-16.15-30.88-31.22h0Z" fill="#d8d7e6" stroke-width="0"/>
  <path d="m4.87,319.82s-3.42,32.7-3.52,33.65.48,17.39,10.28,22.39,45.91,15.26,45.91,15.26c0,0,21.29,5.92,22.7,7.1s10.5,12.48,14.52,15.68c4.01,3.21,17.71,11,17.71,11,0,0-3.42,2.6-1.53,5.08s2.8,2.31,2.8,2.31c0,0-10.35,1.23-12.48,2.06s-1.06,4.49-1.06,4.49c0,0-3.66-1.47-6.61-.5s-2.29,6.57-.85,7.67,3.57,2.39,3.57,2.39c0,0-4.79,1.86-3.07,4.37s6.23,6.26,6.23,6.26c0,0-3.52,1.52-.8,6.31s13.22,9.44,21.61,9.3,35.8.03,49.96-8.2c14.16-8.23,28.32-18.03,34.11-20.63s58.74-29.43,64.91-34.14,45.96-26.01,56.11-44.11c10.16-18.1,10.13-26.88,7.9-36.31s-20.07-48.58-20.07-48.58l-11.55-24.06s-20.56,24.37-23.39,27.44-17.46,17.63-20.13,17.79l18.61,35.51-17.02,14.83-48.29,43.81s-20.07,17.71-24.44,18.07-29.28-.59-29.28-.59l-5.2-.71s11.1-1.65,14.17-3.66c3.07-2.01,1.86-5.45,1.86-5.45,0,0,3.35-1.32,3.76-4.48.4-3.17-4.38-4.04-4.38-4.04,0,0-5.6.28-5.72-.07s6.67-1.77,6.88-4.72-1.09-4.96-6.88-5.79c-5.79-.83-16.29,0-23.5-2.48,0,0,5.67.83,5.67-4.37,0,0-12.57-6.52-13.37-6.92s-11.31-3.35-18.16-4.77-15.27.48-15.27.48c0,0-15.78-15.4-24.99-21.4s-13.79-4.16-15.4-6.56c-1.6-2.4-1.2-13.5-1.2-13.5,0,0-14.81,2.25-26.74.6-11.93-1.65-24.35-7.79-24.35-7.79l-.02-.02Z" fill="#fec3aa" stroke-width="0"/>
  <path d="m86.04,161.15c-14.15,9.46-30.7,14.47-45.7,22.32-7.48,3.91-14.58,8.62-20.03,15.15-4.84,5.79-8.69,12.37-11.23,19.49-3.18,8.89-4.14,18.4-3.19,27.77.17,1.71,2.87,1.73,2.7,0-1.6-15.91,2.73-31.72,12.74-44.26s26.69-19.03,41.47-25.52c8.43-3.71,16.93-7.48,24.61-12.62,1.44-.96.09-3.3-1.36-2.33h-.01Z" stroke-width="0"/>
  <path d="m44.1,234.82c5.77,11.85,9.66,24.52,11.58,37.56.25,1.71,2.85.98,2.6-.72-1.96-13.27-5.98-26.14-11.85-38.2-.76-1.56-3.09-.19-2.33,1.36h0Z" stroke-width="0"/>
  <path d="m55.64,272.02c1.17,11.97.72,24.05,1.98,36.02,1.25,11.83,5.59,23.04,12.25,32.88,4.02,5.95,8.77,11.36,13.72,16.55,1.2,1.26,3.11-.65,1.91-1.91-8.54-8.95-16.33-18.68-20.91-30.29-2.08-5.27-3.53-10.68-4.17-16.31-.67-5.83-.89-11.71-1.1-17.58-.23-6.46-.36-12.93-.98-19.36-.17-1.71-2.86-1.73-2.7,0h0Z" stroke-width="0"/>
  <path d="m151.36,142.39c3.51,1.31,7.43,1.59,11.13,1.8,5.08.3,10.17.26,15.26.21,10.59-.12,21.54-.95,32.03.87,12.18,2.11,23.5,7.65,33.41,14.93,9.86,7.24,17.85,16.13,24.66,26.25,7.59,11.29,13.93,23.36,21.26,34.81.93,1.46,3.27.11,2.33-1.36-6.64-10.36-12.45-21.22-19.13-31.56s-14.05-19.5-23.53-27.18c-9.54-7.74-20.47-14-32.4-17.18-10.75-2.87-21.91-2.5-32.94-2.34-5.99.09-11.99.21-17.98,0-4.44-.15-9.2-.27-13.4-1.84-1.63-.61-2.33,2-.72,2.6h.02Z" stroke-width="0"/>
  <path d="m216.27,189.72c.98,7.06,1.96,14.17,3.92,21.04s4.94,12.81,8.18,18.9,6.36,12.23,8.74,18.74c2.3,6.29,4.08,12.77,5.44,19.34,4.68,22.6,4.24,45.64,4.63,68.59.08,4.66.22,9.32.52,13.97.26,4.1.44,8.41,1.57,12.39.47,1.67,3.07.96,2.6-.72-.97-3.45-1.16-7.14-1.41-10.7-.29-4.26-.44-8.53-.54-12.8-.19-8.62-.1-17.25-.3-25.87-.63-26.8-3.4-54.14-15.78-78.35-3.61-7.07-7.73-13.91-10.22-21.5s-3.64-15.75-4.74-23.74c-.24-1.71-2.84-.98-2.6.72h0Z" stroke-width="0"/>
  <path d="m289.33,221.53c3.73,4.2,7.19,8.64,10.78,12.95,1.78,2.14,3.76,4.15,5.44,6.36,1.52,2.01,2.83,4.61,1.72,7.12-.9,2.04-2.73,3.64-4.09,5.38-.85,1.09-1.69,2.18-2.53,3.28-1.99,2.59-3.96,5.18-5.96,7.76-4.77,6.16-9.63,12.25-14.79,18.09-4.89,5.54-10.05,11.04-15.95,15.51-3.72,2.82-9.82,7.19-14.77,4.98-1.57-.7-2.94,1.62-1.36,2.33,5,2.24,10.43-.24,14.68-3,6.37-4.14,11.83-9.69,16.93-15.27,5.72-6.25,11.04-12.85,16.24-19.54,2.2-2.83,4.38-5.68,6.56-8.53.87-1.14,1.74-2.28,2.62-3.41,1.41-1.81,3.14-3.46,4.32-5.44,3.37-5.61-1.18-10.59-4.72-14.67-4.51-5.19-8.65-10.69-13.22-15.83-1.16-1.3-3.06.61-1.91,1.91h0v.02Z" stroke-width="0"/>
  <path d="m5.89,245.88c-.23,9.18-.7,18.36-1.31,27.53-.62,9.31-1.27,18.67-2.66,27.9-.63,4.2-1.39,8.39-1.53,12.65-.06,1.79-.14,4.01,1.15,5.43,1.17,1.29,3.3,1.95,4.81,2.76,6.99,3.72,14.5,5.79,22.31,6.84,11.54,1.55,23.91,1.37,34.89-2.88,1.6-.62.9-3.23-.72-2.6-9.55,3.7-20.1,4.19-30.2,3.24-7.63-.71-14.83-2.39-21.83-5.48-1.97-.87-3.82-1.97-5.78-2.86-.64-.29-1.34-.51-1.69-1.16-.43-.82-.27-2.18-.25-3.08.11-4.09.83-8.11,1.44-12.15,1.31-8.65,1.98-17.41,2.59-26.13.7-9.99,1.23-20,1.48-30.01.04-1.74-2.65-1.74-2.7,0h0Z" stroke-width="0"/>
  <path d="m3.47,320.61c-.75,7.27-2.25,14.46-2.78,21.75-.18,2.49-.07,5.03-.38,7.49-.18,1.45-.31,2.88-.31,4.34,0,4.9,1.05,9.87,3.45,14.17,3.34,5.99,8.86,9.51,15.1,11.95,13.41,5.23,27.42,8.93,41.25,12.85,5.34,1.51,10.71,2.97,15.98,4.72,1.29.43,2.6.78,3.63,1.42,1.66,1.03,2.9,2.97,4.08,4.49,4.55,5.86,9.34,11.48,15.78,15.36,3.41,2.06,7.12,3.7,10.69,5.45,1.03.5,2.19,1.29,3.32,1.57.63.16,1.25,0,1.61-.59.25-.4.25-.96,0-1.36-.14-.23-.32-.4-.55-.53-1.51-.86-2.87,1.47-1.36,2.33.24.13-.42-.45-.41-.44v-1.36h0c.39-.22.78-.44,1.16-.67.3,0,.76.25.21-.02-.6-.29-1.2-.57-1.8-.86-3.15-1.54-6.32-3.06-9.43-4.68-6.65-3.47-11.7-8.88-16.25-14.73-1.46-1.88-2.85-3.96-4.67-5.52-1-.86-2.13-1.32-3.35-1.78-4.36-1.63-8.9-2.82-13.37-4.1-13.48-3.85-27.05-7.48-40.28-12.11-6.22-2.18-12.61-4.37-16.93-9.63-3.2-3.9-4.81-8.91-5.12-13.9-.11-1.78-.07-3.56.12-5.34.04-.39.06-.31.13-.87.2-1.7.14-3.46.23-5.17.42-8.14,2.1-16.13,2.94-24.23.18-1.72-2.52-1.71-2.7,0h.01Z" stroke-width="0"/>
  <path d="m27.35,353.28c4.47-6.65,13.01-8.72,20.34-10.45,1.69-.4.97-3-.72-2.6-8.12,1.91-17.03,4.37-21.95,11.69-.97,1.44,1.36,2.8,2.33,1.36h0Z" stroke-width="0"/>
  <path d="m54.46,327.01c.32,2.44.09,4.79.09,7.23,0,2.27.05,5.44,1.66,7.23s4.58,2.09,6.78,2.91c2.67.99,5.23,2.29,7.68,3.73,9.84,5.76,18.14,13.8,26.29,21.67,1.25,1.21,3.16-.7,1.91-1.91-7.66-7.4-15.45-14.86-24.46-20.63-4.26-2.73-8.8-4.99-13.66-6.43-1.61-.48-2.68-.8-3.14-2.59-.32-1.27-.37-2.66-.37-3.98,0-2.44.24-4.79-.09-7.23-.23-1.7-2.93-1.72-2.7,0h0Z" stroke-width="0"/>
  <path d="m98.27,370.12c6.3-1.4,12.85-1.56,19.19-.33,5.97,1.16,11.65,3.44,17.08,6.12,2.64,1.31,5.28,2.66,7.83,4.14.47.27,1.54.7,1.32,1.45-.15.54-1.26.83-1.7.95-1.42.39-3.04.35-4.5.27-6.53-.38-12.99-3.28-19.13-5.34-1.65-.55-2.36,2.05-.72,2.6,5.8,1.94,11.67,4.39,17.76,5.22,2.9.39,12.06.83,10.98-4.51-.46-2.28-3.27-3.31-5.07-4.28-2.6-1.41-5.22-2.77-7.9-4.01-5.16-2.4-10.55-4.4-16.17-5.38-6.55-1.14-13.21-.94-19.7.5-1.69.38-.98,2.98.72,2.6h.01Z" stroke-width="0"/>
  <path d="m129.65,383.95c7.41,3.59,16.17,3.44,24.21,3.95,1.85.12,3.69.34,5.54.35,2.42.01,5.7-.33,7.61,1.51,2.6,2.49-1.87,4.7-3.84,5.13-2.77.6-5.73.46-8.54.42-6.96-.09-13.89-.71-20.76-1.82-1.7-.27-2.43,2.32-.72,2.6,6.78,1.1,13.62,1.76,20.48,1.9,4.83.1,13.03.96,15.98-4.01,1.29-2.17.92-4.84-1.07-6.42s-4.67-1.96-7.21-2c-4.56-.06-9.11-.41-13.66-.71-5.56-.36-11.58-.76-16.67-3.23-1.55-.75-2.92,1.57-1.36,2.33h.01Z" stroke-width="0"/>
  <path d="m157.95,398.01c2.47.21,4.94.17,7.41.28,1.38.06,4.32-.19,5.27,1.08,1.29,1.72-1.15,3.48-2.54,3.9-2.07.63-4.33.85-6.48.96s-4.46-.14-6.7-.09c-2.69.06-5.4.27-8.09.03-5.29-.48-10.58-1.26-15.85-1.9-1.72-.21-1.7,2.49,0,2.7,4.8.58,9.61,1.15,14.41,1.73,2.54.3,5.04.28,7.59.2,2.36-.08,4.69.04,7.05.08,2.01.03,4.05-.21,6.03-.52,1.81-.28,3.71-.64,5.21-1.75,2.66-1.97,3.42-6.35.12-8.13-1.68-.91-3.94-.89-5.79-.97-2.55-.11-5.1-.07-7.65-.29-1.73-.14-1.72,2.55,0,2.7h0Z" stroke-width="0"/>
  <path d="m167.59,406.85c1.42,1.48-.61,3.21-1.89,3.77-1.45.63-3.09.95-4.64,1.23-3.32.59-6.72.71-10.08.7-6.34,0-12.66-.67-19-.7-1.74,0-1.74,2.69,0,2.7,7.96.03,15.88,1.03,23.84.57,3.66-.21,7.69-.58,11.08-2.09,3.07-1.37,5.31-5.23,2.59-8.08-1.2-1.26-3.11.65-1.91,1.91h.01Z" stroke-width="0"/>
  <path d="m275.86,338.55c-11.99,9.35-23.1,19.83-34.22,30.17-11.59,10.77-23.03,21.73-34.99,32.09-4.17,3.62-8.41,7.24-12.99,10.34-2.71,1.83-4.78,2.84-7.97,3.25-3.58.46-7.19.85-10.8.91-4.6.08-9.14-.99-13.75-1.14-5.14-.17-10.27.15-15.41.02-3.85-.1-8-.48-11.74.64-5.13,1.54-10.32,3.59-15.19,5.81-2.25,1.02-4.46,2.16-6.56,3.47-1.45.91-2.68,2.04-2.98,3.8-.95,5.42,6.34,5.94,10.13,5.66,5.66-.42,10.82-2.85,16.28-4.16,2.96-.71,5.97-1.02,8.97-.37,1.69.37,2.41-2.23.72-2.6-5.51-1.2-10.87.35-16.1,2.05-5.14,1.67-11.13,3.7-16.43,1.55-2.51-1.02.12-3.21,1.37-3.95,2.25-1.33,4.58-2.52,6.98-3.57s4.81-1.94,7.25-2.83c2.5-.91,5.03-2.04,7.63-2.61,1.74-.38,3.39-.23,5.13-.22,2.31,0,4.63.04,6.94.05,4.98.02,9.95-.25,14.93.03,4.32.25,8.5,1.18,12.84,1.02,3.46-.13,6.91-.5,10.34-.96,3.07-.41,5.43-1.36,8.05-3.06,4.34-2.82,8.34-6.19,12.28-9.54,11.51-9.81,22.46-20.26,33.52-30.57s22.31-20.93,34.16-30.58c1.17-.95,2.34-1.89,3.53-2.81,1.37-1.07-.55-2.96-1.91-1.91h0v.02Z" stroke-width="0"/>
  <path d="m256.95,305.03c6.74,11.48,12.87,23.19,18.69,35.16.76,1.56,3.09.19,2.33-1.36-5.82-11.97-11.95-23.68-18.69-35.16-.88-1.5-3.21-.14-2.33,1.36h0Z" stroke-width="0"/>
  <path d="m277.17,342.29c10.09-3.71,21.06-4.24,31.44-1.44,1.68.45,2.39-2.15.72-2.6-10.81-2.91-22.36-2.43-32.87,1.44-1.61.59-.92,3.2.72,2.6h-.01Z" stroke-width="0"/>
  <path d="m113.82,430.87c-2.63-.2-5.24-.07-7.84.39-2.14.38-5,.84-6.61,2.46-2.89,2.92-.51,7.34,2.58,8.89,4.25,2.13,9.74,2.46,14.4,2.74,5.6.34,11.22.09,16.82-.16,1.73-.08,1.74-2.77,0-2.7-8.55.38-17.25.8-25.68-.97-1.69-.36-3.58-.71-5.03-1.72-1.18-.83-2.43-2.84-1.18-4.17s4.34-1.61,6.01-1.86c2.17-.33,4.35-.36,6.53-.2,1.73.13,1.72-2.57,0-2.7h0Z" stroke-width="0"/>
  <path d="m101.62,439.06c-2.55-3.03-8.63-2.69-11.15.14-1.73,1.95-1.09,4.76.34,6.67s3.73,3.22,5.74,4.43c9.07,5.46,20.32,6.37,30.67,6.38,1.74,0,1.74-2.69,0-2.7-8.09-.01-16.39-.61-24.03-3.48-1.99-.75-3.91-1.68-5.72-2.81-1.65-1.03-3.69-2.09-4.74-3.78-2.62-4.21,4.79-5.55,6.97-2.96,1.12,1.33,3.02-.59,1.91-1.91h0v.02Z" stroke-width="0"/>
  <path d="m95.49,446.65c-3.25.2-4.96,4.25-3.67,7.02.75,1.62,2.31,2.7,3.7,3.74,1.7,1.28,3.48,2.44,5.32,3.49,7.15,4.08,15.19,6.4,23.4,6.86,1.73.1,1.73-2.6,0-2.7-6.3-.36-12.54-1.88-18.27-4.55-2.73-1.27-5.34-2.78-7.81-4.51-1.2-.84-2.92-1.83-3.7-3.11-.57-.93-.49-3.47,1.02-3.57,1.72-.11,1.74-2.8,0-2.7h0v.03Z" stroke-width="0"/>
  <path d="m96.66,459.4c-2.92,7.77,7.08,12.3,12.93,13.86,6.56,1.75,13.5,2.37,20.27,2.63,12.86.49,26.06-1.31,37.85-6.71,8.24-3.78,14.97-9.76,22.55-14.6,5.24-3.34,10.72-6.37,16.41-8.87.48-.21.27-.13.58-.25.5-.2,1-.38,1.49-.58,1.31-.53,2.61-1.1,3.91-1.67,3.65-1.62,7.25-3.35,10.83-5.11,21.95-10.77,43.47-22.75,63.89-36.21,9.81-6.47,19.52-13.31,28.18-21.27,9.9-9.09,17.7-20.57,19.52-34.15,1.25-9.36-.3-19.52-4.85-27.87-1-1.84-1.67-3.86-2.47-5.79-1.94-4.73-3.93-9.44-5.96-14.13-3.97-9.17-8.11-18.27-12.41-27.28-2.15-4.51-4.35-9-6.58-13.46-.78-1.55-3.1-.19-2.33,1.36,8.83,17.67,17.04,35.66,24.56,53.93.89,2.16,1.62,4.44,2.73,6.5.55,1.02,1.07,2.06,1.52,3.13,1.8,4.24,2.93,8.83,3.34,13.42,1.26,14.18-4.67,27.68-14.32,37.88-7.34,7.76-16.04,14.24-24.78,20.32-20.07,13.99-41.53,26.1-63.29,37.23-7,3.58-14.13,7.18-21.34,10.22-9.44,3.97-18.35,8.8-26.64,14.87-6.6,4.83-13.13,9.37-20.92,12.06-5.24,1.81-10.9,3.22-16.41,3.88-6.98.84-14.12.69-21.12.09-6-.52-12.34-1.25-17.91-3.68-3.45-1.51-8.33-4.52-6.64-9.02.61-1.63-1.99-2.33-2.6-.72h.01Z" stroke-width="0"/>
  <path d="m81.93,401.85c-5.6,10.81-10.12,22.18-13.41,33.9-1.26,4.51-2.37,9.08-3.42,13.65-1.19,5.2-2,10.6-1.4,15.94.19,1.71,2.89,1.72,2.7,0-.59-5.27.21-10.54,1.41-15.66,1.03-4.42,2.09-8.84,3.31-13.21,3.23-11.51,7.64-22.65,13.14-33.26.8-1.54-1.53-2.9-2.33-1.36h0Z" stroke-width="0"/>
  <path d="m259.52,422.41l-.05-1.37c-.06-1.73-2.7-1.74-2.7,0,0,3.59.79,7.07,1.65,10.54.91,3.64,1.73,7.31,2.4,11,1.36,7.52,2.15,15.12,2.42,22.75.06,1.73,2.76,1.74,2.7,0-.26-7.44-1.02-14.86-2.29-22.2-.62-3.61-1.38-7.19-2.25-10.75-.92-3.75-1.94-7.46-1.94-11.35h-2.7l.05,1.37c.06,1.73,2.76,1.74,2.7,0h.01Z" stroke-width="0"/>
  <g>
    <path d="m146.93,129.48c1.16,5.84,2.79,11.81,6.02,16.89,2.51,3.96,5.98,7.07,10.13,9.25,1.54.81,2.9-1.52,1.36-2.33-3.83-2.01-7.03-4.84-9.32-8.53-3-4.84-4.49-10.46-5.59-16-.34-1.7-2.94-.98-2.6.72h0Z" stroke-width="0"/>
    <path d="m136.95,136.57c-.16.45-.18.47-.49,1.12-.61,1.28-1.31,2.52-2.06,3.72-2.94,4.76-6.61,9.04-10.54,12.99-7.14,7.17-16.16,13.71-26.83,11.55-3.71-.75-7.12-3.06-10.18-5.18-3.41-2.37-6.62-5.01-9.73-7.74-6.29-5.53-11.66-11.91-14.8-19.79-2.64-6.62-3.33-13.68-4.82-20.6-1.67-7.74-3.84-15.36-6.44-22.83-.57-1.63-3.17-.93-2.6.72,2.46,7.07,4.53,14.27,6.17,21.58,1.47,6.6,2.06,13.48,4.35,19.87,3.08,8.62,8.41,15.97,15.19,22.03,3.16,2.83,6.44,5.55,9.87,8.06s7.03,4.95,11.06,6.19c9.82,3.02,19.54-1.94,26.78-8.25,5.29-4.62,10.12-9.98,14-15.85,1.41-2.14,2.83-4.42,3.69-6.85.58-1.64-2.02-2.34-2.6-.72h0l-.02-.02Z" stroke-width="0"/>
    <path d="m142.1,102.13c1.79-3.95,5.96-9.65,10.99-6.74,3.8,2.2,5.36,7.5,5.43,11.61.07,4.58-1.51,8.86-4.12,12.58-2.65,3.78-6.31,7.97-10.9,9.28-1.67.48-.96,3.08.72,2.6,4.34-1.24,7.65-4.49,10.47-7.88,2.89-3.47,5.21-7.39,6.08-11.87.81-4.13.52-8.46-1.18-12.34s-4.76-7.41-9.12-7.41c-5.26,0-8.72,4.43-10.7,8.79-.71,1.57,1.61,2.94,2.33,1.36h0v.02Z" stroke-width="0"/>
    <path d="m153.46,100.97c-3.38-.57-5.5,2.38-7.02,4.95s-2.55,5.35-3.07,8.25c-.13.72.19,1.45.94,1.66.65.18,1.53-.22,1.66-.94.43-2.41,1.21-4.73,2.38-6.88.55-1.02,1.17-2.04,1.9-2.94.56-.7,1.47-1.67,2.48-1.5.72.12,1.45-.19,1.66-.94.18-.65-.22-1.54-.94-1.66h.01Z" stroke-width="0"/>
    <path d="m146.88,110.3c-.19-.02,0,.02.09.05.18.06-.19-.14.09.06.06.04.16.11.05.02.09.07.17.15.24.23.02.02.21.24.1.09.06.07.11.15.15.23.12.19.23.39.31.59-.08-.18,0,.02.03.1s.05.16.08.24c.06.2.11.41.15.62,0,.05.04.34.02.08,0,.09.02.17.02.26,0,.21.02.43,0,.64,0,.09,0,.17,0,.26,0,0-.04.36-.02.2s-.04.21-.04.2c-.02.08-.04.17-.06.25-.05.21-.11.41-.18.62-.03.08-.06.16-.09.24.08-.21-.02.05-.04.09-.17.36-.38.72-.63,1.04.11-.15-.02.01-.07.07-.07.08-.14.16-.22.23-.15.15-.31.29-.48.43-.56.46-.48,1.43,0,1.91.56.56,1.34.46,1.91,0,1.72-1.42,2.68-3.72,2.63-5.93-.05-2.47-1.36-5.2-4.04-5.52-.72-.09-1.35.68-1.35,1.35,0,.8.62,1.26,1.35,1.35h0Z" stroke-width="0"/>
    <path d="m76.08,106.21c-.56,2.14-1.12,4.29-1.68,6.43s-1.27,4.26-1.64,6.41c-.66,3.85,2.73,7.08,5.71,8.94,1.48.92,2.83-1.41,1.36-2.33-1.35-.84-2.57-1.91-3.52-3.2-.42-.57-.86-1.22-.96-1.94-.12-.88.26-1.86.48-2.69.95-3.64,1.91-7.28,2.86-10.92.44-1.68-2.16-2.4-2.6-.72h0v.02Z" stroke-width="0"/>
    <g>
      <path d="m67.22,104.3c.39.21.83.89,1.03,1.28.56,1.08.91,2.28,1.02,3.49.05.53.05,1.08-.13,1.58-.17.5-.55.96-1.06,1.12-.72.23-1.49-.18-2-.73-.66-.7-1.03-1.64-1.18-2.59s-.08-1.93.07-2.88c.05-.33.12-.67.32-.94s.47-.47.99-.58c.34-.07.66.1.93.25h.01Z" stroke-width="0"/>
      <path d="m66.71,105.17s.12.08.05.02c-.08-.06.04.05.05.05.08.09.13.14.16.18.14.18.26.39.37.59.26.49.46,1,.62,1.53s.27,1.05.31,1.59c.02.26.04.54,0,.8-.02.23-.08.41-.17.57s-.17.24-.32.31c.11-.05-.17.04-.04,0-.11.03-.1.02-.24-.02-.35-.1-.7-.41-.93-.76-.61-.88-.76-1.96-.73-3.03.02-.51.01-1.34.26-1.76-.06.1.07-.08.11-.11.08-.08-.02.02-.03.02.06-.03.11-.07.17-.09-.14.05.16-.05.03-.03.1,0,.21.08.32.14.48.26,1.1.12,1.38-.36.27-.46.12-1.13-.36-1.38-.84-.45-1.72-.54-2.56-.01-.73.46-1.06,1.2-1.18,2.03-.25,1.74-.25,3.52.56,5.13.75,1.48,2.47,2.83,4.17,2.03s1.72-2.93,1.44-4.54c-.16-.94-.47-1.84-.88-2.69-.35-.74-.83-1.52-1.55-1.95-1.12-.68-2.13,1.07-1.02,1.75h0Z" stroke-width="0"/>
    </g>
    <g>
      <path d="m101.56,95.81c.39.21.83.89,1.03,1.28.56,1.08.91,2.28,1.02,3.49.05.53.05,1.08-.13,1.58-.17.5-.55.96-1.06,1.12-.72.23-1.49-.18-2-.73-.66-.7-1.03-1.64-1.18-2.59s-.08-1.93.07-2.88c.05-.33.12-.67.32-.94s.47-.47.99-.58c.34-.07.66.1.93.25h.01Z" stroke-width="0"/>
      <path d="m101.05,96.68s.12.08.05.02c-.08-.06.04.05.05.05.08.09.13.14.16.18.14.18.26.39.37.59.26.49.46,1,.62,1.53s.27,1.05.31,1.59c.02.26.04.54,0,.8-.02.23-.08.41-.17.57s-.17.24-.32.31c.11-.05-.17.04-.04,0-.11.03-.1.02-.24-.02-.35-.1-.7-.41-.93-.76-.61-.88-.76-1.96-.73-3.03.02-.51.01-1.34.26-1.76-.06.1.07-.08.11-.11.08-.08-.02.02-.03.02.06-.03.11-.07.17-.09-.14.05.16-.05.03-.03.1,0,.21.08.32.14.48.26,1.1.12,1.38-.36.27-.46.12-1.13-.36-1.38-.84-.45-1.72-.54-2.56-.01-.73.46-1.06,1.2-1.18,2.03-.25,1.74-.25,3.52.56,5.13.75,1.48,2.47,2.83,4.17,2.03s1.72-2.93,1.44-4.54c-.16-.94-.47-1.84-.88-2.69-.35-.74-.83-1.52-1.55-1.95-1.12-.68-2.13,1.07-1.02,1.75h0Z" stroke-width="0"/>
    </g>
    <path d="m106.74,166.25h-.04c.31.3.63.62.94.93v-.04.72l.02-.05-.35.59.03-.04-.59.35h.04c-.44-.13-.87-.24-1.31-.36-.25-.25-.09-.05-.02.13.06.14.11.28.17.42.13.33.25.65.37.98.23.64.44,1.28.62,1.93.38,1.32.68,2.67.91,4.03.11.7,1.02,1.15,1.66.94.76-.24,1.06-.91.94-1.66-.24-1.46-.57-2.9-.99-4.32-.21-.7-.44-1.38-.69-2.07-.12-.33-.25-.66-.38-.98-.18-.44-.32-.98-.67-1.32-.33-.32-.86-.51-1.31-.35-.8.28-1.18.97-1.03,1.8.08.45.52.82.94.94h.04c.68.21,1.5-.22,1.66-.93s-.22-1.45-.94-1.66h0l-.02.02Z" stroke-width="0"/>
    <path d="m134.94,142.99c2.56-4.12-5.88,11.47-7.9,15.89-2.02,4.41-6.14,7.26-10.03,10.17-3.18,2.37-9.14,2.44-9.14,2.44l-.48-4.24s15.01-4.12,27.54-24.25h0Z" stroke-width="0"/>
    <path d="m57.2,95.57c5.46-2.04,10.35-5.46,14.04-9.99.46-.56.55-1.35,0-1.91-.47-.47-1.45-.57-1.91,0-3.38,4.16-7.81,7.42-12.85,9.3-.68.25-1.15.91-.94,1.66.18.66.97,1.2,1.66.94h0Z" stroke-width="0"/>
    <path d="m65.45,54.17c.63-5.81,5.18-14.91,12.43-13.1,3.2.8,5.65,3.54,7.58,6.06,2.13,2.78,4.02,5.75,5.84,8.75,3.58,5.92,6.82,12.06,10.71,17.78,3.93,5.77,8.57,10.94,14.11,15.21s12.99,8.56,20.31,6.09c1.64-.55.93-3.16-.72-2.6-7.34,2.48-14.8-2.83-20.12-7.36-5.78-4.92-10.3-10.91-14.25-17.35s-7.2-12.74-11.34-18.78c-3.35-4.9-7.99-11.33-14.75-10.64-7.6.78-11.76,9.21-12.49,15.95-.19,1.72,2.51,1.71,2.7,0h-.01Z" stroke-width="0"/>
    <path d="m73.94,53.77c.54-5.31,3.82-11.34,9.8-11.56,1.73-.07,1.74-2.76,0-2.7-3.38.13-6.58,1.83-8.72,4.43-2.31,2.8-3.42,6.26-3.78,9.83-.07.73.67,1.35,1.35,1.35.79,0,1.27-.62,1.35-1.35h0Z" stroke-width="0"/>
    <path d="m62.68,52.72c-1.46.51-2.13,1.55-2.95,2.79-1.11,1.67-2.79,2.68-4.35,3.89-2.76,2.14-4.78,5-6.11,8.21-3.2,7.75-1.96,16.24-.5,24.23.31,1.7,2.91.98,2.6-.72-1.31-7.17-2.49-14.78.11-21.81,1.08-2.92,2.83-5.6,5.25-7.57,1.25-1.02,2.67-1.85,3.83-3,.89-.88,1.68-3.02,2.84-3.43,1.63-.57.93-3.18-.72-2.6h0Z" stroke-width="0"/>
    <path d="m125.58,94.62c2.82,1.12,5.07,3.33,7.33,5.28s4.46,3.73,7.4,4.08c.72.09,1.35-.68,1.35-1.35,0-.8-.62-1.26-1.35-1.35-.97-.12-2.11-.72-3.05-1.36-1.13-.77-2.15-1.68-3.18-2.58-2.39-2.09-4.8-4.14-7.78-5.32-.68-.27-1.48.29-1.66.94-.21.77.26,1.39.94,1.66h0Z" stroke-width="0"/>
    <g>
      <path d="m90.66,145.65c1.76.42,4.08.46,5.86.13,3.51-.65,5.56-2.08,8.67-3.81,2.41-1.34,4.25-2.8,5.72-5.15.3-.48.59-1.08.37-1.61-.18-.42-.72-1.71-1.14-1.91-1.51-.72-1.24-.94-4.43-.94-1.1,0-2.19.23-3.26.5-5.38,1.32-10.76,2.64-16.14,3.96-1.05.26-2.28.69-2.51,1.74-.13.56.09,1.14.35,1.66.68,1.35,1.69,2.52,2.92,3.39,0,0,1.8,1.6,3.6,2.03h0Z" fill="#fff" stroke-width="0"/>
      <path d="m90.3,146.95c2.62.57,5.34.52,7.93-.18,2.45-.66,4.62-1.93,6.81-3.17,2.09-1.19,4.14-2.43,5.71-4.3.7-.83,1.55-1.83,1.84-2.91s-.17-2.13-.71-3.04c-2.07-3.54-7.68-2.3-10.83-1.53s-6.25,1.53-9.37,2.3c-1.48.36-2.95.72-4.43,1.08-1.18.29-2.46.51-3.48,1.23-4.74,3.36,3.28,9.6,6.53,10.52,1.67.47,2.39-2.13.72-2.6-1.25-.35-2.27-1.1-3.28-1.9-.83-.66-1.55-1.4-2.11-2.32-.24-.4-.71-1.03-.36-1.48.22-.29.88-.4,1.21-.49,4.54-1.24,9.15-2.25,13.71-3.36,2.15-.53,4.22-1.13,6.44-1.08.9.02,1.97.05,2.69.69.25.22.67,1.04.65,1.26-.05.73-1.2,1.81-1.68,2.32-1.34,1.4-2.96,2.33-4.63,3.28-4,2.27-7.95,4.11-12.66,3.08-1.69-.37-2.41,2.23-.72,2.6h.02Z" stroke-width="0"/>
    </g>
    <path d="m83.07,83.12c4.56,2.46,9.8,3.56,14.96,3.03.81-.08,1.5-.63,1.5-1.5,0-.75-.69-1.58-1.5-1.5-4.65.48-9.33-.4-13.45-2.62-1.7-.92-3.22,1.67-1.51,2.59h0Z" stroke-width="0"/>
  </g>
  <path d="m72.02,170.31c-.66,9.98,6.29,18.49,13.75,24.25,9.41,7.27,21.07,11.85,32.82,13.47,10.91,1.5,21.77-.06,31.72-4.83,10.69-5.13,17.99-14.81,23.96-24.75,2.41-4.02,4.64-8.07,5.67-12.69.83-3.73.96-7.57.46-11.36s-1.61-8-3.61-11.42c-.87-1.5-3.21-.14-2.33,1.36,5.08,8.69,4.49,20.28-.27,28.89-5.54,10-12.39,20.4-22.54,26.22-18.81,10.78-42.87,7.05-60.5-4.39-8.31-5.39-17.13-14.04-16.42-24.77.11-1.73-2.58-1.73-2.7,0h0v.02Z" stroke-width="0"/>
  <path d="m116.4,220.97c9.9-1.02,19.64-3.09,29.08-6.25,1.64-.55.94-3.15-.72-2.6-9.2,3.08-18.71,5.16-28.36,6.15-1.71.18-1.73,2.87,0,2.7h0Z" stroke-width="0"/>
  <path d="m169.37,374.04c12.2.09,24.24-2.64,35.24-7.93,1.56-.75.2-3.08-1.36-2.33-10.56,5.08-22.16,7.64-33.87,7.56-1.74-.01-1.74,2.68,0,2.7h-.01Z" stroke-width="0"/>
  <path d="m152.4,361.44c19.41-11.83,38.42-24.33,56.97-37.47,1.4-1,.06-3.33-1.36-2.33-18.55,13.14-37.55,25.64-56.97,37.47-1.48.9-.13,3.23,1.36,2.33h0Z" stroke-width="0"/>
  <path d="m52.97,106.33c-2.3,4.94-6.51,8.63-11.76,10.16l1.31,2.25c3.7-2.93,4.76-7.93,4.12-12.42-.83-5.8-4.27-10.85-6.41-16.21-4.39-10.97-5.89-23.23-2.58-34.7,1.75-6.04,4.77-11.66,9.01-16.31,1.17-1.28-.73-3.19-1.91-1.91-7.25,7.94-11.13,18.42-11.58,29.11-.25,5.88.53,11.81,2.08,17.47s4.23,10.98,6.65,16.43,3.91,12.5-1.3,16.63c-1.09.86.1,2.61,1.31,2.25,5.87-1.71,10.79-5.85,13.38-11.4.73-1.56-1.59-2.93-2.33-1.36h0Z" stroke-width="0"/>
  <path d="m48.5,38.72c1.08-10.71,9.75-19.13,18.26-24.78,9.08-6.02,19.66-9.74,30.48-10.94,15.48-1.72,31.72,2.07,45.37,9.43,8.67,4.68,16.39,11.14,21.57,19.59.91,1.48,3.24.12,2.33-1.36-9.49-15.48-26.75-24.56-44-28.6-18.83-4.41-38.89-1.81-55.46,8.49-10.07,6.26-20,15.76-21.25,28.17-.17,1.73,2.52,1.71,2.7,0h0Z" stroke-width="0"/>
  <path d="m160.63,102.68c5.83-7.19,10.45-15.35,12.75-24.36,2.41-9.46,2.15-19.36-.05-28.82-1.52-6.52-3.94-12.79-6.82-18.83-.75-1.56-3.07-.2-2.33,1.36,4.58,9.58,7.9,19.94,8.21,30.62.26,8.85-1.62,17.64-5.54,25.58-2.21,4.48-4.98,8.67-8.13,12.55-1.08,1.34.81,3.26,1.91,1.91h0Z" stroke-width="0"/>
  <path d="m154.94,19.72c9.95-4,20.93-1.25,29.48,4.73,9.61,6.73,15.21,17.4,18.28,28.49,3.01,10.87,4.11,22.32,4.21,33.57s-.44,21.97.74,32.88c.56,5.14,1.3,10.8,3.86,15.38s7.38,7.4,12.8,6.79c1.71-.19,1.72-2.89,0-2.7-11.74,1.32-13.44-13.14-14.18-21.69-.94-10.99-.35-22.04-.56-33.06-.21-11.21-1.52-22.75-4.74-33.51s-8.88-20.93-18.05-27.76c-9.19-6.84-21.61-10.13-32.56-5.72-1.59.64-.9,3.25.72,2.6h0Z" stroke-width="0"/>
  <path d="m164.04,94c-2.02,10.83.42,22.31,6.13,31.68s14.81,15.12,25.22,17.72c6.34,1.59,12.92,1.81,19.36.75,1.71-.28.98-2.88-.72-2.6-10.58,1.75-21.7-.5-30.78-6.2-8.19-5.13-13.38-13.76-15.81-22.99-1.52-5.75-1.89-11.79-.8-17.65.32-1.7-2.28-2.42-2.6-.72h0Z" stroke-width="0"/>
  <path d="m183.98,121.04c4.69,6.96,9.64,14.28,16.95,18.73,6.67,4.06,15.4,5.39,22.38,1.35,1.5-.87.15-3.2-1.36-2.33-6.47,3.74-14.58,2.05-20.54-1.92-6.43-4.28-10.85-10.9-15.1-17.2-.96-1.43-3.3-.08-2.33,1.36h0Z" stroke-width="0"/>
  <path d="m55.96,327.01l.29-43.58c2.95-3.87.87,20.21,3.4,29.69,2.52,9.48,2.39,10.52,2.39,10.52l-6.08,3.37Z" stroke-width="0"/>
  <path d="m261.56,308.91c.3,0,18.45-18.99,21.86-28.44,0,0-19.77,20.54-22.53,21.95l-2.77,1.41,3.44,5.08Z" stroke-width="0"/>
  <path d="m167.9,468.28s23.18-12.09,28.54-15.85,16.1-7.4,30.52-12.56,31.56-14.97,31.56-14.97l-1.08-6.34s-37.15,21.42-43.84,23.51-16.67,6.44-21.27,10.43-24.42,15.79-24.42,15.79h-.01Z" stroke-width="0"/>
  <path d="m84.11,402.53l-2.67,4.9s7.51,9.63,18.01,13.36c10.5,3.73,13.02,4.11,13.02,4.11,0,0-15.33-7.93-20.19-12.18s-8.17-10.2-8.17-10.2h0Z" stroke-width="0"/>
</svg>